%TF.GenerationSoftware,KiCad,Pcbnew,10.0.1*%
%TF.CreationDate,2026-08-18T10:46:05+02:00*%
%TF.ProjectId,MMS3_ESP32-C6,4d4d5333-5f45-4535-9033-322d43362e6b,Version 1.0*%
%TF.SameCoordinates,Original*%
%TF.FileFunction,Copper,L4,Bot*%
%TF.FilePolarity,Positive*%
%FSLAX46Y46*%
G04 Gerber Fmt 4.6, Leading zero omitted, Abs format (unit mm)*
G04 Created by KiCad (PCBNEW 10.0.1) date 2026-08-18 10:46:05*
%MOMM*%
%LPD*%
G01*
G04 APERTURE LIST*
G04 Aperture macros list*
%AMRoundRect*
0 Rectangle with rounded corners*
0 $1 Rounding radius*
0 $2 $3 $4 $5 $6 $7 $8 $9 X,Y pos of 4 corners*
0 Add a 4 corners polygon primitive as box body*
4,1,4,$2,$3,$4,$5,$6,$7,$8,$9,$2,$3,0*
0 Add four circle primitives for the rounded corners*
1,1,$1+$1,$2,$3*
1,1,$1+$1,$4,$5*
1,1,$1+$1,$6,$7*
1,1,$1+$1,$8,$9*
0 Add four rect primitives between the rounded corners*
20,1,$1+$1,$2,$3,$4,$5,0*
20,1,$1+$1,$4,$5,$6,$7,0*
20,1,$1+$1,$6,$7,$8,$9,0*
20,1,$1+$1,$8,$9,$2,$3,0*%
G04 Aperture macros list end*
%TA.AperFunction,ComponentPad*%
%ADD10R,0.900000X2.000000*%
%TD*%
%TA.AperFunction,ComponentPad*%
%ADD11RoundRect,1.025000X1.025000X1.025000X-1.025000X1.025000X-1.025000X-1.025000X1.025000X-1.025000X0*%
%TD*%
%TA.AperFunction,ComponentPad*%
%ADD12C,4.100000*%
%TD*%
%TA.AperFunction,ComponentPad*%
%ADD13O,1.600000X1.600000*%
%TD*%
%TA.AperFunction,ComponentPad*%
%ADD14O,3.000000X2.000000*%
%TD*%
%TA.AperFunction,ComponentPad*%
%ADD15O,1.000000X2.100000*%
%TD*%
%TA.AperFunction,ComponentPad*%
%ADD16O,1.000000X1.800000*%
%TD*%
%TA.AperFunction,ComponentPad*%
%ADD17C,1.600000*%
%TD*%
%TA.AperFunction,HeatsinkPad*%
%ADD18R,1.800000X3.100000*%
%TD*%
%TA.AperFunction,ComponentPad*%
%ADD19RoundRect,0.249999X0.525001X-0.525001X0.525001X0.525001X-0.525001X0.525001X-0.525001X-0.525001X0*%
%TD*%
%TA.AperFunction,ComponentPad*%
%ADD20C,1.550000*%
%TD*%
%TA.AperFunction,ComponentPad*%
%ADD21RoundRect,0.200100X-0.949900X0.949900X-0.949900X-0.949900X0.949900X-0.949900X0.949900X0.949900X0*%
%TD*%
%TA.AperFunction,ComponentPad*%
%ADD22C,2.500000*%
%TD*%
%TA.AperFunction,ComponentPad*%
%ADD23C,3.100000*%
%TD*%
%TA.AperFunction,ComponentPad*%
%ADD24C,1.800000*%
%TD*%
%TA.AperFunction,ComponentPad*%
%ADD25C,2.000000*%
%TD*%
%TA.AperFunction,ComponentPad*%
%ADD26R,1.500000X1.500000*%
%TD*%
%TA.AperFunction,ComponentPad*%
%ADD27C,1.500000*%
%TD*%
%TA.AperFunction,ComponentPad*%
%ADD28C,2.300000*%
%TD*%
%TA.AperFunction,ComponentPad*%
%ADD29C,1.400000*%
%TD*%
%TA.AperFunction,ComponentPad*%
%ADD30RoundRect,0.190500X0.444500X-1.079500X0.444500X1.079500X-0.444500X1.079500X-0.444500X-1.079500X0*%
%TD*%
%TA.AperFunction,SMDPad,CuDef*%
%ADD31C,1.000000*%
%TD*%
%TA.AperFunction,ViaPad*%
%ADD32C,0.500000*%
%TD*%
%TA.AperFunction,Conductor*%
%ADD33C,0.200000*%
%TD*%
%TA.AperFunction,Conductor*%
%ADD34C,0.130000*%
%TD*%
G04 APERTURE END LIST*
D10*
%TO.P,J7,*%
%TO.N,*%
X137750000Y-123850000D03*
X124250000Y-123850000D03*
D11*
%TO.P,J7,1,Pin_1_1*%
%TO.N,GND*%
X127400000Y-117850000D03*
D12*
%TO.P,J7,2,Pin_2_2*%
%TO.N,BRD_VIN*%
X134600000Y-117850000D03*
%TD*%
D13*
%TO.P,SW1,1,1_1*%
%TO.N,unconnected-(SW1-Pad1)*%
X194100000Y-121750000D03*
%TO.P,SW1,2,2_2*%
%TO.N,+5V*%
X194100000Y-119750000D03*
%TO.P,SW1,3,3_3*%
%TO.N,/Slide-SW/SEL*%
X194100000Y-117750000D03*
D14*
%TO.P,SW1,4,4_4*%
%TO.N,GND*%
X194100000Y-115600000D03*
%TO.P,SW1,5,5_5*%
X194100000Y-123900000D03*
%TD*%
D15*
%TO.P,J4,SH,SHIELD_SH*%
%TO.N,Net-(J4-SHIELD)*%
X177370000Y-125200000D03*
D16*
X177370000Y-129380000D03*
D15*
X186010000Y-125200000D03*
D16*
X186010000Y-129380000D03*
%TD*%
D17*
%TO.P,LED2,1*%
%TO.N,Net-(LED2-Pad1)*%
X194528255Y-100313600D03*
%TO.P,LED2,2*%
%TO.N,GND*%
X194528255Y-102853600D03*
%TO.P,LED2,3*%
%TO.N,Net-(LED2-Pad3)*%
X191988255Y-100313600D03*
%TO.P,LED2,4*%
%TO.N,GND*%
X191988255Y-102853600D03*
%TD*%
D18*
%TO.P,U2,9,GND_9*%
%TO.N,GND*%
X104650000Y-107400000D03*
%TD*%
D19*
%TO.P,J1,a1,a1_a1*%
%TO.N,/ChainBus + ALtmode/Altmode1*%
X129950000Y-93280000D03*
D20*
%TO.P,J1,a2,a2_a2*%
%TO.N,/ChainBus + ALtmode/Altmode2*%
X132490000Y-93280000D03*
%TO.P,J1,a3,a3_a3*%
%TO.N,/ChainBus + ALtmode/Altmode3*%
X135030000Y-93280000D03*
%TO.P,J1,a4,a4_a4*%
%TO.N,/ChainBus + ALtmode/Altmode4*%
X137570000Y-93280000D03*
%TO.P,J1,a5,a5_a5*%
%TO.N,/ChainBus + ALtmode/Altmode5*%
X140110000Y-93280000D03*
%TO.P,J1,a6,a6_a6*%
%TO.N,/ChainBus + ALtmode/Altmode6*%
X142650000Y-93280000D03*
%TO.P,J1,a7,a7_a7*%
%TO.N,/ChainBus + ALtmode/Altmode7*%
X145190000Y-93280000D03*
%TO.P,J1,a8,a8_a8*%
%TO.N,/ChainBus + ALtmode/Altmode8*%
X147730000Y-93280000D03*
%TO.P,J1,a9,a9_a9*%
%TO.N,/ChainBus + ALtmode/Altmode9*%
X150270000Y-93280000D03*
%TO.P,J1,a10,a10_a10*%
%TO.N,/ChainBus + ALtmode/Altmode10*%
X152810000Y-93280000D03*
%TO.P,J1,a11,a11_a11*%
%TO.N,/ChainBus + ALtmode/Altmode11*%
X155350000Y-93280000D03*
%TO.P,J1,a12,a12_a12*%
%TO.N,/ChainBus + ALtmode/Altmode12*%
X157890000Y-93280000D03*
%TO.P,J1,a13,a13_a13*%
%TO.N,/ChainBus + ALtmode/Altmode13*%
X160430000Y-93280000D03*
%TO.P,J1,a14,a14_a14*%
%TO.N,/ChainBus + ALtmode/Altmode14*%
X162970000Y-93280000D03*
%TO.P,J1,a15,a15_a15*%
%TO.N,/ChainBus + ALtmode/Altmode15*%
X165510000Y-93280000D03*
%TO.P,J1,a16,a16_a16*%
%TO.N,/ChainBus + ALtmode/Altmode16*%
X168050000Y-93280000D03*
%TO.P,J1,b1,b1_b1*%
%TO.N,/ChainBus + ALtmode/Chainbus_addr1*%
X129950000Y-90740000D03*
%TO.P,J1,b2,b2_b2*%
%TO.N,/ChainBus + ALtmode/Chainbus_addr2*%
X132490000Y-90740000D03*
%TO.P,J1,b3,b3_b3*%
%TO.N,/ChainBus + ALtmode/Chainbus_addr3*%
X135030000Y-90740000D03*
%TO.P,J1,b4,b4_b4*%
%TO.N,/ChainBus + ALtmode/Chainbus_addr4*%
X137570000Y-90740000D03*
%TO.P,J1,b5,b5_b5*%
%TO.N,/ChainBus + ALtmode/Chainbus_addr5*%
X140110000Y-90740000D03*
%TO.P,J1,b6,b6_b6*%
%TO.N,/ChainBus + ALtmode/Chainbus_addr6*%
X142650000Y-90740000D03*
%TO.P,J1,b7,b7_b7*%
%TO.N,/ChainBus + ALtmode/Chainbus_addr7*%
X145190000Y-90740000D03*
%TO.P,J1,b8,b8_b8*%
%TO.N,/ChainBus + ALtmode/Chainbus_addr8*%
X147730000Y-90740000D03*
%TO.P,J1,b9,b9_b9*%
%TO.N,/ChainBus + ALtmode/Chainbus.SDA*%
X150270000Y-90740000D03*
%TO.P,J1,b10,b10_b10*%
%TO.N,/ChainBus + ALtmode/Chainbus.SCL*%
X152810000Y-90740000D03*
%TO.P,J1,b11,b11_b11*%
%TO.N,/ChainBus + ALtmode/Chainbus.CS*%
X155350000Y-90740000D03*
%TO.P,J1,b12,b12_b12*%
%TO.N,/ChainBus + ALtmode/Chainbus.SCK*%
X157890000Y-90740000D03*
%TO.P,J1,b13,b13_b13*%
%TO.N,/ChainBus + ALtmode/Chainbus.MOSI*%
X160430000Y-90740000D03*
%TO.P,J1,b14,b14_b14*%
%TO.N,/ChainBus + ALtmode/Chainbus.MISO*%
X162970000Y-90740000D03*
%TO.P,J1,b15,b15_b15*%
%TO.N,/ChainBus + ALtmode/Chainbus.RX*%
X165510000Y-90740000D03*
%TO.P,J1,b16,b16_b16*%
%TO.N,/ChainBus + ALtmode/Chainbus.TX*%
X168050000Y-90740000D03*
%TO.P,J1,c1,c1_c1*%
%TO.N,GND*%
X129950000Y-88200000D03*
%TO.P,J1,c2,c2_c2*%
%TO.N,+5V*%
X132490000Y-88200000D03*
%TO.P,J1,c3,c3_c3*%
X135030000Y-88200000D03*
%TO.P,J1,c4,c4_c4*%
%TO.N,GND*%
X137570000Y-88200000D03*
%TO.P,J1,c5,c5_c5*%
%TO.N,BRD_VIN*%
X140110000Y-88200000D03*
%TO.P,J1,c6,c6_c6*%
X142650000Y-88200000D03*
%TO.P,J1,c7,c7_c7*%
X145190000Y-88200000D03*
%TO.P,J1,c8,c8_c8*%
X147730000Y-88200000D03*
%TO.P,J1,c9,c9_c9*%
%TO.N,GND*%
X150270000Y-88200000D03*
%TO.P,J1,c10,c10_c10*%
X152810000Y-88200000D03*
%TO.P,J1,c11,c11_c11*%
X155350000Y-88200000D03*
%TO.P,J1,c12,c12_c12*%
X157890000Y-88200000D03*
%TO.P,J1,c13,c13_c13*%
%TO.N,unconnected-(J1-Padc13)*%
X160430000Y-88200000D03*
%TO.P,J1,c14,c14_c14*%
%TO.N,unconnected-(J1-Padc14)*%
X162970000Y-88200000D03*
%TO.P,J1,c15,c15_c15*%
%TO.N,+12V stby*%
X165510000Y-88200000D03*
%TO.P,J1,c16,c16_c16*%
%TO.N,GND*%
X168050000Y-88200000D03*
%TD*%
D21*
%TO.P,J5,1,In_1*%
%TO.N,/ESP32-C6/ANT_CN*%
X194500583Y-94600000D03*
D22*
%TO.P,J5,2,Ext_2*%
%TO.N,GND*%
X197040583Y-92060000D03*
X191960583Y-92060000D03*
X197040583Y-97140000D03*
X191960583Y-97140000D03*
%TD*%
D23*
%TO.P,H1,1,1_1*%
%TO.N,GND*%
X103000000Y-86000000D03*
%TD*%
D24*
%TO.P,SW3,1,A_1*%
%TO.N,/ESP32-C6/EN*%
X179432500Y-119550000D03*
%TO.P,SW3,2,B_2*%
%TO.N,GND*%
X183932500Y-119550000D03*
D25*
%TO.P,SW3,3,C_3*%
X178182500Y-117050000D03*
%TO.P,SW3,4,D_4*%
X185182500Y-117050000D03*
%TD*%
D26*
%TO.P,J8,1,~_1*%
%TO.N,/CAN_TR.kicad_sch1/CAN.-*%
X170590000Y-124660000D03*
D27*
%TO.P,J8,2,~_2*%
%TO.N,/CAN_TR.kicad_sch1/CAN.+*%
X169574000Y-122880000D03*
%TO.P,J8,3,~_3*%
%TO.N,GND*%
X168558000Y-124660000D03*
%TO.P,J8,4,~_4*%
%TO.N,/CAN_TR.kicad_sch/CAN.-*%
X167542000Y-122880000D03*
%TO.P,J8,5,~_5*%
%TO.N,/CAN_TR.kicad_sch/CAN.+*%
X166526000Y-124660000D03*
%TO.P,J8,6,~_6*%
%TO.N,+12V stby*%
X165510000Y-122880000D03*
%TO.P,J8,7,~_7*%
%TO.N,/MMS_CONNECTOR_DOWNSTREAM/USB_MMS_CONN.D-*%
X164494000Y-124660000D03*
%TO.P,J8,8,~_8*%
%TO.N,/MMS_CONNECTOR_DOWNSTREAM/USB_MMS_CONN.D+*%
X163478000Y-122880000D03*
%TO.P,J8,9,~_9*%
%TO.N,GND*%
X173890000Y-118060000D03*
%TO.P,J8,10,~_10*%
%TO.N,Net-(J8-~-Pad10)*%
X171600000Y-118060000D03*
%TO.P,J8,11,~_11*%
%TO.N,GND*%
X162460000Y-118060000D03*
%TO.P,J8,12,~_12*%
%TO.N,Net-(J8-~-Pad12)*%
X160170000Y-118060000D03*
D28*
%TO.P,J8,SH,~_SH*%
%TO.N,Net-(C1-Pad1)*%
X175160000Y-123770000D03*
X158900000Y-123770000D03*
%TD*%
D25*
%TO.P,KEY1,0,0_0*%
%TO.N,GND*%
X195137500Y-112182500D03*
X195137500Y-105182500D03*
D29*
%TO.P,KEY1,1,1_1*%
%TO.N,/GPIO_Expander/GPIO9*%
X197377500Y-111192500D03*
%TO.P,KEY1,2,2_2*%
%TO.N,/GPIO_Expander/GPIO10*%
X197377500Y-109562500D03*
%TO.P,KEY1,3,3_3*%
%TO.N,+3V3*%
X197377500Y-107812500D03*
%TO.P,KEY1,4,4_4*%
X197377500Y-106182500D03*
%TD*%
D30*
%TO.P,C49,1*%
%TO.N,BRD_VIN*%
X110694952Y-90805459D03*
%TO.P,C49,2*%
%TO.N,GND*%
X115694952Y-90805459D03*
%TD*%
D26*
%TO.P,J9,1,~_1*%
%TO.N,/CAN_TR.kicad_sch1/CAN.-*%
X151690000Y-124660000D03*
D27*
%TO.P,J9,2,~_2*%
%TO.N,/CAN_TR.kicad_sch1/CAN.+*%
X150674000Y-122880000D03*
%TO.P,J9,3,~_3*%
%TO.N,GND*%
X149658000Y-124660000D03*
%TO.P,J9,4,~_4*%
%TO.N,/CAN_TR.kicad_sch/CAN.-*%
X148642000Y-122880000D03*
%TO.P,J9,5,~_5*%
%TO.N,/CAN_TR.kicad_sch/CAN.+*%
X147626000Y-124660000D03*
%TO.P,J9,6,~_6*%
%TO.N,+12V stby*%
X146610000Y-122880000D03*
%TO.P,J9,7,~_7*%
%TO.N,/MMS_CONNECTOR_UPSTREAM/USB_MMS_CONN.D-*%
X145594000Y-124660000D03*
%TO.P,J9,8,~_8*%
%TO.N,/MMS_CONNECTOR_UPSTREAM/USB_MMS_CONN.D+*%
X144578000Y-122880000D03*
%TO.P,J9,9,~_9*%
%TO.N,GND*%
X154990000Y-118060000D03*
%TO.P,J9,10,~_10*%
%TO.N,Net-(J9-~-Pad10)*%
X152700000Y-118060000D03*
%TO.P,J9,11,~_11*%
%TO.N,GND*%
X143560000Y-118060000D03*
%TO.P,J9,12,~_12*%
%TO.N,Net-(J9-~-Pad12)*%
X141270000Y-118060000D03*
D28*
%TO.P,J9,SH,~_SH*%
%TO.N,Net-(C2-Pad1)*%
X156260000Y-123770000D03*
X140000000Y-123770000D03*
%TD*%
D17*
%TO.P,LED1,1*%
%TO.N,Net-(LED1-Pad1)*%
X190686400Y-127628255D03*
%TO.P,LED1,2*%
%TO.N,GND*%
X188146400Y-127628255D03*
%TO.P,LED1,3*%
%TO.N,Net-(LED1-Pad3)*%
X190686400Y-125088255D03*
%TO.P,LED1,4*%
%TO.N,GND*%
X188146400Y-125088255D03*
%TD*%
D10*
%TO.P,J2,*%
%TO.N,*%
X121250000Y-123850000D03*
X107750000Y-123850000D03*
D11*
%TO.P,J2,1,Pin_1_1*%
%TO.N,GND*%
X118100000Y-117850000D03*
D12*
%TO.P,J2,2,Pin_2_2*%
%TO.N,BRD_VIN*%
X110900000Y-117850000D03*
%TD*%
D31*
%TO.P,TP1,1,1_1*%
%TO.N,/ChainBus + ALtmode/Altmode4*%
X141700000Y-97400000D03*
%TD*%
%TO.P,TP16,1,1_1*%
%TO.N,BRD_VIN*%
X103400000Y-113500000D03*
%TD*%
%TO.P,TP20,1,1_1*%
%TO.N,Net-(U2-RT{slash}CLK)*%
X104400000Y-111200000D03*
%TD*%
%TO.P,TP19,1,1_1*%
%TO.N,Net-(C41-Pad1)*%
X111200000Y-109000000D03*
%TD*%
%TO.P,TP4,1,1_1*%
%TO.N,/ChainBus + ALtmode/Altmode2*%
X138950000Y-99800000D03*
%TD*%
%TO.P,TP3,1,1_1*%
%TO.N,/ChainBus + ALtmode/Altmode1*%
X136950000Y-100450000D03*
%TD*%
%TO.P,TP18,1,1_1*%
%TO.N,Net-(U2-FB)*%
X108400000Y-109400000D03*
%TD*%
%TO.P,TP2,1,1_1*%
%TO.N,/ChainBus + ALtmode/Altmode3*%
X142475000Y-100725000D03*
%TD*%
%TO.P,TP17,1,1_1*%
%TO.N,Net-(U2-COMP)*%
X110200000Y-110800000D03*
%TD*%
D32*
%TO.N,GND*%
X176900000Y-123325000D03*
X121000000Y-118250000D03*
X125000000Y-95000000D03*
X146200000Y-109700000D03*
X153400000Y-84100000D03*
X163400000Y-83100000D03*
X156200000Y-105400000D03*
X121000000Y-117500000D03*
X123250000Y-118250000D03*
X123250000Y-117500000D03*
X115000000Y-87000000D03*
X104650000Y-106750000D03*
X150100000Y-106300000D03*
X103316016Y-102738943D03*
X104000000Y-103500000D03*
X153700000Y-103900000D03*
X154625000Y-113300000D03*
X189350000Y-112200000D03*
X117000000Y-93750000D03*
X157050000Y-115725000D03*
X152425000Y-109800000D03*
X155400000Y-105400000D03*
X192625000Y-110800000D03*
X154901858Y-109402237D03*
X124750000Y-119000000D03*
X185200000Y-109850000D03*
X158400000Y-84100000D03*
X143700000Y-100800000D03*
X142388169Y-115748881D03*
X106000000Y-87000000D03*
X121000000Y-95000000D03*
X145025000Y-115450000D03*
X156400000Y-83100000D03*
X103950000Y-106750000D03*
X153700000Y-104700000D03*
X163400000Y-84100000D03*
X190750000Y-88050000D03*
X107000000Y-84000000D03*
X160400000Y-84100000D03*
X183175441Y-113078992D03*
X176250000Y-128500000D03*
X160300000Y-108450000D03*
X150380000Y-111660000D03*
X160300000Y-100000000D03*
X141950000Y-108800000D03*
X162960000Y-112648405D03*
X115000000Y-89000000D03*
X123000000Y-110000000D03*
X107000000Y-83000000D03*
X107000000Y-86000000D03*
X100000000Y-130000000D03*
X176900000Y-122775000D03*
X100800000Y-119600000D03*
X123000000Y-95000000D03*
X116250000Y-93000000D03*
X179699997Y-105325000D03*
X197900000Y-113000000D03*
X104650000Y-107450000D03*
X141350000Y-109400000D03*
X103950000Y-106050000D03*
X164525000Y-106750000D03*
X189370000Y-103975000D03*
X125000000Y-89000000D03*
X122500000Y-118250000D03*
X163520941Y-113750000D03*
X157802583Y-108697417D03*
X107000000Y-87000000D03*
X115500000Y-95250000D03*
X185044119Y-108181066D03*
X123250000Y-116750000D03*
X122500000Y-116000000D03*
X175250000Y-109650000D03*
X124650000Y-106500000D03*
X189400003Y-85900000D03*
X124000000Y-119750000D03*
X116250000Y-93750000D03*
X155400000Y-83100000D03*
X103950000Y-107450000D03*
X109075000Y-110550000D03*
X167475000Y-114000000D03*
X161335322Y-111763220D03*
X154500000Y-105400000D03*
X119000000Y-89000000D03*
X158913907Y-111260057D03*
X124000000Y-116000000D03*
X176250000Y-109650000D03*
X123250000Y-116000000D03*
X177500000Y-123350000D03*
X153700000Y-103200000D03*
X160400000Y-83100000D03*
X100800000Y-121600000D03*
X121000000Y-91000000D03*
X140700000Y-109400000D03*
X100800000Y-117600000D03*
X154500000Y-103200000D03*
X122500000Y-117500000D03*
X159500000Y-100000000D03*
X187950000Y-107150000D03*
X165400000Y-83100000D03*
X101000000Y-131000000D03*
X103950000Y-108800000D03*
X155400000Y-84100000D03*
X161400000Y-83100000D03*
X122500000Y-119750000D03*
X121750000Y-118250000D03*
X100750000Y-125000000D03*
X123250000Y-119750000D03*
X175250000Y-108550000D03*
X155400000Y-103200000D03*
X121000000Y-116000000D03*
X100000000Y-125600000D03*
X100000000Y-124400000D03*
X122500000Y-119000000D03*
X179250000Y-109500000D03*
X156400000Y-84100000D03*
X156200000Y-104700000D03*
X100000000Y-83000000D03*
X107000000Y-85000000D03*
X125000000Y-110000000D03*
X100000000Y-84000000D03*
X121000000Y-87000000D03*
X126000000Y-111000000D03*
X160600000Y-104800000D03*
X100000000Y-123800000D03*
X146675000Y-109225000D03*
X105350000Y-108800000D03*
X121000000Y-97000000D03*
X158400000Y-83100000D03*
X101000000Y-83000000D03*
X100750000Y-125600000D03*
X118500000Y-94500000D03*
X165550000Y-110700000D03*
X124750000Y-116750000D03*
X121750000Y-117500000D03*
X184400000Y-111500000D03*
X123250000Y-106500000D03*
X121750000Y-116750000D03*
X162400000Y-84100000D03*
X147698468Y-115387500D03*
X155400000Y-104700000D03*
X148451419Y-114341902D03*
X117750000Y-95250000D03*
X115500000Y-93750000D03*
X157400000Y-83100000D03*
X124000000Y-117500000D03*
X182550000Y-112450000D03*
X106000000Y-84000000D03*
X115500000Y-94500000D03*
X153400000Y-83100000D03*
X176250000Y-108550000D03*
X105350000Y-107450000D03*
X123000000Y-97000000D03*
X103950000Y-108100000D03*
X148700000Y-106249997D03*
X183475000Y-121350000D03*
X103316016Y-101238943D03*
X159200000Y-108450000D03*
X190500000Y-113550000D03*
X141350000Y-108800000D03*
X106000000Y-83000000D03*
X104000000Y-101250000D03*
X175750000Y-109100000D03*
X126000000Y-110000000D03*
X161400000Y-84100000D03*
X140700000Y-108800000D03*
X184075000Y-121925000D03*
X157400000Y-84100000D03*
X169049978Y-104975878D03*
X164400000Y-83100000D03*
X118500000Y-93750000D03*
X124000000Y-111000000D03*
X123250000Y-119000000D03*
X142750000Y-111750000D03*
X123000000Y-89000000D03*
X159400000Y-83100000D03*
X189350000Y-111300000D03*
X161884752Y-113525134D03*
X116250000Y-94500000D03*
X117750000Y-94500000D03*
X115500000Y-93000000D03*
X125350000Y-106500000D03*
X156200000Y-103900000D03*
X125000000Y-93000000D03*
X163500000Y-110712500D03*
X175250000Y-112650003D03*
X117000000Y-93000000D03*
X186650000Y-122075000D03*
X123000000Y-87000000D03*
X100000000Y-125000000D03*
X105000000Y-83000000D03*
X103316016Y-101988943D03*
X176050000Y-129500000D03*
X153700000Y-105400000D03*
X104650000Y-106050000D03*
X177400000Y-110750000D03*
X155400000Y-103900000D03*
X177500000Y-122800000D03*
X106000000Y-85000000D03*
X160400000Y-104050000D03*
X121000000Y-116750000D03*
X150321380Y-114460689D03*
X121750000Y-116000000D03*
X124750000Y-117500000D03*
X103316016Y-103488943D03*
X162400000Y-83100000D03*
X179850000Y-91900000D03*
X154500000Y-103900000D03*
X124750000Y-119750000D03*
X187220000Y-96250000D03*
X104000000Y-102750000D03*
X125000000Y-97000000D03*
X154400000Y-84100000D03*
X159400000Y-84100000D03*
X121750000Y-119000000D03*
X161375000Y-100450000D03*
X124000000Y-118250000D03*
X100000000Y-131000000D03*
X138650000Y-104725000D03*
X124000000Y-119000000D03*
X116250000Y-95250000D03*
X118500000Y-95250000D03*
X105350000Y-106050000D03*
X174900000Y-98675003D03*
X124750000Y-116000000D03*
X123950000Y-106500000D03*
X124000000Y-116750000D03*
X188550000Y-112200000D03*
X187903707Y-114547080D03*
X187045000Y-100325000D03*
X183475000Y-121900000D03*
X117750000Y-93750000D03*
X105350000Y-108100000D03*
X117000000Y-87000000D03*
X184075000Y-121375000D03*
X105350000Y-106750000D03*
X109875000Y-106870000D03*
X117000000Y-94500000D03*
X121000000Y-119000000D03*
X121000000Y-89000000D03*
X119000000Y-87000000D03*
X121000000Y-93000000D03*
X154400000Y-83100000D03*
X122500000Y-116750000D03*
X124000000Y-110000000D03*
X125000000Y-87000000D03*
X176800000Y-101650000D03*
X104650000Y-108100000D03*
X143658842Y-116406860D03*
X141950000Y-109400000D03*
X123000000Y-111000000D03*
X168566415Y-105457187D03*
X117000000Y-95250000D03*
X161106577Y-105887185D03*
X183720000Y-96250000D03*
X104000000Y-102000000D03*
X182550000Y-91650000D03*
X162239539Y-115485679D03*
X181500000Y-122600000D03*
X156850000Y-128750000D03*
X154500000Y-104700000D03*
X146781860Y-109866158D03*
X125000000Y-111000000D03*
X156850000Y-126500000D03*
X121000000Y-119750000D03*
X118500000Y-93000000D03*
X147225000Y-112299997D03*
X189150000Y-96310000D03*
X124750000Y-118250000D03*
X164400000Y-84100000D03*
X117000000Y-89000000D03*
X156200000Y-103200000D03*
X104650000Y-108800000D03*
X117750000Y-93000000D03*
X121750000Y-119750000D03*
%TO.N,BRD_VIN*%
X107000000Y-93000000D03*
X146900000Y-84250000D03*
X143150000Y-84250000D03*
X100600000Y-108500000D03*
X140150000Y-83500000D03*
X107400000Y-113300000D03*
X108150000Y-114050000D03*
X105150000Y-113300000D03*
X107750000Y-95250000D03*
X146150000Y-83500000D03*
X108500000Y-93000000D03*
X105900000Y-114050000D03*
X106650000Y-114050000D03*
X142400000Y-83500000D03*
X106650000Y-114800000D03*
X148400000Y-85000000D03*
X105150000Y-114050000D03*
X108900000Y-113300000D03*
X100600000Y-106250000D03*
X148400000Y-84250000D03*
X99800000Y-107000000D03*
X145400000Y-84250000D03*
X110750000Y-93000000D03*
X111500000Y-93000000D03*
X105900000Y-113300000D03*
X140900000Y-84250000D03*
X142400000Y-84250000D03*
X109250000Y-93750000D03*
X110000000Y-94500000D03*
X106650000Y-113300000D03*
X147650000Y-84250000D03*
X105150000Y-114800000D03*
X143900000Y-83500000D03*
X145400000Y-85000000D03*
X107000000Y-94500000D03*
X100600000Y-107750000D03*
X108150000Y-114800000D03*
X140150000Y-84250000D03*
X109250000Y-95250000D03*
X107750000Y-93750000D03*
X107000000Y-95250000D03*
X110000000Y-95250000D03*
X147650000Y-85000000D03*
X107750000Y-93000000D03*
X140900000Y-85000000D03*
X107000000Y-93750000D03*
X143900000Y-85000000D03*
X110000000Y-93000000D03*
X144650000Y-85000000D03*
X110000000Y-93750000D03*
X108500000Y-93750000D03*
X143150000Y-83500000D03*
X111500000Y-93750000D03*
X141650000Y-85000000D03*
X146150000Y-84250000D03*
X141650000Y-84250000D03*
X99800000Y-107750000D03*
X110750000Y-94500000D03*
X100600000Y-107000000D03*
X107400000Y-114800000D03*
X110750000Y-95250000D03*
X108900000Y-114050000D03*
X109250000Y-93000000D03*
X144650000Y-83500000D03*
X140900000Y-83500000D03*
X111500000Y-95250000D03*
X147650000Y-83500000D03*
X108500000Y-94500000D03*
X143900000Y-84250000D03*
X111500000Y-94500000D03*
X99800000Y-106250000D03*
X142400000Y-85000000D03*
X105900000Y-114800000D03*
X108150000Y-113300000D03*
X99800000Y-108500000D03*
X146150000Y-85000000D03*
X107400000Y-114050000D03*
X144650000Y-84250000D03*
X108500000Y-95250000D03*
X146900000Y-85000000D03*
X148400000Y-83500000D03*
X110750000Y-93750000D03*
X107750000Y-94500000D03*
X145400000Y-83500000D03*
X146900000Y-83500000D03*
X141650000Y-83500000D03*
X143150000Y-85000000D03*
X108900000Y-114800000D03*
X140150000Y-85000000D03*
X109250000Y-94500000D03*
%TO.N,/ChainBus + ALtmode/Altmode4*%
X151590000Y-103290000D03*
X145850000Y-110350000D03*
X142050000Y-102450000D03*
X142395000Y-98105000D03*
%TO.N,+5V*%
X166157149Y-112825000D03*
X144025000Y-109900000D03*
X136950000Y-109050000D03*
X148235195Y-109763461D03*
X136300000Y-109050000D03*
X166769405Y-112992351D03*
X175250000Y-112000000D03*
X174500000Y-113350000D03*
%TO.N,/ChainBus + ALtmode/Altmode3*%
X143400007Y-109721430D03*
X151590000Y-104990000D03*
%TO.N,+3V3*%
X187150000Y-107650000D03*
X155500000Y-107753291D03*
X157775000Y-108000000D03*
X142350000Y-115100000D03*
X187817231Y-107786298D03*
X184050000Y-88350000D03*
X139350000Y-111950000D03*
X158650000Y-96650000D03*
X159244091Y-104363635D03*
X147750000Y-105200000D03*
X179750000Y-87300000D03*
X158800000Y-111900000D03*
X147225000Y-112950000D03*
X138650000Y-111350000D03*
X139350000Y-111350000D03*
X161000000Y-101425000D03*
X159900000Y-99050000D03*
X150941493Y-105100000D03*
X182300000Y-86300000D03*
X138650000Y-111950000D03*
X190769119Y-109531066D03*
X166062297Y-112142034D03*
X174900000Y-98025000D03*
X180350000Y-105325000D03*
%TO.N,/CAN_TR.kicad_sch/CAN.-*%
X143810000Y-115709936D03*
%TO.N,/CAN_TR.kicad_sch/CAN.+*%
X144300000Y-116300000D03*
%TO.N,/USB switch/SEL*%
X187900000Y-116900000D03*
X191050000Y-116900000D03*
X159153554Y-113250948D03*
%TO.N,/GPIO_Expander/A1*%
X187436805Y-108417171D03*
X185744119Y-110581066D03*
%TO.N,/GPIO_Expander/GPIO0*%
X185075000Y-111100000D03*
X190700000Y-107600000D03*
%TO.N,/GPIO_Expander/GPIO1*%
X191500000Y-107825000D03*
X185700000Y-111606066D03*
%TO.N,/ChainBus + ALtmode/Chainbus.SCL*%
X187200000Y-90350000D03*
X156652925Y-99761626D03*
X189850000Y-106750000D03*
X179750000Y-85750000D03*
%TO.N,/ChainBus + ALtmode/Chainbus.SDA*%
X187250000Y-91700000D03*
X189350000Y-107500000D03*
X156721446Y-100471446D03*
X179750000Y-86550000D03*
%TO.N,Net-(C41-Pad1)*%
X111100000Y-108900000D03*
%TO.N,Net-(J9-~-Pad10)*%
X181338185Y-115017197D03*
%TO.N,Net-(U6-STB)*%
X147174998Y-111625000D03*
X150300000Y-113600000D03*
%TO.N,/ESP32-C6/USB.D+*%
X152990418Y-98659582D03*
X169014633Y-105927935D03*
%TO.N,/ChainBus + ALtmode/Chainbus.RX*%
X157300000Y-99700000D03*
X157353554Y-101253554D03*
%TO.N,/ESP32-C6/EN*%
X170850000Y-100650000D03*
X163050000Y-102100000D03*
X182400000Y-113400000D03*
X158190000Y-105190000D03*
X166200000Y-100650000D03*
%TO.N,Net-(U2-RT{slash}CLK)*%
X104200000Y-111410000D03*
%TO.N,Net-(J8-~-Pad12)*%
X181220711Y-115656496D03*
%TO.N,/ChainBus + ALtmode/Chainbus_addr1*%
X159467930Y-103187541D03*
X151256838Y-98235818D03*
%TO.N,/ChainBus + ALtmode/Chainbus_addr2*%
X158944443Y-102802230D03*
X150828832Y-97746625D03*
%TO.N,/ChainBus + ALtmode/Chainbus_addr3*%
X158444443Y-102315745D03*
X150814678Y-97096777D03*
%TO.N,/ChainBus + ALtmode/Chainbus_addr4*%
X157925000Y-101925000D03*
X150750000Y-96450000D03*
%TO.N,/ChainBus + ALtmode/Chainbus_addr7*%
X163125000Y-96025000D03*
X169600000Y-102650000D03*
X156903554Y-96578554D03*
X156100000Y-95775000D03*
%TO.N,/ESP32-C6/UART0.RX*%
X149070782Y-107872452D03*
X179250000Y-101550000D03*
%TO.N,/ChainBus + ALtmode/Chainbus.SCK*%
X152600000Y-106900000D03*
%TO.N,/ChainBus + ALtmode/Chainbus.MOSI*%
X152782043Y-107585624D03*
%TO.N,/ChainBus + ALtmode/Chainbus.MISO*%
X152912029Y-108222494D03*
%TO.N,/ChainBus + ALtmode/Altmode2*%
X147500000Y-108225000D03*
X143050000Y-108250000D03*
X152004688Y-108729367D03*
X147357398Y-110168250D03*
X153318944Y-108729366D03*
%TO.N,/ChainBus + ALtmode/Altmode1*%
X153941873Y-108915000D03*
X151932856Y-109375385D03*
X143050000Y-108975000D03*
%TO.N,/ChainBus + ALtmode/Chainbus.CS*%
X154793722Y-108761294D03*
X162425000Y-94975000D03*
%TO.N,/USBC_CONN/CC1*%
X180677617Y-126850000D03*
X180666447Y-125633553D03*
%TO.N,Net-(U2-COMP)*%
X110196446Y-110696446D03*
%TO.N,/USBC_CONN/VBUS*%
X170300000Y-119600000D03*
X170700000Y-112975000D03*
X170700000Y-114175000D03*
X170300000Y-120250000D03*
X170700000Y-113625000D03*
X170300000Y-120800000D03*
%TO.N,/USBC_CONN/CC2*%
X183073311Y-125596744D03*
X183100000Y-126950000D03*
%TO.N,Net-(U2-FB)*%
X108400000Y-109400000D03*
%TO.N,/I2C_Flash/A2*%
X182800000Y-90400000D03*
X177150000Y-90050000D03*
%TO.N,/USB switch/USB_OUT2.D-*%
X162565539Y-113710945D03*
X161400000Y-113060000D03*
%TO.N,/USB switch/USB_OUT2.D+*%
X163061228Y-113290475D03*
X161400000Y-112409997D03*
%TO.N,/UART_Programmer/~{DTR}*%
X172350000Y-102450000D03*
X173450000Y-102450000D03*
%TO.N,/ESP32-C6/USB.D-*%
X169474254Y-105468314D03*
X152530797Y-99119203D03*
%TO.N,/ESP32-C6/UART0.TX*%
X148336889Y-107825608D03*
X178050000Y-104450000D03*
%TO.N,/ESP32-C6/SPID*%
X143290000Y-104590000D03*
X148490000Y-104590000D03*
%TO.N,Net-(J8-~-Pad10)*%
X181228554Y-116371446D03*
%TO.N,/CAN_TR.kicad_sch1/CAN.-*%
X149095391Y-114253560D03*
%TO.N,/CAN_TR.kicad_sch1/CAN.+*%
X149740000Y-114170000D03*
%TO.N,/ESP32-C6/SPICLK*%
X148490000Y-103790000D03*
X144590000Y-103790000D03*
%TO.N,Net-(J9-~-Pad12)*%
X158900000Y-118650000D03*
X146650000Y-121150000D03*
X181175000Y-117025000D03*
%TD*%
%TO.N,/ChainBus + ALtmode/Altmode4*%
D33*
X145990000Y-101700000D02*
X142395000Y-98105000D01*
X142050000Y-102450000D02*
X142050000Y-105025000D01*
X142050000Y-105025000D02*
X144225000Y-107200000D01*
X142395000Y-98105000D02*
X137570000Y-93280000D01*
X150000000Y-101700000D02*
X145990000Y-101700000D01*
X151590000Y-103290000D02*
X150000000Y-101700000D01*
X144225000Y-108725000D02*
X145850000Y-110350000D01*
X144225000Y-107200000D02*
X144225000Y-108725000D01*
%TO.N,/ChainBus + ALtmode/Altmode3*%
X141225000Y-105200000D02*
X143650000Y-107625000D01*
X151590000Y-104990000D02*
X149200000Y-102600000D01*
X143650000Y-107625000D02*
X143650000Y-109471437D01*
X149200000Y-102600000D02*
X144350000Y-102600000D01*
X141225000Y-99475000D02*
X135030000Y-93280000D01*
X144350000Y-102600000D02*
X142625000Y-100875000D01*
X142625000Y-100875000D02*
X141225000Y-99475000D01*
X143650000Y-109471437D02*
X143400007Y-109721430D01*
X141225000Y-99475000D02*
X141225000Y-105200000D01*
%TO.N,/CAN_TR.kicad_sch/CAN.-*%
D34*
X143810000Y-115709936D02*
X144367546Y-115709936D01*
X144367546Y-115709936D02*
X145400000Y-116742390D01*
X145400000Y-118341654D02*
X147956000Y-120897654D01*
X148642000Y-122880000D02*
X148642000Y-125008718D01*
X152655000Y-124111654D02*
X155731654Y-121035000D01*
X147956000Y-122194000D02*
X148642000Y-122880000D01*
X148642000Y-125008718D02*
X149258283Y-125625000D01*
X149258283Y-125625000D02*
X152655000Y-125625000D01*
X145400000Y-116742390D02*
X145400000Y-118341654D01*
X147956000Y-120897654D02*
X147956000Y-122194000D01*
X152655000Y-125625000D02*
X152655000Y-124111654D01*
X166757660Y-121035000D02*
X167542000Y-121819340D01*
X155731654Y-121035000D02*
X166757660Y-121035000D01*
X167542000Y-121819340D02*
X167542000Y-122880000D01*
%TO.N,/CAN_TR.kicad_sch/CAN.+*%
X145100000Y-117100000D02*
X144300000Y-116300000D01*
X155868346Y-121365000D02*
X152984980Y-124248366D01*
X152984980Y-124248366D02*
X152984980Y-125761682D01*
X166526000Y-122091000D02*
X165800000Y-121365000D01*
X145100000Y-118508346D02*
X145100000Y-117100000D01*
X148920980Y-125954980D02*
X147626000Y-124660000D01*
X166526000Y-124660000D02*
X166526000Y-122091000D01*
X152984980Y-125761682D02*
X152791682Y-125954980D01*
X165800000Y-121365000D02*
X155868346Y-121365000D01*
X147626000Y-121034346D02*
X145100000Y-118508346D01*
X147626000Y-124660000D02*
X147626000Y-121034346D01*
X152791682Y-125954980D02*
X148920980Y-125954980D01*
%TO.N,/USB switch/SEL*%
D33*
X185400000Y-114400000D02*
X173775078Y-114400000D01*
X187900000Y-116900000D02*
X185400000Y-114400000D01*
X159153554Y-115550000D02*
X159153554Y-113250948D01*
X159963554Y-116360000D02*
X159153554Y-115550000D01*
X191050000Y-116900000D02*
X187900000Y-116900000D01*
X171815078Y-116360000D02*
X159963554Y-116360000D01*
X173775078Y-114400000D02*
X171815078Y-116360000D01*
%TO.N,/GPIO_Expander/A1*%
X187544119Y-108524485D02*
X187544119Y-108781066D01*
X187544119Y-108781066D02*
X185744119Y-110581066D01*
X187436805Y-108417171D02*
X187544119Y-108524485D01*
%TO.N,/GPIO_Expander/GPIO0*%
X185075000Y-111100000D02*
X187175000Y-111100000D01*
X190675000Y-107600000D02*
X190700000Y-107600000D01*
X187175000Y-111100000D02*
X190675000Y-107600000D01*
%TO.N,/GPIO_Expander/GPIO1*%
X185700000Y-111606066D02*
X187693934Y-111606066D01*
X187693934Y-111606066D02*
X191475000Y-107825000D01*
X191475000Y-107825000D02*
X191500000Y-107825000D01*
%TO.N,/ChainBus + ALtmode/Chainbus.SCL*%
X156638374Y-99761626D02*
X156525000Y-99648252D01*
X189850000Y-105550000D02*
X188650000Y-104350000D01*
X187200000Y-90350000D02*
X182600000Y-85750000D01*
X182600000Y-85750000D02*
X179750000Y-85750000D01*
X156525000Y-99648252D02*
X156525000Y-97100000D01*
X189850000Y-106750000D02*
X189850000Y-105550000D01*
X156652925Y-99761626D02*
X156638374Y-99761626D01*
X188650000Y-104350000D02*
X188650000Y-91800000D01*
X154075000Y-94650000D02*
X154075000Y-92005000D01*
X188650000Y-91800000D02*
X187200000Y-90350000D01*
X154075000Y-92005000D02*
X152810000Y-90740000D01*
X156525000Y-97100000D02*
X154075000Y-94650000D01*
%TO.N,/ChainBus + ALtmode/Chainbus.SDA*%
X151475000Y-91945000D02*
X150270000Y-90740000D01*
X181350000Y-86550000D02*
X186500000Y-91700000D01*
X187950000Y-104850000D02*
X187950000Y-92400000D01*
X156150000Y-99965808D02*
X156150000Y-97325000D01*
X156150000Y-97325000D02*
X154650000Y-95825000D01*
X151475000Y-93700000D02*
X151475000Y-91945000D01*
X153600000Y-95825000D02*
X151475000Y-93700000D01*
X186500000Y-91700000D02*
X187250000Y-91700000D01*
X179750000Y-86550000D02*
X181350000Y-86550000D01*
X154650000Y-95825000D02*
X153600000Y-95825000D01*
X187950000Y-92400000D02*
X187250000Y-91700000D01*
X156655638Y-100471446D02*
X156150000Y-99965808D01*
X189350000Y-107500000D02*
X189350000Y-106250000D01*
X189350000Y-106250000D02*
X187950000Y-104850000D01*
X156721446Y-100471446D02*
X156655638Y-100471446D01*
%TO.N,Net-(J9-~-Pad10)*%
X171960052Y-116710000D02*
X173920052Y-114750000D01*
X153700000Y-119060000D02*
X157755786Y-119060000D01*
X160105786Y-116710000D02*
X171960052Y-116710000D01*
X152700000Y-118060000D02*
X153700000Y-119060000D01*
X157755786Y-119060000D02*
X160105786Y-116710000D01*
X173920052Y-114750000D02*
X181070988Y-114750000D01*
X181070988Y-114750000D02*
X181338185Y-115017197D01*
%TO.N,Net-(U6-STB)*%
X147625000Y-111625000D02*
X149600000Y-113600000D01*
X147174998Y-111625000D02*
X147625000Y-111625000D01*
X149600000Y-113600000D02*
X150300000Y-113600000D01*
%TO.N,/ESP32-C6/USB.D+*%
X153030797Y-98912096D02*
X153030797Y-98954522D01*
X161483726Y-110140000D02*
X163833726Y-107790000D01*
X169014633Y-106302621D02*
X169014633Y-105927935D01*
X158508726Y-110140000D02*
X161483726Y-110140000D01*
X152990418Y-98659582D02*
X152969203Y-98680797D01*
X163833726Y-107790000D02*
X167527254Y-107790000D01*
X150460000Y-109633726D02*
X151566274Y-110740000D01*
X150460000Y-107915000D02*
X150460000Y-109633726D01*
X153085000Y-105290000D02*
X150460000Y-107915000D01*
X167527254Y-107790000D02*
X169014633Y-106302621D01*
X153085000Y-99008725D02*
X153085000Y-105290000D01*
X151566274Y-110740000D02*
X157908726Y-110740000D01*
X157908726Y-110740000D02*
X158508726Y-110140000D01*
X152969203Y-98850502D02*
X153030797Y-98912096D01*
X153030797Y-98954522D02*
X153085000Y-99008725D01*
X152969203Y-98680797D02*
X152969203Y-98850502D01*
%TO.N,/ChainBus + ALtmode/Chainbus.RX*%
X157353554Y-101253554D02*
X157300000Y-101200000D01*
X157300000Y-101200000D02*
X157300000Y-99700000D01*
%TO.N,/ESP32-C6/EN*%
X170850000Y-100650000D02*
X180150000Y-100650000D01*
X158300000Y-105300000D02*
X158190000Y-105190000D01*
X181150000Y-101650000D02*
X181150000Y-112150000D01*
X180150000Y-100650000D02*
X181150000Y-101650000D01*
X181150000Y-112150000D02*
X182400000Y-113400000D01*
X166200000Y-100650000D02*
X170850000Y-100650000D01*
X163050000Y-103825000D02*
X161575000Y-105300000D01*
X161575000Y-105300000D02*
X158300000Y-105300000D01*
X163050000Y-102100000D02*
X163050000Y-103825000D01*
%TO.N,Net-(J8-~-Pad12)*%
X160170000Y-118060000D02*
X161170000Y-117060000D01*
X161170000Y-117060000D02*
X172105026Y-117060000D01*
X180664216Y-115100000D02*
X181220711Y-115656496D01*
X174065026Y-115100000D02*
X180664216Y-115100000D01*
X172105026Y-117060000D02*
X174065026Y-115100000D01*
%TO.N,/ChainBus + ALtmode/Chainbus_addr1*%
X151992656Y-97500000D02*
X151256838Y-98235818D01*
X154750000Y-100942030D02*
X154750000Y-98109922D01*
X159467930Y-103187541D02*
X159353241Y-103302230D01*
X154750000Y-98109922D02*
X154140078Y-97500000D01*
X154140078Y-97500000D02*
X151992656Y-97500000D01*
X157110200Y-103302230D02*
X154750000Y-100942030D01*
X159353241Y-103302230D02*
X157110200Y-103302230D01*
%TO.N,/ChainBus + ALtmode/Chainbus_addr2*%
X155100000Y-97964948D02*
X154285052Y-97150000D01*
X150878375Y-97746625D02*
X150828832Y-97746625D01*
X158944443Y-102802230D02*
X158930928Y-102815745D01*
X155100000Y-100797056D02*
X155100000Y-97964948D01*
X157118689Y-102815745D02*
X155100000Y-100797056D01*
X158930928Y-102815745D02*
X157118689Y-102815745D01*
X151475000Y-97150000D02*
X150878375Y-97746625D01*
X154285052Y-97150000D02*
X151475000Y-97150000D01*
%TO.N,/ChainBus + ALtmode/Chainbus_addr3*%
X151111455Y-96800000D02*
X150814678Y-97096777D01*
X158335188Y-102425000D02*
X157222918Y-102425000D01*
X158444443Y-102315745D02*
X158335188Y-102425000D01*
X155450000Y-97819974D02*
X154430026Y-96800000D01*
X154430026Y-96800000D02*
X151111455Y-96800000D01*
X157222918Y-102425000D02*
X155450000Y-100652081D01*
X155450000Y-100652081D02*
X155450000Y-97819974D01*
%TO.N,/ChainBus + ALtmode/Chainbus_addr4*%
X154575000Y-96450000D02*
X150750000Y-96450000D01*
X157153554Y-101753554D02*
X157146447Y-101753554D01*
X155800000Y-97675000D02*
X154575000Y-96450000D01*
X157146447Y-101753554D02*
X156853554Y-101460661D01*
X156853554Y-101453554D02*
X155800000Y-100400000D01*
X157925000Y-101925000D02*
X157325000Y-101925000D01*
X155800000Y-100400000D02*
X155800000Y-97675000D01*
X157325000Y-101925000D02*
X157153554Y-101753554D01*
X156853554Y-101460661D02*
X156853554Y-101453554D01*
%TO.N,/ChainBus + ALtmode/Chainbus_addr7*%
X169600000Y-102650000D02*
X167492893Y-102650000D01*
X167492893Y-102650000D02*
X163125000Y-98282107D01*
X163125000Y-96025000D02*
X163150000Y-96025000D01*
X163125000Y-98282107D02*
X163125000Y-96025000D01*
X156903554Y-96578554D02*
X156100000Y-95775000D01*
%TO.N,/ESP32-C6/UART0.RX*%
X149027548Y-107872452D02*
X149070782Y-107872452D01*
X160085679Y-114635679D02*
X160003554Y-114553554D01*
X171850000Y-106900000D02*
X170947919Y-106900000D01*
X169100000Y-113082107D02*
X167546428Y-114635679D01*
X170350000Y-107497919D02*
X170350000Y-108850000D01*
X149250000Y-108094904D02*
X149027548Y-107872452D01*
X175200000Y-105600000D02*
X173150000Y-105600000D01*
X149250000Y-111330000D02*
X149250000Y-108094904D01*
X158450000Y-112400000D02*
X158350000Y-112300000D01*
X158350000Y-112300000D02*
X150220000Y-112300000D01*
X160003554Y-114553554D02*
X160003554Y-112898867D01*
X150220000Y-112300000D02*
X149250000Y-111330000D01*
X173150000Y-105600000D02*
X171850000Y-106900000D01*
X160003554Y-112898867D02*
X159504687Y-112400000D01*
X169100000Y-110100000D02*
X169100000Y-113082107D01*
X159504687Y-112400000D02*
X158450000Y-112400000D01*
X167546428Y-114635679D02*
X160085679Y-114635679D01*
X170350000Y-108850000D02*
X169100000Y-110100000D01*
X179250000Y-101550000D02*
X175200000Y-105600000D01*
X170947919Y-106900000D02*
X170350000Y-107497919D01*
%TO.N,/ChainBus + ALtmode/Chainbus.SCK*%
X160400000Y-102425000D02*
X159025000Y-101050000D01*
X158475000Y-97300000D02*
X156650000Y-95475000D01*
X159025000Y-101025000D02*
X158475000Y-100475000D01*
X156693770Y-105900000D02*
X158906229Y-103687541D01*
X158475000Y-100475000D02*
X158475000Y-97300000D01*
X158906229Y-103687541D02*
X159812459Y-103687541D01*
X159812459Y-103687541D02*
X160400000Y-103100000D01*
X152600000Y-106900000D02*
X153600000Y-105900000D01*
X156650000Y-95475000D02*
X156650000Y-91980000D01*
X160400000Y-103100000D02*
X160400000Y-102425000D01*
X153600000Y-105900000D02*
X156693770Y-105900000D01*
X156650000Y-91980000D02*
X157890000Y-90740000D01*
X159025000Y-101050000D02*
X159025000Y-101025000D01*
%TO.N,/ChainBus + ALtmode/Chainbus.MOSI*%
X163850000Y-104400000D02*
X163850000Y-102150000D01*
X159150000Y-97450000D02*
X159150000Y-92020000D01*
X157624370Y-106400000D02*
X157637185Y-106387185D01*
X161862815Y-106387185D02*
X163850000Y-104400000D01*
X157637185Y-106387185D02*
X161862815Y-106387185D01*
X163850000Y-102150000D02*
X159150000Y-97450000D01*
X159150000Y-92020000D02*
X160430000Y-90740000D01*
X152782043Y-107585624D02*
X153967667Y-106400000D01*
X153967667Y-106400000D02*
X157624370Y-106400000D01*
%TO.N,/ChainBus + ALtmode/Chainbus.MISO*%
X164600000Y-102125000D02*
X161700000Y-99225000D01*
X153881232Y-107253291D02*
X156921184Y-107253291D01*
X156921184Y-107253291D02*
X156967893Y-107300000D01*
X156967893Y-107300000D02*
X161900000Y-107300000D01*
X152912029Y-108222494D02*
X153881232Y-107253291D01*
X161700000Y-99225000D02*
X161700000Y-92010000D01*
X164600000Y-104600000D02*
X164600000Y-102125000D01*
X161700000Y-92010000D02*
X162970000Y-90740000D01*
X161900000Y-107300000D02*
X164600000Y-104600000D01*
%TO.N,/ChainBus + ALtmode/Altmode2*%
X140325000Y-101115000D02*
X140325000Y-105525000D01*
X153312072Y-108722494D02*
X152011561Y-108722494D01*
X147357398Y-110168250D02*
X147500000Y-110025648D01*
X153318944Y-108729366D02*
X153312072Y-108722494D01*
X152011561Y-108722494D02*
X152004688Y-108729367D01*
X147500000Y-110025648D02*
X147500000Y-108225000D01*
X132490000Y-93280000D02*
X140325000Y-101115000D01*
X140325000Y-105525000D02*
X143050000Y-108250000D01*
%TO.N,/ChainBus + ALtmode/Altmode1*%
X142925000Y-108975000D02*
X139725000Y-105775000D01*
X143050000Y-108975000D02*
X142925000Y-108975000D01*
X152078875Y-109229366D02*
X151932856Y-109375385D01*
X139725000Y-103055000D02*
X129950000Y-93280000D01*
X139725000Y-105775000D02*
X139725000Y-103055000D01*
X153627507Y-109229366D02*
X152078875Y-109229366D01*
X153941873Y-108915000D02*
X153627507Y-109229366D01*
%TO.N,/ChainBus + ALtmode/Chainbus.CS*%
X165300000Y-104650000D02*
X165300000Y-101600000D01*
X154793722Y-108761294D02*
X156911294Y-108761294D01*
X156911294Y-108761294D02*
X157347417Y-109197417D01*
X157347417Y-109197417D02*
X158102583Y-109197417D01*
X158350000Y-108950000D02*
X161000000Y-108950000D01*
X161000000Y-108950000D02*
X165300000Y-104650000D01*
X158102583Y-109197417D02*
X158350000Y-108950000D01*
X165300000Y-101600000D02*
X162425000Y-98725000D01*
X162425000Y-98725000D02*
X162425000Y-94975000D01*
%TO.N,/USBC_CONN/CC1*%
X180666447Y-126838830D02*
X180677617Y-126850000D01*
X180666447Y-125633553D02*
X180666447Y-126838830D01*
%TO.N,/USBC_CONN/CC2*%
X183073311Y-125596744D02*
X183073311Y-126923311D01*
X183073311Y-126923311D02*
X183100000Y-126950000D01*
%TO.N,Net-(J4-SHIELD)*%
X177370000Y-129380000D02*
X186010000Y-129380000D01*
X186010000Y-129380000D02*
X186010000Y-125200000D01*
X177370000Y-125200000D02*
X177370000Y-129380000D01*
%TO.N,/I2C_Flash/A2*%
X177500000Y-90400000D02*
X182800000Y-90400000D01*
X177150000Y-90050000D02*
X177500000Y-90400000D01*
%TO.N,/USB switch/USB_OUT2.D-*%
X161549999Y-112910001D02*
X161400000Y-113060000D01*
X162503945Y-113479646D02*
X162503945Y-113437220D01*
X162503945Y-113437220D02*
X161976727Y-112910001D01*
X161976727Y-112910001D02*
X161549999Y-112910001D01*
X162565539Y-113541240D02*
X162503945Y-113479646D01*
X162565539Y-113710945D02*
X162565539Y-113541240D01*
%TO.N,/USB switch/USB_OUT2.D+*%
X161457104Y-112409997D02*
X161637106Y-112589999D01*
X162981698Y-113210945D02*
X163061228Y-113290475D01*
X161637106Y-112589999D02*
X162109273Y-112589999D01*
X162730220Y-113210945D02*
X162981698Y-113210945D01*
X161400000Y-112409997D02*
X161457104Y-112409997D01*
X162109273Y-112589999D02*
X162730220Y-113210945D01*
%TO.N,/UART_Programmer/~{DTR}*%
X172350000Y-102450000D02*
X173450000Y-102450000D01*
%TO.N,/ESP32-C6/USB.D-*%
X163966274Y-108110000D02*
X161616274Y-110460000D01*
X169453039Y-105489529D02*
X169453039Y-105659234D01*
X161616274Y-110460000D02*
X158641274Y-110460000D01*
X151433726Y-111060000D02*
X150140000Y-109766274D01*
X167659802Y-108110000D02*
X163966274Y-108110000D01*
X152765000Y-105157452D02*
X152765000Y-99180797D01*
X150140000Y-107782452D02*
X152765000Y-105157452D01*
X158041274Y-111060000D02*
X151433726Y-111060000D01*
X150140000Y-109766274D02*
X150140000Y-107782452D01*
X169514633Y-105720828D02*
X169514633Y-106255169D01*
X152765000Y-99180797D02*
X152762096Y-99180797D01*
X169453039Y-105659234D02*
X169514633Y-105720828D01*
X169514633Y-106255169D02*
X167659802Y-108110000D01*
X152700502Y-99119203D02*
X152530797Y-99119203D01*
X169474254Y-105468314D02*
X169453039Y-105489529D01*
X152762096Y-99180797D02*
X152700502Y-99119203D01*
X158641274Y-110460000D02*
X158041274Y-111060000D01*
%TO.N,/ESP32-C6/UART0.TX*%
X158399052Y-112750948D02*
X159360661Y-112750948D01*
X154200000Y-113000000D02*
X154400000Y-112800000D01*
X148336889Y-107825608D02*
X148336889Y-107845666D01*
X158350000Y-112800000D02*
X158399052Y-112750948D01*
X175250000Y-107250000D02*
X177625000Y-104875000D01*
X159360661Y-112750948D02*
X159653554Y-113043841D01*
X169700000Y-110450000D02*
X170700000Y-109450000D01*
X170700000Y-107642893D02*
X171092893Y-107250000D01*
X159653554Y-113043841D02*
X159653554Y-114753554D01*
X148735195Y-108243972D02*
X148735195Y-111535195D01*
X175400000Y-107100000D02*
X177625000Y-104875000D01*
X148735195Y-111535195D02*
X150200000Y-113000000D01*
X159885679Y-114985679D02*
X168714321Y-114985679D01*
X159653554Y-114753554D02*
X159885679Y-114985679D01*
X169700000Y-114000000D02*
X169700000Y-110450000D01*
X170700000Y-109450000D02*
X170700000Y-107642893D01*
X168714321Y-114985679D02*
X169700000Y-114000000D01*
X150200000Y-113000000D02*
X154200000Y-113000000D01*
X148336889Y-107845666D02*
X148735195Y-108243972D01*
X171092893Y-107250000D02*
X175250000Y-107250000D01*
X177625000Y-104875000D02*
X178050000Y-104450000D01*
X154400000Y-112800000D02*
X158350000Y-112800000D01*
%TO.N,/ESP32-C6/SPID*%
X148490000Y-104590000D02*
X143290000Y-104590000D01*
%TO.N,Net-(J8-~-Pad10)*%
X174210000Y-115450000D02*
X180307108Y-115450000D01*
X171600000Y-118060000D02*
X174210000Y-115450000D01*
X180307108Y-115450000D02*
X181228554Y-116371446D01*
%TO.N,/CAN_TR.kicad_sch1/CAN.-*%
D34*
X149650000Y-123275000D02*
X150250000Y-123875000D01*
X154638346Y-120165000D02*
X151690000Y-123113346D01*
X167531654Y-120165000D02*
X154638346Y-120165000D01*
X168550000Y-121183346D02*
X167531654Y-120165000D01*
X170590000Y-124660000D02*
X169989283Y-124660000D01*
X168550000Y-123220717D02*
X168550000Y-121183346D01*
X149095391Y-114541877D02*
X148597268Y-115040000D01*
X148597268Y-115040000D02*
X148597268Y-121470551D01*
X150905000Y-123875000D02*
X151690000Y-124660000D01*
X149650000Y-122523283D02*
X149650000Y-123275000D01*
X150250000Y-123875000D02*
X150905000Y-123875000D01*
X149095391Y-114253560D02*
X149095391Y-114541877D01*
X148597268Y-121470551D02*
X149650000Y-122523283D01*
X151690000Y-123113346D02*
X151690000Y-124660000D01*
X169989283Y-124660000D02*
X168550000Y-123220717D01*
%TO.N,/CAN_TR.kicad_sch1/CAN.+*%
X149740000Y-114617270D02*
X148927270Y-115430000D01*
X149178399Y-121585020D02*
X150473379Y-122880000D01*
X169574000Y-121740654D02*
X169574000Y-122880000D01*
X167668346Y-119835000D02*
X169574000Y-121740654D01*
X154501654Y-119835000D02*
X167668346Y-119835000D01*
X149178399Y-121578399D02*
X149178399Y-121585020D01*
X150674000Y-122880000D02*
X151456654Y-122880000D01*
X151456654Y-122880000D02*
X154501654Y-119835000D01*
X149740000Y-114170000D02*
X149740000Y-114617270D01*
X150473379Y-122880000D02*
X150674000Y-122880000D01*
X148927270Y-121327270D02*
X149178399Y-121578399D01*
X148927270Y-115430000D02*
X148927270Y-121327270D01*
%TO.N,/ESP32-C6/SPICLK*%
D33*
X144590000Y-103790000D02*
X148490000Y-103790000D01*
%TO.N,Net-(J9-~-Pad12)*%
X144360000Y-121150000D02*
X146650000Y-121150000D01*
X177564214Y-115800000D02*
X179950000Y-115800000D01*
X174304214Y-119060000D02*
X177564214Y-115800000D01*
X141270000Y-118060000D02*
X144360000Y-121150000D01*
X158900000Y-118650000D02*
X158900000Y-118660000D01*
X179950000Y-115800000D02*
X181175000Y-117025000D01*
X158900000Y-118660000D02*
X159300000Y-119060000D01*
X159300000Y-119060000D02*
X174304214Y-119060000D01*
%TD*%
%TA.AperFunction,Conductor*%
%TO.N,BRD_VIN*%
G36*
X113087539Y-115269685D02*
G01*
X113133294Y-115322489D01*
X113144500Y-115374000D01*
X113144500Y-120626022D01*
X113145254Y-120669529D01*
X113145255Y-120669542D01*
X113173192Y-120892880D01*
X113173192Y-120892881D01*
X113184400Y-120944397D01*
X113233972Y-121113862D01*
X113330805Y-121317052D01*
X113330807Y-121317055D01*
X113462360Y-121499685D01*
X113508139Y-121552517D01*
X113535443Y-121583009D01*
X113535450Y-121583015D01*
X113586014Y-121628668D01*
X113702511Y-121733852D01*
X113893825Y-121852438D01*
X114103230Y-121934954D01*
X114103233Y-121934955D01*
X114103236Y-121934956D01*
X114170275Y-121954641D01*
X114299822Y-121985324D01*
X114524000Y-122005500D01*
X119627027Y-122005500D01*
X119694066Y-122025185D01*
X119739821Y-122077989D01*
X119749765Y-122147147D01*
X119728956Y-122200114D01*
X119718742Y-122214857D01*
X119707992Y-122230373D01*
X119707992Y-122230374D01*
X119707986Y-122230384D01*
X119614906Y-122435309D01*
X119614899Y-122435330D01*
X119559906Y-122653569D01*
X119559904Y-122653580D01*
X119559904Y-122653583D01*
X119549500Y-122785771D01*
X119549500Y-124914211D01*
X119559903Y-125046414D01*
X119559904Y-125046418D01*
X119559906Y-125046429D01*
X119614899Y-125264668D01*
X119614906Y-125264689D01*
X119707986Y-125469614D01*
X119707992Y-125469624D01*
X119707995Y-125469630D01*
X119707999Y-125469636D01*
X119836159Y-125654625D01*
X119836182Y-125654655D01*
X119836185Y-125654659D01*
X119995004Y-125813478D01*
X119995007Y-125813480D01*
X119995346Y-125813819D01*
X119995350Y-125813822D01*
X119995354Y-125813825D01*
X120134603Y-125910297D01*
X120180374Y-125942007D01*
X120385317Y-126035096D01*
X120385321Y-126035097D01*
X120385323Y-126035097D01*
X120385397Y-126035123D01*
X120385532Y-126035150D01*
X120517777Y-126068473D01*
X120601716Y-126089625D01*
X120603356Y-126090065D01*
X120603568Y-126090091D01*
X120603579Y-126090094D01*
X120603581Y-126090094D01*
X120603588Y-126090096D01*
X120603636Y-126090099D01*
X120605847Y-126090374D01*
X120608406Y-126090475D01*
X120735783Y-126100500D01*
X121764216Y-126100499D01*
X121896412Y-126090096D01*
X122114683Y-126035096D01*
X122319626Y-125942007D01*
X122504654Y-125813819D01*
X122649717Y-125668755D01*
X122677964Y-125647610D01*
X122691688Y-125640116D01*
X122759946Y-125625265D01*
X122761756Y-125625394D01*
X122819953Y-125644760D01*
X122826471Y-125648949D01*
X122847101Y-125665574D01*
X122995346Y-125813819D01*
X122995350Y-125813822D01*
X122995354Y-125813825D01*
X123134603Y-125910297D01*
X123180374Y-125942007D01*
X123385317Y-126035096D01*
X123385321Y-126035097D01*
X123385323Y-126035097D01*
X123385397Y-126035123D01*
X123385532Y-126035150D01*
X123517777Y-126068473D01*
X123601716Y-126089625D01*
X123603356Y-126090065D01*
X123603568Y-126090091D01*
X123603579Y-126090094D01*
X123603581Y-126090094D01*
X123603588Y-126090096D01*
X123603636Y-126090099D01*
X123605847Y-126090374D01*
X123608406Y-126090475D01*
X123735783Y-126100500D01*
X124764216Y-126100499D01*
X124896412Y-126090096D01*
X125114683Y-126035096D01*
X125319626Y-125942007D01*
X125504654Y-125813819D01*
X125663819Y-125654654D01*
X125792007Y-125469626D01*
X125885096Y-125264683D01*
X125940096Y-125046412D01*
X125950500Y-124914217D01*
X125950499Y-122785784D01*
X125940096Y-122653588D01*
X125885096Y-122435317D01*
X125792007Y-122230374D01*
X125792003Y-122230368D01*
X125771044Y-122200115D01*
X125749048Y-122133798D01*
X125766396Y-122066117D01*
X125817583Y-122018559D01*
X125872973Y-122005500D01*
X130476022Y-122005500D01*
X130502609Y-122005038D01*
X130519543Y-122004745D01*
X130702351Y-121981876D01*
X130742880Y-121976807D01*
X130742881Y-121976807D01*
X130742886Y-121976806D01*
X130794397Y-121965600D01*
X130963864Y-121916027D01*
X131167054Y-121819194D01*
X131349689Y-121687637D01*
X131402493Y-121641882D01*
X131433012Y-121614553D01*
X131583852Y-121447489D01*
X131702437Y-121256176D01*
X131784956Y-121046764D01*
X131804641Y-120979725D01*
X131835324Y-120850178D01*
X131855500Y-120626000D01*
X131855500Y-115374000D01*
X131875185Y-115306961D01*
X131927989Y-115261206D01*
X131979500Y-115250000D01*
X136608171Y-115250000D01*
X136643106Y-115255023D01*
X136658104Y-115259427D01*
X136716855Y-115297172D01*
X136716879Y-115297200D01*
X136716882Y-115297202D01*
X136716883Y-115297204D01*
X136718042Y-115298541D01*
X136745518Y-115353402D01*
X136747163Y-115360960D01*
X136750000Y-115387331D01*
X136750000Y-121628668D01*
X136749999Y-121628672D01*
X136750000Y-121628675D01*
X136744975Y-121663609D01*
X136740570Y-121678608D01*
X136702797Y-121737380D01*
X136702793Y-121737382D01*
X136702793Y-121737384D01*
X136702791Y-121737384D01*
X136678655Y-121758299D01*
X136668070Y-121766514D01*
X136495349Y-121886177D01*
X136495346Y-121886180D01*
X136495328Y-121886196D01*
X136336196Y-122045328D01*
X136336180Y-122045346D01*
X136336177Y-122045349D01*
X136336169Y-122045359D01*
X136207999Y-122230362D01*
X136207995Y-122230368D01*
X136207992Y-122230374D01*
X136207986Y-122230384D01*
X136114906Y-122435309D01*
X136114899Y-122435330D01*
X136059906Y-122653569D01*
X136059904Y-122653580D01*
X136059904Y-122653583D01*
X136049500Y-122785771D01*
X136049500Y-124914211D01*
X136059903Y-125046414D01*
X136059904Y-125046418D01*
X136059906Y-125046429D01*
X136114899Y-125264668D01*
X136114906Y-125264689D01*
X136207986Y-125469614D01*
X136207992Y-125469624D01*
X136207995Y-125469630D01*
X136207999Y-125469636D01*
X136336159Y-125654625D01*
X136336182Y-125654655D01*
X136336185Y-125654659D01*
X136495004Y-125813478D01*
X136495007Y-125813480D01*
X136495346Y-125813819D01*
X136495350Y-125813822D01*
X136495354Y-125813825D01*
X136634603Y-125910297D01*
X136634654Y-125910332D01*
X136667432Y-125933041D01*
X136677789Y-125941057D01*
X136684181Y-125946568D01*
X136684181Y-125946569D01*
X136702575Y-125962429D01*
X136740491Y-126021106D01*
X136744889Y-126035946D01*
X136750000Y-126071180D01*
X136750000Y-131357670D01*
X136749999Y-131357676D01*
X136750000Y-131357679D01*
X136744975Y-131392614D01*
X136740570Y-131407612D01*
X136702827Y-131466355D01*
X136702792Y-131466385D01*
X136702791Y-131466387D01*
X136702789Y-131466387D01*
X136701458Y-131467542D01*
X136646597Y-131495018D01*
X136639039Y-131496663D01*
X136612668Y-131499500D01*
X106891830Y-131499500D01*
X106891825Y-131499499D01*
X106891823Y-131499500D01*
X106856889Y-131494475D01*
X106841890Y-131490070D01*
X106783144Y-131452327D01*
X106783115Y-131452293D01*
X106783114Y-131452293D01*
X106783113Y-131452291D01*
X106781957Y-131450958D01*
X106754477Y-131396083D01*
X106752832Y-131388521D01*
X106750000Y-131362168D01*
X106750000Y-126177949D01*
X106755022Y-126143016D01*
X106758933Y-126129697D01*
X106796706Y-126070920D01*
X106860258Y-126041895D01*
X106864107Y-126041341D01*
X106869186Y-126040612D01*
X106917123Y-126043110D01*
X107103584Y-126090095D01*
X107103585Y-126090095D01*
X107103588Y-126090096D01*
X107235783Y-126100500D01*
X108264216Y-126100499D01*
X108396412Y-126090096D01*
X108614683Y-126035096D01*
X108819626Y-125942007D01*
X109004654Y-125813819D01*
X109163819Y-125654654D01*
X109292007Y-125469626D01*
X109385096Y-125264683D01*
X109440096Y-125046412D01*
X109450500Y-124914217D01*
X109450499Y-122785784D01*
X109440096Y-122653588D01*
X109385096Y-122435317D01*
X109292007Y-122230374D01*
X109225099Y-122133798D01*
X109163825Y-122045354D01*
X109163820Y-122045348D01*
X109163819Y-122045346D01*
X109004654Y-121886181D01*
X109004650Y-121886178D01*
X109004645Y-121886174D01*
X108880260Y-121800000D01*
X111000000Y-121800000D01*
X111000000Y-115250000D01*
X113020500Y-115250000D01*
X113087539Y-115269685D01*
G37*
%TD.AperFunction*%
%TD*%
%TA.AperFunction,Conductor*%
%TO.N,GND*%
G36*
X130543039Y-111419685D02*
G01*
X130588794Y-111472489D01*
X130600000Y-111524000D01*
X130600000Y-120626000D01*
X130580315Y-120693039D01*
X130527511Y-120738794D01*
X130476000Y-120750000D01*
X114524000Y-120750000D01*
X114456961Y-120730315D01*
X114411206Y-120677511D01*
X114400000Y-120626000D01*
X114400000Y-111524000D01*
X114419685Y-111456961D01*
X114472489Y-111411206D01*
X114524000Y-111400000D01*
X130476000Y-111400000D01*
X130543039Y-111419685D01*
G37*
%TD.AperFunction*%
%TD*%
%TA.AperFunction,Conductor*%
%TO.N,BRD_VIN*%
G36*
X111943039Y-89019685D02*
G01*
X111988794Y-89072489D01*
X112000000Y-89124000D01*
X112000000Y-95458170D01*
X111994975Y-95493114D01*
X111990570Y-95508112D01*
X111980939Y-95523101D01*
X111975932Y-95540175D01*
X111952827Y-95566855D01*
X111951458Y-95568042D01*
X111896597Y-95595518D01*
X111889039Y-95597163D01*
X111862668Y-95600000D01*
X104200000Y-95600000D01*
X104200000Y-98858170D01*
X104199999Y-98858176D01*
X104200000Y-98858179D01*
X104194975Y-98893114D01*
X104190570Y-98908112D01*
X104152827Y-98966855D01*
X104152792Y-98966885D01*
X104152791Y-98966887D01*
X104152789Y-98966887D01*
X104151458Y-98968042D01*
X104096597Y-98995518D01*
X104089039Y-98997163D01*
X104062668Y-99000000D01*
X101722882Y-99000000D01*
X101722882Y-100338853D01*
X101722383Y-100349967D01*
X101716010Y-100420781D01*
X101716010Y-109376022D01*
X101716764Y-109419527D01*
X101716765Y-109419541D01*
X101721923Y-109460774D01*
X101722882Y-109476166D01*
X101722882Y-113000000D01*
X110858171Y-113000000D01*
X110893106Y-113005023D01*
X110908104Y-113009427D01*
X110966855Y-113047172D01*
X110966879Y-113047200D01*
X110966882Y-113047202D01*
X110966883Y-113047204D01*
X110968042Y-113048541D01*
X110995518Y-113103402D01*
X110997163Y-113110960D01*
X111000000Y-113137331D01*
X111000000Y-121676000D01*
X110980315Y-121743039D01*
X110927511Y-121788794D01*
X110876000Y-121800000D01*
X108919017Y-121800000D01*
X108899895Y-121794385D01*
X108879978Y-121793694D01*
X108854900Y-121781173D01*
X108851978Y-121780315D01*
X108848401Y-121777928D01*
X108820611Y-121758675D01*
X108819691Y-121758025D01*
X108819642Y-121758000D01*
X108818910Y-121757661D01*
X108818410Y-121757440D01*
X108614689Y-121664906D01*
X108614683Y-121664904D01*
X108614681Y-121664903D01*
X108614678Y-121664902D01*
X108614673Y-121664900D01*
X108614668Y-121664899D01*
X108396429Y-121609906D01*
X108396418Y-121609904D01*
X108396414Y-121609903D01*
X108352348Y-121606436D01*
X108352347Y-121606436D01*
X108264222Y-121599500D01*
X108264217Y-121599500D01*
X108264215Y-121599500D01*
X107235791Y-121599500D01*
X107235787Y-121599500D01*
X107103584Y-121609903D01*
X107103580Y-121609904D01*
X107103569Y-121609906D01*
X106885330Y-121664899D01*
X106885309Y-121664906D01*
X106680382Y-121757987D01*
X106679950Y-121758243D01*
X106678460Y-121759318D01*
X106666249Y-121767777D01*
X106634680Y-121783539D01*
X106604071Y-121793693D01*
X106565028Y-121800000D01*
X105141830Y-121800000D01*
X105106889Y-121794975D01*
X105091890Y-121790570D01*
X105076902Y-121780940D01*
X105059824Y-121775932D01*
X105033144Y-121752827D01*
X105031957Y-121751458D01*
X105004477Y-121696583D01*
X105002832Y-121689021D01*
X105000000Y-121662668D01*
X105000000Y-115600000D01*
X99642330Y-115600000D01*
X99642325Y-115599999D01*
X99642323Y-115600000D01*
X99607389Y-115594975D01*
X99592390Y-115590570D01*
X99533644Y-115552827D01*
X99533615Y-115552793D01*
X99533614Y-115552793D01*
X99533613Y-115552791D01*
X99532457Y-115551458D01*
X99504977Y-115496583D01*
X99503332Y-115489021D01*
X99500500Y-115462668D01*
X99500500Y-89141829D01*
X99505523Y-89106893D01*
X99509927Y-89091895D01*
X99547672Y-89033144D01*
X99547700Y-89033119D01*
X99547699Y-89033119D01*
X99549041Y-89031956D01*
X99603920Y-89004477D01*
X99611479Y-89002833D01*
X99637832Y-89000000D01*
X107750000Y-89000000D01*
X111876000Y-89000000D01*
X111943039Y-89019685D01*
G37*
%TD.AperFunction*%
%TD*%
%TA.AperFunction,Conductor*%
%TO.N,BRD_VIN*%
G36*
X148443039Y-82520185D02*
G01*
X148488794Y-82572989D01*
X148500000Y-82624500D01*
X148500000Y-85276000D01*
X148480315Y-85343039D01*
X148427511Y-85388794D01*
X148376000Y-85400000D01*
X112000000Y-85400000D01*
X112000000Y-89000000D01*
X107750000Y-89000000D01*
X107750000Y-82624500D01*
X107769685Y-82557461D01*
X107822489Y-82511706D01*
X107874000Y-82500500D01*
X148376000Y-82500500D01*
X148443039Y-82520185D01*
G37*
%TD.AperFunction*%
%TD*%
%TA.AperFunction,Conductor*%
%TO.N,GND*%
G36*
X111943039Y-97019685D02*
G01*
X111988794Y-97072489D01*
X112000000Y-97124000D01*
X112000000Y-107626000D01*
X111980315Y-107693039D01*
X111927511Y-107738794D01*
X111876000Y-107750000D01*
X106750000Y-107750000D01*
X106750000Y-109376000D01*
X106730315Y-109443039D01*
X106677511Y-109488794D01*
X106626000Y-109500000D01*
X103095510Y-109500000D01*
X103028471Y-109480315D01*
X102982716Y-109427511D01*
X102971510Y-109376000D01*
X102971510Y-100420780D01*
X102991195Y-100353741D01*
X103043999Y-100307986D01*
X103095510Y-100296780D01*
X105750000Y-100296780D01*
X105750000Y-97124000D01*
X105769685Y-97056961D01*
X105822489Y-97011206D01*
X105874000Y-97000000D01*
X111876000Y-97000000D01*
X111943039Y-97019685D01*
G37*
%TD.AperFunction*%
%TD*%
M02*
