%TF.GenerationSoftware,KiCad,Pcbnew,10.0.1*%
%TF.CreationDate,2026-08-18T10:46:04+02:00*%
%TF.ProjectId,MMS3_ESP32-C6,4d4d5333-5f45-4535-9033-322d43362e6b,Version 1.0*%
%TF.SameCoordinates,Original*%
%TF.FileFunction,Soldermask,Top*%
%TF.FilePolarity,Negative*%
%FSLAX46Y46*%
G04 Gerber Fmt 4.6, Leading zero omitted, Abs format (unit mm)*
G04 Created by KiCad (PCBNEW 10.0.1) date 2026-08-18 10:46:04*
%MOMM*%
%LPD*%
G01*
G04 APERTURE LIST*
G04 Aperture macros list*
%AMRoundRect*
0 Rectangle with rounded corners*
0 $1 Rounding radius*
0 $2 $3 $4 $5 $6 $7 $8 $9 X,Y pos of 4 corners*
0 Add a 4 corners polygon primitive as box body*
4,1,4,$2,$3,$4,$5,$6,$7,$8,$9,$2,$3,0*
0 Add four circle primitives for the rounded corners*
1,1,$1+$1,$2,$3*
1,1,$1+$1,$4,$5*
1,1,$1+$1,$6,$7*
1,1,$1+$1,$8,$9*
0 Add four rect primitives between the rounded corners*
20,1,$1+$1,$2,$3,$4,$5,0*
20,1,$1+$1,$4,$5,$6,$7,0*
20,1,$1+$1,$6,$7,$8,$9,0*
20,1,$1+$1,$8,$9,$2,$3,0*%
G04 Aperture macros list end*
%ADD10C,1.000000*%
%ADD11R,0.600000X0.600000*%
%ADD12R,0.900000X2.000000*%
%ADD13RoundRect,1.025000X1.025000X1.025000X-1.025000X1.025000X-1.025000X-1.025000X1.025000X-1.025000X0*%
%ADD14C,4.100000*%
%ADD15RoundRect,0.159000X-0.159000X-0.189000X0.159000X-0.189000X0.159000X0.189000X-0.159000X0.189000X0*%
%ADD16RoundRect,0.075000X-0.075000X0.350000X-0.075000X-0.350000X0.075000X-0.350000X0.075000X0.350000X0*%
%ADD17R,2.400000X1.600000*%
%ADD18RoundRect,0.131500X0.131500X-0.206500X0.131500X0.206500X-0.131500X0.206500X-0.131500X-0.206500X0*%
%ADD19R,0.800000X0.280000*%
%ADD20R,0.280000X0.800000*%
%ADD21R,2.600000X2.600000*%
%ADD22RoundRect,0.100000X0.125000X0.100000X-0.125000X0.100000X-0.125000X-0.100000X0.125000X-0.100000X0*%
%ADD23RoundRect,0.269000X-0.494000X0.269000X-0.494000X-0.269000X0.494000X-0.269000X0.494000X0.269000X0*%
%ADD24RoundRect,0.159000X0.189000X-0.159000X0.189000X0.159000X-0.189000X0.159000X-0.189000X-0.159000X0*%
%ADD25RoundRect,0.159000X0.159000X0.189000X-0.159000X0.189000X-0.159000X-0.189000X0.159000X-0.189000X0*%
%ADD26O,1.600000X1.600000*%
%ADD27O,3.000000X2.000000*%
%ADD28RoundRect,0.269000X0.269000X0.494000X-0.269000X0.494000X-0.269000X-0.494000X0.269000X-0.494000X0*%
%ADD29RoundRect,0.159000X-0.189000X0.159000X-0.189000X-0.159000X0.189000X-0.159000X0.189000X0.159000X0*%
%ADD30RoundRect,0.219000X-0.219000X-0.294000X0.219000X-0.294000X0.219000X0.294000X-0.219000X0.294000X0*%
%ADD31R,0.665000X0.224000*%
%ADD32R,0.224000X0.665000*%
%ADD33R,3.300000X3.300000*%
%ADD34RoundRect,0.159000X0.021213X-0.246073X0.246073X-0.021213X-0.021213X0.246073X-0.246073X0.021213X0*%
%ADD35RoundRect,0.250000X0.450000X0.350000X-0.450000X0.350000X-0.450000X-0.350000X0.450000X-0.350000X0*%
%ADD36RoundRect,0.150000X-0.150000X-0.425000X0.150000X-0.425000X0.150000X0.425000X-0.150000X0.425000X0*%
%ADD37RoundRect,0.075000X-0.075000X-0.500000X0.075000X-0.500000X0.075000X0.500000X-0.075000X0.500000X0*%
%ADD38O,1.000000X2.100000*%
%ADD39O,1.000000X1.800000*%
%ADD40RoundRect,0.239000X0.239000X0.274000X-0.239000X0.274000X-0.239000X-0.274000X0.239000X-0.274000X0*%
%ADD41RoundRect,0.258261X1.029739X0.929739X-1.029739X0.929739X-1.029739X-0.929739X1.029739X-0.929739X0*%
%ADD42C,1.600000*%
%ADD43RoundRect,0.150000X0.590000X0.150000X-0.590000X0.150000X-0.590000X-0.150000X0.590000X-0.150000X0*%
%ADD44RoundRect,0.244000X-0.244000X-0.269000X0.244000X-0.269000X0.244000X0.269000X-0.244000X0.269000X0*%
%ADD45RoundRect,0.250002X-1.799998X-1.799998X1.799998X-1.799998X1.799998X1.799998X-1.799998X1.799998X0*%
%ADD46R,2.400000X3.100000*%
%ADD47RoundRect,0.150000X-0.737500X-0.150000X0.737500X-0.150000X0.737500X0.150000X-0.737500X0.150000X0*%
%ADD48RoundRect,0.249999X0.525001X-0.525001X0.525001X0.525001X-0.525001X0.525001X-0.525001X-0.525001X0*%
%ADD49C,1.550000*%
%ADD50RoundRect,0.220000X0.380000X-0.220000X0.380000X0.220000X-0.380000X0.220000X-0.380000X-0.220000X0*%
%ADD51RoundRect,0.050000X-0.050000X0.437500X-0.050000X-0.437500X0.050000X-0.437500X0.050000X0.437500X0*%
%ADD52RoundRect,0.050000X-0.050000X0.337500X-0.050000X-0.337500X0.050000X-0.337500X0.050000X0.337500X0*%
%ADD53RoundRect,0.050000X-0.337500X0.050000X-0.337500X-0.050000X0.337500X-0.050000X0.337500X0.050000X0*%
%ADD54RoundRect,0.200100X-0.949900X0.949900X-0.949900X-0.949900X0.949900X-0.949900X0.949900X0.949900X0*%
%ADD55C,2.500000*%
%ADD56RoundRect,0.250000X1.750000X1.000000X-1.750000X1.000000X-1.750000X-1.000000X1.750000X-1.000000X0*%
%ADD57RoundRect,0.267273X-0.320727X-0.570727X0.320727X-0.570727X0.320727X0.570727X-0.320727X0.570727X0*%
%ADD58C,3.100000*%
%ADD59C,4.700000*%
%ADD60RoundRect,0.159000X-0.246073X-0.021213X-0.021213X-0.246073X0.246073X0.021213X0.021213X0.246073X0*%
%ADD61RoundRect,0.250000X-0.450000X-0.350000X0.450000X-0.350000X0.450000X0.350000X-0.450000X0.350000X0*%
%ADD62C,1.800000*%
%ADD63C,2.000000*%
%ADD64RoundRect,0.150000X0.150000X-0.825000X0.150000X0.825000X-0.150000X0.825000X-0.150000X-0.825000X0*%
%ADD65RoundRect,0.162500X-0.650000X-0.162500X0.650000X-0.162500X0.650000X0.162500X-0.650000X0.162500X0*%
%ADD66RoundRect,0.375000X-0.375000X0.625000X-0.375000X-0.625000X0.375000X-0.625000X0.375000X0.625000X0*%
%ADD67RoundRect,0.500000X-1.400000X0.500000X-1.400000X-0.500000X1.400000X-0.500000X1.400000X0.500000X0*%
%ADD68RoundRect,0.050000X-0.437500X-0.050000X0.437500X-0.050000X0.437500X0.050000X-0.437500X0.050000X0*%
%ADD69RoundRect,0.050000X-0.337500X-0.050000X0.337500X-0.050000X0.337500X0.050000X-0.337500X0.050000X0*%
%ADD70RoundRect,0.050000X-0.050000X-0.337500X0.050000X-0.337500X0.050000X0.337500X-0.050000X0.337500X0*%
%ADD71R,1.500000X1.500000*%
%ADD72C,1.500000*%
%ADD73C,2.300000*%
%ADD74RoundRect,0.239000X-0.274000X0.239000X-0.274000X-0.239000X0.274000X-0.239000X0.274000X0.239000X0*%
%ADD75C,1.400000*%
%ADD76RoundRect,0.159000X-0.214053X-0.123221X0.084769X-0.231983X0.214053X0.123221X-0.084769X0.231983X0*%
%ADD77RoundRect,0.250000X-1.749998X-1.000000X1.749998X-1.000000X1.749998X1.000000X-1.749998X1.000000X0*%
%ADD78RoundRect,0.190500X0.444500X-1.079500X0.444500X1.079500X-0.444500X1.079500X-0.444500X-1.079500X0*%
%ADD79RoundRect,0.251091X-1.743841X-1.004366X1.743841X-1.004366X1.743841X1.004366X-1.743841X1.004366X0*%
%ADD80O,0.609000X2.204000*%
%ADD81RoundRect,0.062500X0.350000X0.062500X-0.350000X0.062500X-0.350000X-0.062500X0.350000X-0.062500X0*%
%ADD82RoundRect,0.062500X0.062500X0.350000X-0.062500X0.350000X-0.062500X-0.350000X0.062500X-0.350000X0*%
%ADD83R,1.700000X1.700000*%
%ADD84RoundRect,0.100000X0.100000X-0.125000X0.100000X0.125000X-0.100000X0.125000X-0.100000X-0.125000X0*%
%ADD85RoundRect,0.219000X0.219000X0.294000X-0.219000X0.294000X-0.219000X-0.294000X0.219000X-0.294000X0*%
G04 APERTURE END LIST*
D10*
X115250000Y-113240238D02*
X116000000Y-113990238D01*
X116226060Y-112125000D02*
X117976060Y-113875000D01*
X118226060Y-112125000D02*
X119976060Y-113875000D01*
X120226060Y-112125000D02*
X121976060Y-113875000D01*
X122250000Y-112000000D02*
X123000000Y-112750000D01*
D11*
%TO.C,D8*%
X189140000Y-95610000D03*
X189140000Y-94610000D03*
%TD*%
D12*
%TO.C,J7*%
X137750000Y-123850000D03*
X124250000Y-123850000D03*
D13*
X127400000Y-117850000D03*
D14*
X134600000Y-117850000D03*
%TD*%
D15*
%TO.C,R11*%
X193900000Y-113800000D03*
X194900000Y-113800000D03*
%TD*%
D16*
%TO.C,U1*%
X145325000Y-110725000D03*
X144675000Y-110725000D03*
X144025000Y-110725000D03*
X143375000Y-110725000D03*
X143375000Y-113625000D03*
X144025000Y-113625000D03*
X144675000Y-113625000D03*
X145325000Y-113625000D03*
D17*
X144350000Y-112175000D03*
%TD*%
D18*
%TO.C,D6*%
X190425000Y-116900000D03*
X190425000Y-114800000D03*
%TD*%
D19*
%TO.C,U12*%
X186600000Y-110075000D03*
X186600000Y-110575000D03*
X186600000Y-111075000D03*
X186600000Y-111575000D03*
X186600000Y-112075000D03*
X186600000Y-112575000D03*
D20*
X187350000Y-113325000D03*
X187850000Y-113325000D03*
X188350000Y-113325000D03*
X188850000Y-113325000D03*
X189350000Y-113325000D03*
X189850000Y-113325000D03*
D19*
X190600000Y-112575000D03*
X190600000Y-112075000D03*
X190600000Y-111575000D03*
X190600000Y-111075000D03*
X190600000Y-110575000D03*
X190600000Y-110075000D03*
D20*
X189850000Y-109325000D03*
X189350000Y-109325000D03*
X188850000Y-109325000D03*
X188350000Y-109325000D03*
X187850000Y-109325000D03*
X187350000Y-109325000D03*
D21*
X188600000Y-111325000D03*
%TD*%
D15*
%TO.C,C15*%
X187670000Y-104000000D03*
X188670000Y-104000000D03*
%TD*%
D22*
%TO.C,U4*%
X162775000Y-115900000D03*
X162775000Y-115100000D03*
X161625000Y-115500000D03*
%TD*%
D23*
%TO.C,C46*%
X114637500Y-108750000D03*
X114637500Y-110650000D03*
%TD*%
D24*
%TO.C,C2*%
X157600000Y-121900000D03*
X157600000Y-120900000D03*
%TD*%
D25*
%TO.C,C23*%
X180500000Y-104625000D03*
X179500000Y-104625000D03*
%TD*%
D24*
%TO.C,C55*%
X188594119Y-108481066D03*
X188594119Y-107481066D03*
%TD*%
D26*
%TO.C,SW1*%
X194100000Y-121750000D03*
X194100000Y-119750000D03*
X194100000Y-117750000D03*
D27*
X194100000Y-115600000D03*
X194100000Y-123900000D03*
%TD*%
D24*
%TO.C,R2*%
X183675000Y-114875000D03*
X183675000Y-113875000D03*
%TD*%
%TO.C,R12*%
X146600000Y-111525000D03*
X146600000Y-110525000D03*
%TD*%
D25*
%TO.C,R47*%
X150300000Y-100290000D03*
X149300000Y-100290000D03*
%TD*%
D28*
%TO.C,C34*%
X105500000Y-122600000D03*
X103600000Y-122600000D03*
%TD*%
D29*
%TO.C,R18*%
X172675000Y-107475000D03*
X172675000Y-108475000D03*
%TD*%
D15*
%TO.C,R55*%
X156925001Y-98950000D03*
X157924999Y-98950000D03*
%TD*%
D28*
%TO.C,C30*%
X105500000Y-118600000D03*
X103600000Y-118600000D03*
%TD*%
D24*
%TO.C,C8*%
X166300000Y-111600000D03*
X166300000Y-110600000D03*
%TD*%
D25*
%TO.C,R53*%
X163050000Y-101250000D03*
X162050000Y-101250000D03*
%TD*%
D24*
%TO.C,C5*%
X157950000Y-112650000D03*
X157950000Y-111650000D03*
%TD*%
D30*
%TO.C,R39*%
X101567500Y-110835000D03*
X103207500Y-110835000D03*
%TD*%
D24*
%TO.C,R6*%
X157600000Y-119900000D03*
X157600000Y-118900000D03*
%TD*%
D25*
%TO.C,C52*%
X150700000Y-105690000D03*
X149700000Y-105690000D03*
%TD*%
D24*
%TO.C,R62*%
X190050000Y-89050000D03*
X190050000Y-88050000D03*
%TD*%
%TO.C,R3*%
X184475000Y-114875000D03*
X184475000Y-113875000D03*
%TD*%
D15*
%TO.C,C900*%
X176700000Y-111650000D03*
X177700000Y-111650000D03*
%TD*%
D25*
%TO.C,R44*%
X150300000Y-101400000D03*
X149300000Y-101400000D03*
%TD*%
D29*
%TO.C,R8*%
X158275000Y-109850000D03*
X158275000Y-110850000D03*
%TD*%
D24*
%TO.C,C44*%
X109075000Y-107870000D03*
X109075000Y-106870000D03*
%TD*%
D31*
%TO.C,U11*%
X157310000Y-106190000D03*
X157310000Y-105790000D03*
X157310000Y-105390000D03*
X157310000Y-104990000D03*
X157310000Y-104590000D03*
X157310000Y-104190000D03*
X157310000Y-103790000D03*
X157310000Y-103390000D03*
X157310000Y-102990000D03*
X157310000Y-102590000D03*
D32*
X156700000Y-101980000D03*
X156300000Y-101980000D03*
X155900000Y-101980000D03*
X155500000Y-101980000D03*
X155100000Y-101980000D03*
X154700000Y-101980000D03*
X154300000Y-101980000D03*
X153900000Y-101980000D03*
X153500000Y-101980000D03*
X153100000Y-101980000D03*
D31*
X152490000Y-102590000D03*
X152490000Y-102990000D03*
X152490000Y-103390000D03*
X152490000Y-103790000D03*
X152490000Y-104190000D03*
X152490000Y-104590000D03*
X152490000Y-104990000D03*
X152490000Y-105390000D03*
X152490000Y-105790000D03*
X152490000Y-106190000D03*
D32*
X153100000Y-106800000D03*
X153500000Y-106800000D03*
X153900000Y-106800000D03*
X154300000Y-106800000D03*
X154700000Y-106800000D03*
X155100000Y-106800000D03*
X155500000Y-106800000D03*
X155900000Y-106800000D03*
X156300000Y-106800000D03*
X156700000Y-106800000D03*
D33*
X154900000Y-104390000D03*
%TD*%
D34*
%TO.C,C22*%
X162046447Y-106953553D03*
X162753553Y-106246447D03*
%TD*%
D29*
%TO.C,C1*%
X157600000Y-125500000D03*
X157600000Y-126500000D03*
%TD*%
%TO.C,R25*%
X176400000Y-126800000D03*
X176400000Y-127800000D03*
%TD*%
D24*
%TO.C,R38*%
X110075000Y-109870000D03*
X110075000Y-108870000D03*
%TD*%
%TO.C,R40*%
X191550000Y-112250000D03*
X191550000Y-111250000D03*
%TD*%
D15*
%TO.C,C58*%
X152975000Y-113525000D03*
X153975000Y-113525000D03*
%TD*%
D25*
%TO.C,C19*%
X163050000Y-100450000D03*
X162050000Y-100450000D03*
%TD*%
D24*
%TO.C,R9*%
X157475000Y-110850000D03*
X157475000Y-109850000D03*
%TD*%
D25*
%TO.C,R7*%
X145529399Y-114773513D03*
X144529399Y-114773513D03*
%TD*%
D29*
%TO.C,C43*%
X109075000Y-108870000D03*
X109075000Y-109870000D03*
%TD*%
D25*
%TO.C,C14*%
X188745000Y-100325000D03*
X187745000Y-100325000D03*
%TD*%
D28*
%TO.C,C39*%
X102100000Y-118600000D03*
X100200000Y-118600000D03*
%TD*%
D15*
%TO.C,R54*%
X156925000Y-98150000D03*
X157925000Y-98150000D03*
%TD*%
D35*
%TO.C,X3*%
X189310000Y-101350000D03*
X187110000Y-101350000D03*
X187110000Y-102950000D03*
X189310000Y-102950000D03*
%TD*%
D36*
%TO.C,J4*%
X178490000Y-124625000D03*
X179290000Y-124625000D03*
D37*
X180440000Y-124625000D03*
X181440000Y-124625000D03*
X181940000Y-124625000D03*
X182940000Y-124625000D03*
D36*
X184090000Y-124625000D03*
X184890000Y-124625000D03*
X184890000Y-124625000D03*
X184090000Y-124625000D03*
D37*
X183440000Y-124625000D03*
X182440000Y-124625000D03*
X180940000Y-124625000D03*
X179940000Y-124625000D03*
D36*
X179290000Y-124625000D03*
X178490000Y-124625000D03*
D38*
X177370000Y-125200000D03*
D39*
X177370000Y-129380000D03*
D38*
X186010000Y-125200000D03*
D39*
X186010000Y-129380000D03*
%TD*%
D25*
%TO.C,C3*%
X145500000Y-109525000D03*
X144500000Y-109525000D03*
%TD*%
D28*
%TO.C,C32*%
X105500000Y-120600000D03*
X103600000Y-120600000D03*
%TD*%
D23*
%TO.C,C45*%
X116837500Y-108750000D03*
X116837500Y-110650000D03*
%TD*%
D24*
%TO.C,C29*%
X160300000Y-101600000D03*
X160300000Y-100600000D03*
%TD*%
D40*
%TO.C,D2*%
X197890000Y-113900000D03*
X196310000Y-113900000D03*
%TD*%
D29*
%TO.C,R64*%
X178950000Y-90200000D03*
X178950000Y-91200000D03*
%TD*%
D28*
%TO.C,C31*%
X102100000Y-120600000D03*
X100200000Y-120600000D03*
%TD*%
D25*
%TO.C,R37*%
X105300000Y-110700000D03*
X104300000Y-110700000D03*
%TD*%
D41*
%TO.C,D4*%
X129550000Y-99900000D03*
X125250000Y-99900000D03*
%TD*%
D42*
%TO.C,LED2*%
X194528255Y-100313600D03*
X194528255Y-102853600D03*
X191988255Y-100313600D03*
X191988255Y-102853600D03*
%TD*%
D25*
%TO.C,R34*%
X101900000Y-124200000D03*
X100900000Y-124200000D03*
%TD*%
D43*
%TO.C,Q1*%
X174190000Y-101600000D03*
X174190000Y-99700000D03*
X172310000Y-100650000D03*
%TD*%
D24*
%TO.C,C7*%
X146525000Y-113400000D03*
X146525000Y-112400000D03*
%TD*%
D23*
%TO.C,C47*%
X121200000Y-108750000D03*
X121200000Y-110650000D03*
%TD*%
D44*
%TO.C,C9*%
X137095000Y-105600000D03*
X138655000Y-105600000D03*
%TD*%
D15*
%TO.C,R60*%
X180500000Y-86550000D03*
X181500000Y-86550000D03*
%TD*%
D29*
%TO.C,R29*%
X175600000Y-99550000D03*
X175600000Y-100550000D03*
%TD*%
%TO.C,C28*%
X160300000Y-102400000D03*
X160300000Y-103400000D03*
%TD*%
D45*
%TO.C,L1*%
X111412500Y-102385000D03*
X120912500Y-102385000D03*
%TD*%
D41*
%TO.C,D3*%
X107150000Y-99600000D03*
X102850000Y-99600000D03*
%TD*%
D46*
%TO.C,U2*%
X104650000Y-107400000D03*
D47*
X102087500Y-105495000D03*
X102087500Y-106765000D03*
X102087500Y-108035000D03*
X102087500Y-109305000D03*
X107212500Y-109305000D03*
X107212500Y-108035000D03*
X107212500Y-106765000D03*
X107212500Y-105495000D03*
%TD*%
D48*
%TO.C,J1*%
X129950000Y-93280000D03*
D49*
X132490000Y-93280000D03*
X135030000Y-93280000D03*
X137570000Y-93280000D03*
X140110000Y-93280000D03*
X142650000Y-93280000D03*
X145190000Y-93280000D03*
X147730000Y-93280000D03*
X150270000Y-93280000D03*
X152810000Y-93280000D03*
X155350000Y-93280000D03*
X157890000Y-93280000D03*
X160430000Y-93280000D03*
X162970000Y-93280000D03*
X165510000Y-93280000D03*
X168050000Y-93280000D03*
X129950000Y-90740000D03*
X132490000Y-90740000D03*
X135030000Y-90740000D03*
X137570000Y-90740000D03*
X140110000Y-90740000D03*
X142650000Y-90740000D03*
X145190000Y-90740000D03*
X147730000Y-90740000D03*
X150270000Y-90740000D03*
X152810000Y-90740000D03*
X155350000Y-90740000D03*
X157890000Y-90740000D03*
X160430000Y-90740000D03*
X162970000Y-90740000D03*
X165510000Y-90740000D03*
X168050000Y-90740000D03*
X129950000Y-88200000D03*
X132490000Y-88200000D03*
X135030000Y-88200000D03*
X137570000Y-88200000D03*
X140110000Y-88200000D03*
X142650000Y-88200000D03*
X145190000Y-88200000D03*
X147730000Y-88200000D03*
X150270000Y-88200000D03*
X152810000Y-88200000D03*
X155350000Y-88200000D03*
X157890000Y-88200000D03*
X160430000Y-88200000D03*
X162970000Y-88200000D03*
X165510000Y-88200000D03*
X168050000Y-88200000D03*
%TD*%
D29*
%TO.C,C4*%
X143100000Y-114775000D03*
X143100000Y-115775000D03*
%TD*%
D50*
%TO.C,FB1*%
X161600000Y-104560000D03*
X161600000Y-102440000D03*
%TD*%
D29*
%TO.C,R63*%
X178050000Y-90200000D03*
X178050000Y-91200000D03*
%TD*%
D25*
%TO.C,R17*%
X173200000Y-109277500D03*
X172200000Y-109277500D03*
%TD*%
D29*
%TO.C,R308*%
X174250000Y-111650000D03*
X174250000Y-112650000D03*
%TD*%
D51*
%TO.C,U7*%
X164600000Y-111050000D03*
D52*
X164200000Y-110950000D03*
D53*
X163537500Y-111212500D03*
X163537500Y-111612500D03*
X163537500Y-112012500D03*
D52*
X164200000Y-112275000D03*
X164600000Y-112275000D03*
D53*
X165262500Y-112012500D03*
X165262500Y-111612500D03*
X165262500Y-111212500D03*
%TD*%
D25*
%TO.C,R41*%
X192150000Y-113700000D03*
X191150000Y-113700000D03*
%TD*%
D24*
%TO.C,R58*%
X187220000Y-95600000D03*
X187220000Y-94600000D03*
%TD*%
D54*
%TO.C,J5*%
X194500583Y-94600000D03*
D55*
X197040583Y-92060000D03*
X191960583Y-92060000D03*
X197040583Y-97140000D03*
X191960583Y-97140000D03*
%TD*%
D24*
%TO.C,R35*%
X191500000Y-106900000D03*
X191500000Y-105900000D03*
%TD*%
D28*
%TO.C,C35*%
X102100000Y-116600000D03*
X100200000Y-116600000D03*
%TD*%
D24*
%TO.C,L2*%
X156550000Y-111600000D03*
X156550000Y-110600000D03*
%TD*%
D56*
%TO.C,C50*%
X133132500Y-108300000D03*
X125132500Y-108300000D03*
%TD*%
D57*
%TO.C,D5*%
X167550000Y-111675000D03*
X170350000Y-111675000D03*
%TD*%
D15*
%TO.C,L3*%
X159275000Y-107350000D03*
X160275000Y-107350000D03*
%TD*%
D24*
%TO.C,R61*%
X185744119Y-108906066D03*
X185744119Y-107906066D03*
%TD*%
D25*
%TO.C,C57*%
X154050000Y-109625000D03*
X153050000Y-109625000D03*
%TD*%
D22*
%TO.C,U5*%
X148350000Y-115787500D03*
X148350000Y-114987500D03*
X147200000Y-115387500D03*
%TD*%
D24*
%TO.C,R56*%
X160850000Y-98900000D03*
X160850000Y-97900000D03*
%TD*%
D29*
%TO.C,C904*%
X175900000Y-111650000D03*
X175900000Y-112650000D03*
%TD*%
D58*
%TO.C,H1*%
X103000000Y-86000000D03*
D59*
X103000000Y-86000000D03*
%TD*%
D24*
%TO.C,C37*%
X148000000Y-107100000D03*
X148000000Y-106100000D03*
%TD*%
%TO.C,R10*%
X159600000Y-111700000D03*
X159600000Y-110700000D03*
%TD*%
%TO.C,R26*%
X176400000Y-131200000D03*
X176400000Y-130200000D03*
%TD*%
%TO.C,R28*%
X175605000Y-102350000D03*
X175605000Y-101350000D03*
%TD*%
D15*
%TO.C,R906*%
X173100000Y-105825000D03*
X174100000Y-105825000D03*
%TD*%
%TO.C,C6*%
X147625000Y-109325000D03*
X148625000Y-109325000D03*
%TD*%
D60*
%TO.C,L5*%
X163421447Y-105646446D03*
X164128553Y-106353554D03*
%TD*%
D15*
%TO.C,R59*%
X180500000Y-85750000D03*
X181500000Y-85750000D03*
%TD*%
D61*
%TO.C,X2*%
X152475000Y-112425000D03*
X154675000Y-112425000D03*
X154675000Y-110725000D03*
X152475000Y-110725000D03*
%TD*%
D62*
%TO.C,SW3*%
X179432500Y-119550000D03*
X183932500Y-119550000D03*
D63*
X178182500Y-117050000D03*
X185182500Y-117050000D03*
%TD*%
D64*
%TO.C,U13*%
X176760000Y-102980000D03*
X178040000Y-102980000D03*
X179300000Y-102980000D03*
X180570000Y-102980000D03*
X181850000Y-102980000D03*
X183120000Y-102980000D03*
X184380000Y-102980000D03*
X185660000Y-102980000D03*
X185660000Y-98020000D03*
X184380000Y-98020000D03*
X183120000Y-98020000D03*
X181850000Y-98020000D03*
X180570000Y-98020000D03*
X179300000Y-98020000D03*
X178040000Y-98020000D03*
X176760000Y-98020000D03*
%TD*%
D18*
%TO.C,D7*%
X188525000Y-116900000D03*
X188525000Y-114800000D03*
%TD*%
D57*
%TO.C,D1*%
X110600000Y-113800000D03*
X113400000Y-113800000D03*
%TD*%
D29*
%TO.C,R66*%
X178050000Y-88200000D03*
X178050000Y-89200000D03*
%TD*%
%TO.C,R24*%
X186544119Y-107906066D03*
X186544119Y-108906066D03*
%TD*%
D65*
%TO.C,U10*%
X181362500Y-87820000D03*
X181362500Y-89090000D03*
X181362500Y-90360000D03*
X181362500Y-91630000D03*
X188537500Y-91630000D03*
X188537500Y-90360000D03*
X188537500Y-89090000D03*
X188537500Y-87820000D03*
%TD*%
D25*
%TO.C,R43*%
X150300000Y-102200000D03*
X149300000Y-102200000D03*
%TD*%
D24*
%TO.C,R51*%
X152875000Y-100890000D03*
X152875000Y-99890000D03*
%TD*%
D29*
%TO.C,C18*%
X158474999Y-107350000D03*
X158475001Y-108350000D03*
%TD*%
D44*
%TO.C,C10*%
X139895000Y-105600000D03*
X141455000Y-105600000D03*
%TD*%
D15*
%TO.C,C53*%
X158875000Y-104790000D03*
X159875000Y-104790000D03*
%TD*%
D29*
%TO.C,C26*%
X157200000Y-107550000D03*
X157200000Y-108550000D03*
%TD*%
D24*
%TO.C,C59*%
X159500000Y-101600000D03*
X159500000Y-100600000D03*
%TD*%
D28*
%TO.C,C38*%
X105500000Y-116600000D03*
X103600000Y-116600000D03*
%TD*%
D23*
%TO.C,C42*%
X119000000Y-108750000D03*
X119000000Y-110650000D03*
%TD*%
%TO.C,C41*%
X112400000Y-108750000D03*
X112400000Y-110650000D03*
%TD*%
D29*
%TO.C,R5*%
X157600000Y-127700000D03*
X157600000Y-128700000D03*
%TD*%
D66*
%TO.C,U15*%
X141300000Y-107550000D03*
X139000000Y-107550000D03*
D67*
X139000000Y-113850000D03*
D66*
X136700000Y-107550000D03*
%TD*%
D15*
%TO.C,C51*%
X188550000Y-86700000D03*
X189550000Y-86700000D03*
%TD*%
D29*
%TO.C,R31*%
X190050000Y-118425000D03*
X190050000Y-119425000D03*
%TD*%
D15*
%TO.C,R42*%
X184920000Y-94600000D03*
X185920000Y-94600000D03*
%TD*%
D68*
%TO.C,U3*%
X157400000Y-114400000D03*
D69*
X157300000Y-114800000D03*
D70*
X157562500Y-115462500D03*
X157962500Y-115462500D03*
X158362500Y-115462500D03*
D69*
X158625000Y-114800000D03*
X158625000Y-114400000D03*
D70*
X158362500Y-113737500D03*
X157962500Y-113737500D03*
X157562500Y-113737500D03*
%TD*%
D25*
%TO.C,R46*%
X150290000Y-104600000D03*
X149290000Y-104600000D03*
%TD*%
D28*
%TO.C,C33*%
X102100000Y-122600000D03*
X100200000Y-122600000D03*
%TD*%
D15*
%TO.C,C13*%
X185600000Y-122725000D03*
X186600000Y-122725000D03*
%TD*%
D25*
%TO.C,R902*%
X178900000Y-106850000D03*
X177900000Y-106850000D03*
%TD*%
D29*
%TO.C,C17*%
X161075000Y-107350000D03*
X161075000Y-108350000D03*
%TD*%
D25*
%TO.C,R33*%
X104700000Y-124200000D03*
X103700000Y-124200000D03*
%TD*%
D24*
%TO.C,R1*%
X185275000Y-114875000D03*
X185275000Y-113875000D03*
%TD*%
D71*
%TO.C,J8*%
X170590000Y-124660000D03*
D72*
X169574000Y-122880000D03*
X168558000Y-124660000D03*
X167542000Y-122880000D03*
X166526000Y-124660000D03*
X165510000Y-122880000D03*
X164494000Y-124660000D03*
X163478000Y-122880000D03*
X173890000Y-118060000D03*
X171600000Y-118060000D03*
X162460000Y-118060000D03*
X160170000Y-118060000D03*
D73*
X175160000Y-123770000D03*
X158900000Y-123770000D03*
%TD*%
D15*
%TO.C,C902*%
X176700000Y-112450000D03*
X177700000Y-112450000D03*
%TD*%
D61*
%TO.C,Y900*%
X180350000Y-111450000D03*
X182550000Y-111450000D03*
X182550000Y-109750000D03*
X180350000Y-109750000D03*
%TD*%
D74*
%TO.C,D301*%
X173100000Y-111560000D03*
X173100000Y-113140000D03*
%TD*%
D63*
%TO.C,KEY1*%
X195137500Y-112182500D03*
X195137500Y-105182500D03*
D75*
X197377500Y-111192500D03*
X197377500Y-109562500D03*
X197377500Y-107812500D03*
X197377500Y-106182500D03*
%TD*%
D15*
%TO.C,R907*%
X173100000Y-106625000D03*
X174100000Y-106625000D03*
%TD*%
D76*
%TO.C,C25*%
X159427427Y-105712170D03*
X160367119Y-106054190D03*
%TD*%
D77*
%TO.C,C49*%
X109194954Y-90805459D03*
D78*
X110694952Y-90805459D03*
X115694952Y-90805459D03*
D79*
X117200000Y-90800000D03*
%TD*%
D29*
%TO.C,C54*%
X175600000Y-97725000D03*
X175600000Y-98725000D03*
%TD*%
D25*
%TO.C,R16*%
X173200000Y-110077500D03*
X172200000Y-110077500D03*
%TD*%
D28*
%TO.C,C40*%
X107550000Y-103200000D03*
X105650000Y-103200000D03*
%TD*%
D29*
%TO.C,R68*%
X179850000Y-88200000D03*
X179850000Y-89200000D03*
%TD*%
%TO.C,R14*%
X168925000Y-113250000D03*
X168925000Y-114250000D03*
%TD*%
%TO.C,R23*%
X191544119Y-109381066D03*
X191544119Y-110381066D03*
%TD*%
D24*
%TO.C,R20*%
X171850000Y-106675000D03*
X171850000Y-105675000D03*
%TD*%
D25*
%TO.C,R45*%
X150300000Y-103000000D03*
X149300000Y-103000000D03*
%TD*%
D24*
%TO.C,R50*%
X153675000Y-100890000D03*
X153675000Y-99890000D03*
%TD*%
D29*
%TO.C,R67*%
X178950000Y-88200000D03*
X178950000Y-89200000D03*
%TD*%
D16*
%TO.C,U6*%
X149750000Y-110425000D03*
X149100000Y-110425000D03*
X148450000Y-110425000D03*
X147800000Y-110425000D03*
X147800000Y-113325000D03*
X148450000Y-113325000D03*
X149100000Y-113325000D03*
X149750000Y-113325000D03*
D17*
X148775000Y-111875000D03*
%TD*%
D25*
%TO.C,C12*%
X179400000Y-123100000D03*
X178400000Y-123100000D03*
%TD*%
%TO.C,R903*%
X178900000Y-106050000D03*
X177900000Y-106050000D03*
%TD*%
D43*
%TO.C,Q2*%
X171190000Y-104362500D03*
X171190000Y-102462500D03*
X169310000Y-103412500D03*
%TD*%
D29*
%TO.C,R15*%
X168125000Y-113250000D03*
X168125000Y-114250000D03*
%TD*%
D80*
%TO.C,U8*%
X147090000Y-99510000D03*
X145820000Y-99510000D03*
X144560000Y-99510000D03*
X143290000Y-99510000D03*
X143290000Y-106590000D03*
X144560000Y-106590000D03*
X145820000Y-106590000D03*
X147090000Y-106590000D03*
%TD*%
D29*
%TO.C,R65*%
X179850000Y-90200000D03*
X179850000Y-91200000D03*
%TD*%
D71*
%TO.C,J9*%
X151690000Y-124660000D03*
D72*
X150674000Y-122880000D03*
X149658000Y-124660000D03*
X148642000Y-122880000D03*
X147626000Y-124660000D03*
X146610000Y-122880000D03*
X145594000Y-124660000D03*
X144578000Y-122880000D03*
X154990000Y-118060000D03*
X152700000Y-118060000D03*
X143560000Y-118060000D03*
X141270000Y-118060000D03*
D73*
X156260000Y-123770000D03*
X140000000Y-123770000D03*
%TD*%
D25*
%TO.C,R27*%
X184800000Y-122725000D03*
X183800000Y-122725000D03*
%TD*%
D24*
%TO.C,R57*%
X183720000Y-95600000D03*
X183720000Y-94600000D03*
%TD*%
D29*
%TO.C,R19*%
X171875000Y-107475000D03*
X171875000Y-108475000D03*
%TD*%
D24*
%TO.C,R13*%
X169725000Y-114250000D03*
X169725000Y-113250000D03*
%TD*%
%TO.C,R4*%
X186075000Y-114875000D03*
X186075000Y-113875000D03*
%TD*%
D81*
%TO.C,U302*%
X177212500Y-109850000D03*
X177212500Y-109350000D03*
X177212500Y-108850000D03*
X177212500Y-108350000D03*
D82*
X176500000Y-107637500D03*
X176000000Y-107637500D03*
X175500000Y-107637500D03*
X175000000Y-107637500D03*
D81*
X174287500Y-108350000D03*
X174287500Y-108850000D03*
X174287500Y-109350000D03*
X174287500Y-109850000D03*
D82*
X175000000Y-110562500D03*
X175500000Y-110562500D03*
X176000000Y-110562500D03*
X176500000Y-110562500D03*
D83*
X175750000Y-109100000D03*
%TD*%
D24*
%TO.C,R32*%
X190700000Y-106900000D03*
X190700000Y-105900000D03*
%TD*%
D25*
%TO.C,R48*%
X150300000Y-103800000D03*
X149300000Y-103800000D03*
%TD*%
D42*
%TO.C,LED1*%
X190686400Y-127628255D03*
X188146400Y-127628255D03*
X190686400Y-125088255D03*
X188146400Y-125088255D03*
%TD*%
D15*
%TO.C,R52*%
X156925000Y-97350000D03*
X157925000Y-97350000D03*
%TD*%
D12*
%TO.C,J2*%
X121250000Y-123850000D03*
X107750000Y-123850000D03*
D13*
X118100000Y-117850000D03*
D14*
X110900000Y-117850000D03*
%TD*%
D15*
%TO.C,R49*%
X149675000Y-107025000D03*
X150675000Y-107025000D03*
%TD*%
D84*
%TO.C,U9*%
X181100000Y-123200000D03*
X181900000Y-123200000D03*
X181500000Y-122050000D03*
%TD*%
D29*
%TO.C,R30*%
X190850000Y-118425000D03*
X190850000Y-119425000D03*
%TD*%
D85*
%TO.C,R36*%
X108007500Y-110835000D03*
X106367500Y-110835000D03*
%TD*%
D29*
%TO.C,C27*%
X155500000Y-108300000D03*
X155500000Y-109300000D03*
%TD*%
M02*
