M48
; DRILL file KiCad 10.0.1 date 2026-08-18T10:46:06
; FORMAT={-:-/ absolute / inch / decimal}
; #@! TF.CreationDate,2026-08-18T10:46:06+02:00
; #@! TF.GenerationSoftware,Kicad,Pcbnew,10.0.1
; #@! TF.FileFunction,Plated,1,4,PTH
FMAT,2
INCH
; #@! TA.AperFunction,Plated,PTH,ViaDrill
T1C0.0118
; #@! TA.AperFunction,Plated,PTH,ComponentDrill
T2C0.0236
; #@! TA.AperFunction,Plated,PTH,ComponentDrill
T3C0.0315
; #@! TA.AperFunction,Plated,PTH,ComponentDrill
T4C0.0315
; #@! TA.AperFunction,Plated,PTH,ComponentDrill
T5C0.0350
; #@! TA.AperFunction,Plated,PTH,ComponentDrill
T6C0.0394
; #@! TA.AperFunction,Plated,PTH,ComponentDrill
T7C0.0394
; #@! TA.AperFunction,Plated,PTH,ComponentDrill
T8C0.0433
; #@! TA.AperFunction,Plated,PTH,ComponentDrill
T9C0.0512
; #@! TA.AperFunction,Plated,PTH,ComponentDrill
T10C0.0551
; #@! TA.AperFunction,Plated,PTH,ComponentDrill
T11C0.0591
; #@! TA.AperFunction,Plated,PTH,ComponentDrill
T12C0.0618
; #@! TA.AperFunction,Plated,PTH,ComponentDrill
T13C0.0669
; #@! TA.AperFunction,Plated,PTH,ComponentDrill
T14C0.1063
%
G90
G05
T1
X3.9291Y-4.1831
X3.9291Y-4.2126
X3.9291Y-4.2421
X3.9291Y-4.2717
X3.937Y-3.2677
X3.937Y-3.3071
X3.937Y-4.874
X3.937Y-4.8976
X3.937Y-4.9213
X3.937Y-4.9449
X3.937Y-5.1181
X3.937Y-5.1575
X3.9606Y-4.1831
X3.9606Y-4.2126
X3.9606Y-4.2421
X3.9606Y-4.2717
X3.9665Y-4.9213
X3.9665Y-4.9449
X3.9685Y-4.6299
X3.9685Y-4.7087
X3.9685Y-4.7874
X3.9764Y-3.2677
X3.9764Y-5.1575
X4.0676Y-3.9858
X4.0676Y-4.0153
X4.0676Y-4.0448
X4.0676Y-4.0744
X4.0925Y-4.1752
X4.0925Y-4.2028
X4.0925Y-4.2303
X4.0925Y-4.2559
X4.0925Y-4.2835
X4.0945Y-3.9862
X4.0945Y-4.0157
X4.0945Y-4.0453
X4.0945Y-4.0748
X4.1024Y-4.3862
X4.1201Y-4.1752
X4.1201Y-4.2028
X4.1201Y-4.2303
X4.1201Y-4.2559
X4.1201Y-4.2835
X4.1339Y-3.2677
X4.1398Y-4.4606
X4.1398Y-4.4902
X4.1398Y-4.5197
X4.1476Y-4.1752
X4.1476Y-4.2028
X4.1476Y-4.2303
X4.1476Y-4.2559
X4.1476Y-4.2835
X4.1693Y-4.4606
X4.1693Y-4.4902
X4.1693Y-4.5197
X4.1732Y-3.2677
X4.1732Y-3.3071
X4.1732Y-3.3465
X4.1732Y-3.4252
X4.1988Y-4.4606
X4.1988Y-4.4902
X4.1988Y-4.5197
X4.2126Y-3.2677
X4.2126Y-3.3071
X4.2126Y-3.3465
X4.2126Y-3.3858
X4.2126Y-3.4252
X4.2126Y-3.6614
X4.2126Y-3.6909
X4.2126Y-3.7205
X4.2126Y-3.75
X4.2283Y-4.4606
X4.2283Y-4.4902
X4.2283Y-4.5197
X4.2421Y-3.6614
X4.2421Y-3.6909
X4.2421Y-3.7205
X4.2421Y-3.75
X4.2579Y-4.4606
X4.2579Y-4.4902
X4.2579Y-4.5197
X4.2677Y-4.3071
X4.2717Y-3.6614
X4.2717Y-3.6909
X4.2717Y-3.7205
X4.2717Y-3.75
X4.2874Y-4.4606
X4.2874Y-4.4902
X4.2874Y-4.5197
X4.2943Y-4.3524
X4.3012Y-3.6614
X4.3012Y-3.6909
X4.3012Y-3.7205
X4.3012Y-3.75
X4.3258Y-4.2075
X4.3307Y-3.6614
X4.3307Y-3.6909
X4.3307Y-3.7205
X4.3307Y-3.75
X4.3384Y-4.3581
X4.3602Y-3.6614
X4.3602Y-3.6909
X4.3602Y-3.7205
X4.3602Y-3.75
X4.374Y-4.2874
X4.3898Y-3.6614
X4.3898Y-3.6909
X4.3898Y-3.7205
X4.3898Y-3.75
X4.5276Y-3.4252
X4.5276Y-3.5039
X4.5472Y-3.6614
X4.5472Y-3.6909
X4.5472Y-3.7205
X4.5472Y-3.75
X4.5768Y-3.6614
X4.5768Y-3.6909
X4.5768Y-3.7205
X4.5768Y-3.75
X4.6063Y-3.4252
X4.6063Y-3.5039
X4.6063Y-3.6614
X4.6063Y-3.6909
X4.6063Y-3.7205
X4.6063Y-3.75
X4.6358Y-3.6614
X4.6358Y-3.6909
X4.6358Y-3.7205
X4.6358Y-3.75
X4.6654Y-3.6614
X4.6654Y-3.6909
X4.6654Y-3.7205
X4.6654Y-3.75
X4.685Y-3.4252
X4.685Y-3.5039
X4.7638Y-3.4252
X4.7638Y-3.5039
X4.7638Y-3.5827
X4.7638Y-3.6614
X4.7638Y-3.7402
X4.7638Y-3.8189
X4.7638Y-4.5669
X4.7638Y-4.5965
X4.7638Y-4.626
X4.7638Y-4.6555
X4.7638Y-4.685
X4.7638Y-4.7146
X4.7933Y-4.5669
X4.7933Y-4.5965
X4.7933Y-4.626
X4.7933Y-4.6555
X4.7933Y-4.685
X4.7933Y-4.7146
X4.8228Y-4.5669
X4.8228Y-4.5965
X4.8228Y-4.626
X4.8228Y-4.6555
X4.8228Y-4.685
X4.8228Y-4.7146
X4.8425Y-3.4252
X4.8425Y-3.5039
X4.8425Y-3.7402
X4.8425Y-3.8189
X4.8425Y-4.3307
X4.8425Y-4.3701
X4.8524Y-4.1929
X4.8524Y-4.5669
X4.8524Y-4.5965
X4.8524Y-4.626
X4.8524Y-4.6555
X4.8524Y-4.685
X4.8524Y-4.7146
X4.8799Y-4.1929
X4.8819Y-4.3307
X4.8819Y-4.3701
X4.8819Y-4.5669
X4.8819Y-4.5965
X4.8819Y-4.626
X4.8819Y-4.6555
X4.8819Y-4.685
X4.8819Y-4.7146
X4.9075Y-4.1929
X4.9114Y-4.5669
X4.9114Y-4.5965
X4.9114Y-4.626
X4.9114Y-4.6555
X4.9114Y-4.685
X4.9114Y-4.7146
X4.9213Y-3.4252
X4.9213Y-3.5039
X4.9213Y-3.6614
X4.9213Y-3.7402
X4.9213Y-3.8189
X4.9213Y-4.3307
X4.9213Y-4.3701
X4.935Y-4.1929
X4.9606Y-4.3307
X4.9606Y-4.3701
X5.3661Y-4.2933
X5.3917Y-4.2933
X5.4587Y-4.123
X5.4587Y-4.3839
X5.4587Y-4.4075
X5.4862Y-4.3839
X5.4862Y-4.4075
X5.5177Y-3.2874
X5.5177Y-3.3169
X5.5177Y-3.3465
X5.5394Y-4.2835
X5.5394Y-4.3071
X5.5472Y-3.2874
X5.5472Y-3.3169
X5.5472Y-3.3465
X5.565Y-4.2835
X5.565Y-4.3071
X5.5768Y-3.2874
X5.5768Y-3.3169
X5.5768Y-3.3465
X5.5886Y-4.2835
X5.5886Y-4.3071
X5.5925Y-4.0335
X5.6043Y-4.5315
X5.6058Y-4.557
X5.6061Y-3.8624
X5.6063Y-3.2874
X5.6063Y-3.3169
X5.6063Y-3.3465
X5.6201Y-4.3996
X5.6319Y-4.2618
X5.6319Y-4.2904
X5.6358Y-3.2874
X5.6358Y-3.3169
X5.6358Y-3.3465
X5.6413Y-4.1177
X5.6457Y-4.3197
X5.6559Y-4.5829
X5.6575Y-3.9685
X5.6618Y-4.5555
X5.6654Y-3.2874
X5.6654Y-3.3169
X5.6654Y-3.3465
X5.6703Y-4.3268
X5.6811Y-4.5787
X5.6925Y-4.0862
X5.6949Y-3.2874
X5.6949Y-3.3169
X5.6949Y-3.3465
X5.7096Y-4.5453
X5.7244Y-3.2874
X5.7244Y-3.3169
X5.7244Y-3.3465
X5.7421Y-4.3445
X5.7539Y-3.2874
X5.7539Y-3.3169
X5.7539Y-3.3465
X5.7559Y-4.3189
X5.7736Y-4.7697
X5.7746Y-4.3002
X5.7788Y-4.3254
X5.7835Y-3.2874
X5.7835Y-3.3169
X5.7835Y-3.3465
X5.7943Y-4.3947
X5.7963Y-4.4213
X5.7963Y-4.4469
X5.8015Y-4.3373
X5.8071Y-4.2608
X5.813Y-3.2874
X5.813Y-3.3169
X5.813Y-3.3465
X5.8149Y-4.5428
X5.8169Y-4.1417
X5.836Y-4.3214
X5.84Y-4.2451
X5.8425Y-3.2874
X5.8425Y-3.3169
X5.8425Y-3.3465
X5.8445Y-4.5016
X5.8461Y-4.0862
X5.8461Y-4.1177
X5.8543Y-4.1831
X5.8689Y-4.2469
X5.8699Y-4.4982
X5.8953Y-4.4949
X5.9094Y-4.185
X5.9173Y-4.4724
X5.9182Y-4.5063
X5.9205Y-4.3961
X5.935Y-3.7972
X5.9376Y-3.8227
X5.9381Y-3.8483
X5.9426Y-4.1378
X5.955Y-3.8676
X5.9681Y-4.0665
X5.9681Y-4.1335
X5.9816Y-4.3061
X5.9844Y-4.2807
X6.001Y-4.3228
X6.0051Y-3.9023
X6.0079Y-4.2087
X6.015Y-4.2357
X6.0202Y-4.2607
X6.0232Y-3.8842
X6.0362Y-4.2807
X6.0394Y-3.2717
X6.0394Y-3.311
X6.0512Y-4.063
X6.0512Y-4.0906
X6.0512Y-4.122
X6.0512Y-4.1496
X6.0607Y-4.288
X6.0787Y-3.2717
X6.0787Y-3.311
X6.0827Y-4.063
X6.0827Y-4.0906
X6.0827Y-4.122
X6.0827Y-4.1496
X6.0876Y-4.4606
X6.0942Y-4.2819
X6.0985Y-4.3072
X6.1181Y-3.2717
X6.1181Y-3.311
X6.1181Y-4.063
X6.1181Y-4.0906
X6.1181Y-4.122
X6.1181Y-4.1496
X6.122Y-4.2423
X6.1457Y-3.7707
X6.1496Y-4.063
X6.1496Y-4.0906
X6.1496Y-4.122
X6.1496Y-4.1496
X6.1575Y-3.2717
X6.1575Y-3.311
X6.1674Y-3.9276
X6.1701Y-3.9556
X6.1752Y-4.9803
X6.1752Y-5.0689
X6.1773Y-3.8023
X6.1831Y-4.5561
X6.1929Y-3.9252
X6.195Y-3.9864
X6.1969Y-3.2717
X6.1969Y-3.311
X6.2116Y-4.252
X6.2127Y-4.2794
X6.2175Y-4.0128
X6.228Y-4.1413
X6.2362Y-3.2717
X6.2362Y-3.311
X6.238Y-4.0282
X6.2461Y-3.8051
X6.252Y-4.4055
X6.2559Y-4.6713
X6.2565Y-4.3803
X6.2577Y-4.0473
X6.2659Y-4.4587
X6.2677Y-4.2697
X6.2695Y-4.1088
X6.2756Y-3.2717
X6.2756Y-3.311
X6.2783Y-4.0625
X6.2795Y-3.937
X6.2953Y-3.8996
X6.311Y-3.937
X6.311Y-4.2697
X6.315Y-3.2717
X6.315Y-3.311
X6.315Y-4.0965
X6.3228Y-4.126
X6.3386Y-3.9931
X6.3428Y-4.1688
X6.3518Y-4.4001
X6.3533Y-3.9547
X6.3543Y-3.2717
X6.3543Y-3.311
X6.3543Y-4.4256
X6.3543Y-4.4512
X6.3734Y-4.4695
X6.3874Y-4.5467
X6.3937Y-3.2717
X6.3937Y-3.311
X6.3947Y-3.7392
X6.4002Y-4.4768
X6.4157Y-4.435
X6.4193Y-4.0197
X6.4197Y-4.4603
X6.4222Y-3.7805
X6.4331Y-3.2717
X6.4331Y-3.311
X6.437Y-4.3588
X6.4378Y-4.4783
X6.4724Y-3.2717
X6.4724Y-3.311
X6.4774Y-4.2028
X6.5118Y-3.2717
X6.5177Y-4.3583
X6.5379Y-4.415
X6.5416Y-4.4419
X6.5433Y-3.9626
X6.5657Y-4.4485
X6.5935Y-4.4882
X6.6365Y-4.1519
X6.6541Y-4.1704
X6.6555Y-4.1329
X6.6722Y-4.1523
X6.6772Y-4.0413
X6.7047Y-4.7087
X6.7047Y-4.7343
X6.7047Y-4.7559
X6.7205Y-4.4478
X6.7205Y-4.4734
X6.7205Y-4.4951
X6.7264Y-3.9626
X6.7854Y-4.0335
X6.8287Y-4.0335
X6.8701Y-4.4626
X6.8858Y-3.8593
X6.8858Y-3.8848
X6.8996Y-4.2736
X6.8996Y-4.3169
X6.8996Y-4.4094
X6.8996Y-4.435
X6.9193Y-4.2953
X6.9311Y-5.0984
X6.939Y-4.2736
X6.939Y-4.3169
X6.939Y-5.0591
X6.9606Y-4.002
X6.9646Y-4.8337
X6.9646Y-4.8553
X6.9744Y-3.5453
X6.9843Y-4.3602
X6.9882Y-4.8346
X6.9882Y-4.8563
X7.0098Y-4.1122
X7.0571Y-3.998
X7.0571Y-4.311
X7.0748Y-4.1467
X7.0768Y-3.376
X7.0768Y-3.4075
X7.0768Y-3.437
X7.0807Y-3.6181
X7.1004Y-4.1467
X7.1129Y-4.9462
X7.1133Y-4.9941
X7.1329Y-4.6073
X7.1347Y-4.5534
X7.135Y-4.5816
X7.1393Y-4.5282
X7.1457Y-4.8268
X7.1772Y-3.3976
X7.1811Y-4.4646
X7.187Y-3.6083
X7.187Y-4.4272
X7.1969Y-3.5591
X7.2076Y-4.9448
X7.2087Y-4.998
X7.2116Y-4.4519
X7.2234Y-4.7776
X7.2234Y-4.7992
X7.2331Y-3.7894
X7.2461Y-3.4783
X7.247Y-4.7785
X7.247Y-4.8002
X7.2598Y-4.3898
X7.2852Y-4.2591
X7.2864Y-4.374
X7.2913Y-4.3248
X7.311Y-4.3939
X7.3128Y-4.3536
X7.3484Y-4.8061
X7.364Y-3.9498
X7.3681Y-4.2382
X7.3701Y-3.5571
X7.3709Y-3.7894
X7.372Y-3.6102
X7.3794Y-4.2684
X7.3944Y-4.2436
X7.3976Y-4.6024
X7.3978Y-4.5097
X7.3996Y-4.2185
X7.4232Y-4.4173
X7.4469Y-3.7917
X7.4547Y-4.2323
X7.4547Y-4.3819
X7.4547Y-4.4173
X7.4555Y-4.0935
X7.4567Y-3.3819
X7.4744Y-4.2028
X7.5Y-4.4705
X7.5079Y-4.2362
X7.5098Y-3.4665
X7.5106Y-4.3122
X7.5217Y-4.6024
X7.5394Y-4.2451
X7.5837Y-4.3622
X7.7913Y-4.4488
T3
X7.7708Y-4.1804
X7.7708Y-4.2446
X7.7708Y-4.3135
X7.7708Y-4.3777
T4
X4.3581Y-3.575
X4.5549Y-3.575
T5
X5.5618Y-4.648
X5.652Y-4.648
X5.692Y-4.8378
X5.732Y-4.9079
X5.772Y-4.8378
X5.812Y-4.9079
X5.852Y-4.8378
X5.892Y-4.9079
X5.932Y-4.8378
X5.972Y-4.9079
X6.0118Y-4.648
X6.102Y-4.648
X6.3059Y-4.648
X6.3961Y-4.648
X6.4361Y-4.8378
X6.4761Y-4.9079
X6.5161Y-4.8378
X6.5561Y-4.9079
X6.5961Y-4.8378
X6.6361Y-4.9079
X6.6761Y-4.8378
X6.7161Y-4.9079
X6.7559Y-4.648
X6.8461Y-4.648
T6
X7.6417Y-4.6358
X7.6417Y-4.7146
X7.6417Y-4.7933
T7
X5.1161Y-3.4724
X5.1161Y-3.5724
X5.1161Y-3.6724
X5.2161Y-3.4724
X5.2161Y-3.5724
X5.2161Y-3.6724
X5.3161Y-3.4724
X5.3161Y-3.5724
X5.3161Y-3.6724
X5.4161Y-3.4724
X5.4161Y-3.5724
X5.4161Y-3.6724
X5.5161Y-3.4724
X5.5161Y-3.5724
X5.5161Y-3.6724
X5.6161Y-3.4724
X5.6161Y-3.5724
X5.6161Y-3.6724
X5.7161Y-3.4724
X5.7161Y-3.5724
X5.7161Y-3.6724
X5.8161Y-3.4724
X5.8161Y-3.5724
X5.8161Y-3.6724
X5.9161Y-3.4724
X5.9161Y-3.5724
X5.9161Y-3.6724
X6.0161Y-3.4724
X6.0161Y-3.5724
X6.0161Y-3.6724
X6.1161Y-3.4724
X6.1161Y-3.5724
X6.1161Y-3.6724
X6.2161Y-3.4724
X6.2161Y-3.5724
X6.2161Y-3.6724
X6.3161Y-3.4724
X6.3161Y-3.5724
X6.3161Y-3.6724
X6.4161Y-3.4724
X6.4161Y-3.5724
X6.4161Y-3.6724
X6.5161Y-3.4724
X6.5161Y-3.5724
X6.5161Y-3.6724
X6.6161Y-3.4724
X6.6161Y-3.5724
X6.6161Y-3.6724
X7.4073Y-4.9247
X7.4073Y-5.0247
X7.5073Y-4.9247
X7.5073Y-5.0247
X7.5586Y-3.9494
X7.5586Y-4.0494
X7.6586Y-3.9494
X7.6586Y-4.0494
T8
X7.0643Y-4.7067
X7.2414Y-4.7067
T9
X7.6826Y-4.141
X7.6826Y-4.4166
T10
X7.0151Y-4.6083
X7.2906Y-4.6083
T11
X7.6575Y-3.7244
T12
X5.5118Y-4.8728
X6.152Y-4.8728
X6.2559Y-4.8728
X6.8961Y-4.8728
T13
X7.5575Y-3.6244
X7.5575Y-3.8244
X7.7575Y-3.6244
X7.7575Y-3.8244
T14
X4.0551Y-3.3858
X4.3661Y-4.6398
X4.6496Y-4.6398
X5.0157Y-4.6398
X5.2992Y-4.6398
T2
G00X4.2421Y-4.8976
M15
G01X4.2421Y-4.8543
M16
G05
G00X4.7736Y-4.8976
M15
G01X4.7736Y-4.8543
M16
G05
G00X4.8917Y-4.8976
M15
G01X4.8917Y-4.8543
M16
G05
G00X5.4232Y-4.8976
M15
G01X5.4232Y-4.8543
M16
G05
G00X6.9831Y-4.9075
M15
G01X6.9831Y-4.9508
M16
G05
G00X6.9831Y-5.078
M15
G01X6.9831Y-5.1094
M16
G05
G00X7.3232Y-4.9075
M15
G01X7.3232Y-4.9508
M16
G05
G00X7.3232Y-5.078
M15
G01X7.3232Y-5.1094
M16
G05
T6
G00X7.626Y-4.5512
M15
G01X7.6575Y-4.5512
M16
G05
G00X7.626Y-4.878
M15
G01X7.6575Y-4.878
M16
G05
M30
