%TF.GenerationSoftware,KiCad,Pcbnew,10.0.1*%
%TF.CreationDate,2026-08-18T10:46:04+02:00*%
%TF.ProjectId,MMS3_ESP32-C6,4d4d5333-5f45-4535-9033-322d43362e6b,Version 1.0*%
%TF.SameCoordinates,Original*%
%TF.FileFunction,Copper,L1,Top*%
%TF.FilePolarity,Positive*%
%FSLAX46Y46*%
G04 Gerber Fmt 4.6, Leading zero omitted, Abs format (unit mm)*
G04 Created by KiCad (PCBNEW 10.0.1) date 2026-08-18 10:46:04*
%MOMM*%
%LPD*%
G01*
G04 APERTURE LIST*
G04 Aperture macros list*
%AMRoundRect*
0 Rectangle with rounded corners*
0 $1 Rounding radius*
0 $2 $3 $4 $5 $6 $7 $8 $9 X,Y pos of 4 corners*
0 Add a 4 corners polygon primitive as box body*
4,1,4,$2,$3,$4,$5,$6,$7,$8,$9,$2,$3,0*
0 Add four circle primitives for the rounded corners*
1,1,$1+$1,$2,$3*
1,1,$1+$1,$4,$5*
1,1,$1+$1,$6,$7*
1,1,$1+$1,$8,$9*
0 Add four rect primitives between the rounded corners*
20,1,$1+$1,$2,$3,$4,$5,0*
20,1,$1+$1,$4,$5,$6,$7,0*
20,1,$1+$1,$6,$7,$8,$9,0*
20,1,$1+$1,$8,$9,$2,$3,0*%
G04 Aperture macros list end*
%TA.AperFunction,SMDPad,CuDef*%
%ADD10R,0.600000X0.600000*%
%TD*%
%TA.AperFunction,ComponentPad*%
%ADD11R,0.900000X2.000000*%
%TD*%
%TA.AperFunction,ComponentPad*%
%ADD12RoundRect,1.025000X1.025000X1.025000X-1.025000X1.025000X-1.025000X-1.025000X1.025000X-1.025000X0*%
%TD*%
%TA.AperFunction,ComponentPad*%
%ADD13C,4.100000*%
%TD*%
%TA.AperFunction,SMDPad,CuDef*%
%ADD14RoundRect,0.140000X-0.140000X-0.170000X0.140000X-0.170000X0.140000X0.170000X-0.140000X0.170000X0*%
%TD*%
%TA.AperFunction,SMDPad,CuDef*%
%ADD15RoundRect,0.075000X-0.075000X0.350000X-0.075000X-0.350000X0.075000X-0.350000X0.075000X0.350000X0*%
%TD*%
%TA.AperFunction,HeatsinkPad*%
%ADD16R,2.400000X1.600000*%
%TD*%
%TA.AperFunction,SMDPad,CuDef*%
%ADD17RoundRect,0.112500X0.112500X-0.187500X0.112500X0.187500X-0.112500X0.187500X-0.112500X-0.187500X0*%
%TD*%
%TA.AperFunction,SMDPad,CuDef*%
%ADD18R,0.800000X0.280000*%
%TD*%
%TA.AperFunction,SMDPad,CuDef*%
%ADD19R,0.280000X0.800000*%
%TD*%
%TA.AperFunction,SMDPad,CuDef*%
%ADD20R,2.600000X2.600000*%
%TD*%
%TA.AperFunction,SMDPad,CuDef*%
%ADD21RoundRect,0.100000X0.125000X0.100000X-0.125000X0.100000X-0.125000X-0.100000X0.125000X-0.100000X0*%
%TD*%
%TA.AperFunction,SMDPad,CuDef*%
%ADD22RoundRect,0.250000X-0.475000X0.250000X-0.475000X-0.250000X0.475000X-0.250000X0.475000X0.250000X0*%
%TD*%
%TA.AperFunction,SMDPad,CuDef*%
%ADD23RoundRect,0.140000X0.170000X-0.140000X0.170000X0.140000X-0.170000X0.140000X-0.170000X-0.140000X0*%
%TD*%
%TA.AperFunction,SMDPad,CuDef*%
%ADD24RoundRect,0.140000X0.140000X0.170000X-0.140000X0.170000X-0.140000X-0.170000X0.140000X-0.170000X0*%
%TD*%
%TA.AperFunction,ComponentPad*%
%ADD25O,1.600000X1.600000*%
%TD*%
%TA.AperFunction,ComponentPad*%
%ADD26O,3.000000X2.000000*%
%TD*%
%TA.AperFunction,SMDPad,CuDef*%
%ADD27RoundRect,0.250000X0.250000X0.475000X-0.250000X0.475000X-0.250000X-0.475000X0.250000X-0.475000X0*%
%TD*%
%TA.AperFunction,SMDPad,CuDef*%
%ADD28RoundRect,0.140000X-0.170000X0.140000X-0.170000X-0.140000X0.170000X-0.140000X0.170000X0.140000X0*%
%TD*%
%TA.AperFunction,SMDPad,CuDef*%
%ADD29RoundRect,0.200000X-0.200000X-0.275000X0.200000X-0.275000X0.200000X0.275000X-0.200000X0.275000X0*%
%TD*%
%TA.AperFunction,SMDPad,CuDef*%
%ADD30R,0.665000X0.224000*%
%TD*%
%TA.AperFunction,SMDPad,CuDef*%
%ADD31R,0.224000X0.665000*%
%TD*%
%TA.AperFunction,SMDPad,CuDef*%
%ADD32R,3.300000X3.300000*%
%TD*%
%TA.AperFunction,SMDPad,CuDef*%
%ADD33RoundRect,0.140000X0.021213X-0.219203X0.219203X-0.021213X-0.021213X0.219203X-0.219203X0.021213X0*%
%TD*%
%TA.AperFunction,SMDPad,CuDef*%
%ADD34RoundRect,0.250000X0.450000X0.350000X-0.450000X0.350000X-0.450000X-0.350000X0.450000X-0.350000X0*%
%TD*%
%TA.AperFunction,SMDPad,CuDef*%
%ADD35RoundRect,0.150000X-0.150000X-0.425000X0.150000X-0.425000X0.150000X0.425000X-0.150000X0.425000X0*%
%TD*%
%TA.AperFunction,SMDPad,CuDef*%
%ADD36RoundRect,0.075000X-0.075000X-0.500000X0.075000X-0.500000X0.075000X0.500000X-0.075000X0.500000X0*%
%TD*%
%TA.AperFunction,ComponentPad*%
%ADD37O,1.000000X2.100000*%
%TD*%
%TA.AperFunction,ComponentPad*%
%ADD38O,1.000000X1.800000*%
%TD*%
%TA.AperFunction,SMDPad,CuDef*%
%ADD39RoundRect,0.220000X0.220000X0.255000X-0.220000X0.255000X-0.220000X-0.255000X0.220000X-0.255000X0*%
%TD*%
%TA.AperFunction,SMDPad,CuDef*%
%ADD40RoundRect,0.250000X1.000000X0.900000X-1.000000X0.900000X-1.000000X-0.900000X1.000000X-0.900000X0*%
%TD*%
%TA.AperFunction,ComponentPad*%
%ADD41C,1.600000*%
%TD*%
%TA.AperFunction,SMDPad,CuDef*%
%ADD42RoundRect,0.150000X0.590000X0.150000X-0.590000X0.150000X-0.590000X-0.150000X0.590000X-0.150000X0*%
%TD*%
%TA.AperFunction,SMDPad,CuDef*%
%ADD43RoundRect,0.225000X-0.225000X-0.250000X0.225000X-0.250000X0.225000X0.250000X-0.225000X0.250000X0*%
%TD*%
%TA.AperFunction,SMDPad,CuDef*%
%ADD44RoundRect,0.250002X-1.799998X-1.799998X1.799998X-1.799998X1.799998X1.799998X-1.799998X1.799998X0*%
%TD*%
%TA.AperFunction,SMDPad,CuDef*%
%ADD45RoundRect,0.150000X-0.737500X-0.150000X0.737500X-0.150000X0.737500X0.150000X-0.737500X0.150000X0*%
%TD*%
%TA.AperFunction,HeatsinkPad*%
%ADD46R,2.950000X4.900000*%
%TD*%
%TA.AperFunction,ComponentPad*%
%ADD47RoundRect,0.249999X0.525001X-0.525001X0.525001X0.525001X-0.525001X0.525001X-0.525001X-0.525001X0*%
%TD*%
%TA.AperFunction,ComponentPad*%
%ADD48C,1.550000*%
%TD*%
%TA.AperFunction,SMDPad,CuDef*%
%ADD49RoundRect,0.220000X0.380000X-0.220000X0.380000X0.220000X-0.380000X0.220000X-0.380000X-0.220000X0*%
%TD*%
%TA.AperFunction,SMDPad,CuDef*%
%ADD50RoundRect,0.050000X-0.050000X0.437500X-0.050000X-0.437500X0.050000X-0.437500X0.050000X0.437500X0*%
%TD*%
%TA.AperFunction,SMDPad,CuDef*%
%ADD51RoundRect,0.050000X-0.050000X0.337500X-0.050000X-0.337500X0.050000X-0.337500X0.050000X0.337500X0*%
%TD*%
%TA.AperFunction,SMDPad,CuDef*%
%ADD52RoundRect,0.050000X-0.337500X0.050000X-0.337500X-0.050000X0.337500X-0.050000X0.337500X0.050000X0*%
%TD*%
%TA.AperFunction,ComponentPad*%
%ADD53RoundRect,0.200100X-0.949900X0.949900X-0.949900X-0.949900X0.949900X-0.949900X0.949900X0.949900X0*%
%TD*%
%TA.AperFunction,ComponentPad*%
%ADD54C,2.500000*%
%TD*%
%TA.AperFunction,SMDPad,CuDef*%
%ADD55RoundRect,0.250000X1.750000X1.000000X-1.750000X1.000000X-1.750000X-1.000000X1.750000X-1.000000X0*%
%TD*%
%TA.AperFunction,SMDPad,CuDef*%
%ADD56RoundRect,0.250000X-0.300000X-0.550000X0.300000X-0.550000X0.300000X0.550000X-0.300000X0.550000X0*%
%TD*%
%TA.AperFunction,ComponentPad*%
%ADD57C,3.100000*%
%TD*%
%TA.AperFunction,ConnectorPad*%
%ADD58C,4.700000*%
%TD*%
%TA.AperFunction,SMDPad,CuDef*%
%ADD59RoundRect,0.140000X-0.219203X-0.021213X-0.021213X-0.219203X0.219203X0.021213X0.021213X0.219203X0*%
%TD*%
%TA.AperFunction,SMDPad,CuDef*%
%ADD60RoundRect,0.250000X-0.450000X-0.350000X0.450000X-0.350000X0.450000X0.350000X-0.450000X0.350000X0*%
%TD*%
%TA.AperFunction,ComponentPad*%
%ADD61C,1.800000*%
%TD*%
%TA.AperFunction,ComponentPad*%
%ADD62C,2.000000*%
%TD*%
%TA.AperFunction,SMDPad,CuDef*%
%ADD63RoundRect,0.150000X0.150000X-0.825000X0.150000X0.825000X-0.150000X0.825000X-0.150000X-0.825000X0*%
%TD*%
%TA.AperFunction,SMDPad,CuDef*%
%ADD64RoundRect,0.162500X-0.650000X-0.162500X0.650000X-0.162500X0.650000X0.162500X-0.650000X0.162500X0*%
%TD*%
%TA.AperFunction,SMDPad,CuDef*%
%ADD65RoundRect,0.375000X-0.375000X0.625000X-0.375000X-0.625000X0.375000X-0.625000X0.375000X0.625000X0*%
%TD*%
%TA.AperFunction,SMDPad,CuDef*%
%ADD66RoundRect,0.500000X-1.400000X0.500000X-1.400000X-0.500000X1.400000X-0.500000X1.400000X0.500000X0*%
%TD*%
%TA.AperFunction,SMDPad,CuDef*%
%ADD67RoundRect,0.050000X-0.437500X-0.050000X0.437500X-0.050000X0.437500X0.050000X-0.437500X0.050000X0*%
%TD*%
%TA.AperFunction,SMDPad,CuDef*%
%ADD68RoundRect,0.050000X-0.337500X-0.050000X0.337500X-0.050000X0.337500X0.050000X-0.337500X0.050000X0*%
%TD*%
%TA.AperFunction,SMDPad,CuDef*%
%ADD69RoundRect,0.050000X-0.050000X-0.337500X0.050000X-0.337500X0.050000X0.337500X-0.050000X0.337500X0*%
%TD*%
%TA.AperFunction,ComponentPad*%
%ADD70R,1.500000X1.500000*%
%TD*%
%TA.AperFunction,ComponentPad*%
%ADD71C,1.500000*%
%TD*%
%TA.AperFunction,ComponentPad*%
%ADD72C,2.300000*%
%TD*%
%TA.AperFunction,SMDPad,CuDef*%
%ADD73RoundRect,0.220000X-0.255000X0.220000X-0.255000X-0.220000X0.255000X-0.220000X0.255000X0.220000X0*%
%TD*%
%TA.AperFunction,ComponentPad*%
%ADD74C,1.400000*%
%TD*%
%TA.AperFunction,SMDPad,CuDef*%
%ADD75RoundRect,0.140000X-0.189700X-0.111865X0.073414X-0.207631X0.189700X0.111865X-0.073414X0.207631X0*%
%TD*%
%TA.AperFunction,SMDPad,CuDef*%
%ADD76RoundRect,0.250000X-1.749998X-1.000000X1.749998X-1.000000X1.749998X1.000000X-1.749998X1.000000X0*%
%TD*%
%TA.AperFunction,ComponentPad*%
%ADD77RoundRect,0.190500X0.444500X-1.079500X0.444500X1.079500X-0.444500X1.079500X-0.444500X-1.079500X0*%
%TD*%
%TA.AperFunction,SMDPad,CuDef*%
%ADD78RoundRect,0.251091X-1.743841X-1.004366X1.743841X-1.004366X1.743841X1.004366X-1.743841X1.004366X0*%
%TD*%
%TA.AperFunction,SMDPad,CuDef*%
%ADD79O,0.609000X2.204000*%
%TD*%
%TA.AperFunction,SMDPad,CuDef*%
%ADD80RoundRect,0.062500X0.350000X0.062500X-0.350000X0.062500X-0.350000X-0.062500X0.350000X-0.062500X0*%
%TD*%
%TA.AperFunction,SMDPad,CuDef*%
%ADD81RoundRect,0.062500X0.062500X0.350000X-0.062500X0.350000X-0.062500X-0.350000X0.062500X-0.350000X0*%
%TD*%
%TA.AperFunction,HeatsinkPad*%
%ADD82R,1.700000X1.700000*%
%TD*%
%TA.AperFunction,SMDPad,CuDef*%
%ADD83RoundRect,0.100000X0.100000X-0.125000X0.100000X0.125000X-0.100000X0.125000X-0.100000X-0.125000X0*%
%TD*%
%TA.AperFunction,SMDPad,CuDef*%
%ADD84RoundRect,0.200000X0.200000X0.275000X-0.200000X0.275000X-0.200000X-0.275000X0.200000X-0.275000X0*%
%TD*%
%TA.AperFunction,ViaPad*%
%ADD85C,0.500000*%
%TD*%
%TA.AperFunction,Conductor*%
%ADD86C,0.200000*%
%TD*%
%TA.AperFunction,Conductor*%
%ADD87C,0.400000*%
%TD*%
%TA.AperFunction,Conductor*%
%ADD88C,0.600000*%
%TD*%
%TA.AperFunction,Conductor*%
%ADD89C,0.355542*%
%TD*%
%TA.AperFunction,Conductor*%
%ADD90C,0.300000*%
%TD*%
%TA.AperFunction,Conductor*%
%ADD91C,0.800000*%
%TD*%
%TA.AperFunction,Conductor*%
%ADD92C,0.120000*%
%TD*%
%TA.AperFunction,Conductor*%
%ADD93C,0.130000*%
%TD*%
%TA.AperFunction,Conductor*%
%ADD94C,0.150000*%
%TD*%
G04 APERTURE END LIST*
D10*
%TO.P,D8,1,1_1*%
%TO.N,GND*%
X189140000Y-95610000D03*
%TO.P,D8,2,2_2*%
%TO.N,/ESP32-C6/ANT_CN*%
X189140000Y-94610000D03*
%TD*%
D11*
%TO.P,J7,*%
%TO.N,*%
X137750000Y-123850000D03*
X124250000Y-123850000D03*
D12*
%TO.P,J7,1,Pin_1_1*%
%TO.N,GND*%
X127400000Y-117850000D03*
D13*
%TO.P,J7,2,Pin_2_2*%
%TO.N,BRD_VIN*%
X134600000Y-117850000D03*
%TD*%
D14*
%TO.P,R11,1*%
%TO.N,/Slide-SW/SEL*%
X193900000Y-113800000D03*
%TO.P,R11,2*%
%TO.N,Net-(D2-Pad2)*%
X194900000Y-113800000D03*
%TD*%
D15*
%TO.P,U1,1,TXD_1*%
%TO.N,/ChainBus + ALtmode/Altmode4*%
X145325000Y-110725000D03*
%TO.P,U1,2,GND_2*%
%TO.N,GND*%
X144675000Y-110725000D03*
%TO.P,U1,3,VCC_3*%
%TO.N,+5V*%
X144025000Y-110725000D03*
%TO.P,U1,4,RXD_4*%
%TO.N,/ChainBus + ALtmode/Altmode3*%
X143375000Y-110725000D03*
%TO.P,U1,5,VIO_5*%
%TO.N,+3V3*%
X143375000Y-113625000D03*
%TO.P,U1,6,CANL_6*%
%TO.N,/CAN_TR.kicad_sch/CAN.-*%
X144025000Y-113625000D03*
%TO.P,U1,7,CANH_7*%
%TO.N,/CAN_TR.kicad_sch/CAN.+*%
X144675000Y-113625000D03*
%TO.P,U1,8,STB_8*%
%TO.N,Net-(U1-STB)*%
X145325000Y-113625000D03*
D16*
%TO.P,U1,9,EP_9*%
%TO.N,GND*%
X144350000Y-112175000D03*
%TD*%
D17*
%TO.P,D6,1*%
%TO.N,/USB switch/SEL*%
X190425000Y-116900000D03*
%TO.P,D6,2*%
%TO.N,/Slide-SW/SEL*%
X190425000Y-114800000D03*
%TD*%
D18*
%TO.P,U12,1,P00_1*%
%TO.N,/GPIO_Expander/A2*%
X186600000Y-110075000D03*
%TO.P,U12,2,P01_2*%
%TO.N,/GPIO_Expander/A1*%
X186600000Y-110575000D03*
%TO.P,U12,3,P02_3*%
%TO.N,/GPIO_Expander/GPIO0*%
X186600000Y-111075000D03*
%TO.P,U12,4,P03_4*%
%TO.N,/GPIO_Expander/GPIO1*%
X186600000Y-111575000D03*
%TO.P,U12,5,P04_5*%
%TO.N,/RJ45_UP_TX1*%
X186600000Y-112075000D03*
%TO.P,U12,6,P05_6*%
%TO.N,/RJ45_DWN_RX1*%
X186600000Y-112575000D03*
D19*
%TO.P,U12,7,P06_7*%
%TO.N,/RJ45_DWN_TX1*%
X187350000Y-113325000D03*
%TO.P,U12,8,P07_8*%
%TO.N,/RJ45_UP_RX1*%
X187850000Y-113325000D03*
%TO.P,U12,9,GND_9*%
%TO.N,GND*%
X188350000Y-113325000D03*
%TO.P,U12,10,P10_10*%
%TO.N,/Select_GPIO*%
X188850000Y-113325000D03*
%TO.P,U12,11,P11_11*%
%TO.N,/GPIO_Expander/GPIO7*%
X189350000Y-113325000D03*
%TO.P,U12,12,P12_12*%
%TO.N,/GPIO_Expander/GPIO8*%
X189850000Y-113325000D03*
D18*
%TO.P,U12,13,P13_13*%
%TO.N,/GPIO_Expander/GPIO9*%
X190600000Y-112575000D03*
%TO.P,U12,14,P14_14*%
%TO.N,/GPIO_Expander/GPIO10*%
X190600000Y-112075000D03*
%TO.P,U12,15,P15_15*%
%TO.N,/GPIO_Expander/GPIO11*%
X190600000Y-111575000D03*
%TO.P,U12,16,P16_16*%
%TO.N,/GPIO_Expander/GPIO12*%
X190600000Y-111075000D03*
%TO.P,U12,17,P17_17*%
%TO.N,/GPIO_Expander/A0*%
X190600000Y-110575000D03*
%TO.P,U12,18,A0_18*%
X190600000Y-110075000D03*
D19*
%TO.P,U12,19,SCL_19*%
%TO.N,/ChainBus + ALtmode/Chainbus.SCL*%
X189850000Y-109325000D03*
%TO.P,U12,20,SDA_20*%
%TO.N,/ChainBus + ALtmode/Chainbus.SDA*%
X189350000Y-109325000D03*
%TO.P,U12,21,VCC_21*%
%TO.N,+3V3*%
X188850000Y-109325000D03*
%TO.P,U12,22,~{INT}_22*%
%TO.N,unconnected-(U12-~{INT}-Pad22)*%
X188350000Y-109325000D03*
%TO.P,U12,23,A1_23*%
%TO.N,/GPIO_Expander/A1*%
X187850000Y-109325000D03*
%TO.P,U12,24,A2_24*%
%TO.N,/GPIO_Expander/A2*%
X187350000Y-109325000D03*
D20*
%TO.P,U12,25,EP_25*%
%TO.N,GND*%
X188600000Y-111325000D03*
%TD*%
D14*
%TO.P,C15,1*%
%TO.N,/UART_Programmer/XO*%
X187670000Y-104000000D03*
%TO.P,C15,2*%
%TO.N,GND*%
X188670000Y-104000000D03*
%TD*%
D21*
%TO.P,U4,1,~_1*%
%TO.N,/MMS_CONNECTOR_DOWNSTREAM/USB_MMS_CONN.D-*%
X162775000Y-115900000D03*
%TO.P,U4,2,~_2*%
%TO.N,/MMS_CONNECTOR_DOWNSTREAM/USB_MMS_CONN.D+*%
X162775000Y-115100000D03*
%TO.P,U4,3,~_3*%
%TO.N,GND*%
X161625000Y-115500000D03*
%TD*%
D22*
%TO.P,C46,1*%
%TO.N,Net-(C41-Pad1)*%
X114637500Y-108750000D03*
%TO.P,C46,2*%
%TO.N,GND*%
X114637500Y-110650000D03*
%TD*%
D23*
%TO.P,C2,1*%
%TO.N,Net-(C2-Pad1)*%
X157600000Y-121900000D03*
%TO.P,C2,2*%
%TO.N,GND*%
X157600000Y-120900000D03*
%TD*%
D24*
%TO.P,C23,1*%
%TO.N,+3V3*%
X180500000Y-104625000D03*
%TO.P,C23,2*%
%TO.N,GND*%
X179500000Y-104625000D03*
%TD*%
D23*
%TO.P,C55,1*%
%TO.N,+3V3*%
X188594119Y-108481066D03*
%TO.P,C55,2*%
%TO.N,GND*%
X188594119Y-107481066D03*
%TD*%
D25*
%TO.P,SW1,1,1_1*%
%TO.N,unconnected-(SW1-Pad1)*%
X194100000Y-121750000D03*
%TO.P,SW1,2,2_2*%
%TO.N,+5V*%
X194100000Y-119750000D03*
%TO.P,SW1,3,3_3*%
%TO.N,/Slide-SW/SEL*%
X194100000Y-117750000D03*
D26*
%TO.P,SW1,4,4_4*%
%TO.N,GND*%
X194100000Y-115600000D03*
%TO.P,SW1,5,5_5*%
X194100000Y-123900000D03*
%TD*%
D23*
%TO.P,R2,1*%
%TO.N,Net-(J9-~-Pad10)*%
X183675000Y-114875000D03*
%TO.P,R2,2*%
%TO.N,/RJ45_UP_TX1*%
X183675000Y-113875000D03*
%TD*%
%TO.P,R12,1,~_1*%
%TO.N,Net-(U6-STB)*%
X146600000Y-111525000D03*
%TO.P,R12,2,~_2*%
%TO.N,GND*%
X146600000Y-110525000D03*
%TD*%
D24*
%TO.P,R47,1*%
%TO.N,/ESP32-C6/ESP_SPICS0*%
X150300000Y-100290000D03*
%TO.P,R47,2*%
%TO.N,/ESP32-C6/SPICS0*%
X149300000Y-100290000D03*
%TD*%
D27*
%TO.P,C34,1*%
%TO.N,BRD_VIN*%
X105500000Y-122600000D03*
%TO.P,C34,2*%
%TO.N,/VRM/Cap_protec*%
X103600000Y-122600000D03*
%TD*%
D28*
%TO.P,R18,1*%
%TO.N,/ESP32-C6/USB.D+*%
X172675000Y-107475000D03*
%TO.P,R18,2*%
%TO.N,/USB HUB/USBIN1.D+*%
X172675000Y-108475000D03*
%TD*%
D14*
%TO.P,R55,1*%
%TO.N,+3V3*%
X156925001Y-98950000D03*
%TO.P,R55,2*%
%TO.N,/ChainBus + ALtmode/Chainbus.RX*%
X157924999Y-98950000D03*
%TD*%
D27*
%TO.P,C30,1*%
%TO.N,BRD_VIN*%
X105500000Y-118600000D03*
%TO.P,C30,2*%
%TO.N,/VRM/Cap_protec*%
X103600000Y-118600000D03*
%TD*%
D23*
%TO.P,C8,1*%
%TO.N,+3V3*%
X166300000Y-111600000D03*
%TO.P,C8,2*%
%TO.N,GND*%
X166300000Y-110600000D03*
%TD*%
D24*
%TO.P,R53,1*%
%TO.N,/ESP32-C6/EN*%
X163050000Y-101250000D03*
%TO.P,R53,2*%
%TO.N,+3V3*%
X162050000Y-101250000D03*
%TD*%
D23*
%TO.P,C5,1*%
%TO.N,+3V3*%
X157950000Y-112650000D03*
%TO.P,C5,2*%
%TO.N,GND*%
X157950000Y-111650000D03*
%TD*%
D29*
%TO.P,R39,1*%
%TO.N,Net-(U2-RT{slash}CLK)*%
X101567500Y-110835000D03*
%TO.P,R39,2*%
%TO.N,GND*%
X103207500Y-110835000D03*
%TD*%
D23*
%TO.P,R6,1*%
%TO.N,Net-(C2-Pad1)*%
X157600000Y-119900000D03*
%TO.P,R6,2*%
%TO.N,GND*%
X157600000Y-118900000D03*
%TD*%
D24*
%TO.P,C52,1*%
%TO.N,+3V3*%
X150700000Y-105690000D03*
%TO.P,C52,2*%
%TO.N,GND*%
X149700000Y-105690000D03*
%TD*%
D23*
%TO.P,R62,1*%
%TO.N,Net-(U10-WP)*%
X190050000Y-89050000D03*
%TO.P,R62,2*%
%TO.N,GND*%
X190050000Y-88050000D03*
%TD*%
%TO.P,R3,1*%
%TO.N,Net-(J8-~-Pad12)*%
X184475000Y-114875000D03*
%TO.P,R3,2*%
%TO.N,/RJ45_DWN_RX1*%
X184475000Y-113875000D03*
%TD*%
D14*
%TO.P,C900,1*%
%TO.N,Net-(U302-3V3)*%
X176700000Y-111650000D03*
%TO.P,C900,2*%
%TO.N,GND*%
X177700000Y-111650000D03*
%TD*%
D24*
%TO.P,R44,1*%
%TO.N,/ESP32-C6/ESP_SPIQ*%
X150300000Y-101400000D03*
%TO.P,R44,2*%
%TO.N,/ESP32-C6/SPIQ*%
X149300000Y-101400000D03*
%TD*%
D28*
%TO.P,R8,1*%
%TO.N,/USB switch/SEL*%
X158275000Y-109850000D03*
%TO.P,R8,2*%
%TO.N,Net-(U3-SEL)*%
X158275000Y-110850000D03*
%TD*%
D23*
%TO.P,C44,1*%
%TO.N,Net-(C44-Pad1)*%
X109075000Y-107870000D03*
%TO.P,C44,2*%
%TO.N,GND*%
X109075000Y-106870000D03*
%TD*%
D30*
%TO.P,U11,1,ANT_1*%
%TO.N,/ESP32-C6/ANT*%
X157310000Y-106190000D03*
%TO.P,U11,2,VDDA3P3_2*%
%TO.N,/ESP32-C6/VCC_RF*%
X157310000Y-105790000D03*
%TO.P,U11,3,VDDA3P3_3*%
X157310000Y-105390000D03*
%TO.P,U11,4,CHIP_PU_4*%
%TO.N,/ESP32-C6/EN*%
X157310000Y-104990000D03*
%TO.P,U11,5,VDDPST1_5*%
%TO.N,+3V3*%
X157310000Y-104590000D03*
%TO.P,U11,6,XTAL_32K_P_6*%
%TO.N,/ChainBus + ALtmode/Chainbus_addr1*%
X157310000Y-104190000D03*
%TO.P,U11,7,XTAL_32K_N_7*%
%TO.N,/ChainBus + ALtmode/Chainbus_addr2*%
X157310000Y-103790000D03*
%TO.P,U11,8,GPIO2_8*%
%TO.N,/ChainBus + ALtmode/Chainbus_addr3*%
X157310000Y-103390000D03*
%TO.P,U11,9,GPIO3_9*%
%TO.N,/ChainBus + ALtmode/Chainbus_addr4*%
X157310000Y-102990000D03*
%TO.P,U11,10,MTMS_10*%
%TO.N,/ChainBus + ALtmode/Chainbus.RX*%
X157310000Y-102590000D03*
D31*
%TO.P,U11,11,MTDI_11*%
%TO.N,/ChainBus + ALtmode/Chainbus.TX*%
X156700000Y-101980000D03*
%TO.P,U11,12,MTCK_12*%
%TO.N,/ChainBus + ALtmode/Chainbus.SDA*%
X156300000Y-101980000D03*
%TO.P,U11,13,MTDO_13*%
%TO.N,/ChainBus + ALtmode/Chainbus.SCL*%
X155900000Y-101980000D03*
%TO.P,U11,14,GPIO8_14*%
%TO.N,/ChainBus + ALtmode/Chainbus_addr8*%
X155500000Y-101980000D03*
%TO.P,U11,15,GPIO9_15*%
%TO.N,/ChainBus + ALtmode/Chainbus_addr7*%
X155100000Y-101980000D03*
%TO.P,U11,16,GPIO10_16*%
%TO.N,/ChainBus + ALtmode/Chainbus_addr6*%
X154700000Y-101980000D03*
%TO.P,U11,17,GPIO11_17*%
%TO.N,/ChainBus + ALtmode/Chainbus_addr5*%
X154300000Y-101980000D03*
%TO.P,U11,18,GPIO12_18*%
%TO.N,/ESP32-C6/GPIO12*%
X153900000Y-101980000D03*
%TO.P,U11,19,GPIO13_19*%
%TO.N,/ESP32-C6/GPIO13*%
X153500000Y-101980000D03*
%TO.P,U11,20,SPICS0_20*%
%TO.N,/ESP32-C6/ESP_SPICS0*%
X153100000Y-101980000D03*
D30*
%TO.P,U11,21,SPIQ_21*%
%TO.N,/ESP32-C6/ESP_SPIQ*%
X152490000Y-102590000D03*
%TO.P,U11,22,SPIWP_22*%
%TO.N,/ESP32-C6/ESP_SPIWP*%
X152490000Y-102990000D03*
%TO.P,U11,23,VDD_SPI_23*%
%TO.N,/ChainBus + ALtmode/Altmode4*%
X152490000Y-103390000D03*
%TO.P,U11,24,SPIHD_24*%
%TO.N,/ESP32-C6/ESP_SPIHD*%
X152490000Y-103790000D03*
%TO.P,U11,25,SPICLK_25*%
%TO.N,/ESP32-C6/ESP_CSPICLK*%
X152490000Y-104190000D03*
%TO.P,U11,26,SPID_26*%
%TO.N,/ESP32-C6/ESP_SPID*%
X152490000Y-104590000D03*
%TO.P,U11,27,GPIO15_27*%
%TO.N,/ChainBus + ALtmode/Altmode3*%
X152490000Y-104990000D03*
%TO.P,U11,28,VDDPST2_28*%
%TO.N,+3V3*%
X152490000Y-105390000D03*
%TO.P,U11,29,U0TXD_29*%
%TO.N,/ESP32-C6/ESP_TX*%
X152490000Y-105790000D03*
%TO.P,U11,30,U0RXD_30*%
%TO.N,/ESP32-C6/UART0.RX*%
X152490000Y-106190000D03*
D31*
%TO.P,U11,31,SDIO_CMD_31*%
%TO.N,/ChainBus + ALtmode/Chainbus.SCK*%
X153100000Y-106800000D03*
%TO.P,U11,32,SDIO_CLK_32*%
%TO.N,/ChainBus + ALtmode/Chainbus.MOSI*%
X153500000Y-106800000D03*
%TO.P,U11,33,SDIO_DATA0_33*%
%TO.N,/ChainBus + ALtmode/Chainbus.MISO*%
X153900000Y-106800000D03*
%TO.P,U11,34,SDIO_DATA1_34*%
%TO.N,/ChainBus + ALtmode/Altmode2*%
X154300000Y-106800000D03*
%TO.P,U11,35,SDIO_DATA2_35*%
%TO.N,/ChainBus + ALtmode/Altmode1*%
X154700000Y-106800000D03*
%TO.P,U11,36,SDIO_DATA3_36*%
%TO.N,/ChainBus + ALtmode/Chainbus.CS*%
X155100000Y-106800000D03*
%TO.P,U11,37,VDDA1_37*%
%TO.N,+3V3*%
X155500000Y-106800000D03*
%TO.P,U11,38,XTAL_N_38*%
%TO.N,/ESP32-C6/XTAL_N*%
X155900000Y-106800000D03*
%TO.P,U11,39,XTAL_P_39*%
%TO.N,/ESP32-C6/XTAL_P*%
X156300000Y-106800000D03*
%TO.P,U11,40,VDDA2_40*%
%TO.N,+3V3*%
X156700000Y-106800000D03*
D32*
%TO.P,U11,41,EP_41*%
%TO.N,GND*%
X154900000Y-104390000D03*
%TD*%
D33*
%TO.P,C22,1*%
%TO.N,/ESP32-C6/RF*%
X162046447Y-106953553D03*
%TO.P,C22,2*%
%TO.N,/ESP32-C6/More_RF*%
X162753553Y-106246447D03*
%TD*%
D28*
%TO.P,C1,1*%
%TO.N,Net-(C1-Pad1)*%
X157600000Y-125500000D03*
%TO.P,C1,2*%
%TO.N,GND*%
X157600000Y-126500000D03*
%TD*%
%TO.P,R25,1*%
%TO.N,/USBC_CONN/CC1*%
X176400000Y-126800000D03*
%TO.P,R25,2*%
%TO.N,GND*%
X176400000Y-127800000D03*
%TD*%
D23*
%TO.P,R38,1*%
%TO.N,Net-(U2-COMP)*%
X110075000Y-109870000D03*
%TO.P,R38,2*%
%TO.N,Net-(C44-Pad1)*%
X110075000Y-108870000D03*
%TD*%
%TO.P,R40,1*%
%TO.N,/GPIO_Expander/GPIO10*%
X191550000Y-112250000D03*
%TO.P,R40,2*%
%TO.N,GND*%
X191550000Y-111250000D03*
%TD*%
D14*
%TO.P,C58,1*%
%TO.N,/ESP32-C6/XTAL_P.*%
X152975000Y-113525000D03*
%TO.P,C58,2*%
%TO.N,GND*%
X153975000Y-113525000D03*
%TD*%
D24*
%TO.P,C19,1*%
%TO.N,/ESP32-C6/EN*%
X163050000Y-100450000D03*
%TO.P,C19,2*%
%TO.N,GND*%
X162050000Y-100450000D03*
%TD*%
D23*
%TO.P,R9,1*%
%TO.N,Net-(U3-SEL)*%
X157475000Y-110850000D03*
%TO.P,R9,2*%
%TO.N,GND*%
X157475000Y-109850000D03*
%TD*%
D24*
%TO.P,R7,1,~_1*%
%TO.N,Net-(U1-STB)*%
X145529399Y-114773513D03*
%TO.P,R7,2,~_2*%
%TO.N,GND*%
X144529399Y-114773513D03*
%TD*%
D28*
%TO.P,C43,1*%
%TO.N,Net-(U2-COMP)*%
X109075000Y-108870000D03*
%TO.P,C43,2*%
%TO.N,GND*%
X109075000Y-109870000D03*
%TD*%
D24*
%TO.P,C14,1*%
%TO.N,/UART_Programmer/XI*%
X188745000Y-100325000D03*
%TO.P,C14,2*%
%TO.N,GND*%
X187745000Y-100325000D03*
%TD*%
D27*
%TO.P,C39,1*%
%TO.N,/VRM/Cap_protec*%
X102100000Y-118600000D03*
%TO.P,C39,2*%
%TO.N,GND*%
X100200000Y-118600000D03*
%TD*%
D14*
%TO.P,R54,1*%
%TO.N,/ChainBus + ALtmode/Chainbus_addr8*%
X156925000Y-98150000D03*
%TO.P,R54,2*%
%TO.N,+3V3*%
X157925000Y-98150000D03*
%TD*%
D34*
%TO.P,X3,1,OSC_1*%
%TO.N,/UART_Programmer/XI*%
X189310000Y-101350000D03*
%TO.P,X3,2,GND_2*%
%TO.N,GND*%
X187110000Y-101350000D03*
%TO.P,X3,3,OSC_3*%
%TO.N,/UART_Programmer/XO*%
X187110000Y-102950000D03*
%TO.P,X3,4,GND_4*%
%TO.N,GND*%
X189310000Y-102950000D03*
%TD*%
D35*
%TO.P,J4,A1,GND_A1*%
%TO.N,GND*%
X178490000Y-124625000D03*
%TO.P,J4,A4,VBUS_A4*%
%TO.N,/USBC_CONN/VBUS*%
X179290000Y-124625000D03*
D36*
%TO.P,J4,A5,CC1_A5*%
%TO.N,/USBC_CONN/CC1*%
X180440000Y-124625000D03*
%TO.P,J4,A6,D+_A6*%
%TO.N,/USB switch1/USB_OUT2.D+*%
X181440000Y-124625000D03*
%TO.P,J4,A7,D-_A7*%
%TO.N,/USB switch1/USB_OUT2.D-*%
X181940000Y-124625000D03*
%TO.P,J4,A8,SBU1_A8*%
%TO.N,unconnected-(J4-SBU1-PadA8)*%
X182940000Y-124625000D03*
D35*
%TO.P,J4,A9,VBUS_A9*%
%TO.N,/USBC_CONN/VBUS*%
X184090000Y-124625000D03*
%TO.P,J4,A12,GND_A12*%
%TO.N,GND*%
X184890000Y-124625000D03*
%TO.P,J4,B1,GND_B1*%
X184890000Y-124625000D03*
%TO.P,J4,B4,VBUS_B4*%
%TO.N,/USBC_CONN/VBUS*%
X184090000Y-124625000D03*
D36*
%TO.P,J4,B5,CC2_B5*%
%TO.N,/USBC_CONN/CC2*%
X183440000Y-124625000D03*
%TO.P,J4,B6,D+_B6*%
%TO.N,/USB switch1/USB_OUT2.D+*%
X182440000Y-124625000D03*
%TO.P,J4,B7,D-_B7*%
%TO.N,/USB switch1/USB_OUT2.D-*%
X180940000Y-124625000D03*
%TO.P,J4,B8,SBU2_B8*%
%TO.N,unconnected-(J4-SBU2-PadB8)*%
X179940000Y-124625000D03*
D35*
%TO.P,J4,B9,VBUS_B9*%
%TO.N,/USBC_CONN/VBUS*%
X179290000Y-124625000D03*
%TO.P,J4,B12,GND_B12*%
%TO.N,GND*%
X178490000Y-124625000D03*
D37*
%TO.P,J4,SH,SHIELD_SH*%
%TO.N,Net-(J4-SHIELD)*%
X177370000Y-125200000D03*
D38*
X177370000Y-129380000D03*
D37*
X186010000Y-125200000D03*
D38*
X186010000Y-129380000D03*
%TD*%
D24*
%TO.P,C3,1*%
%TO.N,GND*%
X145500000Y-109525000D03*
%TO.P,C3,2*%
%TO.N,+5V*%
X144500000Y-109525000D03*
%TD*%
D27*
%TO.P,C32,1*%
%TO.N,BRD_VIN*%
X105500000Y-120600000D03*
%TO.P,C32,2*%
%TO.N,/VRM/Cap_protec*%
X103600000Y-120600000D03*
%TD*%
D22*
%TO.P,C45,1*%
%TO.N,Net-(C41-Pad1)*%
X116837500Y-108750000D03*
%TO.P,C45,2*%
%TO.N,GND*%
X116837500Y-110650000D03*
%TD*%
D23*
%TO.P,C29,1*%
%TO.N,+3V3*%
X160300000Y-101600000D03*
%TO.P,C29,2*%
%TO.N,GND*%
X160300000Y-100600000D03*
%TD*%
D39*
%TO.P,D2,1*%
%TO.N,GND*%
X197890000Y-113900000D03*
%TO.P,D2,2*%
%TO.N,Net-(D2-Pad2)*%
X196310000Y-113900000D03*
%TD*%
D28*
%TO.P,R64,1*%
%TO.N,/I2C_Flash/A1*%
X178950000Y-90200000D03*
%TO.P,R64,2*%
%TO.N,GND*%
X178950000Y-91200000D03*
%TD*%
D27*
%TO.P,C31,1*%
%TO.N,/VRM/Cap_protec*%
X102100000Y-120600000D03*
%TO.P,C31,2*%
%TO.N,GND*%
X100200000Y-120600000D03*
%TD*%
D24*
%TO.P,R37,1*%
%TO.N,Net-(U2-FB)*%
X105300000Y-110700000D03*
%TO.P,R37,2*%
%TO.N,GND*%
X104300000Y-110700000D03*
%TD*%
D40*
%TO.P,D4,1*%
%TO.N,+5V*%
X129550000Y-99900000D03*
%TO.P,D4,2*%
%TO.N,Net-(C41-Pad1)*%
X125250000Y-99900000D03*
%TD*%
D41*
%TO.P,LED2,1*%
%TO.N,Net-(LED2-Pad1)*%
X194528255Y-100313600D03*
%TO.P,LED2,2*%
%TO.N,GND*%
X194528255Y-102853600D03*
%TO.P,LED2,3*%
%TO.N,Net-(LED2-Pad3)*%
X191988255Y-100313600D03*
%TO.P,LED2,4*%
%TO.N,GND*%
X191988255Y-102853600D03*
%TD*%
D24*
%TO.P,R34,1*%
%TO.N,/VRM/Cap_protec*%
X101900000Y-124200000D03*
%TO.P,R34,2*%
%TO.N,GND*%
X100900000Y-124200000D03*
%TD*%
D42*
%TO.P,Q1,1,B_1*%
%TO.N,Net-(Q1-B)*%
X174190000Y-101600000D03*
%TO.P,Q1,2,E_2*%
%TO.N,/UART_Programmer/~{RTS}*%
X174190000Y-99700000D03*
%TO.P,Q1,3,C_3*%
%TO.N,/ESP32-C6/EN*%
X172310000Y-100650000D03*
%TD*%
D23*
%TO.P,C7,1*%
%TO.N,+3V3*%
X146525000Y-113400000D03*
%TO.P,C7,2*%
%TO.N,GND*%
X146525000Y-112400000D03*
%TD*%
D22*
%TO.P,C47,1*%
%TO.N,Net-(C41-Pad1)*%
X121200000Y-108750000D03*
%TO.P,C47,2*%
%TO.N,GND*%
X121200000Y-110650000D03*
%TD*%
D43*
%TO.P,C9,1*%
%TO.N,+5V*%
X137095000Y-105600000D03*
%TO.P,C9,2*%
%TO.N,GND*%
X138655000Y-105600000D03*
%TD*%
D14*
%TO.P,R60,1*%
%TO.N,/ChainBus + ALtmode/Chainbus.SDA*%
X180500000Y-86550000D03*
%TO.P,R60,2*%
%TO.N,+3V3*%
X181500000Y-86550000D03*
%TD*%
D28*
%TO.P,R29,1*%
%TO.N,/UART_Programmer/~{RTS}*%
X175600000Y-99550000D03*
%TO.P,R29,2*%
%TO.N,Net-(Q2-B)*%
X175600000Y-100550000D03*
%TD*%
%TO.P,C28,1*%
%TO.N,+3V3*%
X160300000Y-102400000D03*
%TO.P,C28,2*%
%TO.N,GND*%
X160300000Y-103400000D03*
%TD*%
D44*
%TO.P,L1,1,1_1*%
%TO.N,Net-(U2-SW)*%
X111412500Y-102385000D03*
%TO.P,L1,2,2_2*%
%TO.N,Net-(C41-Pad1)*%
X120912500Y-102385000D03*
%TD*%
D40*
%TO.P,D3,1*%
%TO.N,Net-(U2-SW)*%
X107150000Y-99600000D03*
%TO.P,D3,2*%
%TO.N,GND*%
X102850000Y-99600000D03*
%TD*%
D45*
%TO.P,U2,1,BOOT_1*%
%TO.N,Net-(U2-BOOT)*%
X102087500Y-105495000D03*
%TO.P,U2,2,VIN_2*%
%TO.N,BRD_VIN*%
X102087500Y-106765000D03*
%TO.P,U2,3,EN_3*%
X102087500Y-108035000D03*
%TO.P,U2,4,RT/CLK_4*%
%TO.N,Net-(U2-RT{slash}CLK)*%
X102087500Y-109305000D03*
%TO.P,U2,5,FB_5*%
%TO.N,Net-(U2-FB)*%
X107212500Y-109305000D03*
%TO.P,U2,6,COMP_6*%
%TO.N,Net-(U2-COMP)*%
X107212500Y-108035000D03*
%TO.P,U2,7,GND_7*%
%TO.N,GND*%
X107212500Y-106765000D03*
%TO.P,U2,8,SW_8*%
%TO.N,Net-(U2-SW)*%
X107212500Y-105495000D03*
D46*
%TO.P,U2,9,GND_9*%
%TO.N,GND*%
X104650000Y-107400000D03*
%TD*%
D47*
%TO.P,J1,a1,a1_a1*%
%TO.N,/ChainBus + ALtmode/Altmode1*%
X129950000Y-93280000D03*
D48*
%TO.P,J1,a2,a2_a2*%
%TO.N,/ChainBus + ALtmode/Altmode2*%
X132490000Y-93280000D03*
%TO.P,J1,a3,a3_a3*%
%TO.N,/ChainBus + ALtmode/Altmode3*%
X135030000Y-93280000D03*
%TO.P,J1,a4,a4_a4*%
%TO.N,/ChainBus + ALtmode/Altmode4*%
X137570000Y-93280000D03*
%TO.P,J1,a5,a5_a5*%
%TO.N,/ChainBus + ALtmode/Altmode5*%
X140110000Y-93280000D03*
%TO.P,J1,a6,a6_a6*%
%TO.N,/ChainBus + ALtmode/Altmode6*%
X142650000Y-93280000D03*
%TO.P,J1,a7,a7_a7*%
%TO.N,/ChainBus + ALtmode/Altmode7*%
X145190000Y-93280000D03*
%TO.P,J1,a8,a8_a8*%
%TO.N,/ChainBus + ALtmode/Altmode8*%
X147730000Y-93280000D03*
%TO.P,J1,a9,a9_a9*%
%TO.N,/ChainBus + ALtmode/Altmode9*%
X150270000Y-93280000D03*
%TO.P,J1,a10,a10_a10*%
%TO.N,/ChainBus + ALtmode/Altmode10*%
X152810000Y-93280000D03*
%TO.P,J1,a11,a11_a11*%
%TO.N,/ChainBus + ALtmode/Altmode11*%
X155350000Y-93280000D03*
%TO.P,J1,a12,a12_a12*%
%TO.N,/ChainBus + ALtmode/Altmode12*%
X157890000Y-93280000D03*
%TO.P,J1,a13,a13_a13*%
%TO.N,/ChainBus + ALtmode/Altmode13*%
X160430000Y-93280000D03*
%TO.P,J1,a14,a14_a14*%
%TO.N,/ChainBus + ALtmode/Altmode14*%
X162970000Y-93280000D03*
%TO.P,J1,a15,a15_a15*%
%TO.N,/ChainBus + ALtmode/Altmode15*%
X165510000Y-93280000D03*
%TO.P,J1,a16,a16_a16*%
%TO.N,/ChainBus + ALtmode/Altmode16*%
X168050000Y-93280000D03*
%TO.P,J1,b1,b1_b1*%
%TO.N,/ChainBus + ALtmode/Chainbus_addr1*%
X129950000Y-90740000D03*
%TO.P,J1,b2,b2_b2*%
%TO.N,/ChainBus + ALtmode/Chainbus_addr2*%
X132490000Y-90740000D03*
%TO.P,J1,b3,b3_b3*%
%TO.N,/ChainBus + ALtmode/Chainbus_addr3*%
X135030000Y-90740000D03*
%TO.P,J1,b4,b4_b4*%
%TO.N,/ChainBus + ALtmode/Chainbus_addr4*%
X137570000Y-90740000D03*
%TO.P,J1,b5,b5_b5*%
%TO.N,/ChainBus + ALtmode/Chainbus_addr5*%
X140110000Y-90740000D03*
%TO.P,J1,b6,b6_b6*%
%TO.N,/ChainBus + ALtmode/Chainbus_addr6*%
X142650000Y-90740000D03*
%TO.P,J1,b7,b7_b7*%
%TO.N,/ChainBus + ALtmode/Chainbus_addr7*%
X145190000Y-90740000D03*
%TO.P,J1,b8,b8_b8*%
%TO.N,/ChainBus + ALtmode/Chainbus_addr8*%
X147730000Y-90740000D03*
%TO.P,J1,b9,b9_b9*%
%TO.N,/ChainBus + ALtmode/Chainbus.SDA*%
X150270000Y-90740000D03*
%TO.P,J1,b10,b10_b10*%
%TO.N,/ChainBus + ALtmode/Chainbus.SCL*%
X152810000Y-90740000D03*
%TO.P,J1,b11,b11_b11*%
%TO.N,/ChainBus + ALtmode/Chainbus.CS*%
X155350000Y-90740000D03*
%TO.P,J1,b12,b12_b12*%
%TO.N,/ChainBus + ALtmode/Chainbus.SCK*%
X157890000Y-90740000D03*
%TO.P,J1,b13,b13_b13*%
%TO.N,/ChainBus + ALtmode/Chainbus.MOSI*%
X160430000Y-90740000D03*
%TO.P,J1,b14,b14_b14*%
%TO.N,/ChainBus + ALtmode/Chainbus.MISO*%
X162970000Y-90740000D03*
%TO.P,J1,b15,b15_b15*%
%TO.N,/ChainBus + ALtmode/Chainbus.RX*%
X165510000Y-90740000D03*
%TO.P,J1,b16,b16_b16*%
%TO.N,/ChainBus + ALtmode/Chainbus.TX*%
X168050000Y-90740000D03*
%TO.P,J1,c1,c1_c1*%
%TO.N,GND*%
X129950000Y-88200000D03*
%TO.P,J1,c2,c2_c2*%
%TO.N,+5V*%
X132490000Y-88200000D03*
%TO.P,J1,c3,c3_c3*%
X135030000Y-88200000D03*
%TO.P,J1,c4,c4_c4*%
%TO.N,GND*%
X137570000Y-88200000D03*
%TO.P,J1,c5,c5_c5*%
%TO.N,BRD_VIN*%
X140110000Y-88200000D03*
%TO.P,J1,c6,c6_c6*%
X142650000Y-88200000D03*
%TO.P,J1,c7,c7_c7*%
X145190000Y-88200000D03*
%TO.P,J1,c8,c8_c8*%
X147730000Y-88200000D03*
%TO.P,J1,c9,c9_c9*%
%TO.N,GND*%
X150270000Y-88200000D03*
%TO.P,J1,c10,c10_c10*%
X152810000Y-88200000D03*
%TO.P,J1,c11,c11_c11*%
X155350000Y-88200000D03*
%TO.P,J1,c12,c12_c12*%
X157890000Y-88200000D03*
%TO.P,J1,c13,c13_c13*%
%TO.N,unconnected-(J1-Padc13)*%
X160430000Y-88200000D03*
%TO.P,J1,c14,c14_c14*%
%TO.N,unconnected-(J1-Padc14)*%
X162970000Y-88200000D03*
%TO.P,J1,c15,c15_c15*%
%TO.N,+12V stby*%
X165510000Y-88200000D03*
%TO.P,J1,c16,c16_c16*%
%TO.N,GND*%
X168050000Y-88200000D03*
%TD*%
D28*
%TO.P,C4,1*%
%TO.N,+3V3*%
X143100000Y-114775000D03*
%TO.P,C4,2*%
%TO.N,GND*%
X143100000Y-115775000D03*
%TD*%
D49*
%TO.P,FB1,1*%
%TO.N,/ESP32-C6/VCC_RF*%
X161600000Y-104560000D03*
%TO.P,FB1,2*%
%TO.N,+3V3*%
X161600000Y-102440000D03*
%TD*%
D28*
%TO.P,R63,1*%
%TO.N,/I2C_Flash/A2*%
X178050000Y-90200000D03*
%TO.P,R63,2*%
%TO.N,GND*%
X178050000Y-91200000D03*
%TD*%
D24*
%TO.P,R17,1*%
%TO.N,/USB HUB/USBIN1_R.D-*%
X173200000Y-109277500D03*
%TO.P,R17,2*%
%TO.N,/USB HUB/USBIN1.D-*%
X172200000Y-109277500D03*
%TD*%
D28*
%TO.P,R308,1*%
%TO.N,Net-(U302-PGANG)*%
X174250000Y-111650000D03*
%TO.P,R308,2*%
%TO.N,Net-(D301-Pad1)*%
X174250000Y-112650000D03*
%TD*%
D50*
%TO.P,U7,1,D+_1*%
%TO.N,/USB HUB/USBIN1.D+*%
X164600000Y-111050000D03*
D51*
%TO.P,U7,2,D-_2*%
%TO.N,/USB HUB/USBIN1.D-*%
X164200000Y-110950000D03*
D52*
%TO.P,U7,3,GND_3*%
%TO.N,GND*%
X163537500Y-111212500D03*
%TO.P,U7,4,HSD1-_4*%
%TO.N,/USB switch/USB_OUT2.D-*%
X163537500Y-111612500D03*
%TO.P,U7,5,HSD1+_5*%
%TO.N,/USB switch/USB_OUT2.D+*%
X163537500Y-112012500D03*
D51*
%TO.P,U7,6,HSD2-_6*%
%TO.N,/USB switch1/USB_OUT2.D-*%
X164200000Y-112275000D03*
%TO.P,U7,7,HSD2+_7*%
%TO.N,/USB switch1/USB_OUT2.D+*%
X164600000Y-112275000D03*
D52*
%TO.P,U7,8,~{OE}_8*%
%TO.N,Net-(U7-~{OE})*%
X165262500Y-112012500D03*
%TO.P,U7,9,VCC_9*%
%TO.N,+3V3*%
X165262500Y-111612500D03*
%TO.P,U7,10,SEL_10*%
%TO.N,Net-(U7-SEL)*%
X165262500Y-111212500D03*
%TD*%
D24*
%TO.P,R41,1*%
%TO.N,/GPIO_Expander/GPIO9*%
X192150000Y-113700000D03*
%TO.P,R41,2*%
%TO.N,GND*%
X191150000Y-113700000D03*
%TD*%
D23*
%TO.P,R58,1*%
%TO.N,GND*%
X187220000Y-95600000D03*
%TO.P,R58,2*%
%TO.N,/ESP32-C6/ANT_CN*%
X187220000Y-94600000D03*
%TD*%
D53*
%TO.P,J5,1,In_1*%
%TO.N,/ESP32-C6/ANT_CN*%
X194500583Y-94600000D03*
D54*
%TO.P,J5,2,Ext_2*%
%TO.N,GND*%
X197040583Y-92060000D03*
X191960583Y-92060000D03*
X197040583Y-97140000D03*
X191960583Y-97140000D03*
%TD*%
D23*
%TO.P,R35,1*%
%TO.N,/GPIO_Expander/GPIO1*%
X191500000Y-106900000D03*
%TO.P,R35,2*%
%TO.N,Net-(LED2-Pad1)*%
X191500000Y-105900000D03*
%TD*%
D27*
%TO.P,C35,1*%
%TO.N,/VRM/Cap_protec*%
X102100000Y-116600000D03*
%TO.P,C35,2*%
%TO.N,GND*%
X100200000Y-116600000D03*
%TD*%
D23*
%TO.P,L2,1*%
%TO.N,/ESP32-C6/XTAL_P.*%
X156550000Y-111600000D03*
%TO.P,L2,2*%
%TO.N,/ESP32-C6/XTAL_P*%
X156550000Y-110600000D03*
%TD*%
D55*
%TO.P,C50,1*%
%TO.N,+5V*%
X133132500Y-108300000D03*
%TO.P,C50,2*%
%TO.N,GND*%
X125132500Y-108300000D03*
%TD*%
D56*
%TO.P,D5,1*%
%TO.N,+5V*%
X167550000Y-111675000D03*
%TO.P,D5,2*%
%TO.N,/USBC_CONN/VBUS*%
X170350000Y-111675000D03*
%TD*%
D14*
%TO.P,L3,1,1_1*%
%TO.N,/ESP32-C6/ANT*%
X159275000Y-107350000D03*
%TO.P,L3,2,2_2*%
%TO.N,/ESP32-C6/RF*%
X160275000Y-107350000D03*
%TD*%
D23*
%TO.P,R61,1*%
%TO.N,/GPIO_Expander/A1*%
X185744119Y-108906066D03*
%TO.P,R61,2*%
%TO.N,GND*%
X185744119Y-107906066D03*
%TD*%
D24*
%TO.P,C57,1*%
%TO.N,/ESP32-C6/XTAL_N*%
X154050000Y-109625000D03*
%TO.P,C57,2*%
%TO.N,GND*%
X153050000Y-109625000D03*
%TD*%
D21*
%TO.P,U5,1,~_1*%
%TO.N,/MMS_CONNECTOR_UPSTREAM/USB_MMS_CONN.D-*%
X148350000Y-115787500D03*
%TO.P,U5,2,~_2*%
%TO.N,/MMS_CONNECTOR_UPSTREAM/USB_MMS_CONN.D+*%
X148350000Y-114987500D03*
%TO.P,U5,3,~_3*%
%TO.N,GND*%
X147200000Y-115387500D03*
%TD*%
D23*
%TO.P,R56,1*%
%TO.N,+3V3*%
X160850000Y-98900000D03*
%TO.P,R56,2*%
%TO.N,/ChainBus + ALtmode/Chainbus.TX*%
X160850000Y-97900000D03*
%TD*%
D28*
%TO.P,C904,1*%
%TO.N,+5V*%
X175900000Y-111650000D03*
%TO.P,C904,2*%
%TO.N,GND*%
X175900000Y-112650000D03*
%TD*%
D57*
%TO.P,H1,1,1_1*%
%TO.N,GND*%
X103000000Y-86000000D03*
D58*
X103000000Y-86000000D03*
%TD*%
D23*
%TO.P,C37,1*%
%TO.N,+3V3*%
X148000000Y-107100000D03*
%TO.P,C37,2*%
%TO.N,GND*%
X148000000Y-106100000D03*
%TD*%
%TO.P,R10,1*%
%TO.N,Net-(U3-~{OE})*%
X159600000Y-111700000D03*
%TO.P,R10,2*%
%TO.N,GND*%
X159600000Y-110700000D03*
%TD*%
%TO.P,R26,1*%
%TO.N,/USBC_CONN/CC2*%
X176400000Y-131200000D03*
%TO.P,R26,2*%
%TO.N,GND*%
X176400000Y-130200000D03*
%TD*%
%TO.P,R28,1*%
%TO.N,/UART_Programmer/~{DTR}*%
X175605000Y-102350000D03*
%TO.P,R28,2*%
%TO.N,Net-(Q1-B)*%
X175605000Y-101350000D03*
%TD*%
D14*
%TO.P,R906,1*%
%TO.N,/ESP32-C6/USB.D-*%
X173100000Y-105825000D03*
%TO.P,R906,2*%
%TO.N,/USB HUB/USBOUT2_R.D-*%
X174100000Y-105825000D03*
%TD*%
%TO.P,C6,1*%
%TO.N,GND*%
X147625000Y-109325000D03*
%TO.P,C6,2*%
%TO.N,+5V*%
X148625000Y-109325000D03*
%TD*%
D59*
%TO.P,L5,1*%
%TO.N,/ESP32-C6/More_RF*%
X163421447Y-105646446D03*
%TO.P,L5,2*%
%TO.N,GND*%
X164128553Y-106353554D03*
%TD*%
D14*
%TO.P,R59,1*%
%TO.N,/ChainBus + ALtmode/Chainbus.SCL*%
X180500000Y-85750000D03*
%TO.P,R59,2*%
%TO.N,+3V3*%
X181500000Y-85750000D03*
%TD*%
D60*
%TO.P,X2,1,OSC_1*%
%TO.N,/ESP32-C6/XTAL_P.*%
X152475000Y-112425000D03*
%TO.P,X2,2,GND_2*%
%TO.N,GND*%
X154675000Y-112425000D03*
%TO.P,X2,3,OSC_3*%
%TO.N,/ESP32-C6/XTAL_N*%
X154675000Y-110725000D03*
%TO.P,X2,4,GND_4*%
%TO.N,GND*%
X152475000Y-110725000D03*
%TD*%
D61*
%TO.P,SW3,1,A_1*%
%TO.N,/ESP32-C6/EN*%
X179432500Y-119550000D03*
%TO.P,SW3,2,B_2*%
%TO.N,GND*%
X183932500Y-119550000D03*
D62*
%TO.P,SW3,3,C_3*%
X178182500Y-117050000D03*
%TO.P,SW3,4,D_4*%
X185182500Y-117050000D03*
%TD*%
D63*
%TO.P,U13,1,GND_1*%
%TO.N,GND*%
X176760000Y-102980000D03*
%TO.P,U13,2,TXD_2*%
%TO.N,/ESP32-C6/UART0.TX*%
X178040000Y-102980000D03*
%TO.P,U13,3,RXD_3*%
%TO.N,/ESP32-C6/UART0.RX*%
X179300000Y-102980000D03*
%TO.P,U13,4,V3_4*%
%TO.N,+3V3*%
X180570000Y-102980000D03*
%TO.P,U13,5,UD+_5*%
%TO.N,/UART_Programmer/Prg.D+*%
X181850000Y-102980000D03*
%TO.P,U13,6,UD-_6*%
%TO.N,/UART_Programmer/Prg.D-*%
X183120000Y-102980000D03*
%TO.P,U13,7,XI_7*%
%TO.N,/UART_Programmer/XI*%
X184380000Y-102980000D03*
%TO.P,U13,8,XO_8*%
%TO.N,/UART_Programmer/XO*%
X185660000Y-102980000D03*
%TO.P,U13,9,~{CTS}_9*%
%TO.N,unconnected-(U13-~{CTS}-Pad9)*%
X185660000Y-98020000D03*
%TO.P,U13,10,~{DSR}_10*%
%TO.N,unconnected-(U13-~{DSR}-Pad10)*%
X184380000Y-98020000D03*
%TO.P,U13,11,~{RI}_11*%
%TO.N,unconnected-(U13-~{RI}-Pad11)*%
X183120000Y-98020000D03*
%TO.P,U13,12,~{DCD}_12*%
%TO.N,unconnected-(U13-~{DCD}-Pad12)*%
X181850000Y-98020000D03*
%TO.P,U13,13,~{DTR}_13*%
%TO.N,/UART_Programmer/~{DTR}*%
X180570000Y-98020000D03*
%TO.P,U13,14,~{RTS}_14*%
%TO.N,/UART_Programmer/~{RTS}*%
X179300000Y-98020000D03*
%TO.P,U13,15,R232_15*%
%TO.N,unconnected-(U13-R232-Pad15)*%
X178040000Y-98020000D03*
%TO.P,U13,16,VCC_16*%
%TO.N,+3V3*%
X176760000Y-98020000D03*
%TD*%
D17*
%TO.P,D7,1*%
%TO.N,/USB switch/SEL*%
X188525000Y-116900000D03*
%TO.P,D7,2*%
%TO.N,/Select_GPIO*%
X188525000Y-114800000D03*
%TD*%
D56*
%TO.P,D1,1*%
%TO.N,BRD_VIN*%
X110600000Y-113800000D03*
%TO.P,D1,2*%
%TO.N,GND*%
X113400000Y-113800000D03*
%TD*%
D28*
%TO.P,R66,1*%
%TO.N,+3V3*%
X178050000Y-88200000D03*
%TO.P,R66,2*%
%TO.N,/I2C_Flash/A2*%
X178050000Y-89200000D03*
%TD*%
%TO.P,R24,1*%
%TO.N,+3V3*%
X186544119Y-107906066D03*
%TO.P,R24,2*%
%TO.N,/GPIO_Expander/A2*%
X186544119Y-108906066D03*
%TD*%
D64*
%TO.P,U10,1,A0_1*%
%TO.N,/I2C_Flash/A0*%
X181362500Y-87820000D03*
%TO.P,U10,2,A1_2*%
%TO.N,/I2C_Flash/A1*%
X181362500Y-89090000D03*
%TO.P,U10,3,A2_3*%
%TO.N,/I2C_Flash/A2*%
X181362500Y-90360000D03*
%TO.P,U10,4,GND_4*%
%TO.N,GND*%
X181362500Y-91630000D03*
%TO.P,U10,5,SDA_5*%
%TO.N,/ChainBus + ALtmode/Chainbus.SDA*%
X188537500Y-91630000D03*
%TO.P,U10,6,SCL_6*%
%TO.N,/ChainBus + ALtmode/Chainbus.SCL*%
X188537500Y-90360000D03*
%TO.P,U10,7,WP_7*%
%TO.N,Net-(U10-WP)*%
X188537500Y-89090000D03*
%TO.P,U10,8,VCC_8*%
%TO.N,+3V3*%
X188537500Y-87820000D03*
%TD*%
D24*
%TO.P,R43,1*%
%TO.N,/ESP32-C6/ESP_SPIWP*%
X150300000Y-102200000D03*
%TO.P,R43,2*%
%TO.N,/ESP32-C6/SPIWP*%
X149300000Y-102200000D03*
%TD*%
D23*
%TO.P,R51,1*%
%TO.N,/ESP32-C6/GPIO13*%
X152875000Y-100890000D03*
%TO.P,R51,2*%
%TO.N,/ESP32-C6/USB.D-*%
X152875000Y-99890000D03*
%TD*%
D28*
%TO.P,C18,1*%
%TO.N,/ESP32-C6/ANT*%
X158474999Y-107350000D03*
%TO.P,C18,2*%
%TO.N,GND*%
X158475001Y-108350000D03*
%TD*%
D43*
%TO.P,C10,1*%
%TO.N,+3V3*%
X139895000Y-105600000D03*
%TO.P,C10,2*%
%TO.N,GND*%
X141455000Y-105600000D03*
%TD*%
D14*
%TO.P,C53,1*%
%TO.N,+3V3*%
X158875000Y-104790000D03*
%TO.P,C53,2*%
%TO.N,GND*%
X159875000Y-104790000D03*
%TD*%
D28*
%TO.P,C26,1*%
%TO.N,+3V3*%
X157200000Y-107550000D03*
%TO.P,C26,2*%
%TO.N,GND*%
X157200000Y-108550000D03*
%TD*%
D23*
%TO.P,C59,1*%
%TO.N,+3V3*%
X159500000Y-101600000D03*
%TO.P,C59,2*%
%TO.N,GND*%
X159500000Y-100600000D03*
%TD*%
D27*
%TO.P,C38,1*%
%TO.N,BRD_VIN*%
X105500000Y-116600000D03*
%TO.P,C38,2*%
%TO.N,/VRM/Cap_protec*%
X103600000Y-116600000D03*
%TD*%
D22*
%TO.P,C42,1*%
%TO.N,Net-(C41-Pad1)*%
X119000000Y-108750000D03*
%TO.P,C42,2*%
%TO.N,GND*%
X119000000Y-110650000D03*
%TD*%
%TO.P,C41,1*%
%TO.N,Net-(C41-Pad1)*%
X112400000Y-108750000D03*
%TO.P,C41,2*%
%TO.N,GND*%
X112400000Y-110650000D03*
%TD*%
D28*
%TO.P,R5,1*%
%TO.N,Net-(C1-Pad1)*%
X157600000Y-127700000D03*
%TO.P,R5,2*%
%TO.N,GND*%
X157600000Y-128700000D03*
%TD*%
D65*
%TO.P,U15,1,GND_1*%
%TO.N,GND*%
X141300000Y-107550000D03*
%TO.P,U15,2,VO_2*%
%TO.N,+3V3*%
X139000000Y-107550000D03*
D66*
X139000000Y-113850000D03*
D65*
%TO.P,U15,3,VI_3*%
%TO.N,+5V*%
X136700000Y-107550000D03*
%TD*%
D14*
%TO.P,C51,1*%
%TO.N,+3V3*%
X188550000Y-86700000D03*
%TO.P,C51,2*%
%TO.N,GND*%
X189550000Y-86700000D03*
%TD*%
D28*
%TO.P,R31,1*%
%TO.N,/GPIO_Expander/GPIO7*%
X190050000Y-118425000D03*
%TO.P,R31,2*%
%TO.N,Net-(LED1-Pad1)*%
X190050000Y-119425000D03*
%TD*%
D14*
%TO.P,R42,1*%
%TO.N,/ESP32-C6/More_RF*%
X184920000Y-94600000D03*
%TO.P,R42,2*%
%TO.N,/ESP32-C6/ANT_CN*%
X185920000Y-94600000D03*
%TD*%
D67*
%TO.P,U3,1,D+_1*%
%TO.N,/MMS_CONNECTOR_UPSTREAM/USB_MMS_CONN.D+*%
X157400000Y-114400000D03*
D68*
%TO.P,U3,2,D-_2*%
%TO.N,/MMS_CONNECTOR_UPSTREAM/USB_MMS_CONN.D-*%
X157300000Y-114800000D03*
D69*
%TO.P,U3,3,GND_3*%
%TO.N,GND*%
X157562500Y-115462500D03*
%TO.P,U3,4,HSD1-_4*%
%TO.N,/MMS_CONNECTOR_DOWNSTREAM/USB_MMS_CONN.D-*%
X157962500Y-115462500D03*
%TO.P,U3,5,HSD1+_5*%
%TO.N,/MMS_CONNECTOR_DOWNSTREAM/USB_MMS_CONN.D+*%
X158362500Y-115462500D03*
D68*
%TO.P,U3,6,HSD2-_6*%
%TO.N,/USB switch/USB_OUT2.D-*%
X158625000Y-114800000D03*
%TO.P,U3,7,HSD2+_7*%
%TO.N,/USB switch/USB_OUT2.D+*%
X158625000Y-114400000D03*
D69*
%TO.P,U3,8,~{OE}_8*%
%TO.N,Net-(U3-~{OE})*%
X158362500Y-113737500D03*
%TO.P,U3,9,VCC_9*%
%TO.N,+3V3*%
X157962500Y-113737500D03*
%TO.P,U3,10,SEL_10*%
%TO.N,Net-(U3-SEL)*%
X157562500Y-113737500D03*
%TD*%
D24*
%TO.P,R46,1*%
%TO.N,/ESP32-C6/ESP_SPID*%
X150290000Y-104600000D03*
%TO.P,R46,2*%
%TO.N,/ESP32-C6/SPID*%
X149290000Y-104600000D03*
%TD*%
D27*
%TO.P,C33,1*%
%TO.N,/VRM/Cap_protec*%
X102100000Y-122600000D03*
%TO.P,C33,2*%
%TO.N,GND*%
X100200000Y-122600000D03*
%TD*%
D14*
%TO.P,C13,1*%
%TO.N,Net-(J4-SHIELD)*%
X185600000Y-122725000D03*
%TO.P,C13,2*%
%TO.N,GND*%
X186600000Y-122725000D03*
%TD*%
D24*
%TO.P,R902,1*%
%TO.N,/UART_Programmer/Prg.D-*%
X178900000Y-106850000D03*
%TO.P,R902,2*%
%TO.N,/USB HUB/USBOUT1_R.D-*%
X177900000Y-106850000D03*
%TD*%
D28*
%TO.P,C17,1*%
%TO.N,/ESP32-C6/RF*%
X161075000Y-107350000D03*
%TO.P,C17,2*%
%TO.N,GND*%
X161075000Y-108350000D03*
%TD*%
D24*
%TO.P,R33,1*%
%TO.N,BRD_VIN*%
X104700000Y-124200000D03*
%TO.P,R33,2*%
%TO.N,/VRM/Cap_protec*%
X103700000Y-124200000D03*
%TD*%
D23*
%TO.P,R1,1*%
%TO.N,Net-(J8-~-Pad10)*%
X185275000Y-114875000D03*
%TO.P,R1,2*%
%TO.N,/RJ45_DWN_TX1*%
X185275000Y-113875000D03*
%TD*%
D70*
%TO.P,J8,1,~_1*%
%TO.N,/CAN_TR.kicad_sch1/CAN.-*%
X170590000Y-124660000D03*
D71*
%TO.P,J8,2,~_2*%
%TO.N,/CAN_TR.kicad_sch1/CAN.+*%
X169574000Y-122880000D03*
%TO.P,J8,3,~_3*%
%TO.N,GND*%
X168558000Y-124660000D03*
%TO.P,J8,4,~_4*%
%TO.N,/CAN_TR.kicad_sch/CAN.-*%
X167542000Y-122880000D03*
%TO.P,J8,5,~_5*%
%TO.N,/CAN_TR.kicad_sch/CAN.+*%
X166526000Y-124660000D03*
%TO.P,J8,6,~_6*%
%TO.N,+12V stby*%
X165510000Y-122880000D03*
%TO.P,J8,7,~_7*%
%TO.N,/MMS_CONNECTOR_DOWNSTREAM/USB_MMS_CONN.D-*%
X164494000Y-124660000D03*
%TO.P,J8,8,~_8*%
%TO.N,/MMS_CONNECTOR_DOWNSTREAM/USB_MMS_CONN.D+*%
X163478000Y-122880000D03*
%TO.P,J8,9,~_9*%
%TO.N,GND*%
X173890000Y-118060000D03*
%TO.P,J8,10,~_10*%
%TO.N,Net-(J8-~-Pad10)*%
X171600000Y-118060000D03*
%TO.P,J8,11,~_11*%
%TO.N,GND*%
X162460000Y-118060000D03*
%TO.P,J8,12,~_12*%
%TO.N,Net-(J8-~-Pad12)*%
X160170000Y-118060000D03*
D72*
%TO.P,J8,SH,~_SH*%
%TO.N,Net-(C1-Pad1)*%
X175160000Y-123770000D03*
X158900000Y-123770000D03*
%TD*%
D14*
%TO.P,C902,1*%
%TO.N,Net-(U302-3V3)*%
X176700000Y-112450000D03*
%TO.P,C902,2*%
%TO.N,GND*%
X177700000Y-112450000D03*
%TD*%
D60*
%TO.P,Y900,1,1_1*%
%TO.N,Net-(U302-XO)*%
X180350000Y-111450000D03*
%TO.P,Y900,2,2_2*%
%TO.N,GND*%
X182550000Y-111450000D03*
%TO.P,Y900,3,3_3*%
%TO.N,Net-(U302-XI)*%
X182550000Y-109750000D03*
%TO.P,Y900,4,4_4*%
%TO.N,GND*%
X180350000Y-109750000D03*
%TD*%
D73*
%TO.P,D301,1*%
%TO.N,Net-(D301-Pad1)*%
X173100000Y-111560000D03*
%TO.P,D301,2*%
%TO.N,+5V*%
X173100000Y-113140000D03*
%TD*%
D62*
%TO.P,KEY1,0,0_0*%
%TO.N,GND*%
X195137500Y-112182500D03*
X195137500Y-105182500D03*
D74*
%TO.P,KEY1,1,1_1*%
%TO.N,/GPIO_Expander/GPIO9*%
X197377500Y-111192500D03*
%TO.P,KEY1,2,2_2*%
%TO.N,/GPIO_Expander/GPIO10*%
X197377500Y-109562500D03*
%TO.P,KEY1,3,3_3*%
%TO.N,+3V3*%
X197377500Y-107812500D03*
%TO.P,KEY1,4,4_4*%
X197377500Y-106182500D03*
%TD*%
D14*
%TO.P,R907,1*%
%TO.N,/ESP32-C6/USB.D+*%
X173100000Y-106625000D03*
%TO.P,R907,2*%
%TO.N,/USB HUB/USBOUT2_R.D+*%
X174100000Y-106625000D03*
%TD*%
D75*
%TO.P,C25,1*%
%TO.N,/ESP32-C6/VCC_RF*%
X159427427Y-105712170D03*
%TO.P,C25,2*%
%TO.N,GND*%
X160367119Y-106054190D03*
%TD*%
D76*
%TO.P,C49,1*%
%TO.N,BRD_VIN*%
X109194954Y-90805459D03*
D77*
X110694952Y-90805459D03*
%TO.P,C49,2*%
%TO.N,GND*%
X115694952Y-90805459D03*
D78*
X117200000Y-90800000D03*
%TD*%
D28*
%TO.P,C54,1*%
%TO.N,+3V3*%
X175600000Y-97725000D03*
%TO.P,C54,2*%
%TO.N,GND*%
X175600000Y-98725000D03*
%TD*%
D24*
%TO.P,R16,1*%
%TO.N,/USB HUB/USBIN1_R.D+*%
X173200000Y-110077500D03*
%TO.P,R16,2*%
%TO.N,/USB HUB/USBIN1.D+*%
X172200000Y-110077500D03*
%TD*%
D27*
%TO.P,C40,1*%
%TO.N,Net-(U2-SW)*%
X107550000Y-103200000D03*
%TO.P,C40,2*%
%TO.N,Net-(U2-BOOT)*%
X105650000Y-103200000D03*
%TD*%
D28*
%TO.P,R68,1*%
%TO.N,+3V3*%
X179850000Y-88200000D03*
%TO.P,R68,2*%
%TO.N,/I2C_Flash/A0*%
X179850000Y-89200000D03*
%TD*%
%TO.P,R14,1*%
%TO.N,Net-(U7-SEL)*%
X168925000Y-113250000D03*
%TO.P,R14,2*%
%TO.N,GND*%
X168925000Y-114250000D03*
%TD*%
%TO.P,R23,1*%
%TO.N,+3V3*%
X191544119Y-109381066D03*
%TO.P,R23,2*%
%TO.N,/GPIO_Expander/A0*%
X191544119Y-110381066D03*
%TD*%
D23*
%TO.P,R20,1*%
%TO.N,/USB HUB/USBBYP.D-*%
X171850000Y-106675000D03*
%TO.P,R20,2*%
%TO.N,/ESP32-C6/USB.D-*%
X171850000Y-105675000D03*
%TD*%
D24*
%TO.P,R45,1*%
%TO.N,/ESP32-C6/ESP_SPIHD*%
X150300000Y-103000000D03*
%TO.P,R45,2*%
%TO.N,/ESP32-C6/SPIHD*%
X149300000Y-103000000D03*
%TD*%
D23*
%TO.P,R50,1*%
%TO.N,/ESP32-C6/GPIO12*%
X153675000Y-100890000D03*
%TO.P,R50,2*%
%TO.N,/ESP32-C6/USB.D+*%
X153675000Y-99890000D03*
%TD*%
D28*
%TO.P,R67,1*%
%TO.N,+3V3*%
X178950000Y-88200000D03*
%TO.P,R67,2*%
%TO.N,/I2C_Flash/A1*%
X178950000Y-89200000D03*
%TD*%
D15*
%TO.P,U6,1,TXD_1*%
%TO.N,/ChainBus + ALtmode/Altmode1*%
X149750000Y-110425000D03*
%TO.P,U6,2,GND_2*%
%TO.N,GND*%
X149100000Y-110425000D03*
%TO.P,U6,3,VCC_3*%
%TO.N,+5V*%
X148450000Y-110425000D03*
%TO.P,U6,4,RXD_4*%
%TO.N,/ChainBus + ALtmode/Altmode2*%
X147800000Y-110425000D03*
%TO.P,U6,5,VIO_5*%
%TO.N,+3V3*%
X147800000Y-113325000D03*
%TO.P,U6,6,CANL_6*%
%TO.N,/CAN_TR.kicad_sch1/CAN.-*%
X148450000Y-113325000D03*
%TO.P,U6,7,CANH_7*%
%TO.N,/CAN_TR.kicad_sch1/CAN.+*%
X149100000Y-113325000D03*
%TO.P,U6,8,STB_8*%
%TO.N,Net-(U6-STB)*%
X149750000Y-113325000D03*
D16*
%TO.P,U6,9,EP_9*%
%TO.N,GND*%
X148775000Y-111875000D03*
%TD*%
D24*
%TO.P,C12,1*%
%TO.N,/USBC_CONN/VBUS*%
X179400000Y-123100000D03*
%TO.P,C12,2*%
%TO.N,GND*%
X178400000Y-123100000D03*
%TD*%
%TO.P,R903,1*%
%TO.N,/UART_Programmer/Prg.D+*%
X178900000Y-106050000D03*
%TO.P,R903,2*%
%TO.N,/USB HUB/USBOUT1_R.D+*%
X177900000Y-106050000D03*
%TD*%
D42*
%TO.P,Q2,1,B_1*%
%TO.N,Net-(Q2-B)*%
X171190000Y-104362500D03*
%TO.P,Q2,2,E_2*%
%TO.N,/UART_Programmer/~{DTR}*%
X171190000Y-102462500D03*
%TO.P,Q2,3,C_3*%
%TO.N,/ChainBus + ALtmode/Chainbus_addr7*%
X169310000Y-103412500D03*
%TD*%
D28*
%TO.P,R15,1*%
%TO.N,Net-(U7-~{OE})*%
X168125000Y-113250000D03*
%TO.P,R15,2*%
%TO.N,GND*%
X168125000Y-114250000D03*
%TD*%
D79*
%TO.P,U8,1,~{CS}_1*%
%TO.N,/ESP32-C6/SPICS0*%
X147090000Y-99510000D03*
%TO.P,U8,2,SO(IO1)_2*%
%TO.N,/ESP32-C6/SPIQ*%
X145820000Y-99510000D03*
%TO.P,U8,3,WP#(IO2)_3*%
%TO.N,/ESP32-C6/SPIWP*%
X144560000Y-99510000D03*
%TO.P,U8,4,VSS_4*%
%TO.N,GND*%
X143290000Y-99510000D03*
%TO.P,U8,5,SI(IO0)_5*%
%TO.N,/ESP32-C6/SPID*%
X143290000Y-106590000D03*
%TO.P,U8,6,SCLK_6*%
%TO.N,/ESP32-C6/SPICLK*%
X144560000Y-106590000D03*
%TO.P,U8,7,~{HOLD}/RESET#(IO3)_7*%
%TO.N,/ESP32-C6/SPIHD*%
X145820000Y-106590000D03*
%TO.P,U8,8,VCC_8*%
%TO.N,+3V3*%
X147090000Y-106590000D03*
%TD*%
D28*
%TO.P,R65,1*%
%TO.N,/I2C_Flash/A0*%
X179850000Y-90200000D03*
%TO.P,R65,2*%
%TO.N,GND*%
X179850000Y-91200000D03*
%TD*%
D70*
%TO.P,J9,1,~_1*%
%TO.N,/CAN_TR.kicad_sch1/CAN.-*%
X151690000Y-124660000D03*
D71*
%TO.P,J9,2,~_2*%
%TO.N,/CAN_TR.kicad_sch1/CAN.+*%
X150674000Y-122880000D03*
%TO.P,J9,3,~_3*%
%TO.N,GND*%
X149658000Y-124660000D03*
%TO.P,J9,4,~_4*%
%TO.N,/CAN_TR.kicad_sch/CAN.-*%
X148642000Y-122880000D03*
%TO.P,J9,5,~_5*%
%TO.N,/CAN_TR.kicad_sch/CAN.+*%
X147626000Y-124660000D03*
%TO.P,J9,6,~_6*%
%TO.N,+12V stby*%
X146610000Y-122880000D03*
%TO.P,J9,7,~_7*%
%TO.N,/MMS_CONNECTOR_UPSTREAM/USB_MMS_CONN.D-*%
X145594000Y-124660000D03*
%TO.P,J9,8,~_8*%
%TO.N,/MMS_CONNECTOR_UPSTREAM/USB_MMS_CONN.D+*%
X144578000Y-122880000D03*
%TO.P,J9,9,~_9*%
%TO.N,GND*%
X154990000Y-118060000D03*
%TO.P,J9,10,~_10*%
%TO.N,Net-(J9-~-Pad10)*%
X152700000Y-118060000D03*
%TO.P,J9,11,~_11*%
%TO.N,GND*%
X143560000Y-118060000D03*
%TO.P,J9,12,~_12*%
%TO.N,Net-(J9-~-Pad12)*%
X141270000Y-118060000D03*
D72*
%TO.P,J9,SH,~_SH*%
%TO.N,Net-(C2-Pad1)*%
X156260000Y-123770000D03*
X140000000Y-123770000D03*
%TD*%
D24*
%TO.P,R27,1*%
%TO.N,Net-(J4-SHIELD)*%
X184800000Y-122725000D03*
%TO.P,R27,2*%
%TO.N,GND*%
X183800000Y-122725000D03*
%TD*%
D23*
%TO.P,R57,1*%
%TO.N,GND*%
X183720000Y-95600000D03*
%TO.P,R57,2*%
%TO.N,/ESP32-C6/More_RF*%
X183720000Y-94600000D03*
%TD*%
D28*
%TO.P,R19,1*%
%TO.N,/USB HUB/USBBYP.D-*%
X171875000Y-107475000D03*
%TO.P,R19,2*%
%TO.N,/USB HUB/USBIN1.D-*%
X171875000Y-108475000D03*
%TD*%
D23*
%TO.P,R13,1*%
%TO.N,/USBC_CONN/VBUS*%
X169725000Y-114250000D03*
%TO.P,R13,2*%
%TO.N,Net-(U7-SEL)*%
X169725000Y-113250000D03*
%TD*%
%TO.P,R4,1*%
%TO.N,Net-(J9-~-Pad12)*%
X186075000Y-114875000D03*
%TO.P,R4,2*%
%TO.N,/RJ45_UP_RX1*%
X186075000Y-113875000D03*
%TD*%
D80*
%TO.P,U302,1,XO_1*%
%TO.N,Net-(U302-XO)*%
X177212500Y-109850000D03*
%TO.P,U302,2,XI_2*%
%TO.N,Net-(U302-XI)*%
X177212500Y-109350000D03*
%TO.P,U302,3,DM4_3*%
%TO.N,unconnected-(U302-DM4-Pad3)*%
X177212500Y-108850000D03*
%TO.P,U302,4,DP4_4*%
%TO.N,unconnected-(U302-DP4-Pad4)*%
X177212500Y-108350000D03*
D81*
%TO.P,U302,5,DM3_5*%
%TO.N,/USB HUB/USBOUT1_R.D-*%
X176500000Y-107637500D03*
%TO.P,U302,6,DP3_6*%
%TO.N,/USB HUB/USBOUT1_R.D+*%
X176000000Y-107637500D03*
%TO.P,U302,7,DM2_7*%
%TO.N,/USB HUB/USBOUT2_R.D-*%
X175500000Y-107637500D03*
%TO.P,U302,8,DP2_8*%
%TO.N,/USB HUB/USBOUT2_R.D+*%
X175000000Y-107637500D03*
D80*
%TO.P,U302,9,DM1_9*%
%TO.N,unconnected-(U302-DM1-Pad9)*%
X174287500Y-108350000D03*
%TO.P,U302,10,DP1_10*%
%TO.N,unconnected-(U302-DP1-Pad10)*%
X174287500Y-108850000D03*
%TO.P,U302,11,DMU_11*%
%TO.N,/USB HUB/USBIN1_R.D-*%
X174287500Y-109350000D03*
%TO.P,U302,12,DPU_12*%
%TO.N,/USB HUB/USBIN1_R.D+*%
X174287500Y-109850000D03*
D81*
%TO.P,U302,13,RESET_13*%
%TO.N,unconnected-(U302-RESET-Pad13)*%
X175000000Y-110562500D03*
%TO.P,U302,14,PGANG_14*%
%TO.N,Net-(U302-PGANG)*%
X175500000Y-110562500D03*
%TO.P,U302,15,5V_15*%
%TO.N,+5V*%
X176000000Y-110562500D03*
%TO.P,U302,16,3V3_16*%
%TO.N,Net-(U302-3V3)*%
X176500000Y-110562500D03*
D82*
%TO.P,U302,17,GND_17*%
%TO.N,GND*%
X175750000Y-109100000D03*
%TD*%
D23*
%TO.P,R32,1*%
%TO.N,/GPIO_Expander/GPIO0*%
X190700000Y-106900000D03*
%TO.P,R32,2*%
%TO.N,Net-(LED2-Pad3)*%
X190700000Y-105900000D03*
%TD*%
D24*
%TO.P,R48,1*%
%TO.N,/ESP32-C6/ESP_CSPICLK*%
X150300000Y-103800000D03*
%TO.P,R48,2*%
%TO.N,/ESP32-C6/SPICLK*%
X149300000Y-103800000D03*
%TD*%
D41*
%TO.P,LED1,1*%
%TO.N,Net-(LED1-Pad1)*%
X190686400Y-127628255D03*
%TO.P,LED1,2*%
%TO.N,GND*%
X188146400Y-127628255D03*
%TO.P,LED1,3*%
%TO.N,Net-(LED1-Pad3)*%
X190686400Y-125088255D03*
%TO.P,LED1,4*%
%TO.N,GND*%
X188146400Y-125088255D03*
%TD*%
D14*
%TO.P,R52,1*%
%TO.N,/ChainBus + ALtmode/Chainbus_addr7*%
X156925000Y-97350000D03*
%TO.P,R52,2*%
%TO.N,+3V3*%
X157925000Y-97350000D03*
%TD*%
D11*
%TO.P,J2,*%
%TO.N,*%
X121250000Y-123850000D03*
X107750000Y-123850000D03*
D12*
%TO.P,J2,1,Pin_1_1*%
%TO.N,GND*%
X118100000Y-117850000D03*
D13*
%TO.P,J2,2,Pin_2_2*%
%TO.N,BRD_VIN*%
X110900000Y-117850000D03*
%TD*%
D14*
%TO.P,R49,1*%
%TO.N,/ESP32-C6/UART0.TX*%
X149675000Y-107025000D03*
%TO.P,R49,2*%
%TO.N,/ESP32-C6/ESP_TX*%
X150675000Y-107025000D03*
%TD*%
D83*
%TO.P,U9,1,~_1*%
%TO.N,/USB switch1/USB_OUT2.D-*%
X181100000Y-123200000D03*
%TO.P,U9,2,~_2*%
%TO.N,/USB switch1/USB_OUT2.D+*%
X181900000Y-123200000D03*
%TO.P,U9,3,~_3*%
%TO.N,GND*%
X181500000Y-122050000D03*
%TD*%
D28*
%TO.P,R30,1*%
%TO.N,/GPIO_Expander/GPIO8*%
X190850000Y-118425000D03*
%TO.P,R30,2*%
%TO.N,Net-(LED1-Pad3)*%
X190850000Y-119425000D03*
%TD*%
D84*
%TO.P,R36,1*%
%TO.N,Net-(C41-Pad1)*%
X108007500Y-110835000D03*
%TO.P,R36,2*%
%TO.N,Net-(U2-FB)*%
X106367500Y-110835000D03*
%TD*%
D28*
%TO.P,C27,1*%
%TO.N,+3V3*%
X155500000Y-108300000D03*
%TO.P,C27,2*%
%TO.N,GND*%
X155500000Y-109300000D03*
%TD*%
D85*
%TO.N,GND*%
X176900000Y-123325000D03*
X121000000Y-118250000D03*
X125000000Y-95000000D03*
X146200000Y-109700000D03*
X153400000Y-84100000D03*
X163400000Y-83100000D03*
X156200000Y-105400000D03*
X121000000Y-117500000D03*
X123250000Y-118250000D03*
X123250000Y-117500000D03*
X115000000Y-87000000D03*
X104650000Y-106750000D03*
X150100000Y-106300000D03*
X103316016Y-102738943D03*
X104000000Y-103500000D03*
X153700000Y-103900000D03*
X154625000Y-113300000D03*
X189350000Y-112200000D03*
X117000000Y-93750000D03*
X157050000Y-115725000D03*
X152425000Y-109800000D03*
X155400000Y-105400000D03*
X192625000Y-110800000D03*
X154901858Y-109402237D03*
X124750000Y-119000000D03*
X185200000Y-109850000D03*
X158400000Y-84100000D03*
X143700000Y-100800000D03*
X142388169Y-115748881D03*
X106000000Y-87000000D03*
X121000000Y-95000000D03*
X145025000Y-115450000D03*
X156400000Y-83100000D03*
X103950000Y-106750000D03*
X153700000Y-104700000D03*
X163400000Y-84100000D03*
X190750000Y-88050000D03*
X107000000Y-84000000D03*
X160400000Y-84100000D03*
X183175441Y-113078992D03*
X176250000Y-128500000D03*
X160300000Y-108450000D03*
X150380000Y-111660000D03*
X160300000Y-100000000D03*
X141950000Y-108800000D03*
X162960000Y-112648405D03*
X115000000Y-89000000D03*
X123000000Y-110000000D03*
X107000000Y-83000000D03*
X107000000Y-86000000D03*
X100000000Y-130000000D03*
X176900000Y-122775000D03*
X100800000Y-119600000D03*
X123000000Y-95000000D03*
X116250000Y-93000000D03*
X179699997Y-105325000D03*
X197900000Y-113000000D03*
X104650000Y-107450000D03*
X141350000Y-109400000D03*
X103950000Y-106050000D03*
X164525000Y-106750000D03*
X189370000Y-103975000D03*
X125000000Y-89000000D03*
X122500000Y-118250000D03*
X163520941Y-113750000D03*
X157802583Y-108697417D03*
X107000000Y-87000000D03*
X115500000Y-95250000D03*
X185044119Y-108181066D03*
X123250000Y-116750000D03*
X122500000Y-116000000D03*
X175250000Y-109650000D03*
X124650000Y-106500000D03*
X189400003Y-85900000D03*
X124000000Y-119750000D03*
X116250000Y-93750000D03*
X155400000Y-83100000D03*
X103950000Y-107450000D03*
X109075000Y-110550000D03*
X167475000Y-114000000D03*
X161335322Y-111763220D03*
X154500000Y-105400000D03*
X119000000Y-89000000D03*
X158913907Y-111260057D03*
X124000000Y-116000000D03*
X176250000Y-109650000D03*
X123250000Y-116000000D03*
X177500000Y-123350000D03*
X153700000Y-103200000D03*
X160400000Y-83100000D03*
X100800000Y-121600000D03*
X121000000Y-91000000D03*
X140700000Y-109400000D03*
X100800000Y-117600000D03*
X154500000Y-103200000D03*
X122500000Y-117500000D03*
X159500000Y-100000000D03*
X187950000Y-107150000D03*
X165400000Y-83100000D03*
X101000000Y-131000000D03*
X103950000Y-108800000D03*
X155400000Y-84100000D03*
X161400000Y-83100000D03*
X122500000Y-119750000D03*
X121750000Y-118250000D03*
X100750000Y-125000000D03*
X123250000Y-119750000D03*
X175250000Y-108550000D03*
X155400000Y-103200000D03*
X121000000Y-116000000D03*
X100000000Y-125600000D03*
X100000000Y-124400000D03*
X122500000Y-119000000D03*
X179250000Y-109500000D03*
X156400000Y-84100000D03*
X156200000Y-104700000D03*
X100000000Y-83000000D03*
X107000000Y-85000000D03*
X125000000Y-110000000D03*
X100000000Y-84000000D03*
X121000000Y-87000000D03*
X126000000Y-111000000D03*
X160600000Y-104800000D03*
X100000000Y-123800000D03*
X146675000Y-109225000D03*
X105350000Y-108800000D03*
X121000000Y-97000000D03*
X158400000Y-83100000D03*
X101000000Y-83000000D03*
X100750000Y-125600000D03*
X118500000Y-94500000D03*
X165550000Y-110700000D03*
X124750000Y-116750000D03*
X121750000Y-117500000D03*
X184400000Y-111500000D03*
X123250000Y-106500000D03*
X121750000Y-116750000D03*
X162400000Y-84100000D03*
X147698468Y-115387500D03*
X155400000Y-104700000D03*
X148451419Y-114341902D03*
X117750000Y-95250000D03*
X115500000Y-93750000D03*
X157400000Y-83100000D03*
X124000000Y-117500000D03*
X182550000Y-112450000D03*
X106000000Y-84000000D03*
X115500000Y-94500000D03*
X153400000Y-83100000D03*
X176250000Y-108550000D03*
X105350000Y-107450000D03*
X123000000Y-97000000D03*
X103950000Y-108100000D03*
X148700000Y-106249997D03*
X183475000Y-121350000D03*
X103316016Y-101238943D03*
X159200000Y-108450000D03*
X190500000Y-113550000D03*
X141350000Y-108800000D03*
X106000000Y-83000000D03*
X104000000Y-101250000D03*
X175750000Y-109100000D03*
X126000000Y-110000000D03*
X161400000Y-84100000D03*
X140700000Y-108800000D03*
X184075000Y-121925000D03*
X157400000Y-84100000D03*
X169049978Y-104975878D03*
X164400000Y-83100000D03*
X118500000Y-93750000D03*
X124000000Y-111000000D03*
X123250000Y-119000000D03*
X142750000Y-111750000D03*
X123000000Y-89000000D03*
X159400000Y-83100000D03*
X189350000Y-111300000D03*
X161884752Y-113525134D03*
X116250000Y-94500000D03*
X117750000Y-94500000D03*
X115500000Y-93000000D03*
X125350000Y-106500000D03*
X156200000Y-103900000D03*
X125000000Y-93000000D03*
X163500000Y-110712500D03*
X175250000Y-112650003D03*
X117000000Y-93000000D03*
X186650000Y-122075000D03*
X123000000Y-87000000D03*
X100000000Y-125000000D03*
X105000000Y-83000000D03*
X103316016Y-101988943D03*
X176050000Y-129500000D03*
X153700000Y-105400000D03*
X104650000Y-106050000D03*
X177400000Y-110750000D03*
X155400000Y-103900000D03*
X177500000Y-122800000D03*
X106000000Y-85000000D03*
X160400000Y-104050000D03*
X121000000Y-116750000D03*
X150321380Y-114460689D03*
X121750000Y-116000000D03*
X124750000Y-117500000D03*
X103316016Y-103488943D03*
X162400000Y-83100000D03*
X179850000Y-91900000D03*
X154500000Y-103900000D03*
X124750000Y-119750000D03*
X187220000Y-96250000D03*
X104000000Y-102750000D03*
X125000000Y-97000000D03*
X154400000Y-84100000D03*
X159400000Y-84100000D03*
X121750000Y-119000000D03*
X161375000Y-100450000D03*
X124000000Y-118250000D03*
X100000000Y-131000000D03*
X138650000Y-104725000D03*
X124000000Y-119000000D03*
X116250000Y-95250000D03*
X118500000Y-95250000D03*
X105350000Y-106050000D03*
X174900000Y-98675003D03*
X124750000Y-116000000D03*
X123950000Y-106500000D03*
X124000000Y-116750000D03*
X188550000Y-112200000D03*
X187903707Y-114547080D03*
X187045000Y-100325000D03*
X183475000Y-121900000D03*
X117750000Y-93750000D03*
X105350000Y-108100000D03*
X117000000Y-87000000D03*
X184075000Y-121375000D03*
X105350000Y-106750000D03*
X109875000Y-106870000D03*
X117000000Y-94500000D03*
X121000000Y-119000000D03*
X121000000Y-89000000D03*
X119000000Y-87000000D03*
X121000000Y-93000000D03*
X154400000Y-83100000D03*
X122500000Y-116750000D03*
X124000000Y-110000000D03*
X125000000Y-87000000D03*
X176800000Y-101650000D03*
X104650000Y-108100000D03*
X143658842Y-116406860D03*
X141950000Y-109400000D03*
X123000000Y-111000000D03*
X168566415Y-105457187D03*
X117000000Y-95250000D03*
X161106577Y-105887185D03*
X183720000Y-96250000D03*
X104000000Y-102000000D03*
X182550000Y-91650000D03*
X162239539Y-115485679D03*
X181500000Y-122600000D03*
X156850000Y-128750000D03*
X154500000Y-104700000D03*
X146781860Y-109866158D03*
X125000000Y-111000000D03*
X156850000Y-126500000D03*
X121000000Y-119750000D03*
X118500000Y-93000000D03*
X147225000Y-112299997D03*
X189150000Y-96310000D03*
X124750000Y-118250000D03*
X164400000Y-84100000D03*
X117000000Y-89000000D03*
X156200000Y-103200000D03*
X104650000Y-108800000D03*
X117750000Y-93000000D03*
X121750000Y-119750000D03*
%TO.N,BRD_VIN*%
X107000000Y-93000000D03*
X146900000Y-84250000D03*
X143150000Y-84250000D03*
X100600000Y-108500000D03*
X140150000Y-83500000D03*
X107400000Y-113300000D03*
X108150000Y-114050000D03*
X105150000Y-113300000D03*
X107750000Y-95250000D03*
X146150000Y-83500000D03*
X108500000Y-93000000D03*
X105900000Y-114050000D03*
X106650000Y-114050000D03*
X142400000Y-83500000D03*
X106650000Y-114800000D03*
X148400000Y-85000000D03*
X105150000Y-114050000D03*
X108900000Y-113300000D03*
X100600000Y-106250000D03*
X148400000Y-84250000D03*
X99800000Y-107000000D03*
X145400000Y-84250000D03*
X110750000Y-93000000D03*
X111500000Y-93000000D03*
X105900000Y-113300000D03*
X140900000Y-84250000D03*
X142400000Y-84250000D03*
X109250000Y-93750000D03*
X110000000Y-94500000D03*
X106650000Y-113300000D03*
X147650000Y-84250000D03*
X105150000Y-114800000D03*
X143900000Y-83500000D03*
X145400000Y-85000000D03*
X107000000Y-94500000D03*
X100600000Y-107750000D03*
X108150000Y-114800000D03*
X140150000Y-84250000D03*
X109250000Y-95250000D03*
X107750000Y-93750000D03*
X107000000Y-95250000D03*
X110000000Y-95250000D03*
X147650000Y-85000000D03*
X107750000Y-93000000D03*
X140900000Y-85000000D03*
X107000000Y-93750000D03*
X143900000Y-85000000D03*
X110000000Y-93000000D03*
X144650000Y-85000000D03*
X110000000Y-93750000D03*
X108500000Y-93750000D03*
X143150000Y-83500000D03*
X111500000Y-93750000D03*
X141650000Y-85000000D03*
X146150000Y-84250000D03*
X141650000Y-84250000D03*
X99800000Y-107750000D03*
X110750000Y-94500000D03*
X100600000Y-107000000D03*
X107400000Y-114800000D03*
X110750000Y-95250000D03*
X108900000Y-114050000D03*
X109250000Y-93000000D03*
X144650000Y-83500000D03*
X140900000Y-83500000D03*
X111500000Y-95250000D03*
X147650000Y-83500000D03*
X108500000Y-94500000D03*
X143900000Y-84250000D03*
X111500000Y-94500000D03*
X99800000Y-106250000D03*
X142400000Y-85000000D03*
X105900000Y-114800000D03*
X108150000Y-113300000D03*
X99800000Y-108500000D03*
X146150000Y-85000000D03*
X107400000Y-114050000D03*
X144650000Y-84250000D03*
X108500000Y-95250000D03*
X146900000Y-85000000D03*
X148400000Y-83500000D03*
X110750000Y-93750000D03*
X107750000Y-94500000D03*
X145400000Y-83500000D03*
X146900000Y-83500000D03*
X141650000Y-83500000D03*
X143150000Y-85000000D03*
X108900000Y-114800000D03*
X140150000Y-85000000D03*
X109250000Y-94500000D03*
%TO.N,/ChainBus + ALtmode/Altmode4*%
X151590000Y-103290000D03*
X145850000Y-110350000D03*
X142050000Y-102450000D03*
X142395000Y-98105000D03*
%TO.N,+5V*%
X166157149Y-112825000D03*
X144025000Y-109900000D03*
X136950000Y-109050000D03*
X148235195Y-109763461D03*
X136300000Y-109050000D03*
X166769405Y-112992351D03*
X175250000Y-112000000D03*
X174500000Y-113350000D03*
%TO.N,/ChainBus + ALtmode/Altmode3*%
X143400007Y-109721430D03*
X151590000Y-104990000D03*
%TO.N,+3V3*%
X187150000Y-107650000D03*
X155500000Y-107753291D03*
X157775000Y-108000000D03*
X142350000Y-115100000D03*
X187817231Y-107786298D03*
X184050000Y-88350000D03*
X139350000Y-111950000D03*
X158650000Y-96650000D03*
X159244091Y-104363635D03*
X147750000Y-105200000D03*
X179750000Y-87300000D03*
X158800000Y-111900000D03*
X147225000Y-112950000D03*
X138650000Y-111350000D03*
X139350000Y-111350000D03*
X161000000Y-101425000D03*
X159900000Y-99050000D03*
X150941493Y-105100000D03*
X182300000Y-86300000D03*
X138650000Y-111950000D03*
X190769119Y-109531066D03*
X166062297Y-112142034D03*
X174900000Y-98025000D03*
X180350000Y-105325000D03*
%TO.N,/CAN_TR.kicad_sch/CAN.-*%
X143810000Y-115709936D03*
%TO.N,/CAN_TR.kicad_sch/CAN.+*%
X144300000Y-116300000D03*
%TO.N,/USB switch/SEL*%
X187900000Y-116900000D03*
X191050000Y-116900000D03*
X159153554Y-113250948D03*
%TO.N,/GPIO_Expander/A1*%
X187436805Y-108417171D03*
X185744119Y-110581066D03*
%TO.N,/GPIO_Expander/GPIO0*%
X185075000Y-111100000D03*
X190700000Y-107600000D03*
%TO.N,/GPIO_Expander/GPIO1*%
X191500000Y-107825000D03*
X185700000Y-111606066D03*
%TO.N,/ChainBus + ALtmode/Chainbus.SCL*%
X187200000Y-90350000D03*
X156652925Y-99761626D03*
X189850000Y-106750000D03*
X179750000Y-85750000D03*
%TO.N,/ChainBus + ALtmode/Chainbus.SDA*%
X187250000Y-91700000D03*
X189350000Y-107500000D03*
X156721446Y-100471446D03*
X179750000Y-86550000D03*
%TO.N,Net-(C41-Pad1)*%
X111100000Y-108900000D03*
%TO.N,Net-(J9-~-Pad10)*%
X181338185Y-115017197D03*
%TO.N,Net-(U6-STB)*%
X147174998Y-111625000D03*
X150300000Y-113600000D03*
%TO.N,/ESP32-C6/USB.D+*%
X152990418Y-98659582D03*
X169014633Y-105927935D03*
%TO.N,/ChainBus + ALtmode/Chainbus.RX*%
X157300000Y-99700000D03*
X157353554Y-101253554D03*
%TO.N,/ESP32-C6/EN*%
X170850000Y-100650000D03*
X163050000Y-102100000D03*
X182400000Y-113400000D03*
X158190000Y-105190000D03*
X166200000Y-100650000D03*
%TO.N,Net-(U2-RT{slash}CLK)*%
X104200000Y-111410000D03*
%TO.N,Net-(J8-~-Pad12)*%
X181220711Y-115656496D03*
%TO.N,/ChainBus + ALtmode/Chainbus_addr1*%
X159467930Y-103187541D03*
X151256838Y-98235818D03*
%TO.N,/ChainBus + ALtmode/Chainbus_addr2*%
X158944443Y-102802230D03*
X150828832Y-97746625D03*
%TO.N,/ChainBus + ALtmode/Chainbus_addr3*%
X158444443Y-102315745D03*
X150814678Y-97096777D03*
%TO.N,/ChainBus + ALtmode/Chainbus_addr4*%
X157925000Y-101925000D03*
X150750000Y-96450000D03*
%TO.N,/ChainBus + ALtmode/Chainbus_addr7*%
X163125000Y-96025000D03*
X169600000Y-102650000D03*
X156903554Y-96578554D03*
X156100000Y-95775000D03*
%TO.N,/ESP32-C6/UART0.RX*%
X149070782Y-107872452D03*
X179250000Y-101550000D03*
%TO.N,/ChainBus + ALtmode/Chainbus.SCK*%
X152600000Y-106900000D03*
%TO.N,/ChainBus + ALtmode/Chainbus.MOSI*%
X152782043Y-107585624D03*
%TO.N,/ChainBus + ALtmode/Chainbus.MISO*%
X152912029Y-108222494D03*
%TO.N,/ChainBus + ALtmode/Altmode2*%
X147500000Y-108225000D03*
X143050000Y-108250000D03*
X152004688Y-108729367D03*
X147357398Y-110168250D03*
X153318944Y-108729366D03*
%TO.N,/ChainBus + ALtmode/Altmode1*%
X153941873Y-108915000D03*
X151932856Y-109375385D03*
X143050000Y-108975000D03*
%TO.N,/ChainBus + ALtmode/Chainbus.CS*%
X154793722Y-108761294D03*
X162425000Y-94975000D03*
%TO.N,/USBC_CONN/CC1*%
X180677617Y-126850000D03*
X180666447Y-125633553D03*
%TO.N,Net-(U2-COMP)*%
X110196446Y-110696446D03*
%TO.N,/USBC_CONN/VBUS*%
X170300000Y-119600000D03*
X170700000Y-112975000D03*
X170700000Y-114175000D03*
X170300000Y-120250000D03*
X170700000Y-113625000D03*
X170300000Y-120800000D03*
%TO.N,/USBC_CONN/CC2*%
X183073311Y-125596744D03*
X183100000Y-126950000D03*
%TO.N,Net-(U2-FB)*%
X108400000Y-109400000D03*
%TO.N,/I2C_Flash/A2*%
X182800000Y-90400000D03*
X177150000Y-90050000D03*
%TO.N,/USB switch/USB_OUT2.D-*%
X162565539Y-113710945D03*
X161400000Y-113060000D03*
%TO.N,/USB switch/USB_OUT2.D+*%
X163061228Y-113290475D03*
X161400000Y-112409997D03*
%TO.N,/UART_Programmer/~{DTR}*%
X172350000Y-102450000D03*
X173450000Y-102450000D03*
%TO.N,/ESP32-C6/USB.D-*%
X169474254Y-105468314D03*
X152530797Y-99119203D03*
%TO.N,/ESP32-C6/UART0.TX*%
X148336889Y-107825608D03*
X178050000Y-104450000D03*
%TO.N,/ESP32-C6/SPID*%
X143290000Y-104590000D03*
X148490000Y-104590000D03*
%TO.N,Net-(J8-~-Pad10)*%
X181228554Y-116371446D03*
%TO.N,/CAN_TR.kicad_sch1/CAN.-*%
X149095391Y-114253560D03*
%TO.N,/CAN_TR.kicad_sch1/CAN.+*%
X149740000Y-114170000D03*
%TO.N,/ESP32-C6/SPICLK*%
X148490000Y-103790000D03*
X144590000Y-103790000D03*
%TO.N,Net-(J9-~-Pad12)*%
X158900000Y-118650000D03*
X146650000Y-121150000D03*
X181175000Y-117025000D03*
%TD*%
%TO.N,GND*%
D86*
X146781860Y-109943140D02*
X146600000Y-110125000D01*
X185744119Y-107906066D02*
X185319119Y-107906066D01*
X164128553Y-106353554D02*
X164525000Y-106750000D01*
X142414288Y-115775000D02*
X142388169Y-115748881D01*
X149100000Y-111550000D02*
X148775000Y-111875000D01*
D87*
X176900000Y-123325000D02*
X176975000Y-123325000D01*
D86*
X160939572Y-106054190D02*
X161106577Y-105887185D01*
X189140000Y-95610000D02*
X189150000Y-95620000D01*
D87*
X184890000Y-124050001D02*
X184890000Y-124625000D01*
D86*
X159100000Y-108350000D02*
X158475001Y-108350000D01*
D87*
X178490000Y-124625000D02*
X178490000Y-124340000D01*
D86*
X104300000Y-110700000D02*
X104300000Y-109150000D01*
D87*
X160300000Y-103950000D02*
X160400000Y-104050000D01*
D86*
X177750000Y-123100000D02*
X177500000Y-123350000D01*
D87*
X148149997Y-106249997D02*
X148000000Y-106100000D01*
D86*
X143290000Y-99510000D02*
X143290000Y-100390000D01*
X159750000Y-110700000D02*
X159473964Y-110700000D01*
X186600000Y-122725000D02*
X186600000Y-122125000D01*
D87*
X183500000Y-121350000D02*
X184075000Y-121925000D01*
D86*
X147625000Y-109325000D02*
X146775000Y-109325000D01*
X146025000Y-109525000D02*
X146200000Y-109700000D01*
D87*
X160300000Y-103400000D02*
X160300000Y-103950000D01*
X183475000Y-121350000D02*
X183500000Y-121350000D01*
D86*
X182550000Y-111450000D02*
X182550000Y-112450000D01*
X188344119Y-113356066D02*
X188344119Y-111606066D01*
D87*
X159500000Y-100600000D02*
X159500000Y-100000000D01*
D86*
X149700000Y-105900000D02*
X150100000Y-106300000D01*
X176760000Y-102980000D02*
X176760000Y-101690000D01*
D87*
X177700000Y-111050000D02*
X177400000Y-110750000D01*
D86*
X149100000Y-110425000D02*
X149100000Y-111550000D01*
X187745000Y-100325000D02*
X187045000Y-100325000D01*
X188670000Y-103590000D02*
X189310000Y-102950000D01*
X175250003Y-112650000D02*
X175250000Y-112650003D01*
X109075000Y-106870000D02*
X109875000Y-106870000D01*
X176400000Y-130200000D02*
X176400000Y-129850000D01*
D87*
X183550000Y-121900000D02*
X184075000Y-121375000D01*
D86*
X183175441Y-113078992D02*
X183176474Y-113080025D01*
X155004095Y-109300000D02*
X154901858Y-109402237D01*
X157600000Y-120900000D02*
X157900000Y-120900000D01*
X165650000Y-110600000D02*
X165550000Y-110700000D01*
X152425000Y-109800000D02*
X152425000Y-110675000D01*
D87*
X138655000Y-104730000D02*
X138650000Y-104725000D01*
D86*
X188670000Y-104000000D02*
X188670000Y-103590000D01*
D87*
X176900000Y-122775000D02*
X176925000Y-122775000D01*
D86*
X187950000Y-107150000D02*
X188281066Y-107481066D01*
X167725000Y-114250000D02*
X167475000Y-114000000D01*
X145500000Y-109525000D02*
X146025000Y-109525000D01*
X183200000Y-113080025D02*
X184390013Y-111890013D01*
D87*
X141455000Y-107395000D02*
X141300000Y-107550000D01*
D86*
X176400000Y-127800000D02*
X176400000Y-128350000D01*
X157850000Y-118900000D02*
X157600000Y-118900000D01*
X188670000Y-104000000D02*
X189345000Y-104000000D01*
X184390013Y-110659987D02*
X185200000Y-109850000D01*
X146525000Y-112400000D02*
X147124997Y-112400000D01*
D88*
X107212500Y-106765000D02*
X105285000Y-106765000D01*
D86*
X154600000Y-113300000D02*
X154375000Y-113525000D01*
D87*
X183775000Y-121900000D02*
X183775000Y-122125000D01*
D86*
X152600000Y-109625000D02*
X152425000Y-109800000D01*
D87*
X183500000Y-121375000D02*
X183475000Y-121350000D01*
D86*
X149700000Y-111875000D02*
X148775000Y-111875000D01*
X154375000Y-113525000D02*
X153975000Y-113525000D01*
D87*
X177500000Y-123350000D02*
X177500000Y-122800000D01*
D86*
X154625000Y-113300000D02*
X154600000Y-113300000D01*
X144350000Y-112175000D02*
X143175000Y-112175000D01*
X187110000Y-100960000D02*
X187745000Y-100325000D01*
X144675000Y-111850000D02*
X144350000Y-112175000D01*
D87*
X183775000Y-121900000D02*
X184050000Y-121900000D01*
D86*
X168925000Y-114250000D02*
X168125000Y-114250000D01*
D87*
X176925000Y-122775000D02*
X177500000Y-123350000D01*
D86*
X149700000Y-105690000D02*
X149700000Y-105900000D01*
X168125000Y-114250000D02*
X167725000Y-114250000D01*
D87*
X138655000Y-105600000D02*
X138655000Y-104730000D01*
D86*
X146600000Y-110125000D02*
X146600000Y-110525000D01*
X160400000Y-108350000D02*
X160300000Y-108450000D01*
X162050000Y-100450000D02*
X161375000Y-100450000D01*
X161639321Y-115485679D02*
X161625000Y-115500000D01*
X175900000Y-112650000D02*
X175250003Y-112650000D01*
X163537500Y-110837500D02*
X163500000Y-110800000D01*
X154625000Y-113300000D02*
X154625000Y-112475000D01*
X157475000Y-109025000D02*
X157475000Y-109850000D01*
X183720000Y-95600000D02*
X183720000Y-96250000D01*
D87*
X184075000Y-121925000D02*
X184075000Y-121375000D01*
D86*
X176400000Y-128350000D02*
X176250000Y-128500000D01*
X158200000Y-111400000D02*
X158773965Y-111400000D01*
X157802583Y-108697417D02*
X157475000Y-109025000D01*
X156900000Y-128700000D02*
X156850000Y-128750000D01*
X189550000Y-86049997D02*
X189400003Y-85900000D01*
X178400000Y-123100000D02*
X177750000Y-123100000D01*
X188344119Y-111606066D02*
X188594119Y-111356066D01*
D87*
X183475000Y-121900000D02*
X183550000Y-121900000D01*
D86*
X144675000Y-110350000D02*
X145500000Y-109525000D01*
D87*
X183800000Y-122725000D02*
X183800000Y-122960002D01*
D86*
X158350000Y-120450000D02*
X158350000Y-119400000D01*
X155500000Y-109300000D02*
X155004095Y-109300000D01*
X163537500Y-111212500D02*
X163537500Y-110750000D01*
D87*
X183475000Y-121900000D02*
X183775000Y-121900000D01*
D86*
X144529399Y-114954399D02*
X145025000Y-115450000D01*
D87*
X176975000Y-123325000D02*
X177500000Y-122800000D01*
D86*
X157950000Y-111650000D02*
X158200000Y-111400000D01*
X147124997Y-112400000D02*
X147225000Y-112299997D01*
X157600000Y-128700000D02*
X156900000Y-128700000D01*
X152425000Y-110675000D02*
X152475000Y-110725000D01*
D87*
X184050000Y-121900000D02*
X184075000Y-121925000D01*
X176900000Y-123325000D02*
X177475000Y-123325000D01*
X141455000Y-105600000D02*
X141455000Y-107395000D01*
D86*
X157562500Y-115462500D02*
X157312500Y-115462500D01*
X100900000Y-124200000D02*
X100900000Y-123250000D01*
X187220000Y-95600000D02*
X187220000Y-96250000D01*
X157900000Y-120900000D02*
X158350000Y-120450000D01*
X179500000Y-104625000D02*
X179500000Y-105125003D01*
X147698468Y-115387500D02*
X147200000Y-115387500D01*
X181362500Y-91630000D02*
X182530000Y-91630000D01*
D87*
X176925000Y-122800000D02*
X176900000Y-122775000D01*
D86*
X179850000Y-91200000D02*
X178050000Y-91200000D01*
X159473964Y-110700000D02*
X158913907Y-111260057D01*
D87*
X177700000Y-111650000D02*
X177700000Y-111050000D01*
D86*
X157312500Y-115462500D02*
X157050000Y-115725000D01*
X107212500Y-106765000D02*
X109017500Y-106765000D01*
X187110000Y-101350000D02*
X187110000Y-100960000D01*
X188344119Y-114106668D02*
X187903707Y-114547080D01*
X181500000Y-122050000D02*
X181500000Y-122600000D01*
X180100000Y-109500000D02*
X180350000Y-109750000D01*
D87*
X177700000Y-112450000D02*
X177700000Y-111650000D01*
D86*
X184390013Y-111890013D02*
X184390013Y-110659987D01*
X185319119Y-107906066D02*
X185044119Y-108181066D01*
D87*
X183800000Y-122150000D02*
X183800000Y-122725000D01*
D86*
X161075000Y-108350000D02*
X160400000Y-108350000D01*
X189550000Y-86700000D02*
X189550000Y-86049997D01*
X186600000Y-122125000D02*
X186650000Y-122075000D01*
X154625000Y-112475000D02*
X154675000Y-112425000D01*
X163537500Y-110750000D02*
X163500000Y-110712500D01*
D87*
X183775000Y-122125000D02*
X183800000Y-122150000D01*
X183800000Y-122960002D02*
X184890000Y-124050001D01*
D86*
X166300000Y-110600000D02*
X165650000Y-110600000D01*
X143290000Y-100390000D02*
X143700000Y-100800000D01*
X175600000Y-98725000D02*
X174949997Y-98725000D01*
D87*
X148700000Y-106249997D02*
X148149997Y-106249997D01*
D86*
X188344119Y-113356066D02*
X188344119Y-114106668D01*
X146781860Y-109866158D02*
X146781860Y-109943140D01*
X189150000Y-95620000D02*
X189150000Y-96310000D01*
D87*
X184075000Y-121375000D02*
X183500000Y-121375000D01*
D86*
X190650000Y-113700000D02*
X190500000Y-113550000D01*
X159200000Y-108450000D02*
X159100000Y-108350000D01*
X190050000Y-88050000D02*
X190750000Y-88050000D01*
X143100000Y-115775000D02*
X142414288Y-115775000D01*
D87*
X183475000Y-121900000D02*
X183475000Y-121350000D01*
D86*
X150380000Y-111660000D02*
X149915000Y-111660000D01*
X146775000Y-109325000D02*
X146675000Y-109225000D01*
X188281066Y-107481066D02*
X188594119Y-107481066D01*
X197890000Y-113900000D02*
X197890000Y-113010000D01*
D87*
X177500000Y-122800000D02*
X176925000Y-122800000D01*
D86*
X157802583Y-108697417D02*
X157655167Y-108550000D01*
X179250000Y-109500000D02*
X180100000Y-109500000D01*
X160590000Y-104790000D02*
X160600000Y-104800000D01*
X157655167Y-108550000D02*
X157253453Y-108550000D01*
X179500000Y-105125003D02*
X179699997Y-105325000D01*
X149915000Y-111660000D02*
X149700000Y-111875000D01*
X176760000Y-101690000D02*
X176800000Y-101650000D01*
X159990000Y-104790000D02*
X160590000Y-104790000D01*
X100900000Y-123250000D02*
X100950000Y-123200000D01*
X189345000Y-104000000D02*
X189370000Y-103975000D01*
X104300000Y-110700000D02*
X103342500Y-110700000D01*
X182530000Y-91630000D02*
X182550000Y-91650000D01*
X143175000Y-112175000D02*
X142750000Y-111750000D01*
X109075000Y-109870000D02*
X109075000Y-110550000D01*
D87*
X176900000Y-123325000D02*
X176900000Y-122775000D01*
X177475000Y-123325000D02*
X177500000Y-123350000D01*
D86*
X153050000Y-109625000D02*
X152600000Y-109625000D01*
X158773965Y-111400000D02*
X158913907Y-111260057D01*
X197890000Y-113010000D02*
X197900000Y-113000000D01*
D87*
X178490000Y-124340000D02*
X177500000Y-123350000D01*
D86*
X192175000Y-111250000D02*
X192625000Y-110800000D01*
X162239539Y-115485679D02*
X161639321Y-115485679D01*
X160367119Y-106054190D02*
X160939572Y-106054190D01*
X158350000Y-119400000D02*
X157850000Y-118900000D01*
X191150000Y-113700000D02*
X190650000Y-113700000D01*
X144675000Y-110725000D02*
X144675000Y-111850000D01*
X176400000Y-129850000D02*
X176050000Y-129500000D01*
X174949997Y-98725000D02*
X174900000Y-98675003D01*
X144675000Y-110725000D02*
X144675000Y-110350000D01*
X155830000Y-118900000D02*
X154990000Y-118060000D01*
X191650000Y-111250000D02*
X192175000Y-111250000D01*
D87*
X160300000Y-100600000D02*
X160300000Y-100000000D01*
D86*
X157600000Y-118900000D02*
X155830000Y-118900000D01*
X157600000Y-126500000D02*
X156850000Y-126500000D01*
X144529399Y-114773513D02*
X144529399Y-114954399D01*
X179850000Y-91200000D02*
X179850000Y-91900000D01*
X183176474Y-113080025D02*
X183200000Y-113080025D01*
%TO.N,/ESP32-C6/ANT_CN*%
D89*
X187220000Y-94600000D02*
X194250000Y-94600000D01*
X185920000Y-94600000D02*
X187220000Y-94600000D01*
%TO.N,BRD_VIN*%
D86*
X104700000Y-124200000D02*
X104700000Y-123400000D01*
X104700000Y-123400000D02*
X105500000Y-122600000D01*
%TO.N,/Slide-SW/SEL*%
X191850000Y-114800000D02*
X192075000Y-115025000D01*
X192075000Y-116375000D02*
X192075000Y-115025000D01*
X193450000Y-117750000D02*
X192075000Y-116375000D01*
X192075000Y-115025000D02*
X193300000Y-113800000D01*
X193300000Y-113800000D02*
X193900000Y-113800000D01*
X194100000Y-117750000D02*
X193450000Y-117750000D01*
X190425000Y-114800000D02*
X191850000Y-114800000D01*
%TO.N,Net-(D2-Pad2)*%
X194900000Y-113800000D02*
X196210000Y-113800000D01*
X196210000Y-113800000D02*
X196310000Y-113900000D01*
%TO.N,/ChainBus + ALtmode/Altmode4*%
X145325000Y-110725000D02*
X145475000Y-110725000D01*
X145475000Y-110725000D02*
X145850000Y-110350000D01*
X152490000Y-103390000D02*
X151690000Y-103390000D01*
X142050000Y-98575000D02*
X142395000Y-98230000D01*
X142050000Y-102450000D02*
X142050000Y-98575000D01*
X142395000Y-98230000D02*
X142395000Y-98105000D01*
X151690000Y-103390000D02*
X151590000Y-103290000D01*
%TO.N,+5V*%
D90*
X136950000Y-109050000D02*
X136300000Y-109050000D01*
X144025000Y-110725000D02*
X144025000Y-109900000D01*
X148625000Y-110250000D02*
X148450000Y-110425000D01*
D87*
X166650000Y-113000000D02*
X166800000Y-113000000D01*
D90*
X167475000Y-111675000D02*
X167307149Y-111675000D01*
X173710000Y-113350000D02*
X174500000Y-113350000D01*
X148450000Y-109978266D02*
X148450000Y-110425000D01*
X148235195Y-109763461D02*
X148450000Y-109978266D01*
X136300000Y-109050000D02*
X136300000Y-108650000D01*
X136300000Y-107950000D02*
X136700000Y-107550000D01*
X136325000Y-108850000D02*
X136975000Y-108850000D01*
X148625000Y-109325000D02*
X148625000Y-109373656D01*
X144500000Y-109525000D02*
X144400000Y-109525000D01*
X136950000Y-108650000D02*
X136950000Y-107800000D01*
X144400000Y-109525000D02*
X144025000Y-109900000D01*
X176000000Y-110562500D02*
X176000000Y-111550000D01*
D87*
X166232149Y-112900000D02*
X166550000Y-112900000D01*
D90*
X136950000Y-109050000D02*
X136950000Y-108650000D01*
X175600000Y-111650000D02*
X175250000Y-112000000D01*
X136300000Y-108650000D02*
X136300000Y-107950000D01*
D87*
X166157149Y-112825000D02*
X166232149Y-112900000D01*
X166550000Y-112900000D02*
X166650000Y-113000000D01*
D90*
X148625000Y-109325000D02*
X148625000Y-110250000D01*
X148625000Y-109373656D02*
X148235195Y-109763461D01*
X136300000Y-108650000D02*
X136950000Y-108650000D01*
X136325000Y-108850000D02*
X136975000Y-108850000D01*
X173500000Y-113140000D02*
X173710000Y-113350000D01*
X175900000Y-111650000D02*
X175600000Y-111650000D01*
X176000000Y-111550000D02*
X175900000Y-111650000D01*
X136950000Y-107800000D02*
X136700000Y-107550000D01*
X167307149Y-111675000D02*
X166157149Y-112825000D01*
%TO.N,/ChainBus + ALtmode/Altmode3*%
D86*
X143375000Y-109746437D02*
X143400007Y-109721430D01*
X151590000Y-104990000D02*
X152490000Y-104990000D01*
X143375000Y-110725000D02*
X143375000Y-109746437D01*
%TO.N,+3V3*%
D87*
X160300000Y-102400000D02*
X161560000Y-102400000D01*
D90*
X142675000Y-114775000D02*
X142350000Y-115100000D01*
X180570000Y-102980000D02*
X180570000Y-104620000D01*
D86*
X187150000Y-107650000D02*
X186893934Y-107906066D01*
D87*
X192668934Y-109381066D02*
X191544119Y-109381066D01*
D90*
X188550000Y-87807500D02*
X188537500Y-87820000D01*
X188550000Y-86700000D02*
X188550000Y-87807500D01*
X166300000Y-111904331D02*
X166062297Y-112142034D01*
D87*
X197377500Y-107812500D02*
X195747500Y-107812500D01*
X194237500Y-107812500D02*
X192668934Y-109381066D01*
D86*
X179850000Y-88200000D02*
X179850000Y-87400000D01*
D87*
X161560000Y-102400000D02*
X161600000Y-102440000D01*
D91*
X139350000Y-107450000D02*
X139350000Y-111950000D01*
D87*
X162050000Y-101250000D02*
X161175000Y-101250000D01*
D90*
X155500000Y-108300000D02*
X155500000Y-107753291D01*
X158790000Y-104590000D02*
X158090000Y-104590000D01*
D87*
X159500000Y-101600000D02*
X160300000Y-101600000D01*
D90*
X175200000Y-97725000D02*
X174900000Y-98025000D01*
D92*
X156950000Y-98950000D02*
X157750000Y-98150000D01*
D86*
X178050000Y-88200000D02*
X179850000Y-88200000D01*
D90*
X157925000Y-98150000D02*
X157925000Y-97350000D01*
X188844119Y-108731066D02*
X188594119Y-108481066D01*
X159244091Y-104507504D02*
X158990000Y-104761595D01*
D92*
X156925001Y-98950000D02*
X156950000Y-98950000D01*
D90*
X147225000Y-112950000D02*
X147225000Y-113025000D01*
X191544119Y-109381066D02*
X190919119Y-109381066D01*
D87*
X160300000Y-101600000D02*
X160825000Y-101600000D01*
D91*
X138650000Y-107800000D02*
X138650000Y-112400000D01*
D90*
X157200000Y-107550000D02*
X157325000Y-107550000D01*
X176465000Y-97725000D02*
X176760000Y-98020000D01*
D91*
X148000000Y-107100000D02*
X147600000Y-107100000D01*
D90*
X146600000Y-113325000D02*
X146525000Y-113400000D01*
X157325000Y-107550000D02*
X157775000Y-108000000D01*
X143100000Y-113900000D02*
X143100000Y-114775000D01*
D86*
X152490000Y-105390000D02*
X151945500Y-105390000D01*
D87*
X147090000Y-106590000D02*
X147090000Y-105860000D01*
D90*
X157925000Y-97350000D02*
X157950000Y-97350000D01*
X175600000Y-97725000D02*
X176465000Y-97725000D01*
X143375000Y-113625000D02*
X143100000Y-113900000D01*
X147225000Y-113025000D02*
X146850000Y-113400000D01*
D92*
X157750000Y-98150000D02*
X157925000Y-98150000D01*
D90*
X187817231Y-107902786D02*
X188395511Y-108481066D01*
D87*
X139895000Y-105600000D02*
X139895000Y-106655000D01*
D90*
X175600000Y-97725000D02*
X175200000Y-97725000D01*
D86*
X182050000Y-86550000D02*
X182300000Y-86300000D01*
D90*
X158990000Y-104790000D02*
X158790000Y-104590000D01*
D87*
X197377500Y-106182500D02*
X195747500Y-107812500D01*
D91*
X139350000Y-111950000D02*
X139350000Y-113750000D01*
D90*
X157950000Y-112650000D02*
X157962500Y-112662500D01*
X187771937Y-107831592D02*
X187771937Y-107981066D01*
X158800000Y-111900000D02*
X158050000Y-112650000D01*
D87*
X188550000Y-86700000D02*
X187150000Y-86700000D01*
D90*
X158990000Y-104761595D02*
X158990000Y-104790000D01*
X190919119Y-109381066D02*
X190769119Y-109531066D01*
D87*
X139895000Y-106655000D02*
X139000000Y-107550000D01*
D90*
X150941493Y-105100000D02*
X150941493Y-105548507D01*
D86*
X186893934Y-107906066D02*
X186544119Y-107906066D01*
X181500000Y-86550000D02*
X182050000Y-86550000D01*
D87*
X195747500Y-107812500D02*
X194237500Y-107812500D01*
D90*
X158090000Y-104590000D02*
X157890000Y-104590000D01*
D87*
X147090000Y-105860000D02*
X147750000Y-105200000D01*
D90*
X166300000Y-111600000D02*
X166300000Y-111904331D01*
X180500000Y-105175000D02*
X180350000Y-105325000D01*
D87*
X160300000Y-101600000D02*
X160300000Y-102400000D01*
D90*
X160850000Y-98900000D02*
X160050000Y-98900000D01*
X188844119Y-109356066D02*
X188844119Y-108731066D01*
X180500000Y-104625000D02*
X180500000Y-105175000D01*
X157200000Y-107550000D02*
X156712000Y-107062000D01*
D86*
X155500000Y-106800000D02*
X155500000Y-107753291D01*
D90*
X157962500Y-112662500D02*
X157962500Y-113737500D01*
X187817231Y-107786298D02*
X187817231Y-107902786D01*
D87*
X161175000Y-101250000D02*
X161000000Y-101425000D01*
D91*
X138650000Y-111950000D02*
X138650000Y-114100000D01*
D90*
X187817231Y-107786298D02*
X187771937Y-107831592D01*
X166287500Y-111612500D02*
X166300000Y-111600000D01*
X165262500Y-111612500D02*
X166287500Y-111612500D01*
D87*
X185500000Y-88350000D02*
X184050000Y-88350000D01*
D90*
X188395511Y-108481066D02*
X188594119Y-108481066D01*
X146850000Y-113400000D02*
X146525000Y-113400000D01*
X150941493Y-105548507D02*
X150800000Y-105690000D01*
X143100000Y-114775000D02*
X142675000Y-114775000D01*
D87*
X187150000Y-86700000D02*
X185500000Y-88350000D01*
D90*
X147800000Y-113325000D02*
X146600000Y-113325000D01*
D86*
X151945500Y-105390000D02*
X151645500Y-105690000D01*
D87*
X160825000Y-101600000D02*
X161000000Y-101425000D01*
D90*
X158050000Y-112650000D02*
X157950000Y-112650000D01*
D86*
X158090000Y-104590000D02*
X157310000Y-104590000D01*
D90*
X160050000Y-98900000D02*
X159900000Y-99050000D01*
X159244091Y-104363635D02*
X159244091Y-104507504D01*
X157950000Y-97350000D02*
X158650000Y-96650000D01*
X156712000Y-107062000D02*
X156712000Y-106800000D01*
D86*
X151645500Y-105690000D02*
X150700000Y-105690000D01*
D91*
X147600000Y-107100000D02*
X147090000Y-106590000D01*
D86*
X181500000Y-85750000D02*
X181500000Y-86550000D01*
%TO.N,/CAN_TR.kicad_sch/CAN.-*%
D93*
X143695000Y-114396220D02*
X143695000Y-115594936D01*
X144025000Y-114066220D02*
X143695000Y-114396220D01*
X143695000Y-115594936D02*
X143810000Y-115709936D01*
X144025000Y-113625000D02*
X144025000Y-114066220D01*
%TO.N,/CAN_TR.kicad_sch/CAN.+*%
X144675000Y-113625000D02*
X144675000Y-113812200D01*
X143975000Y-114512200D02*
X143975000Y-115035040D01*
X144300000Y-115360040D02*
X144300000Y-116300000D01*
X143975000Y-115035040D02*
X144300000Y-115360040D01*
X144675000Y-113812200D02*
X143975000Y-114512200D01*
%TO.N,Net-(U1-STB)*%
D86*
X145325000Y-113625000D02*
X145325000Y-114569114D01*
X145325000Y-114569114D02*
X145529399Y-114773513D01*
%TO.N,/USB switch/SEL*%
X159153554Y-113053554D02*
X160160000Y-112047108D01*
X160160000Y-110119924D02*
X159965076Y-109925000D01*
X188525000Y-116900000D02*
X187900000Y-116900000D01*
X159153554Y-113250948D02*
X159153554Y-113053554D01*
X159965076Y-109925000D02*
X158275000Y-109925000D01*
X160160000Y-112047108D02*
X160160000Y-110119924D01*
X190425000Y-116900000D02*
X191050000Y-116900000D01*
%TO.N,/GPIO_Expander/A2*%
X186594119Y-110106066D02*
X186981619Y-109718566D01*
X186544119Y-108906066D02*
X186544119Y-109281066D01*
X186981619Y-109718566D02*
X187344119Y-109356066D01*
X186544119Y-109281066D02*
X186981619Y-109718566D01*
%TO.N,/GPIO_Expander/A1*%
X185744119Y-108906066D02*
X185744119Y-110581066D01*
X187436805Y-108423752D02*
X187844119Y-108831066D01*
X187436805Y-108417171D02*
X187436805Y-108423752D01*
X187844119Y-108831066D02*
X187844119Y-109356066D01*
X186569119Y-110581066D02*
X186594119Y-110606066D01*
X185744119Y-110581066D02*
X186569119Y-110581066D01*
%TO.N,/GPIO_Expander/GPIO0*%
X186594119Y-111106066D02*
X185081066Y-111106066D01*
X185081066Y-111106066D02*
X185075000Y-111100000D01*
X190700000Y-106900000D02*
X190700000Y-107600000D01*
%TO.N,/GPIO_Expander/GPIO1*%
X191500000Y-106900000D02*
X191500000Y-107825000D01*
X186594119Y-111606066D02*
X185700000Y-111606066D01*
%TO.N,/RJ45_UP_TX1*%
X186594119Y-112106066D02*
X184668934Y-112106066D01*
X183675000Y-113100000D02*
X183675000Y-113875000D01*
X184668934Y-112106066D02*
X183675000Y-113100000D01*
%TO.N,/RJ45_DWN_RX1*%
X184475000Y-113100000D02*
X184475000Y-113875000D01*
X186600000Y-112575000D02*
X185000000Y-112575000D01*
X185000000Y-112575000D02*
X184475000Y-113100000D01*
%TO.N,/RJ45_DWN_TX1*%
X187344119Y-113356066D02*
X187263053Y-113275000D01*
X185275000Y-113450000D02*
X185275000Y-113875000D01*
X187263053Y-113275000D02*
X185450000Y-113275000D01*
X185450000Y-113275000D02*
X185275000Y-113450000D01*
%TO.N,/RJ45_UP_RX1*%
X187734119Y-114006066D02*
X186206066Y-114006066D01*
X187844119Y-113896066D02*
X187734119Y-114006066D01*
X187844119Y-113356066D02*
X187844119Y-113896066D01*
X186206066Y-114006066D02*
X186075000Y-113875000D01*
%TO.N,/Select_GPIO*%
X188844119Y-114480881D02*
X188525000Y-114800000D01*
X188844119Y-113356066D02*
X188844119Y-114480881D01*
%TO.N,/GPIO_Expander/GPIO7*%
X189344119Y-117719119D02*
X190050000Y-118425000D01*
X189344119Y-113356066D02*
X189344119Y-117719119D01*
%TO.N,/GPIO_Expander/GPIO8*%
X189844119Y-117134889D02*
X189844119Y-113356066D01*
X190850000Y-118425000D02*
X190850000Y-118140770D01*
X190850000Y-118140770D02*
X189844119Y-117134889D01*
%TO.N,/GPIO_Expander/GPIO9*%
X190594119Y-112606066D02*
X190921490Y-112606066D01*
X192150000Y-112775000D02*
X194432500Y-110492500D01*
X196677500Y-110492500D02*
X197377500Y-111192500D01*
X190921490Y-112606066D02*
X192015424Y-113700000D01*
X194432500Y-110492500D02*
X196677500Y-110492500D01*
X192015424Y-113700000D02*
X192150000Y-113700000D01*
X192150000Y-113700000D02*
X192150000Y-112775000D01*
%TO.N,/GPIO_Expander/GPIO10*%
X191406066Y-112106066D02*
X191550000Y-112250000D01*
X191550000Y-112250000D02*
X191882107Y-112250000D01*
X194569607Y-109562500D02*
X197377500Y-109562500D01*
X191882107Y-112250000D02*
X194569607Y-109562500D01*
X190594119Y-112106066D02*
X191406066Y-112106066D01*
%TO.N,/GPIO_Expander/A0*%
X191319119Y-110606066D02*
X191544119Y-110381066D01*
X190594119Y-110606066D02*
X191319119Y-110606066D01*
X190594119Y-110606066D02*
X190594119Y-110106066D01*
%TO.N,/ChainBus + ALtmode/Chainbus.SCL*%
X152810000Y-89643985D02*
X153103985Y-89350000D01*
X155900000Y-100547466D02*
X155900000Y-101980000D01*
X174400000Y-85750000D02*
X180500000Y-85750000D01*
X187210000Y-90360000D02*
X187200000Y-90350000D01*
X156652925Y-99761626D02*
X156652925Y-99794541D01*
X188537500Y-90360000D02*
X187210000Y-90360000D01*
X153103985Y-89350000D02*
X170800000Y-89350000D01*
X189850000Y-109325000D02*
X189850000Y-106750000D01*
X152810000Y-90740000D02*
X152810000Y-89643985D01*
X156652925Y-99794541D02*
X155900000Y-100547466D01*
X170800000Y-89350000D02*
X174400000Y-85750000D01*
%TO.N,/ChainBus + ALtmode/Chainbus.SDA*%
X153500000Y-92000000D02*
X154050000Y-91450000D01*
X154050000Y-89900000D02*
X154250000Y-89700000D01*
X187250000Y-91700000D02*
X188467500Y-91700000D01*
X189350000Y-109325000D02*
X189350000Y-107500000D01*
X150270000Y-90740000D02*
X151530000Y-92000000D01*
X188467500Y-91700000D02*
X188537500Y-91630000D01*
X156300000Y-101980000D02*
X156300000Y-100892892D01*
X156300000Y-100892892D02*
X156721446Y-100471446D01*
X174650000Y-86550000D02*
X180500000Y-86550000D01*
X154250000Y-89700000D02*
X171500000Y-89700000D01*
X151530000Y-92000000D02*
X153500000Y-92000000D01*
X154050000Y-91450000D02*
X154050000Y-89900000D01*
X171500000Y-89700000D02*
X174650000Y-86550000D01*
%TO.N,/UART_Programmer/XO*%
X185660000Y-102980000D02*
X187080000Y-102980000D01*
X187110000Y-102950000D02*
X187110000Y-103440000D01*
X187080000Y-102980000D02*
X187110000Y-102950000D01*
X187110000Y-103440000D02*
X187670000Y-104000000D01*
%TO.N,/MMS_CONNECTOR_DOWNSTREAM/USB_MMS_CONN.D-*%
X162446646Y-115985679D02*
X162532325Y-115900000D01*
X164494000Y-124660000D02*
X163966637Y-124132637D01*
X161062254Y-115660000D02*
X161387933Y-115985679D01*
X162124510Y-124132637D02*
X161040000Y-123048127D01*
X158002500Y-116617601D02*
X158394899Y-117010000D01*
X161040000Y-120933726D02*
X161933726Y-120040000D01*
X158394899Y-117010000D02*
X159016274Y-117010000D01*
X163966637Y-124132637D02*
X162124510Y-124132637D01*
X158002500Y-116083751D02*
X158002500Y-116617601D01*
X160366274Y-115660000D02*
X161062254Y-115660000D01*
X164640000Y-118683726D02*
X164640000Y-117417549D01*
X157962500Y-116043751D02*
X158002500Y-116083751D01*
X163283726Y-120040000D02*
X164640000Y-118683726D01*
X159016274Y-117010000D02*
X160366274Y-115660000D01*
X157962500Y-115462500D02*
X157962500Y-116043751D01*
X161040000Y-123048127D02*
X161040000Y-120933726D01*
X161933726Y-120040000D02*
X163283726Y-120040000D01*
X163122451Y-115900000D02*
X162775000Y-115900000D01*
X162532325Y-115900000D02*
X162775000Y-115900000D01*
X161387933Y-115985679D02*
X162446646Y-115985679D01*
X164640000Y-117417549D02*
X163122451Y-115900000D01*
%TO.N,/MMS_CONNECTOR_DOWNSTREAM/USB_MMS_CONN.D+*%
X160233726Y-115340000D02*
X161062254Y-115340000D01*
X162257058Y-123812637D02*
X161360000Y-122915579D01*
X164960000Y-118816274D02*
X164960000Y-117285001D01*
X161360000Y-121066274D02*
X162066274Y-120360000D01*
X158883726Y-116690000D02*
X160233726Y-115340000D01*
X158322500Y-116083751D02*
X158322500Y-116485053D01*
X163237363Y-123812637D02*
X162257058Y-123812637D01*
X158527447Y-116690000D02*
X158883726Y-116690000D01*
X158362500Y-115462500D02*
X158362500Y-116043751D01*
X162560967Y-115100000D02*
X162775000Y-115100000D01*
X164960000Y-117285001D02*
X162775000Y-115100000D01*
X162446646Y-114985679D02*
X162560967Y-115100000D01*
X161360000Y-122915579D02*
X161360000Y-121066274D01*
X161416575Y-114985679D02*
X162446646Y-114985679D01*
X163416274Y-120360000D02*
X164960000Y-118816274D01*
X163478000Y-122880000D02*
X163478000Y-123572000D01*
X163478000Y-123572000D02*
X163237363Y-123812637D01*
X158322500Y-116485053D02*
X158527447Y-116690000D01*
X158362500Y-116043751D02*
X158322500Y-116083751D01*
X161062254Y-115340000D02*
X161416575Y-114985679D01*
X162066274Y-120360000D02*
X163416274Y-120360000D01*
%TO.N,Net-(C41-Pad1)*%
X110900000Y-109100000D02*
X111250000Y-108750000D01*
X110900000Y-110900000D02*
X110900000Y-109100000D01*
X111250000Y-108750000D02*
X112400000Y-108750000D01*
X110600000Y-111200000D02*
X110900000Y-110900000D01*
X108000000Y-111200000D02*
X110600000Y-111200000D01*
%TO.N,Net-(C2-Pad1)*%
X157600000Y-121900000D02*
X157600000Y-122430000D01*
X141626345Y-123770000D02*
X144238273Y-126381928D01*
X140000000Y-123770000D02*
X141626345Y-123770000D01*
X144238273Y-126381928D02*
X152505000Y-126381928D01*
X155116928Y-123770000D02*
X156260000Y-123770000D01*
X156260000Y-121240000D02*
X156260000Y-123770000D01*
X157600000Y-119900000D02*
X156260000Y-121240000D01*
X157600000Y-122430000D02*
X156260000Y-123770000D01*
X152505000Y-126381928D02*
X155116928Y-123770000D01*
%TO.N,Net-(J9-~-Pad10)*%
X181480382Y-114875000D02*
X181338185Y-115017197D01*
X183675000Y-114875000D02*
X181480382Y-114875000D01*
%TO.N,Net-(U6-STB)*%
X150025000Y-113600000D02*
X149750000Y-113325000D01*
X150300000Y-113600000D02*
X150025000Y-113600000D01*
X147074998Y-111525000D02*
X147174998Y-111625000D01*
X146600000Y-111525000D02*
X147074998Y-111525000D01*
%TO.N,/ESP32-C6/ESP_SPICS0*%
X150990000Y-100290000D02*
X150300000Y-100290000D01*
X153100000Y-101980000D02*
X152680000Y-101980000D01*
X152680000Y-101980000D02*
X150990000Y-100290000D01*
%TO.N,/ESP32-C6/SPICS0*%
X147870000Y-100290000D02*
X147090000Y-99510000D01*
X149300000Y-100290000D02*
X147870000Y-100290000D01*
%TO.N,/VRM/Cap_protec*%
X103700000Y-124200000D02*
X101900000Y-124200000D01*
%TO.N,/ESP32-C6/USB.D+*%
X153030797Y-98912096D02*
X153030797Y-98954522D01*
X153675000Y-99860000D02*
X153675000Y-99890000D01*
X152969203Y-98850502D02*
X153030797Y-98912096D01*
D92*
X172650000Y-106175000D02*
X171350000Y-106175000D01*
D86*
X153435000Y-99620000D02*
X153675000Y-99860000D01*
X153030797Y-98954522D02*
X153435000Y-99358727D01*
X152969203Y-98680797D02*
X152969203Y-98850502D01*
D92*
X173100000Y-106625000D02*
X172650000Y-106175000D01*
D86*
X173100000Y-107050000D02*
X172675000Y-107475000D01*
X153435000Y-99358727D02*
X153435000Y-99620000D01*
X173100000Y-106625000D02*
X173100000Y-107050000D01*
X171350000Y-106175000D02*
X169473829Y-106175000D01*
X152990418Y-98659582D02*
X152969203Y-98680797D01*
X169226764Y-105927935D02*
X169014633Y-105927935D01*
X169473829Y-106175000D02*
X169226764Y-105927935D01*
%TO.N,/USB HUB/USBIN1.D+*%
D92*
X172675000Y-108475000D02*
X172675000Y-109602500D01*
D86*
X164600000Y-108976274D02*
X165066274Y-108510000D01*
X165066274Y-108510000D02*
X168983726Y-108510000D01*
D92*
X172675000Y-109602500D02*
X172200000Y-110077500D01*
D86*
X171930000Y-109837500D02*
X172170000Y-110077500D01*
X171184749Y-109611023D02*
X171411226Y-109837500D01*
X170084749Y-109611023D02*
X171184749Y-109611023D01*
X164600000Y-111050000D02*
X164600000Y-108976274D01*
X172170000Y-110077500D02*
X172200000Y-110077500D01*
X168983726Y-108510000D02*
X170084749Y-109611023D01*
X171411226Y-109837500D02*
X171930000Y-109837500D01*
%TO.N,/ChainBus + ALtmode/Chainbus.RX*%
X157310000Y-101490000D02*
X157310000Y-102590000D01*
X164200000Y-96050000D02*
X163350000Y-96900000D01*
X163350000Y-96900000D02*
X160100000Y-96900000D01*
X164200000Y-92050000D02*
X164200000Y-96050000D01*
X160100000Y-96900000D02*
X157300000Y-99700000D01*
X157353554Y-101446446D02*
X157310000Y-101490000D01*
X165510000Y-90740000D02*
X164200000Y-92050000D01*
X157353554Y-101253554D02*
X157353554Y-101446446D01*
%TO.N,/ESP32-C6/EN*%
X172310000Y-100650000D02*
X170850000Y-100650000D01*
X163800000Y-102100000D02*
X163050000Y-102100000D01*
X179975000Y-115673275D02*
X182248275Y-113400000D01*
X179432500Y-118367500D02*
X179975000Y-117825000D01*
X166200000Y-100650000D02*
X165300000Y-101550000D01*
X179432500Y-119550000D02*
X179432500Y-118367500D01*
X165300000Y-101550000D02*
X164350000Y-101550000D01*
X157310000Y-104990000D02*
X157990000Y-104990000D01*
X164350000Y-101550000D02*
X163800000Y-102100000D01*
X179975000Y-117825000D02*
X180050000Y-117750000D01*
X170750000Y-100650000D02*
X170850000Y-100650000D01*
X179975000Y-117825000D02*
X179975000Y-115673275D01*
X157990000Y-104990000D02*
X158190000Y-105190000D01*
X163050000Y-102100000D02*
X163050000Y-101250000D01*
X163050000Y-100450000D02*
X163050000Y-101250000D01*
X182248275Y-113400000D02*
X182400000Y-113400000D01*
%TO.N,Net-(U2-RT{slash}CLK)*%
X102087500Y-110212500D02*
X102087500Y-109305000D01*
X101567500Y-110732500D02*
X102087500Y-110212500D01*
X104050000Y-111560000D02*
X102292500Y-111560000D01*
X102292500Y-111560000D02*
X101567500Y-110835000D01*
X104200000Y-111410000D02*
X104050000Y-111560000D01*
%TO.N,Net-(U10-WP)*%
X188577500Y-89050000D02*
X188537500Y-89090000D01*
X190050000Y-89050000D02*
X188577500Y-89050000D01*
%TO.N,Net-(J8-~-Pad12)*%
X183758928Y-115656496D02*
X181220711Y-115656496D01*
X184475000Y-114940424D02*
X183758928Y-115656496D01*
%TO.N,Net-(U302-3V3)*%
D87*
X176700000Y-112450000D02*
X176700000Y-110762500D01*
X176700000Y-110762500D02*
X176500000Y-110562500D01*
%TO.N,/ESP32-C6/ESP_SPIQ*%
D86*
X152490000Y-102590000D02*
X151300000Y-101400000D01*
X151300000Y-101400000D02*
X150300000Y-101400000D01*
%TO.N,/ESP32-C6/SPIQ*%
X149300000Y-101400000D02*
X147017000Y-101400000D01*
X145820000Y-100203000D02*
X145820000Y-99510000D01*
X147017000Y-101400000D02*
X145820000Y-100203000D01*
%TO.N,Net-(U3-SEL)*%
X157562500Y-113262500D02*
X157275000Y-112975000D01*
X157275000Y-111125000D02*
X157475000Y-110925000D01*
X157275000Y-112975000D02*
X157275000Y-111125000D01*
X157562500Y-113737500D02*
X157562500Y-113262500D01*
X158275000Y-110925000D02*
X157475000Y-110925000D01*
%TO.N,Net-(C44-Pad1)*%
X109075000Y-107870000D02*
X110075000Y-108870000D01*
%TO.N,/ESP32-C6/ANT*%
D89*
X158450000Y-107350000D02*
X157350000Y-106250000D01*
X158474999Y-107350000D02*
X158474999Y-107282907D01*
X158474999Y-107350000D02*
X158450000Y-107350000D01*
X159275000Y-107350000D02*
X158474999Y-107350000D01*
%TO.N,/ESP32-C6/VCC_RF*%
D90*
X160845348Y-105403181D02*
X160041339Y-105403181D01*
D86*
X160944670Y-105303859D02*
X160848529Y-105400000D01*
X161600000Y-104850000D02*
X161600000Y-104560000D01*
X160038158Y-105400000D02*
X159988158Y-105450000D01*
D87*
X159344144Y-105790000D02*
X157928182Y-105790000D01*
D90*
X160848529Y-105400000D02*
X160845348Y-105403181D01*
D87*
X157928182Y-105790000D02*
X157692727Y-105554545D01*
X159430154Y-105703990D02*
X159344144Y-105790000D01*
D90*
X160041339Y-105403181D02*
X160038158Y-105400000D01*
D87*
X157692727Y-105554545D02*
X157172729Y-105554545D01*
X159684144Y-105450000D02*
X159988158Y-105450000D01*
X161600000Y-104560000D02*
X161600000Y-104648529D01*
X161600000Y-104648529D02*
X160944670Y-105303859D01*
X159430154Y-105703990D02*
X159684144Y-105450000D01*
%TO.N,/ChainBus + ALtmode/Chainbus_addr1*%
D86*
X131200000Y-91990000D02*
X129950000Y-90740000D01*
X159467930Y-103187541D02*
X159467930Y-103431885D01*
X149525000Y-97350000D02*
X134325000Y-97350000D01*
X159467930Y-103431885D02*
X158709815Y-104190000D01*
X134325000Y-97350000D02*
X131200000Y-94225000D01*
X151246031Y-98246625D02*
X150421625Y-98246625D01*
X150421625Y-98246625D02*
X149525000Y-97350000D01*
X158709815Y-104190000D02*
X157310000Y-104190000D01*
X131200000Y-94225000D02*
X131200000Y-91990000D01*
X151256838Y-98235818D02*
X151246031Y-98246625D01*
%TO.N,/ChainBus + ALtmode/Chainbus_addr2*%
X158944443Y-102802230D02*
X158944443Y-103248264D01*
X133750000Y-92000000D02*
X132490000Y-90740000D01*
X150671625Y-97746625D02*
X149925000Y-97000000D01*
X150828832Y-97746625D02*
X150671625Y-97746625D01*
X136537716Y-97000000D02*
X133750000Y-94212284D01*
X158944443Y-103248264D02*
X158402707Y-103790000D01*
X158402707Y-103790000D02*
X157310000Y-103790000D01*
X149925000Y-97000000D02*
X136537716Y-97000000D01*
X133750000Y-94212284D02*
X133750000Y-92000000D01*
%TO.N,/ChainBus + ALtmode/Chainbus_addr3*%
X158444443Y-103027352D02*
X158081795Y-103390000D01*
X136300000Y-92010000D02*
X135030000Y-90740000D01*
X158081795Y-103390000D02*
X157310000Y-103390000D01*
X150250000Y-96650000D02*
X138750000Y-96650000D01*
X150689670Y-97096777D02*
X150250000Y-96657107D01*
X138750000Y-96650000D02*
X136300000Y-94200000D01*
X136300000Y-94200000D02*
X136300000Y-92010000D01*
X150250000Y-96657107D02*
X150250000Y-96650000D01*
X150814678Y-97096777D02*
X150689670Y-97096777D01*
X158444443Y-102315745D02*
X158444443Y-103027352D01*
%TO.N,/ChainBus + ALtmode/Chainbus_addr4*%
X157925000Y-102919500D02*
X157925000Y-101925000D01*
X150750000Y-96450000D02*
X150600000Y-96300000D01*
X157854500Y-102990000D02*
X157925000Y-102919500D01*
X138875000Y-93875000D02*
X138875000Y-92045000D01*
X141300000Y-96300000D02*
X138875000Y-93875000D01*
X150600000Y-96300000D02*
X141300000Y-96300000D01*
X138875000Y-92045000D02*
X137570000Y-90740000D01*
X157854500Y-102990000D02*
X157310000Y-102990000D01*
%TO.N,/ChainBus + ALtmode/Chainbus.TX*%
X165025000Y-97900000D02*
X166800000Y-96125000D01*
X156700000Y-101980000D02*
X156700000Y-101200000D01*
X166800000Y-91990000D02*
X168050000Y-90740000D01*
X166800000Y-96125000D02*
X166800000Y-91990000D01*
X156700000Y-101200000D02*
X160000000Y-97900000D01*
X160000000Y-97900000D02*
X165025000Y-97900000D01*
%TO.N,/ChainBus + ALtmode/Chainbus_addr8*%
X149000000Y-94300000D02*
X149000000Y-92010000D01*
X149000000Y-92010000D02*
X147730000Y-90740000D01*
X155500000Y-97275000D02*
X156650000Y-96125000D01*
X152825000Y-94900000D02*
X149600000Y-94900000D01*
X155500000Y-95175000D02*
X154600000Y-96075000D01*
X154600000Y-96075000D02*
X154000000Y-96075000D01*
X155575000Y-98150000D02*
X155500000Y-98225000D01*
X155500000Y-98225000D02*
X155500000Y-97275000D01*
X154000000Y-96075000D02*
X152825000Y-94900000D01*
X149600000Y-94900000D02*
X149000000Y-94300000D01*
X156650000Y-96125000D02*
X156650000Y-95525000D01*
X155500000Y-101980000D02*
X155500000Y-98225000D01*
X156925000Y-98150000D02*
X155575000Y-98150000D01*
X156650000Y-95525000D02*
X156300000Y-95175000D01*
X156300000Y-95175000D02*
X155500000Y-95175000D01*
%TO.N,/ChainBus + ALtmode/Chainbus_addr7*%
X154565013Y-97134987D02*
X152680026Y-95250000D01*
X154740013Y-97134987D02*
X154565013Y-97134987D01*
X155100000Y-101980000D02*
X155100000Y-97669974D01*
X156925000Y-97350000D02*
X156925000Y-96600000D01*
X163125000Y-96025000D02*
X157457108Y-96025000D01*
X155100000Y-97669974D02*
X154565013Y-97134987D01*
X169310000Y-102940000D02*
X169600000Y-102650000D01*
X147325000Y-95250000D02*
X146475000Y-94400000D01*
X156925000Y-96600000D02*
X156903554Y-96578554D01*
X169310000Y-103412500D02*
X169310000Y-102940000D01*
X146475000Y-94400000D02*
X146475000Y-92025000D01*
X157457108Y-96025000D02*
X156903554Y-96578554D01*
X156100000Y-95775000D02*
X154740013Y-97134987D01*
X146475000Y-92025000D02*
X145190000Y-90740000D01*
X152680026Y-95250000D02*
X147325000Y-95250000D01*
%TO.N,/ChainBus + ALtmode/Chainbus_addr6*%
X152535052Y-95600000D02*
X144950000Y-95600000D01*
X143975000Y-94625000D02*
X143975000Y-92065000D01*
X143975000Y-92065000D02*
X142650000Y-90740000D01*
X154700000Y-97764948D02*
X152535052Y-95600000D01*
X154700000Y-101980000D02*
X154700000Y-97764948D01*
X144950000Y-95600000D02*
X143975000Y-94625000D01*
%TO.N,/ChainBus + ALtmode/Chainbus_addr5*%
X141350000Y-94025000D02*
X141350000Y-91980000D01*
X154300000Y-101980000D02*
X154300000Y-97859922D01*
X152390078Y-95950000D02*
X143275000Y-95950000D01*
X154300000Y-97859922D02*
X152390078Y-95950000D01*
X141350000Y-91980000D02*
X140110000Y-90740000D01*
X143275000Y-95950000D02*
X141350000Y-94025000D01*
%TO.N,/ESP32-C6/GPIO12*%
X153900000Y-101980000D02*
X153900000Y-101115000D01*
X153900000Y-101115000D02*
X153675000Y-100890000D01*
%TO.N,/ESP32-C6/GPIO13*%
X153500000Y-101980000D02*
X153500000Y-101580424D01*
X153500000Y-101580424D02*
X152875000Y-100955424D01*
X152875000Y-100955424D02*
X152875000Y-100890000D01*
%TO.N,/ESP32-C6/ESP_SPIWP*%
X151997107Y-102990000D02*
X151207107Y-102200000D01*
X151207107Y-102200000D02*
X150300000Y-102200000D01*
X152490000Y-102990000D02*
X151997107Y-102990000D01*
%TO.N,/ESP32-C6/ESP_SPIHD*%
X150800000Y-103000000D02*
X150300000Y-103000000D01*
X151090000Y-103290000D02*
X150800000Y-103000000D01*
X151282893Y-103790000D02*
X151090000Y-103597107D01*
X151090000Y-103597107D02*
X151090000Y-103290000D01*
X152490000Y-103790000D02*
X151282893Y-103790000D01*
%TO.N,/ESP32-C6/ESP_CSPICLK*%
X150579999Y-103800000D02*
X150300000Y-103800000D01*
X152490000Y-104190000D02*
X151992081Y-104190000D01*
X151992081Y-104190000D02*
X151942081Y-104140000D01*
X150919999Y-104140000D02*
X150579999Y-103800000D01*
X151942081Y-104140000D02*
X150919999Y-104140000D01*
%TO.N,/ESP32-C6/ESP_SPID*%
X151797107Y-104490000D02*
X151290000Y-104490000D01*
X152490000Y-104590000D02*
X151897107Y-104590000D01*
X151897107Y-104590000D02*
X151797107Y-104490000D01*
X151180000Y-104600000D02*
X151290000Y-104490000D01*
X150290000Y-104600000D02*
X151180000Y-104600000D01*
%TO.N,/ESP32-C6/ESP_TX*%
X150675000Y-107025000D02*
X150855000Y-107025000D01*
X150855000Y-107025000D02*
X152090000Y-105790000D01*
X152090000Y-105790000D02*
X152490000Y-105790000D01*
%TO.N,/ESP32-C6/UART0.RX*%
X179250000Y-102930000D02*
X179300000Y-102980000D01*
X150807548Y-107872452D02*
X152490000Y-106190000D01*
X149070782Y-107872452D02*
X150807548Y-107872452D01*
X179250000Y-101550000D02*
X179250000Y-102930000D01*
%TO.N,/ChainBus + ALtmode/Chainbus.SCK*%
X152700000Y-106800000D02*
X153100000Y-106800000D01*
X152600000Y-106900000D02*
X152700000Y-106800000D01*
%TO.N,/ChainBus + ALtmode/Chainbus.MOSI*%
X152782043Y-107585624D02*
X153210437Y-107585624D01*
X153500000Y-107296061D02*
X153500000Y-106800000D01*
X153210437Y-107585624D02*
X153500000Y-107296061D01*
%TO.N,/ChainBus + ALtmode/Chainbus.MISO*%
X153068541Y-108222494D02*
X153900000Y-107391035D01*
X153900000Y-107391035D02*
X153900000Y-106800000D01*
X152912029Y-108222494D02*
X153068541Y-108222494D01*
%TO.N,/ChainBus + ALtmode/Altmode2*%
X147500000Y-108225000D02*
X147650000Y-108375000D01*
X147800000Y-110425000D02*
X147614148Y-110425000D01*
X151650321Y-108375000D02*
X152004688Y-108729367D01*
X147350000Y-108375000D02*
X147500000Y-108225000D01*
X154300000Y-107555026D02*
X153318944Y-108536082D01*
X154300000Y-106800000D02*
X154300000Y-107555026D01*
X153318944Y-108536082D02*
X153318944Y-108729366D01*
X147650000Y-108375000D02*
X151650321Y-108375000D01*
X143175000Y-108375000D02*
X147225000Y-108375000D01*
X147225000Y-108375000D02*
X147650000Y-108375000D01*
X143050000Y-108250000D02*
X143175000Y-108375000D01*
X147614148Y-110425000D02*
X147357398Y-110168250D01*
X147225000Y-108375000D02*
X147350000Y-108375000D01*
%TO.N,/ChainBus + ALtmode/Altmode1*%
X149750000Y-108750000D02*
X149725000Y-108725000D01*
X151932856Y-109375385D02*
X151282471Y-108725000D01*
X143300000Y-108725000D02*
X143050000Y-108975000D01*
X149750000Y-110425000D02*
X149750000Y-108750000D01*
X154700000Y-107339341D02*
X154650000Y-107389341D01*
X153941873Y-108408127D02*
X153941873Y-108915000D01*
X151282471Y-108725000D02*
X149725000Y-108725000D01*
X154650000Y-107389341D02*
X154650000Y-107700000D01*
X149725000Y-108725000D02*
X143300000Y-108725000D01*
X154650000Y-107700000D02*
X153941873Y-108408127D01*
X154700000Y-106800000D02*
X154700000Y-107339341D01*
%TO.N,/ChainBus + ALtmode/Chainbus.CS*%
X155100000Y-106800000D02*
X155100000Y-107446184D01*
X156650000Y-93979569D02*
X156650000Y-92050000D01*
X155000000Y-107546184D02*
X155000000Y-107934576D01*
X156375000Y-91765000D02*
X155350000Y-90740000D01*
X162400000Y-94950000D02*
X157620431Y-94950000D01*
X157620431Y-94950000D02*
X156650000Y-93979569D01*
X155100000Y-107446184D02*
X155000000Y-107546184D01*
X155000000Y-107934576D02*
X154793722Y-108140854D01*
X154793722Y-108140854D02*
X154793722Y-108761294D01*
X162425000Y-94975000D02*
X162400000Y-94950000D01*
X156375000Y-91775000D02*
X156375000Y-91765000D01*
X156650000Y-92050000D02*
X156375000Y-91775000D01*
%TO.N,/ESP32-C6/XTAL_N*%
X154675000Y-110725000D02*
X155250000Y-110725000D01*
X154675000Y-110250000D02*
X154050000Y-109625000D01*
X155900000Y-106800000D02*
X155900000Y-107400000D01*
X156200000Y-107700000D02*
X156200000Y-109775000D01*
X154675000Y-110725000D02*
X154675000Y-110250000D01*
X155900000Y-107400000D02*
X156200000Y-107700000D01*
X155250000Y-110725000D02*
X156200000Y-109775000D01*
%TO.N,/ESP32-C6/XTAL_P*%
X156550000Y-110550000D02*
X156600000Y-110600000D01*
X156550000Y-107555026D02*
X156550000Y-110550000D01*
X156300000Y-106800000D02*
X156300000Y-107305025D01*
X156300000Y-107305025D02*
X156550000Y-107555026D01*
%TO.N,/ESP32-C6/RF*%
D89*
X161075000Y-107350000D02*
X160275000Y-107350000D01*
X161075000Y-107350000D02*
X161235786Y-107350000D01*
X161942893Y-107057107D02*
X162046447Y-106953553D01*
X161235786Y-107350000D02*
G75*
G03*
X161942900Y-107057114I14J1000000D01*
G01*
%TO.N,/ESP32-C6/More_RF*%
X163421447Y-105560660D02*
X172917641Y-96064466D01*
X176453175Y-94600000D02*
X185000000Y-94600000D01*
X183720000Y-94600000D02*
X184920000Y-94600000D01*
X163421447Y-105646446D02*
X163421447Y-105560660D01*
X162821446Y-106246447D02*
X163421447Y-105646446D01*
X162753553Y-106246447D02*
X162821446Y-106246447D01*
X172917641Y-96064466D02*
G75*
G02*
X176453175Y-94599982I3535559J-3535534D01*
G01*
%TO.N,Net-(C1-Pad1)*%
D86*
X157900000Y-127700000D02*
X158400000Y-127200000D01*
X157600000Y-127700000D02*
X157900000Y-127700000D01*
X162655000Y-126381928D02*
X160043072Y-123770000D01*
X160043072Y-123770000D02*
X158900000Y-123770000D01*
X158400000Y-127200000D02*
X158400000Y-124270000D01*
X157600000Y-125500000D02*
X158400000Y-124700000D01*
X158400000Y-124700000D02*
X158400000Y-124550000D01*
X174016928Y-123770000D02*
X171405000Y-126381928D01*
X171405000Y-126381928D02*
X162655000Y-126381928D01*
X175160000Y-123770000D02*
X174016928Y-123770000D01*
%TO.N,/USBC_CONN/CC1*%
X180440000Y-125407106D02*
X180666447Y-125633553D01*
X180627617Y-126800000D02*
X176400000Y-126800000D01*
X180440000Y-124625000D02*
X180440000Y-125407106D01*
X180677617Y-126850000D02*
X180627617Y-126800000D01*
%TO.N,Net-(U2-COMP)*%
X110000000Y-110500000D02*
X110000000Y-109945000D01*
X109075000Y-108870000D02*
X108275000Y-108070000D01*
X108287500Y-108035000D02*
X107212500Y-108035000D01*
X110196446Y-110696446D02*
X110000000Y-110500000D01*
X110075000Y-109870000D02*
X109075000Y-108870000D01*
%TO.N,/ESP32-C6/XTAL_P.*%
X152975000Y-112925000D02*
X152475000Y-112425000D01*
X156575000Y-111575000D02*
X153325000Y-111575000D01*
X152975000Y-113525000D02*
X152975000Y-112925000D01*
X153325000Y-111575000D02*
X152475000Y-112425000D01*
X156600000Y-111600000D02*
X156575000Y-111575000D01*
%TO.N,/UART_Programmer/XI*%
X189310000Y-100890000D02*
X188745000Y-100325000D01*
X188020000Y-99600000D02*
X186570000Y-99600000D01*
X188745000Y-100325000D02*
X188020000Y-99600000D01*
X184380000Y-101790000D02*
X184380000Y-102980000D01*
X186570000Y-99600000D02*
X184380000Y-101790000D01*
X189310000Y-101350000D02*
X189310000Y-100890000D01*
%TO.N,/USBC_CONN/VBUS*%
D87*
X170075000Y-114250000D02*
X170700000Y-113625000D01*
X170700000Y-112975000D02*
X170700000Y-112100000D01*
X178709999Y-122100000D02*
X171600000Y-122100000D01*
X171600000Y-122100000D02*
X170300000Y-120800000D01*
X179400000Y-122790001D02*
X178709999Y-122100000D01*
X169725000Y-114250000D02*
X170075000Y-114250000D01*
X170700000Y-112100000D02*
X170275000Y-111675000D01*
X170300000Y-120800000D02*
X170300000Y-120250000D01*
X179575000Y-125438120D02*
X180386880Y-126250000D01*
D86*
X179575000Y-125378984D02*
X179440000Y-125243984D01*
X183940000Y-125366451D02*
X183805000Y-125501451D01*
D87*
X183805000Y-125713584D02*
X183805000Y-125501451D01*
X179290000Y-124625000D02*
X179290000Y-123210000D01*
X170300000Y-119600000D02*
X170300000Y-120250000D01*
X184090000Y-124625000D02*
X184090000Y-125093984D01*
X170700000Y-112975000D02*
X170700000Y-113625000D01*
X170700000Y-114175000D02*
X170700000Y-113625000D01*
X179290000Y-123210000D02*
X179400000Y-123100000D01*
X179290000Y-124625000D02*
X179290000Y-125093984D01*
D86*
X183940000Y-125243984D02*
X183940000Y-125366451D01*
D87*
X180386880Y-126250000D02*
X183268584Y-126250000D01*
X179290000Y-125093984D02*
X179440000Y-125243984D01*
X179400000Y-123100000D02*
X179400000Y-122790001D01*
X184090000Y-125093984D02*
X183940000Y-125243984D01*
D86*
X179575000Y-125438120D02*
X179575000Y-125378984D01*
D87*
X183268584Y-126250000D02*
X183805000Y-125713584D01*
%TO.N,/USB switch1/USB_OUT2.D+*%
D86*
X181900000Y-123830000D02*
X182139272Y-123830000D01*
X181440000Y-124625000D02*
X181440000Y-124130728D01*
X181900000Y-122907107D02*
X181900000Y-123200000D01*
X164600000Y-112856251D02*
X164560000Y-112896251D01*
X181740728Y-123830000D02*
X181900000Y-123830000D01*
X178491024Y-120764750D02*
X180991024Y-120764750D01*
X180991024Y-120764750D02*
X182000000Y-121773726D01*
X182440000Y-124130728D02*
X182440000Y-124625000D01*
X182000000Y-122807107D02*
X181900000Y-122907107D01*
X164560000Y-113433726D02*
X166866274Y-115740000D01*
X164600000Y-112275000D02*
X164600000Y-112856251D01*
X166866274Y-115740000D02*
X173466274Y-115740000D01*
X182139272Y-123830000D02*
X182440000Y-124130728D01*
X181440000Y-124130728D02*
X181740728Y-123830000D01*
X182000000Y-121773726D02*
X182000000Y-122807107D01*
X181900000Y-123200000D02*
X181900000Y-123830000D01*
X164560000Y-112896251D02*
X164560000Y-113433726D01*
X173466274Y-115740000D02*
X178491024Y-120764750D01*
%TO.N,/USB switch1/USB_OUT2.D-*%
X180940000Y-123360000D02*
X180940000Y-124625000D01*
X181160001Y-125420000D02*
X180940000Y-125199999D01*
X181000000Y-121226274D02*
X180858476Y-121084750D01*
X164200000Y-112856251D02*
X164240000Y-112896251D01*
X180940000Y-125199999D02*
X180940000Y-124625000D01*
X181100000Y-122907107D02*
X181000000Y-122807107D01*
X181100000Y-123200000D02*
X181100000Y-122907107D01*
X164200000Y-112275000D02*
X164200000Y-112856251D01*
X166733726Y-116060000D02*
X164240000Y-113566274D01*
X181940000Y-125119272D02*
X181639272Y-125420000D01*
X181639272Y-125420000D02*
X181160001Y-125420000D01*
X178358476Y-121084750D02*
X173333726Y-116060000D01*
X180858476Y-121084750D02*
X178358476Y-121084750D01*
X164240000Y-112896251D02*
X164240000Y-113566274D01*
X181100000Y-123200000D02*
X180940000Y-123360000D01*
X173333726Y-116060000D02*
X166733726Y-116060000D01*
X181940000Y-124625000D02*
X181940000Y-125119272D01*
X181000000Y-122807107D02*
X181000000Y-121226274D01*
%TO.N,/USBC_CONN/CC2*%
X178850000Y-131200000D02*
X176400000Y-131200000D01*
X183100000Y-126950000D02*
X178850000Y-131200000D01*
X183440000Y-124625000D02*
X183440000Y-125230055D01*
X183440000Y-125230055D02*
X183073311Y-125596744D01*
%TO.N,Net-(J4-SHIELD)*%
X186010000Y-123135000D02*
X185600000Y-122725000D01*
X186010000Y-125200000D02*
X186010000Y-123135000D01*
X185600000Y-122725000D02*
X184800000Y-122725000D01*
%TO.N,/I2C_Flash/A1*%
X183450000Y-89700000D02*
X182840000Y-89090000D01*
X183450000Y-90700000D02*
X183450000Y-89700000D01*
X183150000Y-91000000D02*
X183450000Y-90700000D01*
X182840000Y-89090000D02*
X181362500Y-89090000D01*
D92*
X179440000Y-90690000D02*
X180310000Y-90690000D01*
X180310000Y-90690000D02*
X180620000Y-91000000D01*
X180550001Y-89090000D02*
X181362500Y-89090000D01*
X178950000Y-90200000D02*
X179440000Y-90690000D01*
D86*
X180950000Y-91000000D02*
X183150000Y-91000000D01*
X178950000Y-89200000D02*
X178950000Y-90200000D01*
D92*
X180620000Y-91000000D02*
X180950000Y-91000000D01*
%TO.N,Net-(U2-FB)*%
D86*
X105487500Y-110835000D02*
X105287500Y-110635000D01*
X108400000Y-109400000D02*
X107307500Y-109400000D01*
X106367500Y-110835000D02*
X105487500Y-110835000D01*
X106500000Y-109400000D02*
X106500000Y-110702500D01*
%TO.N,Net-(LED2-Pad1)*%
X193478255Y-101363600D02*
X193478255Y-103900000D01*
X194528255Y-100313600D02*
X193478255Y-101363600D01*
X191500000Y-105878255D02*
X193478255Y-103900000D01*
X191500000Y-105900000D02*
X191500000Y-105878255D01*
%TO.N,Net-(LED2-Pad3)*%
X190700000Y-105626780D02*
X193128255Y-103198525D01*
X190700000Y-105900000D02*
X190700000Y-105626780D01*
X193128255Y-103198525D02*
X193128255Y-101453600D01*
X193128255Y-101453600D02*
X191988255Y-100313600D01*
%TO.N,Net-(Q1-B)*%
X175355000Y-101600000D02*
X175605000Y-101350000D01*
X174190000Y-101600000D02*
X175355000Y-101600000D01*
%TO.N,/UART_Programmer/~{RTS}*%
X178594999Y-99700000D02*
X179300000Y-98994999D01*
X179300000Y-98994999D02*
X179300000Y-98020000D01*
X174190000Y-99700000D02*
X178594999Y-99700000D01*
%TO.N,Net-(Q2-B)*%
X173930158Y-100550000D02*
X175600000Y-100550000D01*
X172037500Y-104362500D02*
X172850000Y-103550000D01*
X172850000Y-101630158D02*
X173930158Y-100550000D01*
X172850000Y-103550000D02*
X172850000Y-101630158D01*
X170740000Y-104362500D02*
X172037500Y-104362500D01*
%TO.N,Net-(U2-BOOT)*%
X102350000Y-104400000D02*
X102087500Y-104662500D01*
X102087500Y-104662500D02*
X102087500Y-105495000D01*
X105500000Y-104400000D02*
X102350000Y-104400000D01*
X105650000Y-104250000D02*
X105500000Y-104400000D01*
X105650000Y-103200000D02*
X105650000Y-104250000D01*
%TO.N,/I2C_Flash/A2*%
X177150000Y-90050000D02*
X177900000Y-90050000D01*
X177900000Y-90050000D02*
X178050000Y-90200000D01*
X182760000Y-90360000D02*
X182800000Y-90400000D01*
X181362500Y-90360000D02*
X182760000Y-90360000D01*
X178050000Y-90200000D02*
X178050000Y-89200000D01*
%TO.N,/USB HUB/USBIN1_R.D-*%
X174287500Y-109350000D02*
X173272500Y-109350000D01*
X173272500Y-109350000D02*
X173200000Y-109277500D01*
%TO.N,/USB HUB/USBIN1.D-*%
X164280000Y-108843726D02*
X164933726Y-108190000D01*
X171317297Y-109291023D02*
X171543774Y-109517500D01*
X171875000Y-108475000D02*
X171875000Y-108952500D01*
X164933726Y-108190000D02*
X169116274Y-108190000D01*
X170217297Y-109291023D02*
X171317297Y-109291023D01*
X171875000Y-108952500D02*
X172200000Y-109277500D01*
X172170000Y-109277500D02*
X172200000Y-109277500D01*
X164200000Y-110950000D02*
X164280000Y-110870000D01*
X171930000Y-109517500D02*
X172170000Y-109277500D01*
X169116274Y-108190000D02*
X170217297Y-109291023D01*
X171543774Y-109517500D02*
X171930000Y-109517500D01*
X164280000Y-110870000D02*
X164280000Y-108843726D01*
%TO.N,Net-(U302-PGANG)*%
X175500000Y-110974999D02*
X174824999Y-111650000D01*
X174824999Y-111650000D02*
X174250000Y-111650000D01*
X175500000Y-110562500D02*
X175500000Y-110974999D01*
%TO.N,Net-(D301-Pad1)*%
X174190000Y-112650000D02*
X173100000Y-111560000D01*
%TO.N,/USB switch/USB_OUT2.D-*%
X162671226Y-111652500D02*
X162140000Y-112183726D01*
X162956249Y-111612500D02*
X162916249Y-111652500D01*
X162140000Y-113073275D02*
X162565539Y-113498814D01*
X161400000Y-113060000D02*
X161232549Y-113060000D01*
X162565539Y-113498814D02*
X162565539Y-113710945D01*
X159206251Y-114800000D02*
X158625000Y-114800000D01*
X161232549Y-113060000D02*
X159532549Y-114760000D01*
X163537500Y-111612500D02*
X162956249Y-111612500D01*
X162916249Y-111652500D02*
X162671226Y-111652500D01*
X162140000Y-112183726D02*
X162140000Y-113073275D01*
X159246251Y-114760000D02*
X159206251Y-114800000D01*
X159532549Y-114760000D02*
X159246251Y-114760000D01*
%TO.N,/USB switch/USB_OUT2.D+*%
X162730220Y-113210945D02*
X162460000Y-112940725D01*
X162803774Y-111972500D02*
X162916249Y-111972500D01*
X162460000Y-112316274D02*
X162803774Y-111972500D01*
X161369997Y-112440000D02*
X161400000Y-112409997D01*
X159246251Y-114440000D02*
X159206251Y-114400000D01*
X160900000Y-112940000D02*
X159400000Y-114440000D01*
X162956249Y-112012500D02*
X163537500Y-112012500D01*
X162981698Y-113210945D02*
X163061228Y-113290475D01*
X159206251Y-114400000D02*
X158625000Y-114400000D01*
X160900000Y-112852893D02*
X160900000Y-112940000D01*
X161400000Y-112409997D02*
X161342896Y-112409997D01*
X161342896Y-112409997D02*
X160900000Y-112852893D01*
X159400000Y-114440000D02*
X159246251Y-114440000D01*
X161312893Y-112440000D02*
X161369997Y-112440000D01*
X162916249Y-111972500D02*
X162956249Y-112012500D01*
X162730220Y-113210945D02*
X162981698Y-113210945D01*
X162460000Y-112940725D02*
X162460000Y-112316274D01*
%TO.N,Net-(U7-~{OE})*%
X166950000Y-113650000D02*
X166275042Y-113650000D01*
X166275042Y-113650000D02*
X165262500Y-112637458D01*
X168125000Y-113250000D02*
X167350000Y-113250000D01*
X165262500Y-112637458D02*
X165262500Y-112012500D01*
X167350000Y-113250000D02*
X166950000Y-113650000D01*
%TO.N,Net-(U7-SEL)*%
X165492893Y-110050000D02*
X168075000Y-110050000D01*
X165050000Y-111000000D02*
X165050000Y-110492893D01*
X168925000Y-113250000D02*
X169725000Y-113250000D01*
X168075000Y-110050000D02*
X168925000Y-110900000D01*
X165050000Y-110492893D02*
X165492893Y-110050000D01*
X165262500Y-111212500D02*
X165050000Y-111000000D01*
X168925000Y-110900000D02*
X168925000Y-113250000D01*
%TO.N,/MMS_CONNECTOR_UPSTREAM/USB_MMS_CONN.D-*%
X147912499Y-115887500D02*
X147491361Y-115887500D01*
X148687501Y-115787500D02*
X148350000Y-115787500D01*
X146998774Y-115837500D02*
X145594000Y-117242274D01*
X148927501Y-115547500D02*
X148687501Y-115787500D01*
X147441361Y-115837500D02*
X146998774Y-115837500D01*
X157220000Y-114720000D02*
X156906274Y-114720000D01*
X145594000Y-117242274D02*
X145594000Y-124660000D01*
X156078774Y-115547500D02*
X148927501Y-115547500D01*
X147491361Y-115887500D02*
X147441361Y-115837500D01*
X148350000Y-115787500D02*
X148012499Y-115787500D01*
X148350000Y-115787500D02*
X148250000Y-115887500D01*
X148012499Y-115787500D02*
X147912499Y-115887500D01*
X156906274Y-114720000D02*
X156078774Y-115547500D01*
X157300000Y-114800000D02*
X157220000Y-114720000D01*
%TO.N,/MMS_CONNECTOR_UPSTREAM/USB_MMS_CONN.D+*%
X146977254Y-114887500D02*
X146725000Y-115139754D01*
X145274000Y-120110458D02*
X145274000Y-119705245D01*
X148012499Y-114987500D02*
X147912499Y-114887500D01*
X148350000Y-114987500D02*
X148250000Y-114887500D01*
X148350000Y-114987500D02*
X148012499Y-114987500D01*
X155946226Y-115227500D02*
X148927501Y-115227500D01*
X144578000Y-122880000D02*
X145274000Y-122184000D01*
X157400000Y-114400000D02*
X156773726Y-114400000D01*
X145274000Y-117109726D02*
X145274000Y-119705245D01*
X148687501Y-114987500D02*
X148350000Y-114987500D01*
X146725000Y-115658726D02*
X145274000Y-117109726D01*
X146725000Y-115139754D02*
X146725000Y-115658726D01*
X156773726Y-114400000D02*
X155946226Y-115227500D01*
X144997194Y-121033652D02*
X144997194Y-120710458D01*
X148927501Y-115227500D02*
X148687501Y-114987500D01*
X147912499Y-114887500D02*
X146977254Y-114887500D01*
X145274000Y-122184000D02*
X145274000Y-121310458D01*
X145274000Y-120433652D02*
X145274000Y-120110458D01*
X145135597Y-120572055D02*
G75*
G03*
X145273955Y-120433652I3J138355D01*
G01*
X145274000Y-121310458D02*
G75*
G03*
X145135597Y-121172100I-138400J-42D01*
G01*
X144997194Y-120710458D02*
G75*
G02*
X145135597Y-120572094I138406J-42D01*
G01*
X145135597Y-121172055D02*
G75*
G02*
X144997245Y-121033652I3J138355D01*
G01*
%TO.N,Net-(U3-~{OE})*%
X159750000Y-111700000D02*
X159750000Y-111750000D01*
X158362500Y-113137500D02*
X158362500Y-113737500D01*
X159750000Y-111750000D02*
X158362500Y-113137500D01*
%TO.N,/UART_Programmer/~{DTR}*%
X170740000Y-102462500D02*
X172337500Y-102462500D01*
X175605000Y-102350000D02*
X176200000Y-101755000D01*
X176200000Y-101755000D02*
X176200000Y-101542893D01*
X175605000Y-102350000D02*
X173550000Y-102350000D01*
X176892893Y-100850000D02*
X178714999Y-100850000D01*
X178714999Y-100850000D02*
X180570000Y-98994999D01*
X172337500Y-102462500D02*
X172350000Y-102450000D01*
X180570000Y-98994999D02*
X180570000Y-98020000D01*
X173550000Y-102350000D02*
X173450000Y-102450000D01*
X176200000Y-101542893D02*
X176892893Y-100850000D01*
%TO.N,/ESP32-C6/USB.D-*%
X169606379Y-105855000D02*
X171670000Y-105855000D01*
X152742928Y-99119203D02*
X152530797Y-99119203D01*
X171850000Y-105675000D02*
X172025000Y-105850000D01*
X171670000Y-105855000D02*
X171850000Y-105675000D01*
X153115000Y-99620000D02*
X153115000Y-99491275D01*
X169474254Y-105468314D02*
X169474254Y-105722875D01*
X153115000Y-99491275D02*
X152742928Y-99119203D01*
X172025000Y-105850000D02*
X173075000Y-105850000D01*
X169474254Y-105722875D02*
X169606379Y-105855000D01*
X173075000Y-105850000D02*
X173100000Y-105825000D01*
X152875000Y-99890000D02*
X152875000Y-99860000D01*
X152875000Y-99860000D02*
X153115000Y-99620000D01*
%TO.N,/USB HUB/USBOUT2_R.D-*%
X175410000Y-106628573D02*
X174606427Y-105825000D01*
X175500000Y-107637500D02*
X175500000Y-107018749D01*
X175410000Y-106928749D02*
X175410000Y-106628573D01*
X175500000Y-107018749D02*
X175410000Y-106928749D01*
X174606427Y-105825000D02*
X174100000Y-105825000D01*
%TO.N,/ESP32-C6/UART0.TX*%
X148410519Y-107825608D02*
X148336889Y-107825608D01*
X148863675Y-107372452D02*
X148410519Y-107825608D01*
X178050000Y-104450000D02*
X178050000Y-102990000D01*
X178050000Y-102990000D02*
X178040000Y-102980000D01*
X149675000Y-107025000D02*
X149327548Y-107372452D01*
X149327548Y-107372452D02*
X148863675Y-107372452D01*
%TO.N,/UART_Programmer/Prg.D+*%
X181850000Y-103655000D02*
X181850000Y-102980000D01*
X182325000Y-105323726D02*
X182325000Y-104130000D01*
X182325000Y-104130000D02*
X181850000Y-103655000D01*
X179365001Y-106050000D02*
X179605001Y-106290000D01*
X179605001Y-106290000D02*
X181358726Y-106290000D01*
X178900000Y-106050000D02*
X179365001Y-106050000D01*
X181358726Y-106290000D02*
X182325000Y-105323726D01*
%TO.N,/UART_Programmer/Prg.D-*%
X183120000Y-103655000D02*
X183120000Y-102980000D01*
X182645000Y-104130000D02*
X183120000Y-103655000D01*
X178900000Y-106850000D02*
X179365001Y-106850000D01*
X179365001Y-106850000D02*
X179605001Y-106610000D01*
X182645000Y-105456274D02*
X182645000Y-104130000D01*
X179605001Y-106610000D02*
X181491274Y-106610000D01*
X181491274Y-106610000D02*
X182645000Y-105456274D01*
%TO.N,/I2C_Flash/A0*%
X181362500Y-87820000D02*
X181030000Y-87820000D01*
X181230000Y-87820000D02*
X179850000Y-89200000D01*
X181362500Y-87820000D02*
X181230000Y-87820000D01*
X179850000Y-90200000D02*
X179850000Y-89200000D01*
%TO.N,/ESP32-C6/SPIWP*%
X144560000Y-100203000D02*
X144560000Y-99510000D01*
X149300000Y-102200000D02*
X146557000Y-102200000D01*
X146557000Y-102200000D02*
X144560000Y-100203000D01*
%TO.N,Net-(LED1-Pad1)*%
X189400000Y-124375000D02*
X190050000Y-123725000D01*
X189400000Y-126341855D02*
X189400000Y-124375000D01*
X190686400Y-127628255D02*
X189400000Y-126341855D01*
X190050000Y-119425000D02*
X190050000Y-123725000D01*
%TO.N,/ESP32-C6/SPID*%
X148500000Y-104600000D02*
X148490000Y-104590000D01*
X149300000Y-104600000D02*
X148500000Y-104600000D01*
X143290000Y-104590000D02*
X143290000Y-106590000D01*
%TO.N,/USB HUB/USBOUT1_R.D-*%
X176500000Y-107637500D02*
X176500000Y-107176274D01*
X176500000Y-107176274D02*
X177130567Y-106545707D01*
X177595707Y-106545707D02*
X177900000Y-106850000D01*
X177130567Y-106545707D02*
X177595707Y-106545707D01*
%TO.N,Net-(J8-~-Pad10)*%
X184979999Y-115450000D02*
X184460399Y-115450000D01*
X183538953Y-116371446D02*
X181228554Y-116371446D01*
X185275000Y-115154999D02*
X184979999Y-115450000D01*
X184460399Y-115450000D02*
X183538953Y-116371446D01*
X185275000Y-114875000D02*
X185275000Y-115154999D01*
%TO.N,/CAN_TR.kicad_sch1/CAN.-*%
D93*
X149095391Y-114253560D02*
X148450000Y-113608169D01*
X148450000Y-113608169D02*
X148450000Y-113325000D01*
%TO.N,/CAN_TR.kicad_sch1/CAN.+*%
X149100000Y-113530000D02*
X149740000Y-114170000D01*
X149740000Y-114170000D02*
X149700000Y-114170000D01*
X149100000Y-113325000D02*
X149100000Y-113530000D01*
X149700000Y-114170000D02*
X149610000Y-114260000D01*
%TO.N,Net-(U302-XO)*%
D86*
X180350000Y-111450000D02*
X179350000Y-111450000D01*
X179350000Y-111450000D02*
X177750000Y-109850000D01*
X177750000Y-109850000D02*
X177212500Y-109850000D01*
%TO.N,Net-(U302-XI)*%
X179050000Y-110600000D02*
X181700000Y-110600000D01*
X181700000Y-110600000D02*
X182550000Y-109750000D01*
X177212500Y-109350000D02*
X177800000Y-109350000D01*
X177800000Y-109350000D02*
X179050000Y-110600000D01*
%TO.N,/USB HUB/USBOUT2_R.D+*%
X174713879Y-106385000D02*
X175090000Y-106761121D01*
X174713879Y-106385000D02*
X174340000Y-106385000D01*
X174340000Y-106385000D02*
X174100000Y-106625000D01*
X175090000Y-106928749D02*
X175000000Y-107018749D01*
X175000000Y-107018749D02*
X175000000Y-107637500D01*
X175090000Y-106761121D02*
X175090000Y-106928749D01*
%TO.N,/USB HUB/USBIN1_R.D+*%
X174287500Y-109850000D02*
X173427500Y-109850000D01*
X173427500Y-109850000D02*
X173200000Y-110077500D01*
%TO.N,/USB HUB/USBBYP.D-*%
D94*
X171850000Y-106675000D02*
X171850000Y-107450000D01*
X171850000Y-107450000D02*
X171875000Y-107475000D01*
%TO.N,/ESP32-C6/SPIHD*%
D86*
X149300000Y-103000000D02*
X146880000Y-103000000D01*
X145820000Y-104060000D02*
X145820000Y-106590000D01*
X146880000Y-103000000D02*
X145820000Y-104060000D01*
%TO.N,/USB HUB/USBOUT1_R.D+*%
X177724293Y-106225707D02*
X177900000Y-106050000D01*
X176000000Y-107637500D02*
X176000000Y-107223726D01*
X176000000Y-107223726D02*
X176998019Y-106225707D01*
X176998019Y-106225707D02*
X177724293Y-106225707D01*
%TO.N,/ESP32-C6/SPICLK*%
X144560000Y-103820000D02*
X144590000Y-103790000D01*
X149290000Y-103790000D02*
X149300000Y-103800000D01*
X148490000Y-103790000D02*
X149290000Y-103790000D01*
X144560000Y-106590000D02*
X144560000Y-103820000D01*
%TO.N,Net-(J9-~-Pad12)*%
X186075000Y-114875000D02*
X186075000Y-114940424D01*
X186075000Y-114940424D02*
X185215424Y-115800000D01*
X158075000Y-117825000D02*
X158900000Y-118650000D01*
X183380373Y-117025000D02*
X181175000Y-117025000D01*
X146650000Y-121150000D02*
X151000000Y-116800000D01*
X156522107Y-117825000D02*
X158075000Y-117825000D01*
X185215424Y-115800000D02*
X184605373Y-115800000D01*
X184605373Y-115800000D02*
X183380373Y-117025000D01*
X155497107Y-116800000D02*
X156522107Y-117825000D01*
X151000000Y-116800000D02*
X155497107Y-116800000D01*
%TO.N,Net-(LED1-Pad3)*%
X190850000Y-124924655D02*
X190686400Y-125088255D01*
X190850000Y-119425000D02*
X190850000Y-124924655D01*
%TD*%
%TA.AperFunction,Conductor*%
%TO.N,BRD_VIN*%
G36*
X100843039Y-106019685D02*
G01*
X100888794Y-106072489D01*
X100900000Y-106124000D01*
X100900000Y-108300000D01*
X100900000Y-108629260D01*
X100880315Y-108696299D01*
X100827511Y-108742054D01*
X100776000Y-108753260D01*
X99624500Y-108753260D01*
X99557461Y-108733575D01*
X99511706Y-108680771D01*
X99500500Y-108629260D01*
X99500500Y-106124000D01*
X99520185Y-106056961D01*
X99572989Y-106011206D01*
X99624500Y-106000000D01*
X100776000Y-106000000D01*
X100843039Y-106019685D01*
G37*
%TD.AperFunction*%
%TD*%
%TA.AperFunction,Conductor*%
%TO.N,/ESP32-C6/More_RF*%
G36*
X163399473Y-105643682D02*
G01*
X163410121Y-105644648D01*
X163414494Y-105645936D01*
X163416611Y-105647047D01*
X163421987Y-105652927D01*
X163422351Y-105653805D01*
X163423194Y-105657229D01*
X163448066Y-105931632D01*
X163452936Y-105985364D01*
X163452453Y-105989901D01*
X163451544Y-105992816D01*
X163451515Y-105992911D01*
X163446366Y-105999457D01*
X163139785Y-106183442D01*
X163135489Y-106184982D01*
X163132918Y-106185365D01*
X163125433Y-106183977D01*
X163124881Y-106183664D01*
X163124281Y-106183207D01*
X163124230Y-106183195D01*
X163124200Y-106183146D01*
X163122373Y-106181756D01*
X162886656Y-105946039D01*
X162884120Y-105942244D01*
X162883125Y-105939842D01*
X162882659Y-105932238D01*
X162882827Y-105931632D01*
X162884070Y-105928738D01*
X163048073Y-105655454D01*
X163067926Y-105622371D01*
X163070991Y-105618992D01*
X163073523Y-105617116D01*
X163081542Y-105614867D01*
X163399473Y-105643682D01*
G37*
%TD.AperFunction*%
%TD*%
%TA.AperFunction,Conductor*%
%TO.N,BRD_VIN*%
G36*
X112093039Y-89269685D02*
G01*
X112138794Y-89322489D01*
X112150000Y-89374000D01*
X112150000Y-95851000D01*
X112130315Y-95918039D01*
X112077511Y-95963794D01*
X112026000Y-95975000D01*
X106674000Y-95975000D01*
X106606961Y-95955315D01*
X106561206Y-95902511D01*
X106550000Y-95851000D01*
X106550000Y-89374000D01*
X106569685Y-89306961D01*
X106622489Y-89261206D01*
X106674000Y-89250000D01*
X112026000Y-89250000D01*
X112093039Y-89269685D01*
G37*
%TD.AperFunction*%
%TD*%
%TA.AperFunction,Conductor*%
%TO.N,/ESP32-C6/More_RF*%
G36*
X183950693Y-94332435D02*
G01*
X184301137Y-94420014D01*
X184308332Y-94425345D01*
X184310000Y-94431365D01*
X184310000Y-94768634D01*
X184306573Y-94776907D01*
X184301137Y-94779985D01*
X183950698Y-94867563D01*
X183941841Y-94866244D01*
X183938875Y-94863705D01*
X183867224Y-94777771D01*
X183725246Y-94607491D01*
X183722581Y-94598944D01*
X183725246Y-94592508D01*
X183938876Y-94336293D01*
X183946805Y-94332135D01*
X183950693Y-94332435D01*
G37*
%TD.AperFunction*%
%TD*%
%TA.AperFunction,Conductor*%
%TO.N,/ESP32-C6/ANT*%
G36*
X159050207Y-107072824D02*
G01*
X159058101Y-107077049D01*
X159058197Y-107077168D01*
X159268721Y-107340882D01*
X159270819Y-107344938D01*
X159271520Y-107347368D01*
X159271087Y-107355090D01*
X159270804Y-107355773D01*
X159270521Y-107356250D01*
X159270520Y-107356267D01*
X159270505Y-107356278D01*
X159269139Y-107358593D01*
X159058874Y-107621982D01*
X159055386Y-107624925D01*
X159052744Y-107626384D01*
X159043845Y-107627384D01*
X159043696Y-107627340D01*
X158725534Y-107530961D01*
X158721505Y-107528808D01*
X158719372Y-107527058D01*
X158715444Y-107520858D01*
X158715351Y-107520487D01*
X158715198Y-107519251D01*
X158715150Y-107519161D01*
X158715176Y-107519073D01*
X158715000Y-107517642D01*
X158715000Y-107183237D01*
X158715891Y-107178760D01*
X158716948Y-107176208D01*
X158721733Y-107170655D01*
X158722058Y-107170459D01*
X158724685Y-107169294D01*
X159042663Y-107072971D01*
X159047203Y-107072527D01*
X159050207Y-107072824D01*
G37*
%TD.AperFunction*%
%TD*%
%TA.AperFunction,Conductor*%
%TO.N,/ESP32-C6/More_RF*%
G36*
X183950693Y-94332435D02*
G01*
X184301137Y-94420014D01*
X184308332Y-94425345D01*
X184310000Y-94431365D01*
X184310000Y-94768634D01*
X184306573Y-94776907D01*
X184301137Y-94779985D01*
X183950698Y-94867563D01*
X183941841Y-94866244D01*
X183938875Y-94863705D01*
X183867224Y-94777771D01*
X183725246Y-94607491D01*
X183722581Y-94598944D01*
X183725246Y-94592508D01*
X183938876Y-94336293D01*
X183946805Y-94332135D01*
X183950693Y-94332435D01*
G37*
%TD.AperFunction*%
%TD*%
%TA.AperFunction,Conductor*%
%TO.N,/ESP32-C6/More_RF*%
G36*
X183498158Y-94333755D02*
G01*
X183501124Y-94336294D01*
X183714752Y-94592507D01*
X183717418Y-94601056D01*
X183714752Y-94607493D01*
X183501124Y-94863705D01*
X183493194Y-94867864D01*
X183489301Y-94867563D01*
X183473863Y-94863705D01*
X183458600Y-94859890D01*
X183138863Y-94779985D01*
X183131668Y-94774654D01*
X183130000Y-94768634D01*
X183130000Y-94431365D01*
X183133427Y-94423092D01*
X183138863Y-94420014D01*
X183489303Y-94332436D01*
X183498158Y-94333755D01*
G37*
%TD.AperFunction*%
%TD*%
%TA.AperFunction,Conductor*%
%TO.N,Net-(C41-Pad1)*%
G36*
X121700000Y-109176000D02*
G01*
X121680315Y-109243039D01*
X121627511Y-109288794D01*
X121576000Y-109300000D01*
X111824000Y-109300000D01*
X111756961Y-109280315D01*
X111711206Y-109227511D01*
X111700000Y-109176000D01*
X111700000Y-108324078D01*
X111719685Y-108257039D01*
X111772489Y-108211284D01*
X111824077Y-108200078D01*
X117997983Y-108203966D01*
X117997983Y-108203965D01*
X118015709Y-108186263D01*
X118077053Y-108152817D01*
X118103334Y-108150000D01*
X118700000Y-108150000D01*
X118700000Y-105000000D01*
X121700000Y-105000000D01*
X121700000Y-109176000D01*
G37*
%TD.AperFunction*%
%TD*%
%TA.AperFunction,Conductor*%
%TO.N,/ESP32-C6/More_RF*%
G36*
X163062391Y-105763806D02*
G01*
X163062551Y-105763906D01*
X163064614Y-105765549D01*
X163300758Y-106001693D01*
X163303293Y-106005486D01*
X163304231Y-106007749D01*
X163304621Y-106015615D01*
X163304372Y-106016438D01*
X163302913Y-106019533D01*
X163107407Y-106313258D01*
X163104184Y-106316492D01*
X163101551Y-106318258D01*
X163093557Y-106320147D01*
X162799039Y-106282659D01*
X162794711Y-106281211D01*
X162792709Y-106280067D01*
X162787498Y-106273848D01*
X162787135Y-106272833D01*
X162786458Y-106269232D01*
X162779413Y-106018095D01*
X162776262Y-105905793D01*
X162777025Y-105901296D01*
X162778132Y-105898396D01*
X162783940Y-105892051D01*
X163048188Y-105763378D01*
X163052596Y-105762220D01*
X163055483Y-105762046D01*
X163062391Y-105763806D01*
G37*
%TD.AperFunction*%
%TD*%
%TA.AperFunction,Conductor*%
%TO.N,GND*%
G36*
X142243039Y-107869685D02*
G01*
X142288794Y-107922489D01*
X142300000Y-107974000D01*
X142300000Y-109676000D01*
X142280315Y-109743039D01*
X142227511Y-109788794D01*
X142176000Y-109800000D01*
X140424000Y-109800000D01*
X140356961Y-109780315D01*
X140311206Y-109727511D01*
X140300000Y-109676000D01*
X140300000Y-107974000D01*
X140319685Y-107906961D01*
X140372489Y-107861206D01*
X140424000Y-107850000D01*
X142176000Y-107850000D01*
X142243039Y-107869685D01*
G37*
%TD.AperFunction*%
%TD*%
%TA.AperFunction,Conductor*%
%TO.N,/ESP32-C6/RF*%
G36*
X161576353Y-107093604D02*
G01*
X161584510Y-107097298D01*
X161586782Y-107100821D01*
X161715669Y-107411989D01*
X161715669Y-107420943D01*
X161709815Y-107427065D01*
X161305700Y-107616011D01*
X161296755Y-107616410D01*
X161292801Y-107614002D01*
X161121811Y-107455869D01*
X161118064Y-107447736D01*
X161119371Y-107441888D01*
X161127066Y-107427065D01*
X161301355Y-107091323D01*
X161308207Y-107085562D01*
X161312116Y-107085022D01*
X161576353Y-107093604D01*
G37*
%TD.AperFunction*%
%TD*%
%TA.AperFunction,Conductor*%
%TO.N,BRD_VIN*%
G36*
X148443039Y-82520185D02*
G01*
X148488794Y-82572989D01*
X148500000Y-82624500D01*
X148500000Y-88776000D01*
X148480315Y-88843039D01*
X148427511Y-88888794D01*
X148376000Y-88900000D01*
X139424000Y-88900000D01*
X139356961Y-88880315D01*
X139311206Y-88827511D01*
X139300000Y-88776000D01*
X139300000Y-82624500D01*
X139319685Y-82557461D01*
X139372489Y-82511706D01*
X139424000Y-82500500D01*
X148376000Y-82500500D01*
X148443039Y-82520185D01*
G37*
%TD.AperFunction*%
%TD*%
%TA.AperFunction,Conductor*%
%TO.N,/ESP32-C6/More_RF*%
G36*
X163677537Y-105068152D02*
G01*
X163915478Y-105306093D01*
X163918905Y-105314366D01*
X163917664Y-105319610D01*
X163779255Y-105595631D01*
X163772483Y-105601491D01*
X163768861Y-105602087D01*
X163388244Y-105604202D01*
X163379952Y-105600821D01*
X163376569Y-105593942D01*
X163344457Y-105334645D01*
X163346841Y-105326014D01*
X163348645Y-105324164D01*
X163661848Y-105067376D01*
X163670416Y-105064782D01*
X163677537Y-105068152D01*
G37*
%TD.AperFunction*%
%TD*%
%TA.AperFunction,Conductor*%
%TO.N,GND*%
G36*
X104332787Y-98199963D02*
G01*
X104343508Y-98203089D01*
X104347792Y-98204338D01*
X104362808Y-98213948D01*
X104379927Y-98218940D01*
X104406644Y-98242003D01*
X104407833Y-98243370D01*
X104435391Y-98298175D01*
X104437049Y-98305732D01*
X104439930Y-98332075D01*
X104449735Y-103607941D01*
X104444779Y-103642878D01*
X104440404Y-103657884D01*
X104430780Y-103672921D01*
X104425776Y-103690060D01*
X104402769Y-103716691D01*
X104402742Y-103716734D01*
X104402703Y-103716768D01*
X104401381Y-103717917D01*
X104346521Y-103745465D01*
X104338858Y-103747139D01*
X104312381Y-103750000D01*
X101491811Y-103750000D01*
X101456870Y-103744975D01*
X101441871Y-103740570D01*
X101426885Y-103730944D01*
X101409828Y-103725946D01*
X101383143Y-103702848D01*
X101381952Y-103701475D01*
X101354458Y-103646593D01*
X101352814Y-103639038D01*
X101349978Y-103612700D01*
X101349165Y-98342097D01*
X101354182Y-98307170D01*
X101358585Y-98292165D01*
X101368210Y-98277175D01*
X101373211Y-98260109D01*
X101396308Y-98233421D01*
X101396451Y-98233296D01*
X101397722Y-98232194D01*
X101452503Y-98204720D01*
X101459965Y-98203089D01*
X101486204Y-98200230D01*
X104297848Y-98195006D01*
X104332787Y-98199963D01*
G37*
%TD.AperFunction*%
%TD*%
%TA.AperFunction,Conductor*%
%TO.N,/ESP32-C6/RF*%
G36*
X160849719Y-107083242D02*
G01*
X160856980Y-107087321D01*
X161068262Y-107340720D01*
X161070444Y-107344726D01*
X161071155Y-107347008D01*
X161070793Y-107354977D01*
X161070429Y-107355854D01*
X161068609Y-107358862D01*
X160857613Y-107611918D01*
X160854062Y-107614786D01*
X160851275Y-107616248D01*
X160843004Y-107617238D01*
X160828864Y-107613705D01*
X160828863Y-107613705D01*
X160813600Y-107609890D01*
X160496120Y-107530549D01*
X160491992Y-107528599D01*
X160489899Y-107527048D01*
X160485589Y-107520760D01*
X160485419Y-107520148D01*
X160485320Y-107519412D01*
X160485294Y-107519369D01*
X160485307Y-107519316D01*
X160485000Y-107517043D01*
X160485000Y-107183692D01*
X160485890Y-107179216D01*
X160486886Y-107176811D01*
X160491924Y-107171111D01*
X160492479Y-107170797D01*
X160495400Y-107169629D01*
X160842046Y-107082999D01*
X160846600Y-107082778D01*
X160849719Y-107083242D01*
G37*
%TD.AperFunction*%
%TD*%
%TA.AperFunction,Conductor*%
%TO.N,/ESP32-C6/ANT_CN*%
G36*
X187450693Y-94332435D02*
G01*
X187801137Y-94420014D01*
X187808332Y-94425345D01*
X187810000Y-94431365D01*
X187810000Y-94768634D01*
X187806573Y-94776907D01*
X187801137Y-94779985D01*
X187450698Y-94867563D01*
X187441841Y-94866244D01*
X187438875Y-94863705D01*
X187367224Y-94777771D01*
X187225246Y-94607491D01*
X187222581Y-94598944D01*
X187225246Y-94592508D01*
X187438876Y-94336293D01*
X187446805Y-94332135D01*
X187450693Y-94332435D01*
G37*
%TD.AperFunction*%
%TD*%
%TA.AperFunction,Conductor*%
%TO.N,BRD_VIN*%
G36*
X111242983Y-112817917D02*
G01*
X111288766Y-112870696D01*
X111300000Y-112922269D01*
X111300000Y-123269522D01*
X111280315Y-123336561D01*
X111227511Y-123382316D01*
X111176270Y-123393522D01*
X109574769Y-123397007D01*
X109507687Y-123377468D01*
X109461817Y-123324764D01*
X109450499Y-123273007D01*
X109450499Y-122785791D01*
X109450498Y-122785783D01*
X109440096Y-122653588D01*
X109385096Y-122435317D01*
X109292007Y-122230374D01*
X109163819Y-122045346D01*
X109004654Y-121886181D01*
X109004650Y-121886178D01*
X109004645Y-121886174D01*
X108819632Y-121757997D01*
X108819630Y-121757995D01*
X108819626Y-121757993D01*
X108614683Y-121664904D01*
X108614681Y-121664903D01*
X108614678Y-121664902D01*
X108396420Y-121609905D01*
X108396413Y-121609904D01*
X108352347Y-121606436D01*
X108264217Y-121599500D01*
X108264215Y-121599500D01*
X107235791Y-121599500D01*
X107235776Y-121599501D01*
X107103586Y-121609904D01*
X107103579Y-121609905D01*
X106885321Y-121664902D01*
X106885318Y-121664903D01*
X106680377Y-121757991D01*
X106680367Y-121757997D01*
X106495354Y-121886174D01*
X106495342Y-121886184D01*
X106336184Y-122045342D01*
X106336174Y-122045354D01*
X106207997Y-122230367D01*
X106207991Y-122230377D01*
X106114903Y-122435318D01*
X106114902Y-122435321D01*
X106059905Y-122653579D01*
X106059904Y-122653586D01*
X106049500Y-122785777D01*
X106049500Y-123280951D01*
X106029815Y-123347990D01*
X105977011Y-123393745D01*
X105925770Y-123404951D01*
X105466679Y-123405950D01*
X105399597Y-123386411D01*
X105353727Y-123333707D01*
X105343527Y-123265338D01*
X105344080Y-123261241D01*
X105344081Y-123261237D01*
X105350500Y-123157842D01*
X105350500Y-122042158D01*
X105344081Y-121938763D01*
X105293050Y-121695386D01*
X105273418Y-121645076D01*
X105267386Y-121575468D01*
X105273419Y-121554923D01*
X105293045Y-121504627D01*
X105293045Y-121504625D01*
X105293050Y-121504614D01*
X105344081Y-121261237D01*
X105350500Y-121157842D01*
X105350500Y-120042158D01*
X105344081Y-119938763D01*
X105293050Y-119695386D01*
X105273418Y-119645076D01*
X105267386Y-119575468D01*
X105273419Y-119554923D01*
X105293045Y-119504627D01*
X105293045Y-119504625D01*
X105293050Y-119504614D01*
X105344081Y-119261237D01*
X105350500Y-119157842D01*
X105350500Y-118042158D01*
X105344081Y-117938763D01*
X105293050Y-117695386D01*
X105273418Y-117645076D01*
X105267386Y-117575468D01*
X105273419Y-117554923D01*
X105293045Y-117504627D01*
X105293045Y-117504625D01*
X105293050Y-117504614D01*
X105344081Y-117261237D01*
X105350500Y-117157842D01*
X105350500Y-116042158D01*
X105344081Y-115938763D01*
X105293050Y-115695386D01*
X105293048Y-115695381D01*
X105293046Y-115695374D01*
X105202657Y-115463730D01*
X105202656Y-115463727D01*
X105075366Y-115250106D01*
X105075363Y-115250103D01*
X105075360Y-115250097D01*
X104914651Y-115060350D01*
X104914649Y-115060348D01*
X104724901Y-114899639D01*
X104722013Y-114897577D01*
X104721115Y-114896433D01*
X104720981Y-114896319D01*
X104721004Y-114896291D01*
X104678893Y-114842600D01*
X104670070Y-114796734D01*
X104669051Y-112925810D01*
X104688699Y-112858762D01*
X104741478Y-112812979D01*
X104792976Y-112801746D01*
X111175933Y-112798269D01*
X111242983Y-112817917D01*
G37*
%TD.AperFunction*%
%TD*%
%TA.AperFunction,Conductor*%
%TO.N,/ESP32-C6/ANT_CN*%
G36*
X186151295Y-94322655D02*
G01*
X186469466Y-94419037D01*
X186473494Y-94421190D01*
X186475627Y-94422940D01*
X186479548Y-94429111D01*
X186479642Y-94429482D01*
X186480000Y-94432356D01*
X186480000Y-94766761D01*
X186479109Y-94771238D01*
X186478052Y-94773790D01*
X186473240Y-94779359D01*
X186472915Y-94779553D01*
X186470310Y-94780705D01*
X186152339Y-94877026D01*
X186147795Y-94877471D01*
X186144793Y-94877174D01*
X186136898Y-94872949D01*
X186136801Y-94872830D01*
X186063257Y-94780705D01*
X185926275Y-94609113D01*
X185924180Y-94605061D01*
X185923478Y-94602629D01*
X185923908Y-94594918D01*
X185924190Y-94594236D01*
X185925855Y-94591411D01*
X186136127Y-94328012D01*
X186139610Y-94325074D01*
X186142258Y-94323612D01*
X186151154Y-94322615D01*
X186151295Y-94322655D01*
G37*
%TD.AperFunction*%
%TD*%
%TA.AperFunction,Conductor*%
%TO.N,/ESP32-C6/ANT*%
G36*
X158144689Y-106790598D02*
G01*
X158558394Y-107064969D01*
X158563394Y-107072398D01*
X158562968Y-107078590D01*
X158465117Y-107357757D01*
X158459147Y-107364431D01*
X158457721Y-107365005D01*
X158173492Y-107458194D01*
X158164563Y-107457515D01*
X158160079Y-107453516D01*
X157890560Y-107044681D01*
X157888868Y-107035888D01*
X157892054Y-107029971D01*
X158129950Y-106792075D01*
X158138222Y-106788649D01*
X158144689Y-106790598D01*
G37*
%TD.AperFunction*%
%TD*%
%TA.AperFunction,Conductor*%
%TO.N,/ESP32-C6/RF*%
G36*
X160505110Y-107072297D02*
G01*
X160826692Y-107169712D01*
X160833616Y-107175391D01*
X160835000Y-107180910D01*
X160835000Y-107519089D01*
X160831573Y-107527362D01*
X160826692Y-107530287D01*
X160505113Y-107627701D01*
X160496202Y-107626819D01*
X160492577Y-107623802D01*
X160279825Y-107357297D01*
X160277343Y-107348696D01*
X160279825Y-107342703D01*
X160492578Y-107076196D01*
X160500417Y-107071869D01*
X160505110Y-107072297D01*
G37*
%TD.AperFunction*%
%TD*%
%TA.AperFunction,Conductor*%
%TO.N,/ESP32-C6/More_RF*%
G36*
X184698797Y-94323180D02*
G01*
X184702422Y-94326197D01*
X184915173Y-94592701D01*
X184917656Y-94601304D01*
X184915173Y-94607299D01*
X184702422Y-94873802D01*
X184694582Y-94878130D01*
X184689886Y-94877701D01*
X184368308Y-94780287D01*
X184361384Y-94774608D01*
X184360000Y-94769089D01*
X184360000Y-94430910D01*
X184363427Y-94422637D01*
X184368306Y-94419712D01*
X184689888Y-94322298D01*
X184698797Y-94323180D01*
G37*
%TD.AperFunction*%
%TD*%
%TA.AperFunction,Conductor*%
%TO.N,/ESP32-C6/More_RF*%
G36*
X184698797Y-94323180D02*
G01*
X184702422Y-94326197D01*
X184915173Y-94592701D01*
X184917656Y-94601304D01*
X184915173Y-94607299D01*
X184702422Y-94873802D01*
X184694582Y-94878130D01*
X184689886Y-94877701D01*
X184368308Y-94780287D01*
X184361384Y-94774608D01*
X184360000Y-94769089D01*
X184360000Y-94430910D01*
X184363427Y-94422637D01*
X184368306Y-94419712D01*
X184689888Y-94322298D01*
X184698797Y-94323180D01*
G37*
%TD.AperFunction*%
%TD*%
%TA.AperFunction,Conductor*%
%TO.N,+5V*%
G36*
X131443525Y-98319685D02*
G01*
X131489280Y-98372489D01*
X131500485Y-98423513D01*
X131518474Y-102999744D01*
X131518474Y-102999998D01*
X131518475Y-102999999D01*
X131518476Y-103000000D01*
X131559272Y-102999882D01*
X137452358Y-102982888D01*
X137487298Y-102987809D01*
X137502317Y-102992172D01*
X137561194Y-103029768D01*
X137562383Y-103031132D01*
X137590000Y-103085901D01*
X137591667Y-103093458D01*
X137594577Y-103119811D01*
X137605353Y-106855902D01*
X137603138Y-106871634D01*
X137600433Y-106890846D01*
X137596071Y-106905860D01*
X137558470Y-106964746D01*
X137558464Y-106964751D01*
X137557133Y-106965911D01*
X137502275Y-106993542D01*
X137494643Y-106995219D01*
X137468216Y-106998108D01*
X135495674Y-107001052D01*
X135495673Y-107001052D01*
X135495672Y-107001053D01*
X135499787Y-109758105D01*
X135499786Y-109758107D01*
X135499787Y-109758108D01*
X135494815Y-109793051D01*
X135490433Y-109808056D01*
X135452745Y-109866889D01*
X135452731Y-109866901D01*
X135451397Y-109868060D01*
X135396538Y-109895596D01*
X135388908Y-109897263D01*
X135362462Y-109900121D01*
X128442855Y-109901305D01*
X128407920Y-109896288D01*
X128392922Y-109891887D01*
X128334153Y-109854141D01*
X128332965Y-109852771D01*
X128305488Y-109797917D01*
X128303840Y-109790349D01*
X128301004Y-109764010D01*
X128298992Y-98424021D01*
X128318665Y-98356979D01*
X128371461Y-98311215D01*
X128422992Y-98300000D01*
X131376486Y-98300000D01*
X131443525Y-98319685D01*
G37*
%TD.AperFunction*%
%TD*%
%TA.AperFunction,Conductor*%
%TO.N,/VRM/Cap_protec*%
G36*
X103866941Y-115819685D02*
G01*
X103880043Y-115829378D01*
X103908173Y-115853203D01*
X103934792Y-115875748D01*
X104003076Y-115933581D01*
X104041510Y-115991928D01*
X104046928Y-116029566D01*
X104032218Y-117368163D01*
X104030158Y-117389345D01*
X104017320Y-117458775D01*
X104016573Y-117683848D01*
X104022604Y-117753445D01*
X104022609Y-117753492D01*
X104026294Y-117779743D01*
X104027491Y-117798341D01*
X103961884Y-123768524D01*
X103960556Y-123785308D01*
X103958109Y-123801849D01*
X103954520Y-123818298D01*
X103922358Y-123928995D01*
X103922357Y-123929001D01*
X103922356Y-123929002D01*
X103922356Y-123929004D01*
X103919500Y-123965294D01*
X103919500Y-124358170D01*
X103919499Y-124358176D01*
X103919500Y-124358179D01*
X103914475Y-124393114D01*
X103910070Y-124408112D01*
X103872327Y-124466855D01*
X103872292Y-124466885D01*
X103872291Y-124466887D01*
X103872289Y-124466887D01*
X103870958Y-124468042D01*
X103816097Y-124495518D01*
X103808539Y-124497163D01*
X103782168Y-124500000D01*
X101822330Y-124500000D01*
X101822325Y-124499999D01*
X101822323Y-124500000D01*
X101787389Y-124494975D01*
X101772390Y-124490570D01*
X101713644Y-124452827D01*
X101713615Y-124452793D01*
X101713614Y-124452793D01*
X101713613Y-124452791D01*
X101712457Y-124451458D01*
X101684977Y-124396583D01*
X101683332Y-124389021D01*
X101680500Y-124362668D01*
X101680500Y-123965321D01*
X101680500Y-123965317D01*
X101680499Y-123965302D01*
X101677643Y-123929008D01*
X101677643Y-123929007D01*
X101667439Y-123893887D01*
X101666657Y-123890487D01*
X101666727Y-123889296D01*
X101664641Y-123879472D01*
X101662197Y-123861596D01*
X101661061Y-123843436D01*
X101661338Y-123818298D01*
X101747908Y-115940460D01*
X101753313Y-115905591D01*
X101757883Y-115890635D01*
X101767683Y-115875748D01*
X101772890Y-115858706D01*
X101796289Y-115832288D01*
X101797954Y-115830877D01*
X101852443Y-115804162D01*
X101859400Y-115802688D01*
X101885081Y-115800000D01*
X103799902Y-115800000D01*
X103866941Y-115819685D01*
G37*
%TD.AperFunction*%
%TD*%
%TA.AperFunction,Conductor*%
%TO.N,GND*%
G36*
X129943039Y-114769685D02*
G01*
X129988794Y-114822489D01*
X130000000Y-114874000D01*
X130000000Y-120626000D01*
X129980315Y-120693039D01*
X129927511Y-120738794D01*
X129876000Y-120750000D01*
X114524000Y-120750000D01*
X114456961Y-120730315D01*
X114411206Y-120677511D01*
X114400000Y-120626000D01*
X114400000Y-114796690D01*
X114400000Y-114750000D01*
X127400000Y-114750000D01*
X129876000Y-114750000D01*
X129943039Y-114769685D01*
G37*
%TD.AperFunction*%
%TD*%
%TA.AperFunction,Conductor*%
%TO.N,GND*%
G36*
X119137846Y-89605324D02*
G01*
X119183698Y-89658043D01*
X119195000Y-89709534D01*
X119205903Y-95575770D01*
X119186343Y-95642845D01*
X119133624Y-95688698D01*
X119081903Y-95700000D01*
X115132695Y-95700000D01*
X115065656Y-95680315D01*
X115019901Y-95627511D01*
X115008695Y-95576019D01*
X115007791Y-89717103D01*
X115027465Y-89650061D01*
X115080262Y-89604298D01*
X115131556Y-89593084D01*
X119070771Y-89585764D01*
X119137846Y-89605324D01*
G37*
%TD.AperFunction*%
%TD*%
%TA.AperFunction,Conductor*%
%TO.N,/ESP32-C6/RF*%
G36*
X162091594Y-107035022D02*
G01*
X162095681Y-107037048D01*
X162097982Y-107038822D01*
X162102020Y-107044642D01*
X162102065Y-107044788D01*
X162102553Y-107047378D01*
X162120386Y-107290527D01*
X162119824Y-107295059D01*
X162119022Y-107297482D01*
X162114339Y-107303584D01*
X162113753Y-107303969D01*
X162110825Y-107305357D01*
X161678859Y-107440604D01*
X161674318Y-107441091D01*
X161672244Y-107440905D01*
X161664657Y-107437149D01*
X161663720Y-107436125D01*
X161661548Y-107432711D01*
X161533970Y-107124698D01*
X161533079Y-107120221D01*
X161533079Y-107117000D01*
X161535787Y-107109514D01*
X161682200Y-106933640D01*
X161685744Y-106930774D01*
X161688503Y-106929324D01*
X161696992Y-106928389D01*
X162091594Y-107035022D01*
G37*
%TD.AperFunction*%
%TD*%
%TA.AperFunction,Conductor*%
%TO.N,/ESP32-C6/ANT_CN*%
G36*
X186998158Y-94333755D02*
G01*
X187001124Y-94336294D01*
X187214752Y-94592507D01*
X187217418Y-94601056D01*
X187214752Y-94607493D01*
X187001124Y-94863705D01*
X186993194Y-94867864D01*
X186989301Y-94867563D01*
X186973863Y-94863705D01*
X186958600Y-94859890D01*
X186638863Y-94779985D01*
X186631668Y-94774654D01*
X186630000Y-94768634D01*
X186630000Y-94431365D01*
X186633427Y-94423092D01*
X186638863Y-94420014D01*
X186989303Y-94332436D01*
X186998158Y-94333755D01*
G37*
%TD.AperFunction*%
%TD*%
%TA.AperFunction,Conductor*%
%TO.N,Net-(U2-SW)*%
G36*
X113642410Y-98370032D02*
G01*
X113688482Y-98422559D01*
X113700000Y-98474749D01*
X113700000Y-105876000D01*
X113680315Y-105943039D01*
X113627511Y-105988794D01*
X113576000Y-106000000D01*
X108182418Y-106000000D01*
X108147823Y-105995076D01*
X108111166Y-105984426D01*
X108052570Y-105967402D01*
X108052567Y-105967401D01*
X108015701Y-105964500D01*
X108015694Y-105964500D01*
X107291342Y-105964500D01*
X106824000Y-105964500D01*
X106756961Y-105944815D01*
X106711206Y-105892011D01*
X106700000Y-105840500D01*
X106700000Y-102300000D01*
X106699998Y-102299998D01*
X106493076Y-102236329D01*
X106441862Y-102205494D01*
X106368657Y-102132289D01*
X106368656Y-102132288D01*
X106219334Y-102040186D01*
X106052797Y-101985001D01*
X106052795Y-101985000D01*
X105950016Y-101974500D01*
X105660773Y-101974500D01*
X105659709Y-101974340D01*
X105659173Y-101974490D01*
X105624306Y-101969017D01*
X105487533Y-101926933D01*
X105429247Y-101888403D01*
X105401045Y-101824478D01*
X105400000Y-101808416D01*
X105400000Y-98523255D01*
X105419685Y-98456216D01*
X105472489Y-98410461D01*
X105523250Y-98399257D01*
X113575254Y-98350751D01*
X113642410Y-98370032D01*
G37*
%TD.AperFunction*%
%TD*%
%TA.AperFunction,Conductor*%
%TO.N,Net-(C41-Pad1)*%
G36*
X127293106Y-98355023D02*
G01*
X127308104Y-98359427D01*
X127323094Y-98369057D01*
X127340175Y-98374067D01*
X127366855Y-98397172D01*
X127368042Y-98398541D01*
X127395518Y-98453402D01*
X127397163Y-98460960D01*
X127400000Y-98487331D01*
X127400000Y-104858170D01*
X127394975Y-104893114D01*
X127390570Y-104908112D01*
X127380939Y-104923101D01*
X127375932Y-104940175D01*
X127352827Y-104966855D01*
X127351458Y-104968042D01*
X127296597Y-104995518D01*
X127289039Y-104997163D01*
X127262668Y-105000000D01*
X118824000Y-105000000D01*
X118756961Y-104980315D01*
X118711206Y-104927511D01*
X118700000Y-104876000D01*
X118700000Y-98491829D01*
X118705023Y-98456893D01*
X118709427Y-98441895D01*
X118747172Y-98383144D01*
X118747200Y-98383119D01*
X118747199Y-98383119D01*
X118748541Y-98381956D01*
X118803420Y-98354477D01*
X118810979Y-98352833D01*
X118837332Y-98350000D01*
X127258170Y-98350000D01*
X127293106Y-98355023D01*
G37*
%TD.AperFunction*%
%TD*%
%TA.AperFunction,Conductor*%
%TO.N,BRD_VIN*%
G36*
X102893039Y-106519685D02*
G01*
X102938794Y-106572489D01*
X102950000Y-106624000D01*
X102950000Y-108176000D01*
X102930315Y-108243039D01*
X102877511Y-108288794D01*
X102826000Y-108300000D01*
X100900000Y-108300000D01*
X100900000Y-106500000D01*
X102826000Y-106500000D01*
X102893039Y-106519685D01*
G37*
%TD.AperFunction*%
%TD*%
%TA.AperFunction,Conductor*%
%TO.N,/ESP32-C6/ANT_CN*%
G36*
X193367981Y-93606514D02*
G01*
X194491543Y-94591201D01*
X194495507Y-94599231D01*
X194492631Y-94607711D01*
X194491543Y-94608799D01*
X193367981Y-95593485D01*
X193359501Y-95596361D01*
X193352883Y-95593759D01*
X192354896Y-94781282D01*
X192350644Y-94773402D01*
X192350583Y-94772209D01*
X192350583Y-94427790D01*
X192354010Y-94419517D01*
X192354887Y-94418724D01*
X193352884Y-93606239D01*
X193361463Y-93603674D01*
X193367981Y-93606514D01*
G37*
%TD.AperFunction*%
%TD*%
%TA.AperFunction,Conductor*%
%TO.N,/ESP32-C6/ANT*%
G36*
X159053881Y-107169450D02*
G01*
X159058004Y-107171398D01*
X159060098Y-107172950D01*
X159064405Y-107179221D01*
X159064574Y-107179833D01*
X159064999Y-107182955D01*
X159064999Y-107516306D01*
X159064107Y-107520786D01*
X159063111Y-107523189D01*
X159058072Y-107528888D01*
X159057525Y-107529198D01*
X159054593Y-107530370D01*
X158707953Y-107616999D01*
X158703393Y-107617219D01*
X158700277Y-107616755D01*
X158693017Y-107612677D01*
X158622223Y-107527771D01*
X158481736Y-107359279D01*
X158479552Y-107355268D01*
X158478841Y-107352987D01*
X158479197Y-107345038D01*
X158479562Y-107344157D01*
X158481382Y-107341143D01*
X158692384Y-107088080D01*
X158695933Y-107085214D01*
X158696581Y-107084873D01*
X158698722Y-107083750D01*
X158706993Y-107082760D01*
X159053881Y-107169450D01*
G37*
%TD.AperFunction*%
%TD*%
%TA.AperFunction,Conductor*%
%TO.N,/ESP32-C6/ANT_CN*%
G36*
X189447165Y-94312894D02*
G01*
X189732349Y-94428106D01*
X189738736Y-94434382D01*
X189739666Y-94438931D01*
X189740331Y-94778722D01*
X189736920Y-94787002D01*
X189733059Y-94789575D01*
X189447179Y-94906477D01*
X189438225Y-94906436D01*
X189434500Y-94903942D01*
X189147330Y-94618288D01*
X189143881Y-94610024D01*
X189147284Y-94601744D01*
X189434526Y-94315455D01*
X189442803Y-94312043D01*
X189447165Y-94312894D01*
G37*
%TD.AperFunction*%
%TD*%
%TA.AperFunction,Conductor*%
%TO.N,/ESP32-C6/ANT_CN*%
G36*
X188841811Y-94312967D02*
G01*
X188845445Y-94315427D01*
X189132663Y-94601696D01*
X189136104Y-94609964D01*
X189132691Y-94618242D01*
X189132642Y-94618291D01*
X188845511Y-94902976D01*
X188837223Y-94906368D01*
X188832822Y-94905488D01*
X188546369Y-94787642D01*
X188540021Y-94781325D01*
X188539120Y-94776761D01*
X188540031Y-94601696D01*
X188540888Y-94436993D01*
X188544358Y-94428741D01*
X188548254Y-94426189D01*
X188832858Y-94312844D01*
X188841811Y-94312967D01*
G37*
%TD.AperFunction*%
%TD*%
%TA.AperFunction,Conductor*%
%TO.N,+5V*%
G36*
X135743039Y-82520185D02*
G01*
X135788794Y-82572989D01*
X135800000Y-82624500D01*
X135800000Y-88876000D01*
X135780315Y-88943039D01*
X135727511Y-88988794D01*
X135676000Y-89000000D01*
X131824000Y-89000000D01*
X131756961Y-88980315D01*
X131711206Y-88927511D01*
X131700000Y-88876000D01*
X131700000Y-86700000D01*
X128298970Y-86700000D01*
X128298970Y-95700001D01*
X131454409Y-98262969D01*
X131455426Y-98264447D01*
X131457064Y-98265187D01*
X131475166Y-98293112D01*
X131479909Y-98300000D01*
X128298970Y-98300000D01*
X126237961Y-96239535D01*
X126204468Y-96178216D01*
X126201631Y-96151858D01*
X126199844Y-82624514D01*
X126219520Y-82557474D01*
X126272318Y-82511712D01*
X126323844Y-82500500D01*
X135676000Y-82500500D01*
X135743039Y-82520185D01*
G37*
%TD.AperFunction*%
%TD*%
%TA.AperFunction,Conductor*%
%TO.N,GND*%
G36*
X100943039Y-115819685D02*
G01*
X100988794Y-115872489D01*
X101000000Y-115924000D01*
X101000000Y-125676000D01*
X100980315Y-125743039D01*
X100927511Y-125788794D01*
X100876000Y-125800000D01*
X99824000Y-125800000D01*
X99756961Y-125780315D01*
X99711206Y-125727511D01*
X99700000Y-125676000D01*
X99700000Y-115924000D01*
X99719685Y-115856961D01*
X99772489Y-115811206D01*
X99824000Y-115800000D01*
X100876000Y-115800000D01*
X100943039Y-115819685D01*
G37*
%TD.AperFunction*%
%TD*%
%TA.AperFunction,Conductor*%
%TO.N,GND*%
G36*
X127293106Y-106105023D02*
G01*
X127308104Y-106109427D01*
X127323094Y-106119057D01*
X127340175Y-106124067D01*
X127366855Y-106147172D01*
X127368042Y-106148541D01*
X127395518Y-106203402D01*
X127397163Y-106210960D01*
X127400000Y-106237331D01*
X127400000Y-114680233D01*
X127380315Y-114747272D01*
X127377167Y-114750000D01*
X114400000Y-114750000D01*
X114400000Y-114796688D01*
X112740805Y-114795719D01*
X112705874Y-114790676D01*
X112690877Y-114786263D01*
X112632121Y-114748454D01*
X112632107Y-114748438D01*
X112630904Y-114747048D01*
X112603515Y-114692218D01*
X112601873Y-114684646D01*
X112599058Y-114658289D01*
X112601020Y-111830640D01*
X111769983Y-110328108D01*
X111757476Y-110295120D01*
X111754451Y-110281565D01*
X111759061Y-110211851D01*
X111800613Y-110155706D01*
X111802531Y-110154254D01*
X111854708Y-110131199D01*
X111858300Y-110130531D01*
X111880294Y-110128444D01*
X122811069Y-110069997D01*
X122790602Y-106242488D01*
X122795436Y-106207536D01*
X122799761Y-106192509D01*
X122837218Y-106133532D01*
X122838463Y-106132441D01*
X122893480Y-106104632D01*
X122896726Y-106103917D01*
X122901332Y-106102903D01*
X122928004Y-106100000D01*
X127258170Y-106100000D01*
X127293106Y-106105023D01*
G37*
%TD.AperFunction*%
%TD*%
M02*
