#VRML V2.0 utf8
# 3D model generated by easyeda2kicad.py (https://github.com/uPesy/easyeda2kicad.py)

Shape{
    appearance Appearance {
        material  Material 	{
            diffuseColor 0.6470588235294118 0.6196078431372549 0.5882352941176471
            specularColor 0.45098039215686275 0.43529411764705883 0.4117647058823529
            ambientIntensity 0.6242
            transparency 0.0
            shininess 0.5
        }
    }
    geometry IndexedFaceSet {
        ccw TRUE
        solid FALSE
        coord DEF co Coordinate {
            point [
                -0.1938 0.0729 0.0, -0.1565 0.0729 0.0, -0.1565 0.0486 0.0, -0.1938 0.0486 0.0, -0.1938 0.0406 0.0, -0.2009 0.0012 0.0, -0.0101 0.0022 0.0, -0.0902 0.0012 0.0, -0.0474 0.0022 0.0, -0.0867 0.0016 0.0, -0.0773 0.0052 0.0, -0.1938 0.0809 0.0, -0.2009 0.5118 0.0, -0.1494 0.0809 0.0, -0.0665 0.0689 0.0, -0.0747 0.0761 0.0, -0.0638 0.0452 0.0, -0.0636 0.0415 0.0, -0.0985 0.0749 0.0, -0.0608 0.0226 0.0, -0.0474 0.0103 0.0, -0.0665 0.0139 0.0, -0.0697 0.0107 0.0, -0.0655 0.0528 0.0, -0.1271 0.0214 0.0, -0.1333 0.0167 0.0, -0.1333 0.0665 0.0, -0.1565 0.0406 0.0, -0.1565 0.0103 0.0, -0.1938 0.0103 0.0, -0.1938 0.0022 0.0, -0.1494 0.0022 0.0, -0.0576 0.0316 0.0, -0.0565 0.042 0.0, -0.0172 0.0103 0.0, -0.0714 0.0201 0.0, -0.0771 0.0149 0.0, -0.0172 0.0809 0.0, -0.0578 0.0528 0.0, -0.061 0.0611 0.0, -0.1271 0.0618 0.0, -0.1208 0.0679 0.0, -0.1227 0.017 0.0, -0.1134 0.072 0.0, -0.1157 0.0122 0.0, -0.1082 0.0093 0.0, -0.0891 0.0737 0.0, -0.0811 0.0706 0.0, -0.0646 0.0328 0.0, -0.0671 0.0263 0.0, -0.1099 0.0733 0.0, -0.1012 0.0748 0.0, -0.0927 0.0087 0.0, -0.0847 0.0107 0.0, -0.083 0.0803 0.0, -0.0926 0.0826 0.0, -0.0989 0.083 0.0, -0.1104 0.0816 0.0, -0.1175 0.0792 0.0, -0.1261 0.074 0.0, -0.1309 0.0694 0.0, -0.1263 0.0094 0.0, -0.1181 0.0043 0.0, -0.0989 0.0083 0.0, -0.0739 0.0655 0.0, -0.069 0.0598 0.0, -0.1089 0.0012 0.0, -0.1029 0.0003 0.0, -0.2009 -0.5118 0.0, -0.099 0.0002 0.0, -0.0101 0.0809 0.0, 0.5118 0.5118 0.0, 0.5118 0.0012 0.0, 0.5118 -0.5118 0.0, -0.5118 -0.5118 0.0, -0.5118 0.0012 0.0, -0.1092 0.0012 0.0, -0.2904 0.0022 0.0, -0.2827 0.0022 0.0, -0.3497 0.0022 0.0, -0.338 0.0274 0.0, -0.3023 0.0274 0.0, -0.2684 0.0213 0.0, -0.263 0.0132 0.0, -0.2571 0.008 0.0, -0.2512 0.0049 0.0, -0.2365 0.0805 0.0, -0.2488 0.0781 0.0, -0.2416 0.0027 0.0, -0.2324 0.0022 0.0, -0.208 0.0022 0.0, -0.208 0.0809 0.0, -0.2239 0.0809 0.0, -0.2568 0.0741 0.0, -0.32 0.0809 0.0, -0.5118 0.5118 0.0, -0.321 0.0809 0.0, -0.3574 0.0022 0.0, -0.2626 0.0691 0.0, -0.2676 0.062 0.0, -0.2709 0.0538 0.0, -0.2725 0.0442 0.0, -0.2726 0.0406 0.0, -0.2715 0.03 0.0
            ]
        }
        coordIndex [
            0,1,2,-1,3,4,5,-1,6,7,8,-1,8,7,9,-1,8,9,10,-1,2,3,0,-1,0,3,5,-1,0,5,11,-1,11,5,12,-1,11,12,13,-1,14,15,12,-1,16,17,18,-1,19,20,21,-1,21,20,8,-1,21,8,22,-1,22,8,10,-1,16,18,23,-1,24,25,26,-1,27,28,4,-1,4,28,29,-1,4,29,5,-1,5,29,30,-1,5,30,31,-1,19,32,20,-1,20,32,33,-1,20,33,34,-1,18,35,36,-1,34,33,37,-1,37,33,38,-1,37,38,39,-1,26,40,24,-1,24,40,41,-1,24,41,42,-1,42,41,43,-1,42,43,44,-1,44,43,45,-1,18,46,47,-1,17,48,18,-1,18,48,49,-1,18,49,35,-1,50,51,52,-1,52,51,18,-1,52,18,53,-1,53,18,36,-1,15,54,12,-1,12,54,55,-1,12,55,56,-1,56,57,12,-1,12,57,58,-1,12,58,59,-1,59,60,12,-1,12,60,26,-1,12,26,13,-1,13,26,25,-1,13,25,31,-1,31,25,61,-1,31,61,62,-1,50,52,43,-1,43,52,63,-1,43,63,45,-1,47,64,18,-1,18,64,65,-1,18,65,23,-1,66,67,68,-1,68,67,69,-1,68,69,7,-1,39,14,37,-1,37,14,12,-1,37,12,70,-1,70,12,71,-1,70,71,6,-1,6,71,72,-1,6,72,7,-1,7,72,73,-1,7,73,68,-1,74,75,68,-1,68,75,5,-1,68,5,66,-1,66,5,31,-1,66,31,76,-1,76,31,62,-1,77,78,5,-1,79,80,81,-1,82,83,78,-1,78,83,84,-1,78,84,85,-1,86,87,12,-1,85,88,78,-1,78,88,89,-1,78,89,5,-1,89,90,5,-1,5,90,91,-1,5,91,12,-1,12,91,92,-1,12,92,86,-1,87,93,12,-1,12,93,94,-1,12,94,95,-1,95,94,96,-1,95,96,75,-1,75,96,97,-1,75,97,5,-1,5,97,79,-1,5,79,77,-1,77,79,81,-1,93,98,94,-1,94,98,99,-1,94,99,100,-1,100,101,94,-1,94,101,102,-1,94,102,78,-1,78,102,103,-1,78,103,82,-1,
        ]
    }
}
Shape{
    appearance Appearance {
        material  Material 	{
            diffuseColor 0.19607843137254902 0.19607843137254902 0.19607843137254902
            specularColor 0.09803921568627451 0.09803921568627451 0.09803921568627451
            ambientIntensity 0.1961
            transparency 0.0
            shininess 0.5
        }
    }
    geometry IndexedFaceSet {
        ccw TRUE
        solid FALSE
        coord DEF co Coordinate {
            point [
                -0.5394 -0.6772 0.0079, -0.5394 -0.7874 0.0079, -0.7874 -0.7874 0.0079, 0.7874 -0.7874 0.0079, 0.5394 -0.7874 0.0079, 0.5394 -0.6772 0.0079, -0.5177 -0.6397 0.0079, -0.5267 -0.6465 0.0079, -0.5118 -0.5118 0.0079, 0.6397 -0.4665 0.0079, 0.6353 -0.477 0.0079, 0.5118 -0.5118 0.0079, 0.6555 -0.2538 0.0079, 0.6465 -0.2607 0.0079, 0.5118 0.5118 0.0079, 0.5177 -0.6397 0.0079, 0.5073 -0.6353 0.0079, 0.7874 -0.5394 0.0079, 0.6772 -0.5394 0.0079, 0.666 -0.5379 0.0079, 0.5379 -0.666 0.0079, 0.5336 -0.6555 0.0079, 0.5267 -0.6465 0.0079, -0.4576 -0.6465 0.0079, -0.5336 -0.6555 0.0079, -0.5379 -0.666 0.0079, 0.7874 0.7874 0.0079, 0.7874 0.5394 0.0079, 0.6772 0.5394 0.0079, -0.6465 -0.5267 0.0079, -0.6397 -0.5177 0.0079, -0.6353 -0.5073 0.0079, -0.6339 -0.4961 0.0079, -0.6339 -0.4882 0.0079, -0.6353 0.1136 0.0079, -0.6397 0.124 0.0079, -0.5118 0.5118 0.0079, -0.7874 0.5394 0.0079, -0.7874 0.7874 0.0079, -0.6772 0.5394 0.0079, -0.666 0.5379 0.0079, 0.341 -0.666 0.0079, 0.4576 -0.6465 0.0079, 0.4507 -0.6555 0.0079, -0.2801 -0.6353 0.0079, -0.2697 -0.6397 0.0079, -0.2607 -0.6465 0.0079, -0.4665 -0.6397 0.0079, -0.477 -0.6353 0.0079, -0.4882 -0.6339 0.0079, 0.666 0.5379 0.0079, 0.6555 0.5336 0.0079, 0.6465 0.5267 0.0079, 0.6397 0.5177 0.0079, 0.6555 0.3367 0.0079, 0.6465 0.3298 0.0079, 0.666 0.4464 0.0079, 0.6397 0.3209 0.0079, 0.6353 0.3104 0.0079, 0.6465 -0.3298 0.0079, 0.6555 -0.3367 0.0079, 0.6555 -0.4507 0.0079, 0.666 -0.341 0.0079, 0.6465 -0.4576 0.0079, -0.5394 0.7874 0.0079, -0.5394 0.6772 0.0079, -0.5177 0.6397 0.0079, -0.5073 0.6353 0.0079, -0.4576 0.6465 0.0079, -0.3298 0.6465 0.0079, -0.4665 0.6397 0.0079, -0.477 0.6353 0.0079, 0.2992 0.6339 0.0079, 0.3104 0.6353 0.0079, 0.3209 0.6397 0.0079, 0.3298 0.6465 0.0079, 0.3367 0.6555 0.0079, -0.6555 -0.5336 0.0079, -0.6555 -0.3367 0.0079, -0.6465 -0.3298 0.0079, -0.666 -0.4464 0.0079, 0.4449 -0.6772 0.0079, 0.4449 -0.7874 0.0079, 0.3425 -0.7874 0.0079, 0.2697 -0.6397 0.0079, 0.133 -0.6465 0.0079, 0.124 -0.6397 0.0079, -0.3209 -0.6397 0.0079, -0.3298 -0.6465 0.0079, -0.3367 -0.6555 0.0079, -0.4507 -0.6555 0.0079, -0.4464 -0.666 0.0079, -0.4961 -0.6339 0.0079, -0.5073 -0.6353 0.0079, 0.6555 -0.057 0.0079, 0.6465 -0.0639 0.0079, 0.6339 -0.4882 0.0079, 0.6339 -0.4961 0.0079, 0.6353 -0.5073 0.0079, 0.6397 -0.5177 0.0079, 0.6465 -0.5267 0.0079, 0.6555 -0.5336 0.0079, -0.5379 0.666 0.0079, -0.5336 0.6555 0.0079, -0.5267 0.6465 0.0079, -0.4507 0.6555 0.0079, -0.341 0.666 0.0079, -0.3367 0.6555 0.0079, -0.2697 0.6397 0.0079, -0.133 0.6465 0.0079, -0.124 0.6397 0.0079, -0.7874 -0.5394 0.0079, -0.6772 -0.5394 0.0079, -0.666 -0.5379 0.0079, -0.6353 -0.2801 0.0079, -0.6397 -0.2697 0.0079, -0.6465 -0.2607 0.0079, -0.6555 -0.2538 0.0079, -0.6353 0.5073 0.0079, -0.6397 0.5177 0.0079, -0.6465 0.5267 0.0079, -0.6555 0.5336 0.0079, 0.4464 -0.666 0.0079, 0.3425 -0.6772 0.0079, 0.4961 -0.6339 0.0079, 0.4882 -0.6339 0.0079, 0.477 -0.6353 0.0079, -0.1399 -0.6555 0.0079, -0.2495 -0.666 0.0079, -0.133 -0.6465 0.0079, -0.124 -0.6397 0.0079, 0.2607 -0.6465 0.0079, 0.2538 -0.6555 0.0079, 0.1399 -0.6555 0.0079, 0.1442 -0.666 0.0079, -0.2913 -0.6339 0.0079, -0.2992 -0.6339 0.0079, -0.3104 -0.6353 0.0079, 0.6353 0.5073 0.0079, 0.6339 0.4961 0.0079, 0.6339 0.4882 0.0079, 0.7874 0.4449 0.0079, 0.7874 0.3425 0.0079, 0.6772 0.4449 0.0079, 0.6772 0.3425 0.0079, 0.666 0.341 0.0079, 0.6397 -0.2697 0.0079, 0.6353 -0.2801 0.0079, 0.6339 -0.2913 0.0079, 0.6339 -0.2992 0.0079, 0.6353 -0.3104 0.0079, 0.6397 -0.3209 0.0079, -0.4449 0.6772 0.0079, -0.4449 0.7874 0.0079, -0.3425 0.7874 0.0079, 0.2495 0.666 0.0079, 0.2538 0.6555 0.0079, 0.1399 0.6555 0.0079, 0.2607 0.6465 0.0079, 0.133 0.6465 0.0079, -0.2607 0.6465 0.0079, -0.2538 0.6555 0.0079, -0.1399 0.6555 0.0079, -0.1442 0.666 0.0079, 0.2697 0.6397 0.0079, 0.2801 0.6353 0.0079, 0.2913 0.6339 0.0079, -0.6353 -0.477 0.0079, -0.6397 -0.4665 0.0079, -0.6339 0.2992 0.0079, -0.6353 0.3104 0.0079, 0.3298 -0.6465 0.0079, 0.3367 -0.6555 0.0079, 0.4665 -0.6397 0.0079, 0.0639 -0.6465 0.0079, -0.0639 -0.6465 0.0079, 0.0728 -0.6397 0.0079, -0.0728 -0.6397 0.0079, -0.3425 -0.6772 0.0079, -0.3425 -0.7874 0.0079, -0.4449 -0.7874 0.0079, 0.6397 0.2697 0.0079, 0.6465 0.2607 0.0079, 0.6353 0.1136 0.0079, 0.6555 0.2538 0.0079, 0.666 0.2495 0.0079, 0.6555 0.1399 0.0079, 0.6465 0.133 0.0079, 0.6397 0.124 0.0079, 0.6465 0.0639 0.0079, 0.6555 0.057 0.0079, 0.666 0.0527 0.0079, 0.6353 -0.1136 0.0079, 0.6397 -0.124 0.0079, 0.666 -0.2495 0.0079, 0.6465 -0.133 0.0079, 0.6397 -0.0728 0.0079, 0.6353 -0.0833 0.0079, 0.6339 -0.0945 0.0079, -0.4961 0.6339 0.0079, -0.4882 0.6339 0.0079, -0.4464 0.666 0.0079, -0.3425 0.6772 0.0079, 0.057 0.6555 0.0079, 0.0639 0.6465 0.0079, -0.0527 0.666 0.0079, -0.057 0.6555 0.0079, 0.0728 0.6397 0.0079, -0.0728 0.6397 0.0079, -0.0639 0.6465 0.0079, 0.5394 0.7874 0.0079, 0.5394 0.6772 0.0079, 0.5379 0.666 0.0079, -0.6555 0.2538 0.0079, -0.6465 0.2607 0.0079, -0.666 0.1442 0.0079, -0.6339 0.2913 0.0079, -0.6397 0.3209 0.0079, -0.6465 0.3298 0.0079, -0.6555 0.3367 0.0079, -0.6353 0.477 0.0079, -0.6339 0.4882 0.0079, -0.6339 0.4961 0.0079, 0.057 -0.6555 0.0079, 0.0527 -0.666 0.0079, -0.057 -0.6555 0.0079, -0.1457 -0.6772 0.0079, -0.1457 -0.7874 0.0079, -0.248 -0.7874 0.0079, 0.248 -0.6772 0.0079, 0.248 -0.7874 0.0079, 0.1457 -0.7874 0.0079, -0.341 -0.666 0.0079, -0.4449 -0.6772 0.0079, 0.6339 0.1024 0.0079, 0.6339 0.0945 0.0079, 0.6353 0.0833 0.0079, 0.6397 0.0728 0.0079, 0.6339 -0.1024 0.0079, 0.7874 -0.3425 0.0079, 0.7874 -0.4449 0.0079, 0.6772 -0.3425 0.0079, 0.6772 -0.4449 0.0079, 0.666 -0.4464 0.0079, 0.1457 0.6772 0.0079, 0.1457 0.7874 0.0079, 0.248 0.7874 0.0079, -0.248 0.6772 0.0079, -0.248 0.7874 0.0079, -0.1457 0.7874 0.0079, 0.5073 0.6353 0.0079, 0.5177 0.6397 0.0079, 0.5267 0.6465 0.0079, 0.5336 0.6555 0.0079, -0.7874 -0.4449 0.0079, -0.7874 -0.3425 0.0079, -0.6772 -0.4449 0.0079, -0.6772 -0.3425 0.0079, -0.666 -0.341 0.0079, -0.6465 0.133 0.0079, -0.6555 0.1399 0.0079, -0.6353 0.2801 0.0079, -0.6397 0.2697 0.0079, -0.1442 -0.666 0.0079, -0.248 -0.6772 0.0079, 0.2495 -0.666 0.0079, 0.1457 -0.6772 0.0079, 0.7874 0.248 0.0079, 0.7874 0.1457 0.0079, 0.6772 0.248 0.0079, 0.6772 0.1457 0.0079, 0.666 0.1442 0.0079, 0.1442 0.666 0.0079, 0.248 0.6772 0.0079, -0.2495 0.666 0.0079, -0.1457 0.6772 0.0079, 0.341 0.666 0.0079, 0.4507 0.6555 0.0079, 0.4576 0.6465 0.0079, 0.4665 0.6397 0.0079, 0.477 0.6353 0.0079, -0.6353 -0.3104 0.0079, -0.6339 -0.2992 0.0079, -0.6339 -0.2913 0.0079, -0.6339 -0.1024 0.0079, -0.6353 -0.1136 0.0079, -0.6397 -0.124 0.0079, -0.6465 -0.133 0.0079, -0.666 0.4464 0.0079, -0.6555 0.4507 0.0079, -0.6465 0.4576 0.0079, -0.6397 0.4665 0.0079, 0.3209 -0.6397 0.0079, 0.3104 -0.6353 0.0079, 0.2992 -0.6339 0.0079, 0.0512 -0.7874 0.0079, -0.0512 -0.7874 0.0079, 0.0512 -0.6772 0.0079, -0.0512 -0.6772 0.0079, -0.0527 -0.666 0.0079, 0.6353 0.477 0.0079, 0.6397 0.4665 0.0079, 0.6465 0.4576 0.0079, 0.6353 0.2801 0.0079, 0.6339 0.2913 0.0079, 0.7874 -0.1457 0.0079, 0.7874 -0.248 0.0079, 0.6772 -0.1457 0.0079, 0.6772 -0.248 0.0079, 0.666 -0.1442 0.0079, 0.6555 -0.1399 0.0079, -0.3209 0.6397 0.0079, -0.3104 0.6353 0.0079, -0.2992 0.6339 0.0079, 0.3425 0.7874 0.0079, 0.4449 0.7874 0.0079, 0.3425 0.6772 0.0079, 0.4449 0.6772 0.0079, 0.4464 0.666 0.0079, 0.4882 0.6339 0.0079, 0.4961 0.6339 0.0079, -0.6397 -0.3209 0.0079, -0.6555 -0.4507 0.0079, -0.6465 -0.4576 0.0079, -0.666 -0.0527 0.0079, -0.6555 0.057 0.0079, -0.6555 -0.057 0.0079, -0.6465 0.0639 0.0079, -0.6353 0.0833 0.0079, -0.6339 0.0945 0.0079, -0.6339 0.1024 0.0079, -0.0945 -0.6339 0.0079, -0.1024 -0.6339 0.0079, -0.1136 -0.6353 0.0079, -0.2538 -0.6555 0.0079, 0.6339 0.2992 0.0079, 0.6555 0.4507 0.0079, 0.7874 0.0512 0.0079, 0.7874 -0.0512 0.0079, 0.6772 0.0512 0.0079, 0.6772 -0.0512 0.0079, 0.666 -0.0527 0.0079, 0.0945 0.6339 0.0079, 0.1024 0.6339 0.0079, 0.1136 0.6353 0.0079, 0.124 0.6397 0.0079, -0.0512 0.7874 0.0079, 0.0512 0.7874 0.0079, -0.0512 0.6772 0.0079, 0.0512 0.6772 0.0079, 0.0527 0.666 0.0079, -0.7874 -0.248 0.0079, -0.7874 -0.1457 0.0079, -0.6772 -0.248 0.0079, -0.6772 -0.1457 0.0079, -0.666 -0.2495 0.0079, -0.666 -0.1442 0.0079, -0.6555 -0.1399 0.0079, -0.6397 0.0728 0.0079, -0.6465 -0.0639 0.0079, -0.6339 -0.0945 0.0079, -0.6353 -0.0833 0.0079, -0.6397 -0.0728 0.0079, -0.7874 0.1457 0.0079, -0.7874 0.248 0.0079, -0.6772 0.1457 0.0079, -0.6772 0.248 0.0079, -0.666 0.2495 0.0079, 0.1024 -0.6339 0.0079, 0.0945 -0.6339 0.0079, 0.0833 -0.6353 0.0079, -0.0833 -0.6353 0.0079, -0.1024 0.6339 0.0079, -0.0945 0.6339 0.0079, -0.0833 0.6353 0.0079, 0.0833 0.6353 0.0079, -0.6772 0.3425 0.0079, -0.7874 0.3425 0.0079, -0.7874 0.4449 0.0079, 0.2913 -0.6339 0.0079, 0.2801 -0.6353 0.0079, 0.1136 -0.6353 0.0079, -0.2913 0.6339 0.0079, -0.2801 0.6353 0.0079, -0.1136 0.6353 0.0079, -0.666 0.341 0.0079, -0.6772 0.4449 0.0079, -0.7874 -0.0512 0.0079, -0.7874 0.0512 0.0079, -0.6772 -0.0512 0.0079, -0.6772 0.0512 0.0079, -0.666 0.0527 0.0079, 0.7874 -0.7874 0.3819, 0.7874 -0.5394 0.0787, 0.7874 -0.4449 0.0787, 0.7874 0.7874 0.3819, 0.7874 -0.1457 0.0787, 0.7874 -0.0512 0.0787, 0.7874 -0.248 0.0787, 0.7874 -0.3425 0.0787, 0.7874 0.248 0.0787, 0.7874 0.3425 0.0787, 0.7874 0.1457 0.0787, 0.7874 0.0512 0.0787, 0.7874 0.5394 0.0787, 0.7874 0.4449 0.0787, 0.5394 0.7874 0.0787, 0.4449 0.7874 0.0787, -0.7874 0.7874 0.3819, 0.248 0.7874 0.0787, 0.1457 0.7874 0.0787, 0.0512 0.7874 0.0787, 0.3425 0.7874 0.0787, -0.1457 0.7874 0.0787, -0.248 0.7874 0.0787, -0.3425 0.7874 0.0787, -0.0512 0.7874 0.0787, -0.5394 0.7874 0.0787, -0.4449 0.7874 0.0787, -0.7874 0.5394 0.0787, -0.7874 0.4449 0.0787, -0.7874 -0.7874 0.3819, -0.7874 0.1457 0.0787, -0.7874 0.0512 0.0787, -0.7874 0.248 0.0787, -0.7874 0.3425 0.0787, -0.7874 -0.248 0.0787, -0.7874 -0.3425 0.0787, -0.7874 -0.1457 0.0787, -0.7874 -0.0512 0.0787, -0.7874 -0.5394 0.0787, -0.7874 -0.4449 0.0787, -0.5394 -0.7874 0.0787, -0.4449 -0.7874 0.0787, -0.248 -0.7874 0.0787, -0.1457 -0.7874 0.0787, -0.0512 -0.7874 0.0787, -0.3425 -0.7874 0.0787, 0.1457 -0.7874 0.0787, 0.248 -0.7874 0.0787, 0.3425 -0.7874 0.0787, 0.0512 -0.7874 0.0787, 0.5394 -0.7874 0.0787, 0.4449 -0.7874 0.0787, -0.6468 -0.5818 0.3819, -0.6546 -0.6112 0.3819, -0.6468 -0.6406 0.3819, -0.6253 -0.5603 0.3819, -0.5959 -0.5525 0.3819, -0.5665 -0.5603 0.3819, -0.545 -0.5818 0.3819, -0.5372 -0.6112 0.3819, -0.545 -0.6406 0.3819, -0.5665 -0.6621 0.3819, -0.5959 -0.6699 0.3819, -0.6253 -0.6621 0.3819
            ]
        }
        coordIndex [
            0,1,2,-1,3,4,5,-1,6,7,8,-1,9,10,11,-1,12,13,14,-1,15,16,11,-1,17,3,18,-1,18,3,19,-1,5,20,3,-1,3,20,21,-1,3,21,11,-1,11,21,22,-1,11,22,15,-1,8,11,23,-1,7,24,2,-1,2,24,25,-1,2,25,0,-1,26,27,28,-1,8,29,30,-1,30,31,8,-1,8,31,32,-1,8,32,33,-1,34,35,36,-1,37,38,39,-1,39,38,40,-1,41,42,43,-1,44,11,45,-1,45,11,46,-1,23,47,8,-1,8,47,48,-1,8,48,49,-1,28,50,26,-1,26,50,51,-1,26,51,14,-1,14,51,52,-1,14,52,53,-1,54,55,56,-1,56,55,57,-1,56,57,58,-1,59,60,61,-1,61,60,62,-1,9,11,63,-1,63,11,14,-1,63,14,61,-1,38,64,65,-1,66,67,36,-1,68,69,70,-1,70,69,36,-1,70,36,71,-1,72,73,14,-1,73,74,14,-1,14,74,75,-1,14,75,76,-1,7,2,8,-1,8,2,77,-1,8,77,29,-1,78,79,80,-1,81,82,83,-1,84,85,86,-1,87,88,23,-1,23,88,89,-1,23,89,90,-1,90,89,91,-1,49,92,8,-1,8,92,93,-1,8,93,6,-1,14,94,95,-1,10,96,11,-1,11,96,97,-1,11,97,98,-1,98,99,11,-1,11,99,100,-1,11,100,3,-1,3,100,101,-1,3,101,19,-1,65,102,38,-1,38,102,103,-1,38,103,36,-1,36,103,104,-1,36,104,66,-1,105,106,68,-1,68,106,107,-1,68,107,69,-1,108,109,110,-1,111,112,2,-1,2,112,113,-1,2,113,77,-1,114,115,36,-1,36,115,116,-1,36,116,117,-1,118,119,36,-1,36,119,120,-1,36,120,38,-1,38,120,121,-1,38,121,40,-1,43,122,41,-1,41,122,81,-1,41,81,123,-1,123,81,83,-1,16,124,11,-1,11,124,125,-1,11,125,126,-1,127,128,129,-1,129,128,130,-1,84,131,85,-1,85,131,132,-1,85,132,133,-1,133,132,134,-1,44,135,11,-1,11,135,136,-1,11,136,23,-1,23,136,137,-1,23,137,87,-1,53,138,14,-1,14,138,139,-1,14,139,140,-1,141,142,143,-1,143,142,144,-1,143,144,56,-1,56,144,145,-1,56,145,54,-1,13,146,14,-1,14,146,147,-1,14,147,148,-1,148,149,14,-1,14,149,150,-1,14,150,61,-1,61,150,151,-1,61,151,59,-1,152,153,154,-1,155,156,157,-1,157,156,158,-1,157,158,159,-1,108,160,109,-1,109,160,161,-1,109,161,162,-1,162,161,163,-1,158,164,36,-1,36,164,165,-1,36,165,14,-1,14,165,166,-1,14,166,72,-1,33,167,8,-1,8,167,168,-1,8,168,36,-1,169,170,36,-1,171,11,172,-1,172,11,126,-1,172,126,41,-1,41,126,173,-1,41,173,42,-1,174,175,176,-1,176,175,177,-1,178,179,180,-1,181,182,183,-1,183,182,184,-1,183,184,185,-1,186,187,185,-1,185,187,188,-1,185,188,183,-1,189,190,94,-1,94,190,191,-1,192,193,194,-1,194,193,195,-1,95,196,14,-1,14,196,197,-1,14,197,198,-1,67,199,36,-1,36,199,200,-1,36,200,71,-1,105,201,106,-1,106,201,152,-1,106,152,202,-1,202,152,154,-1,203,204,205,-1,205,204,206,-1,207,208,204,-1,204,208,209,-1,204,209,206,-1,210,26,211,-1,211,26,212,-1,213,214,215,-1,169,36,216,-1,170,217,36,-1,36,217,218,-1,36,218,219,-1,220,221,36,-1,36,221,222,-1,36,222,118,-1,174,223,175,-1,175,223,224,-1,175,224,225,-1,226,227,228,-1,229,230,231,-1,89,232,91,-1,91,232,178,-1,91,178,233,-1,233,178,180,-1,14,183,234,-1,234,235,14,-1,14,235,236,-1,14,236,94,-1,94,236,237,-1,94,237,189,-1,198,238,14,-1,14,238,192,-1,14,192,12,-1,12,192,194,-1,239,240,241,-1,241,240,242,-1,241,242,62,-1,62,242,243,-1,62,243,61,-1,244,245,246,-1,247,248,249,-1,250,251,14,-1,14,251,252,-1,14,252,26,-1,26,252,253,-1,26,253,212,-1,254,255,256,-1,256,255,257,-1,256,257,80,-1,80,257,258,-1,80,258,78,-1,259,260,261,-1,261,260,215,-1,261,215,262,-1,262,215,214,-1,127,263,128,-1,128,263,226,-1,128,226,264,-1,264,226,228,-1,132,265,134,-1,134,265,229,-1,134,229,266,-1,266,229,231,-1,267,268,269,-1,269,268,270,-1,269,270,185,-1,185,270,271,-1,185,271,186,-1,157,272,155,-1,155,272,244,-1,155,244,273,-1,273,244,246,-1,161,274,163,-1,163,274,247,-1,163,247,275,-1,275,247,249,-1,276,277,76,-1,76,277,278,-1,76,278,14,-1,14,278,279,-1,14,279,280,-1,281,282,36,-1,36,282,283,-1,36,283,114,-1,284,36,285,-1,285,36,117,-1,285,117,286,-1,286,117,287,-1,216,36,261,-1,261,36,35,-1,261,35,259,-1,288,289,219,-1,219,289,290,-1,219,290,36,-1,36,290,291,-1,36,291,220,-1,171,292,11,-1,11,292,293,-1,11,293,294,-1,295,296,297,-1,297,296,298,-1,297,298,224,-1,224,298,299,-1,224,299,225,-1,140,300,14,-1,14,300,301,-1,14,301,302,-1,181,183,303,-1,303,183,14,-1,303,14,304,-1,305,306,307,-1,307,306,308,-1,307,308,309,-1,309,308,194,-1,309,194,310,-1,310,194,195,-1,69,311,36,-1,36,311,312,-1,36,312,313,-1,314,315,316,-1,316,315,317,-1,316,317,276,-1,276,317,318,-1,276,318,277,-1,280,319,14,-1,14,319,320,-1,14,320,250,-1,79,321,80,-1,80,321,281,-1,80,281,322,-1,322,281,36,-1,322,36,323,-1,323,36,168,-1,324,325,326,-1,326,325,327,-1,328,329,36,-1,36,329,330,-1,36,330,34,-1,331,332,11,-1,11,332,333,-1,11,333,46,-1,46,333,130,-1,46,130,334,-1,334,130,128,-1,304,14,335,-1,335,14,302,-1,335,302,58,-1,58,302,336,-1,58,336,56,-1,337,338,339,-1,339,338,340,-1,339,340,191,-1,191,340,341,-1,191,341,94,-1,342,343,36,-1,36,343,344,-1,36,344,158,-1,158,344,345,-1,158,345,159,-1,346,347,348,-1,348,347,349,-1,348,349,205,-1,205,349,350,-1,205,350,203,-1,351,352,353,-1,353,352,354,-1,353,354,355,-1,355,354,356,-1,355,356,117,-1,117,356,357,-1,117,357,287,-1,327,358,326,-1,326,358,328,-1,326,328,359,-1,284,360,36,-1,36,360,361,-1,36,361,328,-1,328,361,362,-1,328,362,359,-1,363,364,365,-1,365,364,366,-1,365,366,215,-1,215,366,367,-1,215,367,213,-1,368,369,11,-1,11,369,370,-1,11,370,331,-1,331,370,176,-1,331,176,371,-1,371,176,177,-1,372,373,36,-1,36,373,374,-1,36,374,342,-1,342,374,208,-1,342,208,375,-1,375,208,207,-1,376,377,378,-1,294,379,11,-1,11,379,380,-1,11,380,368,-1,368,380,84,-1,368,84,381,-1,381,84,86,-1,313,382,36,-1,36,382,383,-1,36,383,372,-1,372,383,108,-1,372,108,384,-1,384,108,110,-1,219,385,288,-1,288,385,376,-1,288,376,386,-1,386,376,378,-1,387,388,389,-1,389,388,390,-1,389,390,324,-1,324,390,391,-1,324,391,325,-1,392,3,17,-1,17,393,392,-1,392,393,394,-1,392,394,395,-1,396,397,395,-1,398,306,305,-1,305,396,398,-1,398,396,395,-1,398,395,399,-1,399,395,394,-1,399,394,239,-1,239,394,240,-1,400,401,395,-1,402,268,267,-1,267,400,402,-1,402,400,395,-1,402,395,403,-1,403,395,397,-1,403,397,337,-1,337,397,338,-1,27,26,404,-1,404,26,395,-1,404,395,405,-1,405,395,401,-1,405,401,141,-1,141,401,142,-1,395,26,210,-1,210,406,395,-1,395,406,407,-1,395,407,408,-1,409,246,245,-1,410,411,408,-1,245,410,409,-1,409,410,408,-1,409,408,412,-1,412,408,407,-1,412,407,314,-1,314,407,315,-1,413,249,248,-1,414,415,408,-1,248,414,413,-1,413,414,408,-1,413,408,416,-1,416,408,411,-1,416,411,346,-1,346,411,347,-1,64,38,417,-1,417,38,408,-1,417,408,418,-1,418,408,415,-1,418,415,153,-1,153,415,154,-1,408,38,37,-1,37,419,408,-1,408,419,420,-1,408,420,421,-1,422,423,421,-1,424,364,363,-1,363,422,424,-1,424,422,421,-1,424,421,425,-1,425,421,420,-1,425,420,377,-1,377,420,378,-1,426,427,421,-1,428,352,351,-1,351,426,428,-1,428,426,421,-1,428,421,429,-1,429,421,423,-1,429,423,387,-1,387,423,388,-1,111,2,430,-1,430,2,421,-1,430,421,431,-1,431,421,427,-1,431,427,254,-1,254,427,255,-1,421,2,1,-1,1,432,421,-1,421,432,433,-1,421,433,392,-1,434,228,227,-1,435,436,392,-1,227,435,434,-1,434,435,392,-1,434,392,437,-1,437,392,433,-1,437,433,179,-1,179,433,180,-1,438,231,230,-1,439,440,392,-1,230,439,438,-1,438,439,392,-1,438,392,441,-1,441,392,436,-1,441,436,295,-1,295,436,296,-1,4,3,442,-1,442,3,392,-1,442,392,443,-1,443,392,440,-1,443,440,82,-1,82,440,83,-1,444,408,445,-1,445,408,421,-1,445,421,446,-1,444,447,408,-1,408,447,448,-1,408,448,395,-1,448,449,395,-1,395,449,450,-1,395,450,392,-1,392,450,451,-1,392,451,452,-1,452,453,392,-1,392,453,454,-1,392,454,421,-1,421,454,455,-1,421,455,446,-1,
        ]
    }
}
Shape{
    appearance Appearance {
        material  Material 	{
            diffuseColor 0.7529411764705882 0.7529411764705882 0.7529411764705882
            specularColor 0.3764705882352941 0.3764705882352941 0.3764705882352941
            ambientIntensity 0.7529
            transparency 0.0
            shininess 0.5
        }
    }
    geometry IndexedFaceSet {
        ccw TRUE
        solid FALSE
        coord DEF co Coordinate {
            point [
                -0.5372 -0.6112 0.374, -0.5372 -0.6112 0.3819, -0.545 -0.5818 0.374, -0.545 -0.5818 0.3819, -0.5665 -0.5603 0.374, -0.5665 -0.5603 0.3819, -0.5959 -0.5525 0.374, -0.5959 -0.5525 0.3819, -0.6253 -0.5603 0.374, -0.6253 -0.5603 0.3819, -0.6468 -0.5818 0.374, -0.6468 -0.5818 0.3819, -0.6546 -0.6112 0.374, -0.6546 -0.6112 0.3819, -0.6468 -0.6406 0.374, -0.6468 -0.6406 0.3819, -0.6253 -0.6621 0.374, -0.6253 -0.6621 0.3819, -0.5959 -0.6699 0.374, -0.5959 -0.6699 0.3819, -0.5665 -0.6621 0.374, -0.5665 -0.6621 0.3819, -0.545 -0.6406 0.374, -0.545 -0.6406 0.3819, -0.5959 -0.6112 0.374
            ]
        }
        coordIndex [
            0,1,2,-1,2,1,3,-1,2,3,4,-1,4,3,5,-1,4,5,6,-1,6,5,7,-1,6,7,8,-1,8,7,9,-1,8,9,10,-1,10,9,11,-1,10,11,12,-1,12,11,13,-1,12,13,14,-1,14,13,15,-1,14,15,16,-1,16,15,17,-1,16,17,18,-1,18,17,19,-1,18,19,20,-1,20,19,21,-1,20,21,22,-1,22,21,23,-1,22,23,0,-1,0,23,1,-1,20,22,24,-1,24,22,0,-1,24,0,2,-1,14,16,24,-1,24,16,18,-1,24,18,20,-1,8,10,24,-1,24,10,12,-1,24,12,14,-1,2,4,24,-1,24,4,6,-1,24,6,8,-1,
        ]
    }
}
Shape{
    appearance Appearance {
        material  Material 	{
            diffuseColor 0.6470588235294118 0.6196078431372549 0.5882352941176471
            specularColor 0.45098039215686275 0.43529411764705883 0.4117647058823529
            ambientIntensity 0.6242
            transparency 0.0
            shininess 0.5
        }
    }
    geometry IndexedFaceSet {
        ccw TRUE
        solid FALSE
        coord DEF co Coordinate {
            point [
                0.5394 0.7874 0.0787, 0.5394 0.7913 0.0787, 0.4449 0.7874 0.0787, 0.4449 0.7913 0.0787, 0.5394 0.6772 0.0079, 0.5394 0.6772 0.0, 0.5394 0.7874 0.0079, 0.5394 0.7913 0.0, 0.4449 0.7874 0.0079, 0.4449 0.7913 0.0, 0.4449 0.6772 0.0079, 0.4449 0.6772 0.0, 0.4507 0.6555 0.0, 0.4507 0.6555 0.0079, 0.4665 0.6397 0.0, 0.4665 0.6397 0.0079, 0.4882 0.6339 0.0, 0.4882 0.6339 0.0079, 0.4961 0.6339 0.0, 0.4961 0.6339 0.0079, 0.5177 0.6397 0.0, 0.5177 0.6397 0.0079, 0.5336 0.6555 0.0, 0.5336 0.6555 0.0079, 0.3425 0.7874 0.0787, 0.3425 0.7913 0.0787, 0.248 0.7874 0.0787, 0.248 0.7913 0.0787, 0.248 0.7874 0.0079, 0.248 0.7913 0.0, 0.248 0.6772 0.0079, 0.248 0.6772 0.0, 0.2538 0.6555 0.0, 0.2538 0.6555 0.0079, 0.2697 0.6397 0.0, 0.2697 0.6397 0.0079, 0.2913 0.6339 0.0, 0.2913 0.6339 0.0079, 0.2992 0.6339 0.0, 0.2992 0.6339 0.0079, 0.3209 0.6397 0.0, 0.3209 0.6397 0.0079, 0.3367 0.6555 0.0, 0.3367 0.6555 0.0079, 0.3425 0.6772 0.0, 0.3425 0.6772 0.0079, 0.3425 0.7874 0.0079, 0.3425 0.7913 0.0, 0.1457 0.7874 0.0787, 0.1457 0.7913 0.0787, 0.0512 0.7874 0.0787, 0.0512 0.7913 0.0787, 0.0512 0.7874 0.0079, 0.0512 0.7913 0.0, 0.0512 0.6772 0.0079, 0.0512 0.6772 0.0, 0.057 0.6555 0.0, 0.057 0.6555 0.0079, 0.0728 0.6397 0.0, 0.0728 0.6397 0.0079, 0.0945 0.6339 0.0, 0.0945 0.6339 0.0079, 0.1024 0.6339 0.0, 0.1024 0.6339 0.0079, 0.124 0.6397 0.0, 0.124 0.6397 0.0079, 0.1399 0.6555 0.0, 0.1399 0.6555 0.0079, 0.1457 0.6772 0.0, 0.1457 0.6772 0.0079, 0.1457 0.7874 0.0079, 0.1457 0.7913 0.0, -0.0512 0.7874 0.0787, -0.0512 0.7913 0.0787, -0.1457 0.7874 0.0787, -0.1457 0.7913 0.0787, -0.1457 0.7874 0.0079, -0.1457 0.7913 0.0, -0.1457 0.6772 0.0079, -0.1457 0.6772 0.0, -0.1399 0.6555 0.0, -0.1399 0.6555 0.0079, -0.124 0.6397 0.0, -0.124 0.6397 0.0079, -0.1024 0.6339 0.0, -0.1024 0.6339 0.0079, -0.0945 0.6339 0.0, -0.0945 0.6339 0.0079, -0.0728 0.6397 0.0, -0.0728 0.6397 0.0079, -0.057 0.6555 0.0, -0.057 0.6555 0.0079, -0.0512 0.6772 0.0, -0.0512 0.6772 0.0079, -0.0512 0.7874 0.0079, -0.0512 0.7913 0.0, -0.248 0.7874 0.0787, -0.248 0.7913 0.0787, -0.3425 0.7874 0.0787, -0.3425 0.7913 0.0787, -0.3425 0.7874 0.0079, -0.3425 0.7913 0.0, -0.3425 0.6772 0.0079, -0.3425 0.6772 0.0, -0.3367 0.6555 0.0, -0.3367 0.6555 0.0079, -0.3209 0.6397 0.0, -0.3209 0.6397 0.0079, -0.2992 0.6339 0.0, -0.2992 0.6339 0.0079, -0.2913 0.6339 0.0, -0.2913 0.6339 0.0079, -0.2697 0.6397 0.0, -0.2697 0.6397 0.0079, -0.2538 0.6555 0.0, -0.2538 0.6555 0.0079, -0.248 0.6772 0.0, -0.248 0.6772 0.0079, -0.248 0.7874 0.0079, -0.248 0.7913 0.0, -0.4449 0.7874 0.0787, -0.4449 0.7913 0.0787, -0.5394 0.7874 0.0787, -0.5394 0.7913 0.0787, -0.5394 0.7874 0.0079, -0.5394 0.7913 0.0, -0.5394 0.6772 0.0079, -0.5394 0.6772 0.0, -0.5336 0.6555 0.0, -0.5336 0.6555 0.0079, -0.5177 0.6397 0.0, -0.5177 0.6397 0.0079, -0.4961 0.6339 0.0, -0.4961 0.6339 0.0079, -0.4882 0.6339 0.0, -0.4882 0.6339 0.0079, -0.4665 0.6397 0.0, -0.4665 0.6397 0.0079, -0.4507 0.6555 0.0, -0.4507 0.6555 0.0079, -0.4449 0.6772 0.0, -0.4449 0.6772 0.0079, -0.4449 0.7874 0.0079, -0.4449 0.7913 0.0, -0.7874 0.5394 0.0787, -0.7913 0.5394 0.0787, -0.7874 0.4449 0.0787, -0.7913 0.4449 0.0787, -0.6772 0.5394 0.0079, -0.6772 0.5394 0.0, -0.7874 0.5394 0.0079, -0.7913 0.5394 0.0, -0.7874 0.4449 0.0079, -0.7913 0.4449 0.0, -0.6772 0.4449 0.0079, -0.6772 0.4449 0.0, -0.666 0.4464 0.0, -0.666 0.4464 0.0079, -0.6555 0.4507 0.0, -0.6555 0.4507 0.0079, -0.6465 0.4576 0.0, -0.6465 0.4576 0.0079, -0.6397 0.4665 0.0, -0.6397 0.4665 0.0079, -0.6353 0.477 0.0, -0.6353 0.477 0.0079, -0.6339 0.4882 0.0, -0.6339 0.4882 0.0079, -0.6339 0.4961 0.0, -0.6339 0.4961 0.0079, -0.6353 0.5073 0.0, -0.6353 0.5073 0.0079, -0.6397 0.5177 0.0, -0.6397 0.5177 0.0079, -0.6465 0.5267 0.0, -0.6465 0.5267 0.0079, -0.6555 0.5336 0.0, -0.6555 0.5336 0.0079, -0.666 0.5379 0.0, -0.666 0.5379 0.0079, -0.7874 0.3425 0.0787, -0.7913 0.3425 0.0787, -0.7874 0.248 0.0787, -0.7913 0.248 0.0787, -0.7874 0.248 0.0079, -0.7913 0.248 0.0, -0.6772 0.248 0.0079, -0.6772 0.248 0.0, -0.666 0.2495 0.0, -0.666 0.2495 0.0079, -0.6555 0.2538 0.0, -0.6555 0.2538 0.0079, -0.6465 0.2607 0.0, -0.6465 0.2607 0.0079, -0.6397 0.2697 0.0, -0.6397 0.2697 0.0079, -0.6353 0.2801 0.0, -0.6353 0.2801 0.0079, -0.6339 0.2913 0.0, -0.6339 0.2913 0.0079, -0.6339 0.2992 0.0, -0.6339 0.2992 0.0079, -0.6353 0.3104 0.0, -0.6353 0.3104 0.0079, -0.6397 0.3209 0.0, -0.6397 0.3209 0.0079, -0.6465 0.3298 0.0, -0.6465 0.3298 0.0079, -0.6555 0.3367 0.0, -0.6555 0.3367 0.0079, -0.666 0.341 0.0, -0.666 0.341 0.0079, -0.6772 0.3425 0.0, -0.6772 0.3425 0.0079, -0.7874 0.3425 0.0079, -0.7913 0.3425 0.0, -0.7874 0.1457 0.0787, -0.7913 0.1457 0.0787, -0.7874 0.0512 0.0787, -0.7913 0.0512 0.0787, -0.7874 0.0512 0.0079, -0.7913 0.0512 0.0, -0.6772 0.0512 0.0079, -0.6772 0.0512 0.0, -0.666 0.0527 0.0, -0.666 0.0527 0.0079, -0.6555 0.057 0.0, -0.6555 0.057 0.0079, -0.6465 0.0639 0.0, -0.6465 0.0639 0.0079, -0.6397 0.0728 0.0, -0.6397 0.0728 0.0079, -0.6353 0.0833 0.0, -0.6353 0.0833 0.0079, -0.6339 0.0945 0.0, -0.6339 0.0945 0.0079, -0.6339 0.1024 0.0, -0.6339 0.1024 0.0079, -0.6353 0.1136 0.0, -0.6353 0.1136 0.0079, -0.6397 0.124 0.0, -0.6397 0.124 0.0079, -0.6465 0.133 0.0, -0.6465 0.133 0.0079, -0.6555 0.1399 0.0, -0.6555 0.1399 0.0079, -0.666 0.1442 0.0, -0.666 0.1442 0.0079, -0.6772 0.1457 0.0, -0.6772 0.1457 0.0079, -0.7874 0.1457 0.0079, -0.7913 0.1457 0.0, -0.7874 -0.0512 0.0787, -0.7913 -0.0512 0.0787, -0.7874 -0.1457 0.0787, -0.7913 -0.1457 0.0787, -0.7874 -0.1457 0.0079, -0.7913 -0.1457 0.0, -0.6772 -0.1457 0.0079, -0.6772 -0.1457 0.0, -0.666 -0.1442 0.0, -0.666 -0.1442 0.0079, -0.6555 -0.1399 0.0, -0.6555 -0.1399 0.0079, -0.6465 -0.133 0.0, -0.6465 -0.133 0.0079, -0.6397 -0.124 0.0, -0.6397 -0.124 0.0079, -0.6353 -0.1136 0.0, -0.6353 -0.1136 0.0079, -0.6339 -0.1024 0.0, -0.6339 -0.1024 0.0079, -0.6339 -0.0945 0.0, -0.6339 -0.0945 0.0079, -0.6353 -0.0833 0.0, -0.6353 -0.0833 0.0079, -0.6397 -0.0728 0.0, -0.6397 -0.0728 0.0079, -0.6465 -0.0639 0.0, -0.6465 -0.0639 0.0079, -0.6555 -0.057 0.0, -0.6555 -0.057 0.0079, -0.666 -0.0527 0.0, -0.666 -0.0527 0.0079, -0.6772 -0.0512 0.0, -0.6772 -0.0512 0.0079, -0.7874 -0.0512 0.0079, -0.7913 -0.0512 0.0, -0.7874 -0.248 0.0787, -0.7913 -0.248 0.0787, -0.7874 -0.3425 0.0787, -0.7913 -0.3425 0.0787, -0.7874 -0.3425 0.0079, -0.7913 -0.3425 0.0, -0.6772 -0.3425 0.0079, -0.6772 -0.3425 0.0, -0.666 -0.341 0.0, -0.666 -0.341 0.0079, -0.6555 -0.3367 0.0, -0.6555 -0.3367 0.0079, -0.6465 -0.3298 0.0, -0.6465 -0.3298 0.0079, -0.6397 -0.3209 0.0, -0.6397 -0.3209 0.0079, -0.6353 -0.3104 0.0, -0.6353 -0.3104 0.0079, -0.6339 -0.2992 0.0, -0.6339 -0.2992 0.0079, -0.6339 -0.2913 0.0, -0.6339 -0.2913 0.0079, -0.6353 -0.2801 0.0, -0.6353 -0.2801 0.0079, -0.6397 -0.2697 0.0, -0.6397 -0.2697 0.0079, -0.6465 -0.2607 0.0, -0.6465 -0.2607 0.0079, -0.6555 -0.2538 0.0, -0.6555 -0.2538 0.0079, -0.666 -0.2495 0.0, -0.666 -0.2495 0.0079, -0.6772 -0.248 0.0, -0.6772 -0.248 0.0079, -0.7874 -0.248 0.0079, -0.7913 -0.248 0.0, -0.7874 -0.4449 0.0787, -0.7913 -0.4449 0.0787, -0.7874 -0.5394 0.0787, -0.7913 -0.5394 0.0787, -0.7874 -0.5394 0.0079, -0.7913 -0.5394 0.0, -0.6772 -0.5394 0.0079, -0.6772 -0.5394 0.0, -0.666 -0.5379 0.0, -0.666 -0.5379 0.0079, -0.6555 -0.5336 0.0, -0.6555 -0.5336 0.0079, -0.6465 -0.5267 0.0, -0.6465 -0.5267 0.0079, -0.6397 -0.5177 0.0, -0.6397 -0.5177 0.0079, -0.6353 -0.5073 0.0, -0.6353 -0.5073 0.0079, -0.6339 -0.4961 0.0, -0.6339 -0.4961 0.0079, -0.6339 -0.4882 0.0, -0.6339 -0.4882 0.0079, -0.6353 -0.477 0.0, -0.6353 -0.477 0.0079, -0.6397 -0.4665 0.0, -0.6397 -0.4665 0.0079, -0.6465 -0.4576 0.0, -0.6465 -0.4576 0.0079, -0.6555 -0.4507 0.0, -0.6555 -0.4507 0.0079, -0.666 -0.4464 0.0, -0.666 -0.4464 0.0079, -0.6772 -0.4449 0.0, -0.6772 -0.4449 0.0079, -0.7874 -0.4449 0.0079, -0.7913 -0.4449 0.0, -0.5394 -0.7874 0.0787, -0.5394 -0.7913 0.0787, -0.4449 -0.7874 0.0787, -0.4449 -0.7913 0.0787, -0.5394 -0.6772 0.0079, -0.5394 -0.6772 0.0, -0.5394 -0.7874 0.0079, -0.5394 -0.7913 0.0, -0.4449 -0.7874 0.0079, -0.4449 -0.7913 0.0, -0.4449 -0.6772 0.0079, -0.4449 -0.6772 0.0, -0.4464 -0.666 0.0, -0.4464 -0.666 0.0079, -0.4507 -0.6555 0.0, -0.4507 -0.6555 0.0079, -0.4576 -0.6465 0.0, -0.4576 -0.6465 0.0079, -0.4665 -0.6397 0.0, -0.4665 -0.6397 0.0079, -0.477 -0.6353 0.0, -0.477 -0.6353 0.0079, -0.4882 -0.6339 0.0, -0.4882 -0.6339 0.0079, -0.4961 -0.6339 0.0, -0.4961 -0.6339 0.0079, -0.5073 -0.6353 0.0, -0.5073 -0.6353 0.0079, -0.5177 -0.6397 0.0, -0.5177 -0.6397 0.0079, -0.5267 -0.6465 0.0, -0.5267 -0.6465 0.0079, -0.5336 -0.6555 0.0, -0.5336 -0.6555 0.0079, -0.5379 -0.666 0.0, -0.5379 -0.666 0.0079, -0.3425 -0.7874 0.0787, -0.3425 -0.7913 0.0787, -0.248 -0.7874 0.0787, -0.248 -0.7913 0.0787, -0.248 -0.7874 0.0079, -0.248 -0.7913 0.0, -0.248 -0.6772 0.0079, -0.248 -0.6772 0.0, -0.2495 -0.666 0.0, -0.2495 -0.666 0.0079, -0.2538 -0.6555 0.0, -0.2538 -0.6555 0.0079, -0.2607 -0.6465 0.0, -0.2607 -0.6465 0.0079, -0.2697 -0.6397 0.0, -0.2697 -0.6397 0.0079, -0.2801 -0.6353 0.0, -0.2801 -0.6353 0.0079, -0.2913 -0.6339 0.0, -0.2913 -0.6339 0.0079, -0.2992 -0.6339 0.0, -0.2992 -0.6339 0.0079, -0.3104 -0.6353 0.0, -0.3104 -0.6353 0.0079, -0.3209 -0.6397 0.0, -0.3209 -0.6397 0.0079, -0.3298 -0.6465 0.0, -0.3298 -0.6465 0.0079, -0.3367 -0.6555 0.0, -0.3367 -0.6555 0.0079, -0.341 -0.666 0.0, -0.341 -0.666 0.0079, -0.3425 -0.6772 0.0, -0.3425 -0.6772 0.0079, -0.3425 -0.7874 0.0079, -0.3425 -0.7913 0.0, -0.1457 -0.7874 0.0787, -0.1457 -0.7913 0.0787, -0.0512 -0.7874 0.0787, -0.0512 -0.7913 0.0787, -0.0512 -0.7874 0.0079, -0.0512 -0.7913 0.0, -0.0512 -0.6772 0.0079, -0.0512 -0.6772 0.0, -0.0527 -0.666 0.0, -0.0527 -0.666 0.0079, -0.057 -0.6555 0.0, -0.057 -0.6555 0.0079, -0.0639 -0.6465 0.0, -0.0639 -0.6465 0.0079, -0.0728 -0.6397 0.0, -0.0728 -0.6397 0.0079, -0.0833 -0.6353 0.0, -0.0833 -0.6353 0.0079, -0.0945 -0.6339 0.0, -0.0945 -0.6339 0.0079, -0.1024 -0.6339 0.0, -0.1024 -0.6339 0.0079, -0.1136 -0.6353 0.0, -0.1136 -0.6353 0.0079, -0.124 -0.6397 0.0, -0.124 -0.6397 0.0079, -0.133 -0.6465 0.0, -0.133 -0.6465 0.0079, -0.1399 -0.6555 0.0, -0.1399 -0.6555 0.0079, -0.1442 -0.666 0.0, -0.1442 -0.666 0.0079, -0.1457 -0.6772 0.0, -0.1457 -0.6772 0.0079, -0.1457 -0.7874 0.0079, -0.1457 -0.7913 0.0, 0.0512 -0.7874 0.0787, 0.0512 -0.7913 0.0787, 0.1457 -0.7874 0.0787, 0.1457 -0.7913 0.0787, 0.1457 -0.7874 0.0079, 0.1457 -0.7913 0.0, 0.1457 -0.6772 0.0079, 0.1457 -0.6772 0.0, 0.1442 -0.666 0.0, 0.1442 -0.666 0.0079, 0.1399 -0.6555 0.0, 0.1399 -0.6555 0.0079, 0.133 -0.6465 0.0, 0.133 -0.6465 0.0079, 0.124 -0.6397 0.0, 0.124 -0.6397 0.0079, 0.1136 -0.6353 0.0, 0.1136 -0.6353 0.0079, 0.1024 -0.6339 0.0, 0.1024 -0.6339 0.0079, 0.0945 -0.6339 0.0, 0.0945 -0.6339 0.0079, 0.0833 -0.6353 0.0, 0.0833 -0.6353 0.0079, 0.0728 -0.6397 0.0, 0.0728 -0.6397 0.0079, 0.0639 -0.6465 0.0, 0.0639 -0.6465 0.0079, 0.057 -0.6555 0.0, 0.057 -0.6555 0.0079, 0.0527 -0.666 0.0, 0.0527 -0.666 0.0079, 0.0512 -0.6772 0.0, 0.0512 -0.6772 0.0079, 0.0512 -0.7874 0.0079, 0.0512 -0.7913 0.0, 0.248 -0.7874 0.0787, 0.248 -0.7913 0.0787, 0.3425 -0.7874 0.0787, 0.3425 -0.7913 0.0787, 0.3425 -0.7874 0.0079, 0.3425 -0.7913 0.0, 0.3425 -0.6772 0.0079, 0.3425 -0.6772 0.0, 0.341 -0.666 0.0, 0.341 -0.666 0.0079, 0.3367 -0.6555 0.0, 0.3367 -0.6555 0.0079, 0.3298 -0.6465 0.0, 0.3298 -0.6465 0.0079, 0.3209 -0.6397 0.0, 0.3209 -0.6397 0.0079, 0.3104 -0.6353 0.0, 0.3104 -0.6353 0.0079, 0.2992 -0.6339 0.0, 0.2992 -0.6339 0.0079, 0.2913 -0.6339 0.0, 0.2913 -0.6339 0.0079, 0.2801 -0.6353 0.0, 0.2801 -0.6353 0.0079, 0.2697 -0.6397 0.0, 0.2697 -0.6397 0.0079, 0.2607 -0.6465 0.0, 0.2607 -0.6465 0.0079, 0.2538 -0.6555 0.0, 0.2538 -0.6555 0.0079, 0.2495 -0.666 0.0, 0.2495 -0.666 0.0079, 0.248 -0.6772 0.0, 0.248 -0.6772 0.0079, 0.248 -0.7874 0.0079, 0.248 -0.7913 0.0, 0.4449 -0.7874 0.0787, 0.4449 -0.7913 0.0787, 0.5394 -0.7874 0.0787, 0.5394 -0.7913 0.0787, 0.5394 -0.7874 0.0079, 0.5394 -0.7913 0.0, 0.5394 -0.6772 0.0079, 0.5394 -0.6772 0.0, 0.5379 -0.666 0.0, 0.5379 -0.666 0.0079, 0.5336 -0.6555 0.0, 0.5336 -0.6555 0.0079, 0.5267 -0.6465 0.0, 0.5267 -0.6465 0.0079, 0.5177 -0.6397 0.0, 0.5177 -0.6397 0.0079, 0.5073 -0.6353 0.0, 0.5073 -0.6353 0.0079, 0.4961 -0.6339 0.0, 0.4961 -0.6339 0.0079, 0.4882 -0.6339 0.0, 0.4882 -0.6339 0.0079, 0.477 -0.6353 0.0, 0.477 -0.6353 0.0079, 0.4665 -0.6397 0.0, 0.4665 -0.6397 0.0079, 0.4576 -0.6465 0.0, 0.4576 -0.6465 0.0079, 0.4507 -0.6555 0.0, 0.4507 -0.6555 0.0079, 0.4464 -0.666 0.0, 0.4464 -0.666 0.0079, 0.4449 -0.6772 0.0, 0.4449 -0.6772 0.0079, 0.4449 -0.7874 0.0079, 0.4449 -0.7913 0.0, 0.7874 -0.5394 0.0787, 0.7913 -0.5394 0.0787, 0.7874 -0.4449 0.0787, 0.7913 -0.4449 0.0787, 0.6772 -0.5394 0.0079, 0.6772 -0.5394 0.0, 0.7874 -0.5394 0.0079, 0.7913 -0.5394 0.0, 0.7874 -0.4449 0.0079, 0.7913 -0.4449 0.0, 0.6772 -0.4449 0.0079, 0.6772 -0.4449 0.0, 0.666 -0.4464 0.0, 0.666 -0.4464 0.0079, 0.6555 -0.4507 0.0, 0.6555 -0.4507 0.0079, 0.6465 -0.4576 0.0, 0.6465 -0.4576 0.0079, 0.6397 -0.4665 0.0, 0.6397 -0.4665 0.0079, 0.6353 -0.477 0.0, 0.6353 -0.477 0.0079, 0.6339 -0.4882 0.0, 0.6339 -0.4882 0.0079, 0.6339 -0.4961 0.0, 0.6339 -0.4961 0.0079, 0.6353 -0.5073 0.0, 0.6353 -0.5073 0.0079, 0.6397 -0.5177 0.0, 0.6397 -0.5177 0.0079, 0.6465 -0.5267 0.0, 0.6465 -0.5267 0.0079, 0.6555 -0.5336 0.0, 0.6555 -0.5336 0.0079, 0.666 -0.5379 0.0, 0.666 -0.5379 0.0079, 0.7874 -0.3425 0.0787, 0.7913 -0.3425 0.0787, 0.7874 -0.248 0.0787, 0.7913 -0.248 0.0787, 0.7874 -0.248 0.0079, 0.7913 -0.248 0.0, 0.6772 -0.248 0.0079, 0.6772 -0.248 0.0, 0.666 -0.2495 0.0, 0.666 -0.2495 0.0079, 0.6555 -0.2538 0.0, 0.6555 -0.2538 0.0079, 0.6465 -0.2607 0.0, 0.6465 -0.2607 0.0079, 0.6397 -0.2697 0.0, 0.6397 -0.2697 0.0079, 0.6353 -0.2801 0.0, 0.6353 -0.2801 0.0079, 0.6339 -0.2913 0.0, 0.6339 -0.2913 0.0079, 0.6339 -0.2992 0.0, 0.6339 -0.2992 0.0079, 0.6353 -0.3104 0.0, 0.6353 -0.3104 0.0079, 0.6397 -0.3209 0.0, 0.6397 -0.3209 0.0079, 0.6465 -0.3298 0.0, 0.6465 -0.3298 0.0079, 0.6555 -0.3367 0.0, 0.6555 -0.3367 0.0079, 0.666 -0.341 0.0, 0.666 -0.341 0.0079, 0.6772 -0.3425 0.0, 0.6772 -0.3425 0.0079, 0.7874 -0.3425 0.0079, 0.7913 -0.3425 0.0, 0.7874 -0.1457 0.0787, 0.7913 -0.1457 0.0787, 0.7874 -0.0512 0.0787, 0.7913 -0.0512 0.0787, 0.7874 -0.0512 0.0079, 0.7913 -0.0512 0.0, 0.6772 -0.0512 0.0079, 0.6772 -0.0512 0.0, 0.666 -0.0527 0.0, 0.666 -0.0527 0.0079, 0.6555 -0.057 0.0, 0.6555 -0.057 0.0079, 0.6465 -0.0639 0.0, 0.6465 -0.0639 0.0079, 0.6397 -0.0728 0.0, 0.6397 -0.0728 0.0079, 0.6353 -0.0833 0.0, 0.6353 -0.0833 0.0079, 0.6339 -0.0945 0.0, 0.6339 -0.0945 0.0079, 0.6339 -0.1024 0.0, 0.6339 -0.1024 0.0079, 0.6353 -0.1136 0.0, 0.6353 -0.1136 0.0079, 0.6397 -0.124 0.0, 0.6397 -0.124 0.0079, 0.6465 -0.133 0.0, 0.6465 -0.133 0.0079, 0.6555 -0.1399 0.0, 0.6555 -0.1399 0.0079, 0.666 -0.1442 0.0, 0.666 -0.1442 0.0079, 0.6772 -0.1457 0.0, 0.6772 -0.1457 0.0079, 0.7874 -0.1457 0.0079, 0.7913 -0.1457 0.0, 0.7874 0.0512 0.0787, 0.7913 0.0512 0.0787, 0.7874 0.1457 0.0787, 0.7913 0.1457 0.0787, 0.7874 0.1457 0.0079, 0.7913 0.1457 0.0, 0.6772 0.1457 0.0079, 0.6772 0.1457 0.0, 0.666 0.1442 0.0, 0.666 0.1442 0.0079, 0.6555 0.1399 0.0, 0.6555 0.1399 0.0079, 0.6465 0.133 0.0, 0.6465 0.133 0.0079, 0.6397 0.124 0.0, 0.6397 0.124 0.0079, 0.6353 0.1136 0.0, 0.6353 0.1136 0.0079, 0.6339 0.1024 0.0, 0.6339 0.1024 0.0079, 0.6339 0.0945 0.0, 0.6339 0.0945 0.0079, 0.6353 0.0833 0.0, 0.6353 0.0833 0.0079, 0.6397 0.0728 0.0, 0.6397 0.0728 0.0079, 0.6465 0.0639 0.0, 0.6465 0.0639 0.0079, 0.6555 0.057 0.0, 0.6555 0.057 0.0079, 0.666 0.0527 0.0, 0.666 0.0527 0.0079, 0.6772 0.0512 0.0, 0.6772 0.0512 0.0079, 0.7874 0.0512 0.0079, 0.7913 0.0512 0.0, 0.7874 0.248 0.0787, 0.7913 0.248 0.0787, 0.7874 0.3425 0.0787, 0.7913 0.3425 0.0787, 0.7874 0.3425 0.0079, 0.7913 0.3425 0.0, 0.6772 0.3425 0.0079, 0.6772 0.3425 0.0, 0.666 0.341 0.0, 0.666 0.341 0.0079, 0.6555 0.3367 0.0, 0.6555 0.3367 0.0079, 0.6465 0.3298 0.0, 0.6465 0.3298 0.0079, 0.6397 0.3209 0.0, 0.6397 0.3209 0.0079, 0.6353 0.3104 0.0, 0.6353 0.3104 0.0079, 0.6339 0.2992 0.0, 0.6339 0.2992 0.0079, 0.6339 0.2913 0.0, 0.6339 0.2913 0.0079, 0.6353 0.2801 0.0, 0.6353 0.2801 0.0079, 0.6397 0.2697 0.0, 0.6397 0.2697 0.0079, 0.6465 0.2607 0.0, 0.6465 0.2607 0.0079, 0.6555 0.2538 0.0, 0.6555 0.2538 0.0079, 0.666 0.2495 0.0, 0.666 0.2495 0.0079, 0.6772 0.248 0.0, 0.6772 0.248 0.0079, 0.7874 0.248 0.0079, 0.7913 0.248 0.0, 0.7874 0.4449 0.0787, 0.7913 0.4449 0.0787, 0.7874 0.5394 0.0787, 0.7913 0.5394 0.0787, 0.7874 0.5394 0.0079, 0.7913 0.5394 0.0, 0.6772 0.5394 0.0079, 0.6772 0.5394 0.0, 0.666 0.5379 0.0, 0.666 0.5379 0.0079, 0.6555 0.5336 0.0, 0.6555 0.5336 0.0079, 0.6465 0.5267 0.0, 0.6465 0.5267 0.0079, 0.6397 0.5177 0.0, 0.6397 0.5177 0.0079, 0.6353 0.5073 0.0, 0.6353 0.5073 0.0079, 0.6339 0.4961 0.0, 0.6339 0.4961 0.0079, 0.6339 0.4882 0.0, 0.6339 0.4882 0.0079, 0.6353 0.477 0.0, 0.6353 0.477 0.0079, 0.6397 0.4665 0.0, 0.6397 0.4665 0.0079, 0.6465 0.4576 0.0, 0.6465 0.4576 0.0079, 0.6555 0.4507 0.0, 0.6555 0.4507 0.0079, 0.666 0.4464 0.0, 0.666 0.4464 0.0079, 0.6772 0.4449 0.0, 0.6772 0.4449 0.0079, 0.7874 0.4449 0.0079, 0.7913 0.4449 0.0, -0.5118 0.5118 0.0, -0.5118 -0.5118 0.0, -0.5118 0.5118 0.0079, -0.5118 -0.5118 0.0079, 0.5118 0.5118 0.0, 0.5118 0.5118 0.0079, 0.5118 -0.5118 0.0, 0.5118 -0.5118 0.0079
            ]
        }
        coordIndex [
            0,1,2,-1,2,1,3,-1,4,5,6,-1,6,5,7,-1,6,7,0,-1,0,7,1,-1,2,3,8,-1,8,3,9,-1,8,9,10,-1,10,9,11,-1,10,11,12,-1,10,12,13,-1,13,12,14,-1,13,14,15,-1,15,14,16,-1,15,16,17,-1,16,18,17,-1,17,18,19,-1,19,18,20,-1,19,20,21,-1,21,20,22,-1,21,22,23,-1,23,22,5,-1,23,5,4,-1,9,3,7,-1,7,3,1,-1,5,16,14,-1,22,20,5,-1,5,20,18,-1,5,18,16,-1,9,7,11,-1,11,7,5,-1,11,5,12,-1,12,5,14,-1,24,25,26,-1,26,25,27,-1,26,27,28,-1,28,27,29,-1,28,29,30,-1,30,29,31,-1,30,31,32,-1,30,32,33,-1,33,32,34,-1,33,34,35,-1,35,34,36,-1,35,36,37,-1,36,38,37,-1,37,38,39,-1,39,38,40,-1,39,40,41,-1,41,40,42,-1,41,42,43,-1,43,42,44,-1,43,44,45,-1,45,44,46,-1,46,44,47,-1,46,47,24,-1,24,47,25,-1,29,27,47,-1,47,27,25,-1,44,36,34,-1,42,40,44,-1,44,40,38,-1,44,38,36,-1,29,47,31,-1,31,47,44,-1,31,44,32,-1,32,44,34,-1,48,49,50,-1,50,49,51,-1,50,51,52,-1,52,51,53,-1,52,53,54,-1,54,53,55,-1,54,55,56,-1,54,56,57,-1,57,56,58,-1,57,58,59,-1,59,58,60,-1,59,60,61,-1,60,62,61,-1,61,62,63,-1,63,62,64,-1,63,64,65,-1,65,64,66,-1,65,66,67,-1,67,66,68,-1,67,68,69,-1,69,68,70,-1,70,68,71,-1,70,71,48,-1,48,71,49,-1,53,51,71,-1,71,51,49,-1,55,53,71,-1,55,71,56,-1,68,66,64,-1,64,62,68,-1,68,62,60,-1,68,60,71,-1,71,60,58,-1,71,58,56,-1,72,73,74,-1,74,73,75,-1,74,75,76,-1,76,75,77,-1,76,77,78,-1,78,77,79,-1,78,79,80,-1,78,80,81,-1,81,80,82,-1,81,82,83,-1,83,82,84,-1,83,84,85,-1,84,86,85,-1,85,86,87,-1,87,86,88,-1,87,88,89,-1,89,88,90,-1,89,90,91,-1,91,90,92,-1,91,92,93,-1,93,92,94,-1,94,92,95,-1,94,95,72,-1,72,95,73,-1,77,75,95,-1,95,75,73,-1,79,77,95,-1,79,95,80,-1,92,90,88,-1,88,86,92,-1,92,86,84,-1,92,84,95,-1,95,84,82,-1,95,82,80,-1,96,97,98,-1,98,97,99,-1,98,99,100,-1,100,99,101,-1,100,101,102,-1,102,101,103,-1,102,103,104,-1,102,104,105,-1,105,104,106,-1,105,106,107,-1,107,106,108,-1,107,108,109,-1,108,110,109,-1,109,110,111,-1,111,110,112,-1,111,112,113,-1,113,112,114,-1,113,114,115,-1,115,114,116,-1,115,116,117,-1,117,116,118,-1,118,116,119,-1,118,119,96,-1,96,119,97,-1,101,99,119,-1,119,99,97,-1,116,108,106,-1,114,112,116,-1,116,112,110,-1,116,110,108,-1,101,119,103,-1,103,119,116,-1,103,116,104,-1,104,116,106,-1,120,121,122,-1,122,121,123,-1,122,123,124,-1,124,123,125,-1,124,125,126,-1,126,125,127,-1,126,127,128,-1,126,128,129,-1,129,128,130,-1,129,130,131,-1,131,130,132,-1,131,132,133,-1,132,134,133,-1,133,134,135,-1,135,134,136,-1,135,136,137,-1,137,136,138,-1,137,138,139,-1,139,138,140,-1,139,140,141,-1,141,140,142,-1,142,140,143,-1,142,143,120,-1,120,143,121,-1,125,123,143,-1,143,123,121,-1,140,132,130,-1,138,136,140,-1,140,136,134,-1,140,134,132,-1,125,143,127,-1,127,143,140,-1,127,140,128,-1,128,140,130,-1,144,145,146,-1,146,145,147,-1,148,149,150,-1,150,149,151,-1,150,151,144,-1,144,151,145,-1,146,147,152,-1,152,147,153,-1,152,153,154,-1,154,153,155,-1,154,155,156,-1,154,156,157,-1,157,156,158,-1,157,158,159,-1,159,158,160,-1,159,160,161,-1,161,160,162,-1,161,162,163,-1,163,162,164,-1,163,164,165,-1,165,164,166,-1,165,166,167,-1,166,168,167,-1,167,168,169,-1,169,168,170,-1,169,170,171,-1,171,170,172,-1,171,172,173,-1,173,172,174,-1,173,174,175,-1,175,174,176,-1,175,176,177,-1,177,176,178,-1,177,178,179,-1,179,178,149,-1,179,149,148,-1,153,147,151,-1,151,147,145,-1,168,166,149,-1,168,149,170,-1,149,160,158,-1,149,178,176,-1,166,164,149,-1,149,164,162,-1,149,162,160,-1,153,151,155,-1,155,151,149,-1,155,149,156,-1,156,149,158,-1,176,174,149,-1,149,174,172,-1,149,172,170,-1,180,181,182,-1,182,181,183,-1,182,183,184,-1,184,183,185,-1,184,185,186,-1,186,185,187,-1,186,187,188,-1,186,188,189,-1,189,188,190,-1,189,190,191,-1,191,190,192,-1,191,192,193,-1,193,192,194,-1,193,194,195,-1,195,194,196,-1,195,196,197,-1,197,196,198,-1,197,198,199,-1,198,200,199,-1,199,200,201,-1,201,200,202,-1,201,202,203,-1,203,202,204,-1,203,204,205,-1,205,204,206,-1,205,206,207,-1,207,206,208,-1,207,208,209,-1,209,208,210,-1,209,210,211,-1,211,210,212,-1,211,212,213,-1,213,212,214,-1,214,212,215,-1,214,215,180,-1,180,215,181,-1,185,183,215,-1,215,183,181,-1,196,215,198,-1,198,215,212,-1,198,212,200,-1,208,206,204,-1,196,194,215,-1,215,194,192,-1,215,192,190,-1,212,210,200,-1,200,210,208,-1,200,208,202,-1,202,208,204,-1,190,188,215,-1,215,188,187,-1,215,187,185,-1,216,217,218,-1,218,217,219,-1,218,219,220,-1,220,219,221,-1,220,221,222,-1,222,221,223,-1,222,223,224,-1,222,224,225,-1,225,224,226,-1,225,226,227,-1,227,226,228,-1,227,228,229,-1,229,228,230,-1,229,230,231,-1,231,230,232,-1,231,232,233,-1,233,232,234,-1,233,234,235,-1,234,236,235,-1,235,236,237,-1,237,236,238,-1,237,238,239,-1,239,238,240,-1,239,240,241,-1,241,240,242,-1,241,242,243,-1,243,242,244,-1,243,244,245,-1,245,244,246,-1,245,246,247,-1,247,246,248,-1,247,248,249,-1,249,248,250,-1,250,248,251,-1,250,251,216,-1,216,251,217,-1,221,219,251,-1,251,219,217,-1,223,221,251,-1,223,251,224,-1,232,230,251,-1,240,238,242,-1,242,238,236,-1,242,236,244,-1,232,251,234,-1,234,251,248,-1,234,248,236,-1,236,248,246,-1,236,246,244,-1,230,228,251,-1,251,228,226,-1,251,226,224,-1,252,253,254,-1,254,253,255,-1,254,255,256,-1,256,255,257,-1,256,257,258,-1,258,257,259,-1,258,259,260,-1,258,260,261,-1,261,260,262,-1,261,262,263,-1,263,262,264,-1,263,264,265,-1,265,264,266,-1,265,266,267,-1,267,266,268,-1,267,268,269,-1,269,268,270,-1,269,270,271,-1,270,272,271,-1,271,272,273,-1,273,272,274,-1,273,274,275,-1,275,274,276,-1,275,276,277,-1,277,276,278,-1,277,278,279,-1,279,278,280,-1,279,280,281,-1,281,280,282,-1,281,282,283,-1,283,282,284,-1,283,284,285,-1,285,284,286,-1,286,284,287,-1,286,287,252,-1,252,287,253,-1,257,255,287,-1,287,255,253,-1,284,270,287,-1,287,270,268,-1,276,274,284,-1,284,274,272,-1,284,272,270,-1,268,266,287,-1,287,266,264,-1,287,264,262,-1,262,260,287,-1,287,260,259,-1,287,259,257,-1,282,280,284,-1,284,280,278,-1,284,278,276,-1,288,289,290,-1,290,289,291,-1,290,291,292,-1,292,291,293,-1,292,293,294,-1,294,293,295,-1,294,295,296,-1,294,296,297,-1,297,296,298,-1,297,298,299,-1,299,298,300,-1,299,300,301,-1,301,300,302,-1,301,302,303,-1,303,302,304,-1,303,304,305,-1,305,304,306,-1,305,306,307,-1,306,308,307,-1,307,308,309,-1,309,308,310,-1,309,310,311,-1,311,310,312,-1,311,312,313,-1,313,312,314,-1,313,314,315,-1,315,314,316,-1,315,316,317,-1,317,316,318,-1,317,318,319,-1,319,318,320,-1,319,320,321,-1,321,320,322,-1,322,320,323,-1,322,323,288,-1,288,323,289,-1,293,291,323,-1,323,291,289,-1,304,323,306,-1,306,323,320,-1,306,320,308,-1,316,314,312,-1,304,302,323,-1,323,302,300,-1,323,300,298,-1,320,318,308,-1,308,318,316,-1,308,316,310,-1,310,316,312,-1,298,296,323,-1,323,296,295,-1,323,295,293,-1,324,325,326,-1,326,325,327,-1,326,327,328,-1,328,327,329,-1,328,329,330,-1,330,329,331,-1,330,331,332,-1,330,332,333,-1,333,332,334,-1,333,334,335,-1,335,334,336,-1,335,336,337,-1,337,336,338,-1,337,338,339,-1,339,338,340,-1,339,340,341,-1,341,340,342,-1,341,342,343,-1,342,344,343,-1,343,344,345,-1,345,344,346,-1,345,346,347,-1,347,346,348,-1,347,348,349,-1,349,348,350,-1,349,350,351,-1,351,350,352,-1,351,352,353,-1,353,352,354,-1,353,354,355,-1,355,354,356,-1,355,356,357,-1,357,356,358,-1,358,356,359,-1,358,359,324,-1,324,359,325,-1,329,327,359,-1,359,327,325,-1,331,329,359,-1,338,336,359,-1,356,354,352,-1,346,344,356,-1,356,344,342,-1,356,342,359,-1,359,342,340,-1,359,340,338,-1,336,334,359,-1,359,334,332,-1,359,332,331,-1,352,350,356,-1,356,350,348,-1,356,348,346,-1,360,361,362,-1,362,361,363,-1,364,365,366,-1,366,365,367,-1,366,367,360,-1,360,367,361,-1,362,363,368,-1,368,363,369,-1,368,369,370,-1,370,369,371,-1,370,371,372,-1,370,372,373,-1,373,372,374,-1,373,374,375,-1,375,374,376,-1,375,376,377,-1,377,376,378,-1,377,378,379,-1,379,378,380,-1,379,380,381,-1,381,380,382,-1,381,382,383,-1,382,384,383,-1,383,384,385,-1,385,384,386,-1,385,386,387,-1,387,386,388,-1,387,388,389,-1,389,388,390,-1,389,390,391,-1,391,390,392,-1,391,392,393,-1,393,392,394,-1,393,394,395,-1,395,394,365,-1,395,365,364,-1,369,363,367,-1,367,363,361,-1,371,369,367,-1,386,384,371,-1,367,365,371,-1,371,365,394,-1,371,394,392,-1,392,390,371,-1,371,390,388,-1,371,388,386,-1,376,374,378,-1,378,374,380,-1,384,382,371,-1,371,382,380,-1,371,380,372,-1,372,380,374,-1,396,397,398,-1,398,397,399,-1,398,399,400,-1,400,399,401,-1,400,401,402,-1,402,401,403,-1,402,403,404,-1,402,404,405,-1,405,404,406,-1,405,406,407,-1,407,406,408,-1,407,408,409,-1,409,408,410,-1,409,410,411,-1,411,410,412,-1,411,412,413,-1,413,412,414,-1,413,414,415,-1,414,416,415,-1,415,416,417,-1,417,416,418,-1,417,418,419,-1,419,418,420,-1,419,420,421,-1,421,420,422,-1,421,422,423,-1,423,422,424,-1,423,424,425,-1,425,424,426,-1,425,426,427,-1,427,426,428,-1,427,428,429,-1,429,428,430,-1,430,428,431,-1,430,431,396,-1,396,431,397,-1,401,399,431,-1,431,399,397,-1,403,401,431,-1,418,416,403,-1,431,428,403,-1,403,428,426,-1,403,426,424,-1,424,422,403,-1,403,422,420,-1,403,420,418,-1,406,412,408,-1,408,412,410,-1,416,414,403,-1,403,414,412,-1,403,412,404,-1,404,412,406,-1,432,433,434,-1,434,433,435,-1,434,435,436,-1,436,435,437,-1,436,437,438,-1,438,437,439,-1,438,439,440,-1,438,440,441,-1,441,440,442,-1,441,442,443,-1,443,442,444,-1,443,444,445,-1,445,444,446,-1,445,446,447,-1,447,446,448,-1,447,448,449,-1,449,448,450,-1,449,450,451,-1,450,452,451,-1,451,452,453,-1,453,452,454,-1,453,454,455,-1,455,454,456,-1,455,456,457,-1,457,456,458,-1,457,458,459,-1,459,458,460,-1,459,460,461,-1,461,460,462,-1,461,462,463,-1,463,462,464,-1,463,464,465,-1,465,464,466,-1,466,464,467,-1,466,467,432,-1,432,467,433,-1,437,435,467,-1,467,435,433,-1,439,437,467,-1,454,452,439,-1,467,464,439,-1,439,464,462,-1,439,462,460,-1,460,458,439,-1,439,458,456,-1,439,456,454,-1,442,448,444,-1,444,448,446,-1,452,450,439,-1,439,450,448,-1,439,448,440,-1,440,448,442,-1,468,469,470,-1,470,469,471,-1,470,471,472,-1,472,471,473,-1,472,473,474,-1,474,473,475,-1,474,475,476,-1,474,476,477,-1,477,476,478,-1,477,478,479,-1,479,478,480,-1,479,480,481,-1,481,480,482,-1,481,482,483,-1,483,482,484,-1,483,484,485,-1,485,484,486,-1,485,486,487,-1,486,488,487,-1,487,488,489,-1,489,488,490,-1,489,490,491,-1,491,490,492,-1,491,492,493,-1,493,492,494,-1,493,494,495,-1,495,494,496,-1,495,496,497,-1,497,496,498,-1,497,498,499,-1,499,498,500,-1,499,500,501,-1,501,500,502,-1,502,500,503,-1,502,503,468,-1,468,503,469,-1,473,471,503,-1,503,471,469,-1,475,473,503,-1,490,488,475,-1,503,500,475,-1,475,500,498,-1,475,498,496,-1,496,494,475,-1,475,494,492,-1,475,492,490,-1,478,484,480,-1,480,484,482,-1,488,486,475,-1,475,486,484,-1,475,484,476,-1,476,484,478,-1,504,505,506,-1,506,505,507,-1,506,507,508,-1,508,507,509,-1,508,509,510,-1,510,509,511,-1,510,511,512,-1,510,512,513,-1,513,512,514,-1,513,514,515,-1,515,514,516,-1,515,516,517,-1,517,516,518,-1,517,518,519,-1,519,518,520,-1,519,520,521,-1,521,520,522,-1,521,522,523,-1,522,524,523,-1,523,524,525,-1,525,524,526,-1,525,526,527,-1,527,526,528,-1,527,528,529,-1,529,528,530,-1,529,530,531,-1,531,530,532,-1,531,532,533,-1,533,532,534,-1,533,534,535,-1,535,534,536,-1,535,536,537,-1,537,536,538,-1,538,536,539,-1,538,539,504,-1,504,539,505,-1,509,507,539,-1,539,507,505,-1,511,509,539,-1,526,524,511,-1,539,536,511,-1,511,536,534,-1,511,534,532,-1,532,530,511,-1,511,530,528,-1,511,528,526,-1,514,520,516,-1,516,520,518,-1,524,522,511,-1,511,522,520,-1,511,520,512,-1,512,520,514,-1,540,541,542,-1,542,541,543,-1,542,543,544,-1,544,543,545,-1,544,545,546,-1,546,545,547,-1,546,547,548,-1,546,548,549,-1,549,548,550,-1,549,550,551,-1,551,550,552,-1,551,552,553,-1,553,552,554,-1,553,554,555,-1,555,554,556,-1,555,556,557,-1,557,556,558,-1,557,558,559,-1,558,560,559,-1,559,560,561,-1,561,560,562,-1,561,562,563,-1,563,562,564,-1,563,564,565,-1,565,564,566,-1,565,566,567,-1,567,566,568,-1,567,568,569,-1,569,568,570,-1,569,570,571,-1,571,570,572,-1,571,572,573,-1,573,572,574,-1,574,572,575,-1,574,575,540,-1,540,575,541,-1,545,543,575,-1,575,543,541,-1,547,545,575,-1,562,560,547,-1,575,572,547,-1,547,572,570,-1,547,570,568,-1,568,566,547,-1,547,566,564,-1,547,564,562,-1,552,550,554,-1,554,550,556,-1,560,558,547,-1,547,558,556,-1,547,556,548,-1,548,556,550,-1,576,577,578,-1,578,577,579,-1,580,581,582,-1,582,581,583,-1,582,583,576,-1,576,583,577,-1,578,579,584,-1,584,579,585,-1,584,585,586,-1,586,585,587,-1,586,587,588,-1,586,588,589,-1,589,588,590,-1,589,590,591,-1,591,590,592,-1,591,592,593,-1,593,592,594,-1,593,594,595,-1,595,594,596,-1,595,596,597,-1,597,596,598,-1,597,598,599,-1,598,600,599,-1,599,600,601,-1,601,600,602,-1,601,602,603,-1,603,602,604,-1,603,604,605,-1,605,604,606,-1,605,606,607,-1,607,606,608,-1,607,608,609,-1,609,608,610,-1,609,610,611,-1,611,610,581,-1,611,581,580,-1,585,579,583,-1,583,579,577,-1,585,583,587,-1,587,583,581,-1,587,600,598,-1,581,610,587,-1,587,610,608,-1,587,608,606,-1,606,604,587,-1,587,604,602,-1,587,602,600,-1,587,592,588,-1,588,592,590,-1,598,596,587,-1,587,596,594,-1,587,594,592,-1,612,613,614,-1,614,613,615,-1,614,615,616,-1,616,615,617,-1,616,617,618,-1,618,617,619,-1,618,619,620,-1,618,620,621,-1,621,620,622,-1,621,622,623,-1,623,622,624,-1,623,624,625,-1,625,624,626,-1,625,626,627,-1,627,626,628,-1,627,628,629,-1,629,628,630,-1,629,630,631,-1,630,632,631,-1,631,632,633,-1,633,632,634,-1,633,634,635,-1,635,634,636,-1,635,636,637,-1,637,636,638,-1,637,638,639,-1,639,638,640,-1,639,640,641,-1,641,640,642,-1,641,642,643,-1,643,642,644,-1,643,644,645,-1,645,644,646,-1,646,644,647,-1,646,647,612,-1,612,647,613,-1,617,615,647,-1,647,615,613,-1,647,644,617,-1,617,644,642,-1,628,626,619,-1,619,626,624,-1,619,624,620,-1,620,624,622,-1,642,640,617,-1,617,640,638,-1,617,638,636,-1,636,634,617,-1,617,634,632,-1,617,632,619,-1,619,632,630,-1,619,630,628,-1,648,649,650,-1,650,649,651,-1,650,651,652,-1,652,651,653,-1,652,653,654,-1,654,653,655,-1,654,655,656,-1,654,656,657,-1,657,656,658,-1,657,658,659,-1,659,658,660,-1,659,660,661,-1,661,660,662,-1,661,662,663,-1,663,662,664,-1,663,664,665,-1,665,664,666,-1,665,666,667,-1,666,668,667,-1,667,668,669,-1,669,668,670,-1,669,670,671,-1,671,670,672,-1,671,672,673,-1,673,672,674,-1,673,674,675,-1,675,674,676,-1,675,676,677,-1,677,676,678,-1,677,678,679,-1,679,678,680,-1,679,680,681,-1,681,680,682,-1,682,680,683,-1,682,683,648,-1,648,683,649,-1,653,651,683,-1,683,651,649,-1,655,653,668,-1,653,683,680,-1,680,678,653,-1,653,678,676,-1,653,676,674,-1,668,666,655,-1,655,666,664,-1,655,664,662,-1,674,672,653,-1,653,672,670,-1,653,670,668,-1,660,658,662,-1,662,658,656,-1,662,656,655,-1,684,685,686,-1,686,685,687,-1,686,687,688,-1,688,687,689,-1,688,689,690,-1,690,689,691,-1,690,691,692,-1,690,692,693,-1,693,692,694,-1,693,694,695,-1,695,694,696,-1,695,696,697,-1,697,696,698,-1,697,698,699,-1,699,698,700,-1,699,700,701,-1,701,700,702,-1,701,702,703,-1,702,704,703,-1,703,704,705,-1,705,704,706,-1,705,706,707,-1,707,706,708,-1,707,708,709,-1,709,708,710,-1,709,710,711,-1,711,710,712,-1,711,712,713,-1,713,712,714,-1,713,714,715,-1,715,714,716,-1,715,716,717,-1,717,716,718,-1,718,716,719,-1,718,719,684,-1,684,719,685,-1,689,687,719,-1,719,687,685,-1,689,719,691,-1,691,719,716,-1,716,714,691,-1,691,714,712,-1,691,712,710,-1,704,702,691,-1,691,702,700,-1,710,708,691,-1,691,708,706,-1,691,706,704,-1,700,698,691,-1,691,698,696,-1,691,696,692,-1,692,696,694,-1,720,721,722,-1,722,721,723,-1,722,723,724,-1,724,723,725,-1,724,725,726,-1,726,725,727,-1,726,727,728,-1,726,728,729,-1,729,728,730,-1,729,730,731,-1,731,730,732,-1,731,732,733,-1,733,732,734,-1,733,734,735,-1,735,734,736,-1,735,736,737,-1,737,736,738,-1,737,738,739,-1,738,740,739,-1,739,740,741,-1,741,740,742,-1,741,742,743,-1,743,742,744,-1,743,744,745,-1,745,744,746,-1,745,746,747,-1,747,746,748,-1,747,748,749,-1,749,748,750,-1,749,750,751,-1,751,750,752,-1,751,752,753,-1,753,752,754,-1,754,752,755,-1,754,755,720,-1,720,755,721,-1,725,723,755,-1,755,723,721,-1,727,725,755,-1,742,740,727,-1,727,740,738,-1,755,752,727,-1,727,752,750,-1,727,750,748,-1,727,732,728,-1,728,732,730,-1,748,746,727,-1,727,746,744,-1,727,744,742,-1,738,736,727,-1,727,736,734,-1,727,734,732,-1,756,757,758,-1,758,757,759,-1,758,759,760,-1,760,759,761,-1,760,761,762,-1,762,761,763,-1,762,763,764,-1,762,764,765,-1,765,764,766,-1,765,766,767,-1,767,766,768,-1,767,768,769,-1,769,768,770,-1,769,770,771,-1,771,770,772,-1,771,772,773,-1,773,772,774,-1,773,774,775,-1,774,776,775,-1,775,776,777,-1,777,776,778,-1,777,778,779,-1,779,778,780,-1,779,780,781,-1,781,780,782,-1,781,782,783,-1,783,782,784,-1,783,784,785,-1,785,784,786,-1,785,786,787,-1,787,786,788,-1,787,788,789,-1,789,788,790,-1,790,788,791,-1,790,791,756,-1,756,791,757,-1,761,759,791,-1,791,759,757,-1,761,791,763,-1,763,791,788,-1,763,776,774,-1,788,786,763,-1,763,786,784,-1,763,784,782,-1,782,780,763,-1,763,780,778,-1,763,778,776,-1,763,768,764,-1,764,768,766,-1,774,772,763,-1,763,772,770,-1,763,770,768,-1,792,793,794,-1,794,793,795,-1,796,792,797,-1,797,792,794,-1,798,796,799,-1,799,796,797,-1,793,798,795,-1,795,798,799,-1,
        ]
    }
}
Shape{
    appearance Appearance {
        material  Material 	{
            diffuseColor 0.7529411764705882 0.7529411764705882 0.7529411764705882
            specularColor 0.3764705882352941 0.3764705882352941 0.3764705882352941
            ambientIntensity 0.7529
            transparency 0.0
            shininess 0.5
        }
    }
    geometry IndexedFaceSet {
        ccw TRUE
        solid FALSE
        coord DEF co Coordinate {
            point [
                -0.32 0.0809 0.0079, -0.321 0.0809 0.0079, -0.32 0.0809 0.0, -0.321 0.0809 0.0, -0.3574 0.0022 0.0079, -0.3574 0.0022 0.0, -0.3497 0.0022 0.0079, -0.3497 0.0022 0.0, -0.338 0.0274 0.0079, -0.338 0.0274 0.0, -0.3023 0.0274 0.0079, -0.3023 0.0274 0.0, -0.2904 0.0022 0.0079, -0.2904 0.0022 0.0, -0.2827 0.0022 0.0079, -0.2827 0.0022 0.0, -0.3343 0.0355 0.0079, -0.3062 0.0355 0.0079, -0.3204 0.0656 0.0079, -0.3343 0.0355 0.0, -0.3204 0.0656 0.0, -0.3062 0.0355 0.0, -0.2324 0.0022 0.0079, -0.208 0.0022 0.0079, -0.2324 0.0022 0.0, -0.208 0.0022 0.0, -0.208 0.0809 0.0079, -0.208 0.0809 0.0, -0.2239 0.0809 0.0079, -0.2239 0.0809 0.0, -0.2488 0.0781 0.0079, -0.2488 0.0781 0.0, -0.2365 0.0805 0.0, -0.2365 0.0805 0.0079, -0.2726 0.0406 0.0079, -0.2726 0.0406 0.0, -0.2725 0.0442 0.0, -0.2725 0.0442 0.0079, -0.2709 0.0538 0.0, -0.2709 0.0538 0.0079, -0.2676 0.062 0.0, -0.2676 0.062 0.0079, -0.2626 0.0691 0.0, -0.2626 0.0691 0.0079, -0.2568 0.0741 0.0, -0.2568 0.0741 0.0079, -0.2416 0.0027 0.0, -0.2416 0.0027 0.0079, -0.2512 0.0049 0.0, -0.2512 0.0049 0.0079, -0.2571 0.008 0.0, -0.2571 0.008 0.0079, -0.263 0.0132 0.0, -0.263 0.0132 0.0079, -0.2684 0.0213 0.0, -0.2684 0.0213 0.0079, -0.2715 0.03 0.0, -0.2715 0.03 0.0079, -0.2327 0.0725 0.0079, -0.2448 0.0706 0.0079, -0.2483 0.0694 0.0079, -0.2542 0.0659 0.0079, -0.2587 0.0615 0.0079, -0.2623 0.0557 0.0079, -0.2646 0.0489 0.0079, -0.2655 0.0406 0.0079, -0.2654 0.0384 0.0079, -0.264 0.0301 0.0079, -0.2614 0.0241 0.0079, -0.2575 0.019 0.0079, -0.2528 0.0152 0.0079, -0.2466 0.0123 0.0079, -0.2354 0.0106 0.0079, -0.2241 0.0103 0.0079, -0.215 0.0103 0.0079, -0.215 0.0729 0.0079, -0.2206 0.0729 0.0079, -0.215 0.0729 0.0, -0.215 0.0103 0.0, -0.2206 0.0729 0.0, -0.2327 0.0725 0.0, -0.2448 0.0706 0.0, -0.2483 0.0694 0.0, -0.2542 0.0659 0.0, -0.2587 0.0615 0.0, -0.2623 0.0557 0.0, -0.2646 0.0489 0.0, -0.2655 0.0406 0.0, -0.2654 0.0384 0.0, -0.264 0.0301 0.0, -0.2614 0.0241 0.0, -0.2575 0.019 0.0, -0.2528 0.0152 0.0, -0.2466 0.0123 0.0, -0.2354 0.0106 0.0, -0.2241 0.0103 0.0, -0.1494 0.0022 0.0079, -0.1494 0.0809 0.0079, -0.1494 0.0022 0.0, -0.1494 0.0809 0.0, -0.1938 0.0809 0.0079, -0.1938 0.0809 0.0, -0.1938 0.0729 0.0079, -0.1938 0.0729 0.0, -0.1565 0.0729 0.0079, -0.1565 0.0729 0.0, -0.1565 0.0486 0.0079, -0.1565 0.0486 0.0, -0.1938 0.0486 0.0079, -0.1938 0.0486 0.0, -0.1938 0.0406 0.0079, -0.1938 0.0406 0.0, -0.1565 0.0406 0.0079, -0.1565 0.0406 0.0, -0.1565 0.0103 0.0079, -0.1565 0.0103 0.0, -0.1938 0.0103 0.0079, -0.1938 0.0103 0.0, -0.1938 0.0022 0.0079, -0.1938 0.0022 0.0, -0.1333 0.0665 0.0079, -0.1333 0.0665 0.0, -0.1309 0.0694 0.0, -0.1309 0.0694 0.0079, -0.1261 0.074 0.0, -0.1261 0.074 0.0079, -0.1175 0.0792 0.0, -0.1175 0.0792 0.0079, -0.1104 0.0816 0.0, -0.1104 0.0816 0.0079, -0.0989 0.083 0.0, -0.0989 0.083 0.0079, -0.1271 0.0618 0.0079, -0.1271 0.0618 0.0, -0.0985 0.0749 0.0079, -0.0985 0.0749 0.0, -0.1012 0.0748 0.0, -0.1012 0.0748 0.0079, -0.1099 0.0733 0.0, -0.1099 0.0733 0.0079, -0.1134 0.072 0.0, -0.1134 0.072 0.0079, -0.1208 0.0679 0.0, -0.1208 0.0679 0.0079, -0.0636 0.0415 0.0079, -0.0636 0.0415 0.0, -0.0638 0.0452 0.0, -0.0638 0.0452 0.0079, -0.0655 0.0528 0.0, -0.0655 0.0528 0.0079, -0.069 0.0598 0.0, -0.069 0.0598 0.0079, -0.0739 0.0655 0.0, -0.0739 0.0655 0.0079, -0.0811 0.0706 0.0, -0.0811 0.0706 0.0079, -0.0891 0.0737 0.0, -0.0891 0.0737 0.0079, -0.0989 0.0083 0.0079, -0.0989 0.0083 0.0, -0.0927 0.0087 0.0, -0.0927 0.0087 0.0079, -0.0847 0.0107 0.0, -0.0847 0.0107 0.0079, -0.0771 0.0149 0.0, -0.0771 0.0149 0.0079, -0.0714 0.0201 0.0, -0.0714 0.0201 0.0079, -0.0671 0.0263 0.0, -0.0671 0.0263 0.0079, -0.0646 0.0328 0.0, -0.0646 0.0328 0.0079, -0.1271 0.0214 0.0079, -0.1271 0.0214 0.0, -0.1227 0.017 0.0, -0.1227 0.017 0.0079, -0.1157 0.0122 0.0, -0.1157 0.0122 0.0079, -0.1082 0.0093 0.0, -0.1082 0.0093 0.0079, -0.1333 0.0167 0.0079, -0.1333 0.0167 0.0, -0.099 0.0002 0.0079, -0.099 0.0002 0.0, -0.1029 0.0003 0.0, -0.1029 0.0003 0.0079, -0.1089 0.0012 0.0, -0.1092 0.0012 0.0079, -0.1092 0.0012 0.0, -0.1181 0.0043 0.0, -0.1181 0.0043 0.0079, -0.1263 0.0094 0.0, -0.1263 0.0094 0.0079, -0.0902 0.0012 0.0, -0.0867 0.0016 0.0079, -0.0867 0.0016 0.0, -0.0773 0.0052 0.0079, -0.0773 0.0052 0.0, -0.0697 0.0107 0.0079, -0.0697 0.0107 0.0, -0.0665 0.0139 0.0079, -0.0665 0.0139 0.0, -0.0565 0.042 0.0079, -0.0565 0.042 0.0, -0.0576 0.0316 0.0, -0.0576 0.0316 0.0079, -0.0608 0.0226 0.0, -0.0608 0.0226 0.0079, -0.0926 0.0826 0.0, -0.0926 0.0826 0.0079, -0.083 0.0803 0.0, -0.083 0.0803 0.0079, -0.0747 0.0761 0.0, -0.0747 0.0761 0.0079, -0.0665 0.0689 0.0, -0.0665 0.0689 0.0079, -0.061 0.0611 0.0, -0.061 0.0611 0.0079, -0.0578 0.0528 0.0, -0.0578 0.0528 0.0079, -0.0101 0.0022 0.0079, -0.0101 0.0809 0.0079, -0.0101 0.0022 0.0, -0.0101 0.0809 0.0, -0.0172 0.0809 0.0079, -0.0172 0.0809 0.0, -0.0172 0.0103 0.0079, -0.0172 0.0103 0.0, -0.0474 0.0103 0.0079, -0.0474 0.0103 0.0, -0.0474 0.0022 0.0079, -0.0474 0.0022 0.0
            ]
        }
        coordIndex [
            0,1,2,-1,2,1,3,-1,1,4,3,-1,3,4,5,-1,4,6,5,-1,5,6,7,-1,6,8,7,-1,7,8,9,-1,8,10,9,-1,9,10,11,-1,10,12,11,-1,11,12,13,-1,12,14,13,-1,13,14,15,-1,14,0,15,-1,15,0,2,-1,16,4,1,-1,0,17,1,-1,1,17,18,-1,1,18,16,-1,14,12,10,-1,6,4,8,-1,8,4,16,-1,8,16,10,-1,10,16,17,-1,10,17,14,-1,14,17,0,-1,16,18,19,-1,19,18,20,-1,17,16,21,-1,21,16,19,-1,18,17,20,-1,20,17,21,-1,22,23,24,-1,24,23,25,-1,23,26,25,-1,25,26,27,-1,26,28,27,-1,27,28,29,-1,30,31,32,-1,30,32,33,-1,33,32,29,-1,33,29,28,-1,34,35,36,-1,34,36,37,-1,37,36,38,-1,37,38,39,-1,39,38,40,-1,39,40,41,-1,41,40,42,-1,41,42,43,-1,43,42,44,-1,43,44,45,-1,45,44,31,-1,45,31,30,-1,22,24,46,-1,22,46,47,-1,47,46,48,-1,47,48,49,-1,49,48,50,-1,49,50,51,-1,51,50,52,-1,51,52,53,-1,53,52,54,-1,53,54,55,-1,55,54,56,-1,55,56,57,-1,57,56,35,-1,57,35,34,-1,58,59,30,-1,30,59,60,-1,30,60,45,-1,45,60,61,-1,45,61,43,-1,43,61,62,-1,43,62,41,-1,41,62,63,-1,41,63,39,-1,39,63,64,-1,39,64,37,-1,37,64,65,-1,37,65,34,-1,34,65,66,-1,34,66,57,-1,57,66,67,-1,57,67,55,-1,55,67,68,-1,55,68,53,-1,53,68,69,-1,53,69,51,-1,51,69,70,-1,51,70,49,-1,49,70,71,-1,49,71,47,-1,47,71,72,-1,47,72,22,-1,22,72,73,-1,22,73,23,-1,23,73,74,-1,23,74,26,-1,26,74,75,-1,26,75,28,-1,28,75,76,-1,28,76,33,-1,33,76,58,-1,33,58,30,-1,75,74,77,-1,77,74,78,-1,76,75,79,-1,79,75,77,-1,76,79,80,-1,76,80,58,-1,58,80,81,-1,58,81,59,-1,59,81,82,-1,59,82,60,-1,60,82,83,-1,60,83,61,-1,61,83,84,-1,61,84,62,-1,62,84,85,-1,62,85,63,-1,63,85,86,-1,63,86,64,-1,64,86,87,-1,64,87,65,-1,65,87,88,-1,65,88,66,-1,66,88,89,-1,66,89,67,-1,67,89,90,-1,67,90,68,-1,68,90,91,-1,68,91,69,-1,69,91,92,-1,69,92,70,-1,70,92,93,-1,70,93,71,-1,71,93,94,-1,71,94,72,-1,72,94,95,-1,72,95,73,-1,74,73,78,-1,78,73,95,-1,96,97,98,-1,98,97,99,-1,97,100,99,-1,99,100,101,-1,100,102,101,-1,101,102,103,-1,102,104,103,-1,103,104,105,-1,104,106,105,-1,105,106,107,-1,106,108,107,-1,107,108,109,-1,108,110,109,-1,109,110,111,-1,110,112,111,-1,111,112,113,-1,112,114,113,-1,113,114,115,-1,114,116,115,-1,115,116,117,-1,116,118,117,-1,117,118,119,-1,118,96,119,-1,119,96,98,-1,96,118,116,-1,116,114,96,-1,96,114,112,-1,96,112,97,-1,102,100,104,-1,104,100,97,-1,104,97,106,-1,106,97,112,-1,106,112,108,-1,108,112,110,-1,120,121,122,-1,120,122,123,-1,123,122,124,-1,123,124,125,-1,125,124,126,-1,125,126,127,-1,127,126,128,-1,127,128,129,-1,129,128,130,-1,129,130,131,-1,120,132,121,-1,121,132,133,-1,134,135,136,-1,134,136,137,-1,137,136,138,-1,137,138,139,-1,139,138,140,-1,139,140,141,-1,141,140,142,-1,141,142,143,-1,143,142,133,-1,143,133,132,-1,144,145,146,-1,144,146,147,-1,147,146,148,-1,147,148,149,-1,149,148,150,-1,149,150,151,-1,151,150,152,-1,151,152,153,-1,153,152,154,-1,153,154,155,-1,155,154,156,-1,155,156,157,-1,157,156,135,-1,157,135,134,-1,158,159,160,-1,158,160,161,-1,161,160,162,-1,161,162,163,-1,163,162,164,-1,163,164,165,-1,165,164,166,-1,165,166,167,-1,167,166,168,-1,167,168,169,-1,169,168,170,-1,169,170,171,-1,171,170,145,-1,171,145,144,-1,172,173,174,-1,172,174,175,-1,175,174,176,-1,175,176,177,-1,177,176,178,-1,177,178,179,-1,179,178,159,-1,179,159,158,-1,172,180,173,-1,173,180,181,-1,182,183,184,-1,182,184,185,-1,185,184,186,-1,185,186,187,-1,186,188,187,-1,187,188,189,-1,187,189,190,-1,190,189,191,-1,190,191,192,-1,192,191,181,-1,192,181,180,-1,183,182,193,-1,193,182,194,-1,193,194,195,-1,195,194,196,-1,195,196,197,-1,197,196,198,-1,197,198,199,-1,199,198,200,-1,199,200,201,-1,202,203,204,-1,202,204,205,-1,205,204,206,-1,205,206,207,-1,207,206,201,-1,207,201,200,-1,131,130,208,-1,131,208,209,-1,209,208,210,-1,209,210,211,-1,211,210,212,-1,211,212,213,-1,213,212,214,-1,213,214,215,-1,215,214,216,-1,215,216,217,-1,217,216,218,-1,217,218,219,-1,219,218,203,-1,219,203,202,-1,132,120,123,-1,180,172,192,-1,192,172,175,-1,192,175,190,-1,190,175,177,-1,190,177,187,-1,187,177,179,-1,187,179,185,-1,185,179,158,-1,132,123,143,-1,143,123,125,-1,143,125,141,-1,141,125,127,-1,141,127,139,-1,139,127,129,-1,139,129,137,-1,137,129,131,-1,137,131,134,-1,134,131,209,-1,134,209,157,-1,157,209,211,-1,157,211,155,-1,155,211,213,-1,155,213,153,-1,153,213,215,-1,153,215,151,-1,151,215,217,-1,151,217,149,-1,149,217,219,-1,149,219,147,-1,147,219,202,-1,147,202,144,-1,144,202,171,-1,171,202,205,-1,171,205,169,-1,169,205,207,-1,169,207,167,-1,167,207,200,-1,167,200,165,-1,165,200,198,-1,165,198,163,-1,163,198,196,-1,163,196,161,-1,161,196,194,-1,161,194,158,-1,158,194,182,-1,158,182,185,-1,220,221,222,-1,222,221,223,-1,221,224,223,-1,223,224,225,-1,224,226,225,-1,225,226,227,-1,226,228,227,-1,227,228,229,-1,228,230,229,-1,229,230,231,-1,230,220,231,-1,231,220,222,-1,224,221,226,-1,226,221,220,-1,226,220,228,-1,228,220,230,-1,
        ]
    }
}
Shape{
    appearance Appearance {
        material  Material 	{
            diffuseColor 0.6470588235294118 0.6196078431372549 0.5882352941176471
            specularColor 0.45098039215686275 0.43529411764705883 0.4117647058823529
            ambientIntensity 0.6242
            transparency 0.0
            shininess 0.5
        }
    }
    geometry IndexedFaceSet {
        ccw TRUE
        solid FALSE
        coord DEF co Coordinate {
            point [
                -0.3204 0.0656 0.0, -0.3062 0.0355 0.0, -0.3343 0.0355 0.0, -0.215 0.0729 0.0, -0.215 0.0103 0.0, -0.2206 0.0729 0.0, -0.2241 0.0103 0.0, -0.2327 0.0725 0.0, -0.2354 0.0106 0.0, -0.2448 0.0706 0.0, -0.2614 0.0241 0.0, -0.264 0.0301 0.0, -0.2654 0.0384 0.0, -0.2655 0.0406 0.0, -0.2466 0.0123 0.0, -0.2528 0.0152 0.0, -0.2575 0.019 0.0, -0.2646 0.0489 0.0, -0.2623 0.0557 0.0, -0.2587 0.0615 0.0, -0.2542 0.0659 0.0, -0.2483 0.0694 0.0
            ]
        }
        coordIndex [
            0,1,2,-1,3,4,5,-1,5,4,6,-1,5,6,7,-1,7,6,8,-1,7,8,9,-1,10,11,8,-1,8,11,12,-1,8,12,13,-1,14,15,8,-1,8,15,16,-1,8,16,10,-1,13,17,8,-1,8,17,18,-1,8,18,19,-1,19,20,8,-1,8,20,21,-1,8,21,9,-1,
        ]
    }
}