#VRML V2.0 utf8
# 3D model generated by easyeda2kicad.py (https://github.com/uPesy/easyeda2kicad.py)

Shape{
    appearance Appearance {
        material  Material 	{
            diffuseColor 0.2235294117647059 0.2235294117647059 0.2235294117647059
            specularColor 0.11372549019607843 0.11372549019607843 0.11372549019607843
            ambientIntensity 0.2235
            transparency 0.0
            shininess 0.5
        }
    }
    geometry IndexedFaceSet {
        ccw TRUE
        solid FALSE
        coord DEF co Coordinate {
            point [
                0.3337 -1.0384 0.4577, 0.3337 -1.0384 0.3789, 0.6663 -1.0384 0.4577, 0.6663 -1.0384 0.3789, -0.1663 -1.0384 0.4577, -0.1663 -1.0384 0.3789, 0.1663 -1.0384 0.4577, 0.1663 -1.0384 0.3789, -0.6663 -1.0384 0.4577, -0.6663 -1.0384 0.3789, -0.3337 -1.0384 0.4577, -0.3337 -1.0384 0.3789, 0.3337 1.0384 0.3789, 0.3337 1.0384 0.4577, 0.6663 1.0384 0.3789, 0.6663 1.0384 0.4577, -0.1663 1.0384 0.3789, -0.1663 1.0384 0.4577, 0.1663 1.0384 0.3789, 0.1663 1.0384 0.4577, -0.6663 1.0384 0.3789, -0.6663 1.0384 0.4577, -0.3337 1.0384 0.3789, -0.3337 1.0384 0.4577, -0.999 1.0384 0.3789, -0.999 1.0384 0.4577, -0.8337 1.0384 0.3789, -0.8337 1.0384 0.4577, -0.999 -1.0384 0.4577, -0.999 -1.0384 0.3789, -0.8337 -1.0384 0.4577, -0.8337 -1.0384 0.3789, -0.0388 0.0492 0.0591, 0.0172 0.0492 0.0591, 0.0172 0.0129 0.0591, 0.1672 0.003 0.0591, 0.1595 0.0332 0.0591, 0.1808 -0.0446 0.0591, -0.0388 0.0129 0.0591, -0.0388 0.0008 0.0591, -0.0494 -0.0583 0.0591, -0.0388 0.0614 0.0591, -0.0494 0.9489 0.0591, 0.0278 0.0614 0.0591, 0.1393 0.0545 0.0591, 0.1088 0.0642 0.0591, 0.1036 0.0644 0.0591, 0.0748 0.0583 0.0591, 0.0627 0.0508 0.0591, 0.0278 -0.0568 0.0591, 0.0521 0.0397 0.0591, 0.0558 0.0443 0.0591, 0.0172 0.0008 0.0591, 0.0172 -0.0446 0.0591, -0.0388 -0.0446 0.0591, -0.0388 -0.0568 0.0591, 0.2368 -0.0568 0.0591, 0.1119 -0.0583 0.0591, 0.1808 -0.0568 0.0591, 0.1302 -0.055 0.0591, 0.1417 -0.0487 0.0591, 0.1304 0.0458 0.0591, 0.1487 0.0293 0.0591, 0.1043 0.0523 0.0591, 0.1564 0.0069 0.0591, 0.1566 0.0022 0.0591, 0.1504 -0.0222 0.0591, 0.1342 -0.0392 0.0591, 0.111 -0.0473 0.0591, 0.1484 -0.0431 0.0591, 0.1522 -0.0391 0.0591, 0.1636 -0.0195 0.0591, 0.0747 -0.0537 0.0591, 0.0521 -0.035 0.0591, 0.0613 -0.028 0.0591, 0.0613 0.0326 0.0591, 0.0802 -0.0427 0.0591, 0.0805 0.0474 0.0591, 0.1035 -0.0477 0.0591, 0.0916 0.051 0.0591, 0.0994 0.0521 0.0591, 0.0885 -0.0583 0.0591, 0.0975 -0.0596 0.0591, -0.0494 -0.9489 0.0591, 0.1035 -0.0598 0.0591, 0.2262 -0.0446 0.0591, 0.2262 0.0614 0.0591, 0.2368 0.0614 0.0591, 0.9489 0.9489 0.0591, 0.9489 -0.0583 0.0591, 0.9489 -0.9489 0.0591, -0.9489 -0.9489 0.0591, -0.9489 -0.0583 0.0591, 0.0882 -0.0582 0.0591, -0.1836 -0.0568 0.0591, -0.172 -0.0568 0.0591, -0.2726 -0.0568 0.0591, -0.2551 -0.0189 0.0591, -0.2016 -0.0189 0.0591, -0.1213 0.0571 0.0591, -0.1426 0.0428 0.0591, -0.2281 0.0614 0.0591, -0.1331 -0.0485 0.0591, -0.1093 -0.0561 0.0591, -0.0966 -0.0568 0.0591, -0.1028 0.0606 0.0591, -0.9489 0.9489 0.0591, -0.2296 0.0614 0.0591, -0.2841 -0.0568 0.0591, -0.1547 0.0194 0.0591, -0.1569 0.0008 0.0591, -0.1502 -0.0289 0.0591, -0.06 -0.0568 0.0591, -0.06 0.0614 0.0591, -0.0838 0.0614 0.0591, 1.0384 -0.999 0.3789, 1.0384 0.999 0.3789, 1.0384 -0.999 0.4577, 1.0384 0.999 0.4577, 0.8337 1.0384 0.4577, 0.999 1.0384 0.4577, 0.8337 1.0384 0.3789, 0.999 1.0384 0.3789, -1.0384 0.999 0.3789, -1.0384 -0.999 0.3789, -1.0384 0.999 0.4577, -1.0384 -0.999 0.4577, 0.8337 -1.0384 0.3789, 0.999 -1.0384 0.3789, 0.8337 -1.0384 0.4577, 0.999 -1.0384 0.4577, 0.9489 0.9489 0.7776, -0.6035 -0.6705 0.7776, 0.9489 -0.9489 0.7776, -0.5907 -0.7185 0.7776, -0.6035 -0.7664 0.7776, -0.7697 -0.6705 0.7776, -0.9489 0.9489 0.7776, -0.7826 -0.7185 0.7776, -0.9489 -0.9489 0.7776, -0.7697 -0.7664 0.7776, -0.6387 -0.8016 0.7776, -0.6866 -0.8144 0.7776, -0.7346 -0.8016 0.7776, -0.7346 -0.6354 0.7776, -0.6866 -0.6225 0.7776, -0.6387 -0.6354 0.7776, 0.9996 -1.0384 0.3789, 0.9489 -0.9877 0.0916, -0.9489 -0.9877 0.0916, -0.9996 -1.0384 0.3789, 1.0384 -0.9996 0.3789, 0.9877 -0.9489 0.0916, 0.9877 0.9489 0.0916, 1.0384 0.9996 0.3789, -1.0384 0.9996 0.3789, -0.9877 0.9489 0.0916, -0.9877 -0.9489 0.0916, -1.0384 -0.9996 0.3789, -0.9996 1.0384 0.3789, -0.9489 0.9877 0.0916, 0.9489 0.9877 0.0916, 0.9996 1.0384 0.3789, 0.9996 1.0384 0.4577, 0.9489 0.9877 0.745, -0.9489 0.9877 0.745, -0.9996 1.0384 0.4577, -1.0384 -0.9996 0.4577, -0.9877 -0.9489 0.745, -0.9877 0.9489 0.745, -1.0384 0.9996 0.4577, 1.0384 0.9996 0.4577, 0.9877 0.9489 0.745, 0.9877 -0.9489 0.745, 1.0384 -0.9996 0.4577, -0.9996 -1.0384 0.4577, -0.9489 -0.9877 0.745, 0.9489 -0.9877 0.745, 0.9996 -1.0384 0.4577, 0.9489 -0.9666 0.0633, -0.9489 -0.9666 0.0633, -0.9489 -0.9667 0.0633, 0.9489 -0.9667 0.0633, -0.9489 -0.9805 0.075, 0.9489 -0.9805 0.075, -0.9489 -0.9807 0.0751, 0.9489 -0.9807 0.0751, 0.9578 -0.9643 0.0633, 0.9821 -0.968 0.0892, 0.9821 -0.9681 0.0892, 0.9764 -0.9648 0.0751, 0.968 -0.9821 0.0892, 0.9648 -0.9764 0.0751, 0.9681 -0.9821 0.0892, 0.9807 -0.9489 0.0751, 0.9805 -0.9489 0.075, 0.9643 -0.9578 0.0633, 0.9666 -0.9489 0.0633, 0.9667 -0.9489 0.0633, -0.9666 -0.9489 0.0633, -0.9643 -0.9578 0.0633, -0.968 -0.9821 0.0892, -0.9681 -0.9821 0.0892, -0.9648 -0.9764 0.0751, -0.9821 -0.968 0.0892, -0.9807 -0.9489 0.0751, -0.9764 -0.9648 0.0751, -0.9821 -0.9681 0.0892, -0.9578 -0.9643 0.0633, -0.9805 -0.9489 0.075, -0.9667 -0.9489 0.0633, 0.9666 0.9489 0.0633, 0.9667 0.9489 0.0633, 0.9805 0.9489 0.075, 0.9807 0.9489 0.0751, 1.033 -1.0188 0.3777, 1.0189 -1.033 0.3777, 1.0187 -1.0331 0.3777, 1.0331 -1.0187 0.3777, -1.0188 -1.033 0.3777, -1.033 -1.0189 0.3777, -1.0331 -1.0187 0.3777, -1.0187 -1.0331 0.3777, -0.9807 0.9489 0.0751, -0.9805 0.9489 0.075, -0.9667 0.9489 0.0633, -0.9666 0.9489 0.0633, -0.9489 0.9666 0.0633, -0.9489 0.9807 0.0751, 0.9489 0.9807 0.0751, -0.9489 0.9805 0.075, 0.9489 0.9805 0.075, -0.9489 0.9667 0.0633, 0.9489 0.9667 0.0633, 0.9489 0.9666 0.0633, 0.9643 0.9578 0.0633, 0.968 0.9821 0.0892, 0.9681 0.9821 0.0892, 0.9648 0.9764 0.0751, 0.9821 0.968 0.0892, 0.9764 0.9648 0.0751, 0.9821 0.9681 0.0892, 0.9578 0.9643 0.0633, 1.0187 -1.0331 0.4589, 1.0189 -1.033 0.4589, 1.033 -1.0188 0.4589, 1.0331 -1.0187 0.4589, -1.0187 -1.0331 0.4589, -1.0188 -1.033 0.4589, -1.033 -1.0189 0.4589, -1.0331 -1.0187 0.4589, -0.9557 0.9654 0.0633, -0.9821 0.968 0.0892, -0.9751 0.9751 0.0892, -0.9714 0.9714 0.0751, -0.968 0.9821 0.0892, -0.9634 0.9835 0.0898, -0.9611 0.9782 0.0751, -0.9835 0.9634 0.0898, -0.9782 0.9611 0.0751, -0.9654 0.9557 0.0633, -0.9615 0.9615 0.0633, 1.0188 1.033 0.3777, 1.033 1.0189 0.3777, 1.0331 1.0187 0.3777, 1.0187 1.0331 0.3777, 0.9835 -0.9634 0.7468, 0.9634 -0.9835 0.7468, 0.968 -0.9821 0.7474, 0.9751 -0.9751 0.7474, 0.9821 -0.968 0.7474, -0.9489 -0.9807 0.7615, 0.9489 -0.9807 0.7615, -0.9489 -0.9805 0.7617, 0.9489 -0.9805 0.7617, -0.9489 -0.9667 0.7733, 0.9489 -0.9667 0.7733, -0.9489 -0.9666 0.7733, 0.9489 -0.9666 0.7733, -0.968 -0.9821 0.7474, -0.9681 -0.9821 0.7474, -0.9821 -0.9681 0.7474, -0.9821 -0.968 0.7474, -1.0187 1.0331 0.3777, -1.0189 1.033 0.3777, -1.0331 1.0187 0.3777, -1.033 1.0188 0.3777, 1.0331 1.0187 0.4589, 1.033 1.0189 0.4589, 1.0188 1.033 0.4589, 1.0187 1.0331 0.4589, 0.9805 -0.9489 0.7617, 0.9667 -0.9489 0.7733, 0.9654 -0.9557 0.7733, 0.9615 -0.9615 0.7733, 0.9782 -0.9611 0.7615, 0.9714 -0.9714 0.7615, 0.9611 -0.9782 0.7615, 0.9666 -0.9489 0.7733, 0.9557 -0.9654 0.7733, 0.9807 -0.9489 0.7615, -0.9764 -0.9648 0.7615, -0.9648 -0.9764 0.7615, -0.9578 -0.9643 0.7733, -0.9643 -0.9578 0.7733, -0.9666 -0.9489 0.7733, -0.9807 -0.9489 0.7615, -0.9805 -0.9489 0.7617, -0.9667 -0.9489 0.7733, -1.0187 1.0331 0.4589, -1.0189 1.033 0.4589, -1.033 1.0188 0.4589, -1.0331 1.0187 0.4589, 0.9634 0.9835 0.7468, 0.9835 0.9634 0.7468, 0.9821 0.968 0.7474, 0.9751 0.9751 0.7474, 0.968 0.9821 0.7474, 0.9807 0.9489 0.7615, 0.9805 0.9489 0.7617, 0.9667 0.9489 0.7733, 0.9666 0.9489 0.7733, -0.9807 0.9489 0.7615, -0.9805 0.9489 0.7617, -0.9667 0.9489 0.7733, -0.9666 0.9489 0.7733, -0.9835 0.9634 0.7468, -0.9634 0.9835 0.7468, -0.968 0.9821 0.7474, -0.9751 0.9751 0.7474, -0.9821 0.968 0.7474, 0.9489 0.9805 0.7617, 0.9489 0.9667 0.7733, 0.9557 0.9654 0.7733, 0.9615 0.9615 0.7733, 0.9611 0.9782 0.7615, 0.9714 0.9714 0.7615, 0.9782 0.9611 0.7615, 0.9489 0.9666 0.7733, 0.9654 0.9557 0.7733, 0.9489 0.9807 0.7615, -0.9654 0.9557 0.7733, -0.9615 0.9615 0.7733, -0.9782 0.9611 0.7615, -0.9714 0.9714 0.7615, -0.9611 0.9782 0.7615, -0.9489 0.9807 0.7615, -0.9557 0.9654 0.7733, -0.9489 0.9666 0.7733, -0.9489 0.9667 0.7733, -0.9489 0.9805 0.7617
            ]
        }
        coordIndex [
            0,1,2,-1,2,1,3,-1,4,5,6,-1,6,5,7,-1,8,9,10,-1,10,9,11,-1,12,13,14,-1,14,13,15,-1,16,17,18,-1,18,17,19,-1,20,21,22,-1,22,21,23,-1,24,25,26,-1,26,25,27,-1,28,29,30,-1,30,29,31,-1,32,33,34,-1,35,36,37,-1,38,39,40,-1,34,38,32,-1,32,38,40,-1,32,40,41,-1,41,40,42,-1,41,42,43,-1,37,36,42,-1,42,36,44,-1,42,44,45,-1,45,46,42,-1,42,46,47,-1,42,47,48,-1,49,43,50,-1,50,43,42,-1,50,42,51,-1,51,42,48,-1,52,53,39,-1,39,53,54,-1,39,54,40,-1,40,54,55,-1,40,55,49,-1,56,57,58,-1,58,57,59,-1,58,59,60,-1,61,62,63,-1,63,62,64,-1,63,64,65,-1,65,66,63,-1,63,66,67,-1,63,67,68,-1,60,69,58,-1,58,69,70,-1,58,70,37,-1,37,70,71,-1,37,71,35,-1,72,49,73,-1,73,49,50,-1,73,50,74,-1,74,50,75,-1,74,75,76,-1,76,75,77,-1,76,77,78,-1,78,77,79,-1,78,79,68,-1,68,79,80,-1,68,80,63,-1,81,82,83,-1,83,82,84,-1,83,84,57,-1,85,37,86,-1,86,37,42,-1,86,42,87,-1,87,42,88,-1,87,88,56,-1,56,88,89,-1,56,89,57,-1,57,89,90,-1,57,90,83,-1,91,92,83,-1,83,92,40,-1,83,40,81,-1,81,40,49,-1,81,49,93,-1,93,49,72,-1,94,95,40,-1,96,97,98,-1,99,100,101,-1,102,103,95,-1,95,103,104,-1,95,104,40,-1,105,99,42,-1,42,99,101,-1,42,101,106,-1,106,101,107,-1,106,107,92,-1,92,107,108,-1,92,108,40,-1,40,108,96,-1,40,96,94,-1,94,96,98,-1,100,109,101,-1,101,109,110,-1,101,110,95,-1,95,110,111,-1,95,111,102,-1,104,112,40,-1,40,112,113,-1,40,113,42,-1,42,113,114,-1,42,114,105,-1,115,116,117,-1,117,116,118,-1,119,120,121,-1,121,120,122,-1,123,124,125,-1,125,124,126,-1,127,128,129,-1,129,128,130,-1,131,132,133,-1,133,132,134,-1,133,134,135,-1,136,137,138,-1,138,137,139,-1,138,139,140,-1,135,141,133,-1,133,141,142,-1,133,142,139,-1,139,142,143,-1,139,143,140,-1,136,144,137,-1,137,144,145,-1,137,145,131,-1,131,145,146,-1,131,146,132,-1,147,128,148,-1,148,128,127,-1,148,127,3,-1,3,1,148,-1,148,1,7,-1,148,7,149,-1,7,5,149,-1,149,5,11,-1,149,11,9,-1,9,31,149,-1,149,31,29,-1,149,29,150,-1,151,152,115,-1,115,152,153,-1,115,153,116,-1,116,153,154,-1,155,156,123,-1,123,156,157,-1,123,157,124,-1,124,157,158,-1,159,24,160,-1,160,24,26,-1,160,26,20,-1,20,22,160,-1,160,22,16,-1,160,16,161,-1,16,18,161,-1,161,18,12,-1,161,12,14,-1,14,121,161,-1,161,121,122,-1,161,122,162,-1,163,120,164,-1,164,120,119,-1,164,119,15,-1,23,21,165,-1,15,13,164,-1,164,13,19,-1,164,19,165,-1,165,19,17,-1,165,17,23,-1,21,27,165,-1,165,27,25,-1,165,25,166,-1,167,168,126,-1,126,168,169,-1,126,169,125,-1,125,169,170,-1,171,172,118,-1,118,172,173,-1,118,173,117,-1,117,173,174,-1,175,28,176,-1,176,28,30,-1,176,30,8,-1,0,2,177,-1,8,10,176,-1,176,10,4,-1,176,4,177,-1,177,4,6,-1,177,6,0,-1,2,129,177,-1,177,129,130,-1,177,130,178,-1,83,90,179,-1,91,83,180,-1,180,83,179,-1,180,179,181,-1,181,179,182,-1,181,182,183,-1,183,182,184,-1,183,184,185,-1,185,184,186,-1,185,186,149,-1,149,186,148,-1,179,90,187,-1,188,189,190,-1,191,148,186,-1,192,193,191,-1,152,188,194,-1,194,188,190,-1,194,190,195,-1,195,190,196,-1,189,193,190,-1,190,193,192,-1,190,192,196,-1,196,192,187,-1,90,197,196,-1,196,197,198,-1,196,198,195,-1,187,90,196,-1,191,186,192,-1,192,186,184,-1,192,184,187,-1,187,184,182,-1,187,182,179,-1,199,91,200,-1,201,202,203,-1,204,157,205,-1,206,207,204,-1,149,201,185,-1,185,201,203,-1,185,203,183,-1,183,203,208,-1,202,207,203,-1,203,207,206,-1,203,206,208,-1,208,206,200,-1,91,180,208,-1,208,180,181,-1,208,181,183,-1,200,91,208,-1,204,205,206,-1,206,205,209,-1,206,209,200,-1,200,209,210,-1,200,210,199,-1,89,88,211,-1,90,89,197,-1,197,89,211,-1,197,211,198,-1,198,211,212,-1,198,212,195,-1,195,212,213,-1,195,213,194,-1,194,213,214,-1,194,214,152,-1,152,214,153,-1,193,215,191,-1,191,215,216,-1,191,216,148,-1,148,216,217,-1,148,217,147,-1,193,189,215,-1,215,189,188,-1,215,188,218,-1,218,188,152,-1,218,152,151,-1,207,219,204,-1,204,219,220,-1,204,220,157,-1,157,220,221,-1,157,221,158,-1,207,202,219,-1,219,202,201,-1,219,201,222,-1,222,201,149,-1,222,149,150,-1,92,91,199,-1,157,156,205,-1,205,156,223,-1,205,223,209,-1,209,223,224,-1,209,224,210,-1,210,224,225,-1,210,225,199,-1,199,225,226,-1,199,226,92,-1,92,226,106,-1,42,106,227,-1,160,161,228,-1,228,161,229,-1,228,229,230,-1,230,229,231,-1,230,231,232,-1,232,231,233,-1,232,233,227,-1,227,233,234,-1,227,234,42,-1,42,234,88,-1,211,88,235,-1,236,237,238,-1,239,153,214,-1,240,241,239,-1,161,236,229,-1,229,236,238,-1,229,238,231,-1,231,238,242,-1,237,241,238,-1,238,241,240,-1,238,240,242,-1,242,240,235,-1,88,234,242,-1,242,234,233,-1,242,233,231,-1,235,88,242,-1,239,214,240,-1,240,214,213,-1,240,213,235,-1,235,213,212,-1,235,212,211,-1,130,128,178,-1,178,128,147,-1,178,147,243,-1,243,147,217,-1,243,217,244,-1,244,217,216,-1,244,216,245,-1,245,216,215,-1,245,215,246,-1,246,215,218,-1,246,218,174,-1,174,218,151,-1,174,151,117,-1,117,151,115,-1,29,28,150,-1,150,28,175,-1,150,175,222,-1,222,175,247,-1,222,247,219,-1,219,247,248,-1,219,248,220,-1,220,248,249,-1,220,249,221,-1,221,249,250,-1,221,250,158,-1,158,250,167,-1,158,167,124,-1,124,167,126,-1,227,106,251,-1,252,253,254,-1,255,256,257,-1,257,256,160,-1,156,258,223,-1,223,258,259,-1,223,259,224,-1,224,259,260,-1,253,255,254,-1,254,255,257,-1,254,257,261,-1,261,257,251,-1,261,251,106,-1,106,226,260,-1,260,226,225,-1,260,225,224,-1,160,228,257,-1,257,228,230,-1,257,230,251,-1,251,230,232,-1,251,232,227,-1,258,252,259,-1,259,252,254,-1,259,254,260,-1,260,254,261,-1,260,261,106,-1,241,262,239,-1,239,262,263,-1,239,263,153,-1,153,263,264,-1,153,264,154,-1,241,237,262,-1,262,237,236,-1,262,236,265,-1,265,236,161,-1,265,161,162,-1,174,173,246,-1,246,173,266,-1,246,266,245,-1,177,178,267,-1,267,178,243,-1,267,243,268,-1,268,243,244,-1,268,244,269,-1,269,244,245,-1,269,245,270,-1,270,245,266,-1,176,177,271,-1,271,177,272,-1,271,272,273,-1,273,272,274,-1,273,274,275,-1,275,274,276,-1,275,276,277,-1,276,278,277,-1,277,278,133,-1,277,133,139,-1,175,176,247,-1,247,176,279,-1,280,249,279,-1,279,249,248,-1,279,248,247,-1,280,281,249,-1,249,281,282,-1,249,282,250,-1,250,282,168,-1,250,168,167,-1,159,160,283,-1,283,160,256,-1,283,256,284,-1,156,155,258,-1,258,155,285,-1,258,285,252,-1,252,285,286,-1,252,286,253,-1,253,286,284,-1,253,284,255,-1,255,284,256,-1,118,116,171,-1,171,116,154,-1,171,154,287,-1,287,154,264,-1,287,264,288,-1,288,264,263,-1,288,263,289,-1,289,263,262,-1,289,262,290,-1,290,262,265,-1,290,265,163,-1,163,265,162,-1,163,162,120,-1,120,162,122,-1,291,292,293,-1,133,294,293,-1,266,295,270,-1,270,295,296,-1,270,296,269,-1,269,296,268,-1,268,296,297,-1,268,297,267,-1,267,297,272,-1,267,272,177,-1,292,298,293,-1,293,298,133,-1,299,294,133,-1,266,173,295,-1,295,173,300,-1,295,300,291,-1,133,278,299,-1,299,278,276,-1,299,276,274,-1,291,293,295,-1,295,293,294,-1,295,294,296,-1,296,294,299,-1,296,299,297,-1,297,299,274,-1,297,274,272,-1,282,281,301,-1,302,280,279,-1,303,275,277,-1,304,139,305,-1,275,303,273,-1,273,303,302,-1,273,302,271,-1,271,302,279,-1,271,279,176,-1,281,280,301,-1,301,280,302,-1,301,302,304,-1,304,302,303,-1,304,303,139,-1,277,139,303,-1,168,282,306,-1,306,282,301,-1,306,301,307,-1,307,301,304,-1,307,304,308,-1,308,304,305,-1,25,24,166,-1,166,24,159,-1,166,159,309,-1,309,159,283,-1,309,283,310,-1,310,283,284,-1,310,284,311,-1,311,284,286,-1,311,286,312,-1,312,286,285,-1,312,285,170,-1,170,285,155,-1,170,155,125,-1,125,155,123,-1,163,164,290,-1,290,164,313,-1,290,313,289,-1,172,171,314,-1,314,171,287,-1,314,287,315,-1,315,287,288,-1,315,288,316,-1,316,288,289,-1,316,289,317,-1,317,289,313,-1,173,172,300,-1,300,172,318,-1,300,318,291,-1,291,318,319,-1,291,319,292,-1,292,319,320,-1,292,320,298,-1,320,321,298,-1,298,321,131,-1,298,131,133,-1,169,168,322,-1,322,168,306,-1,322,306,323,-1,323,306,307,-1,323,307,324,-1,324,307,308,-1,324,308,325,-1,308,305,325,-1,325,305,139,-1,325,139,137,-1,170,169,312,-1,312,169,326,-1,312,326,311,-1,165,166,327,-1,327,166,309,-1,327,309,328,-1,328,309,310,-1,328,310,329,-1,329,310,311,-1,329,311,330,-1,330,311,326,-1,331,332,333,-1,131,334,333,-1,313,335,317,-1,317,335,336,-1,317,336,316,-1,316,336,315,-1,315,336,337,-1,315,337,314,-1,314,337,318,-1,314,318,172,-1,332,338,333,-1,333,338,131,-1,339,334,131,-1,313,164,335,-1,335,164,340,-1,335,340,331,-1,131,321,339,-1,339,321,320,-1,339,320,319,-1,331,333,335,-1,335,333,334,-1,335,334,336,-1,336,334,339,-1,336,339,337,-1,337,339,319,-1,337,319,318,-1,323,324,341,-1,137,342,341,-1,326,343,330,-1,330,343,344,-1,330,344,329,-1,329,344,328,-1,328,344,345,-1,328,345,327,-1,327,345,346,-1,327,346,165,-1,324,325,341,-1,341,325,137,-1,347,342,137,-1,326,169,343,-1,343,169,322,-1,343,322,323,-1,137,348,347,-1,347,348,349,-1,347,349,350,-1,323,341,343,-1,343,341,342,-1,343,342,344,-1,344,342,347,-1,344,347,345,-1,345,347,350,-1,345,350,346,-1,164,165,340,-1,340,165,346,-1,340,346,331,-1,331,346,350,-1,331,350,332,-1,332,350,349,-1,332,349,338,-1,349,348,338,-1,338,348,137,-1,338,137,131,-1,
        ]
    }
}
Shape{
    appearance Appearance {
        material  Material 	{
            diffuseColor 0.6470588235294118 0.6470588235294118 0.6470588235294118
            specularColor 0.3215686274509804 0.3215686274509804 0.3215686274509804
            ambientIntensity 0.6471
            transparency 0.0
            shininess 0.5
        }
    }
    geometry IndexedFaceSet {
        ccw TRUE
        solid FALSE
        coord DEF co Coordinate {
            point [
                -0.5907 -0.7185 0.7736, -0.5907 -0.7185 0.7776, -0.6035 -0.6705 0.7736, -0.6035 -0.6705 0.7776, -0.6387 -0.6354 0.7736, -0.6387 -0.6354 0.7776, -0.6866 -0.6225 0.7736, -0.6866 -0.6225 0.7776, -0.7346 -0.6354 0.7736, -0.7346 -0.6354 0.7776, -0.7697 -0.6705 0.7736, -0.7697 -0.6705 0.7776, -0.7826 -0.7185 0.7736, -0.7826 -0.7185 0.7776, -0.7697 -0.7664 0.7736, -0.7697 -0.7664 0.7776, -0.7346 -0.8016 0.7736, -0.7346 -0.8016 0.7776, -0.6866 -0.8144 0.7736, -0.6866 -0.8144 0.7776, -0.6387 -0.8016 0.7736, -0.6387 -0.8016 0.7776, -0.6035 -0.7664 0.7736, -0.6035 -0.7664 0.7776, -0.6866 -0.7185 0.7736, -0.2281 0.0614 0.063, -0.2296 0.0614 0.063, -0.2281 0.0614 0.0591, -0.2296 0.0614 0.0591, -0.2841 -0.0568 0.063, -0.2841 -0.0568 0.0591, -0.2726 -0.0568 0.063, -0.2726 -0.0568 0.0591, -0.2551 -0.0189 0.063, -0.2551 -0.0189 0.0591, -0.2016 -0.0189 0.063, -0.2016 -0.0189 0.0591, -0.1836 -0.0568 0.063, -0.1836 -0.0568 0.0591, -0.172 -0.0568 0.063, -0.172 -0.0568 0.0591, -0.2495 -0.0068 0.063, -0.2073 -0.0068 0.063, -0.2287 0.0383 0.063, -0.2495 -0.0068 0.0591, -0.2287 0.0383 0.0591, -0.2073 -0.0068 0.0591, -0.0966 -0.0568 0.063, -0.06 -0.0568 0.063, -0.0966 -0.0568 0.0591, -0.06 -0.0568 0.0591, -0.06 0.0614 0.063, -0.06 0.0614 0.0591, -0.0838 0.0614 0.063, -0.0838 0.0614 0.0591, -0.1213 0.0571 0.063, -0.1213 0.0571 0.0591, -0.1028 0.0606 0.0591, -0.1028 0.0606 0.063, -0.1569 0.0008 0.063, -0.1569 0.0008 0.0591, -0.1547 0.0194 0.0591, -0.1547 0.0194 0.063, -0.1426 0.0428 0.0591, -0.1426 0.0428 0.063, -0.1093 -0.0561 0.0591, -0.1093 -0.0561 0.063, -0.1331 -0.0485 0.0591, -0.1331 -0.0485 0.063, -0.1502 -0.0289 0.0591, -0.1502 -0.0289 0.063, -0.1444 -0.0139 0.063, -0.1348 -0.0312 0.063, -0.1179 -0.0416 0.063, -0.1011 -0.0442 0.063, -0.0841 -0.0446 0.063, -0.0706 -0.0446 0.063, -0.0706 0.0492 0.063, -0.0789 0.0492 0.063, -0.0971 0.0487 0.063, -0.1152 0.0459 0.063, -0.1282 0.0396 0.063, -0.1411 0.0244 0.063, -0.1463 0.0008 0.063, -0.0706 0.0492 0.0591, -0.0706 -0.0446 0.0591, -0.0789 0.0492 0.0591, -0.0971 0.0487 0.0591, -0.1152 0.0459 0.0591, -0.1282 0.0396 0.0591, -0.1411 0.0244 0.0591, -0.1463 0.0008 0.0591, -0.1444 -0.0139 0.0591, -0.1348 -0.0312 0.0591, -0.1179 -0.0416 0.0591, -0.1011 -0.0442 0.0591, -0.0841 -0.0446 0.0591, 0.0278 -0.0568 0.063, 0.0278 0.0614 0.063, 0.0278 -0.0568 0.0591, 0.0278 0.0614 0.0591, -0.0388 0.0614 0.063, -0.0388 0.0614 0.0591, -0.0388 0.0492 0.063, -0.0388 0.0492 0.0591, 0.0172 0.0492 0.063, 0.0172 0.0492 0.0591, 0.0172 0.0129 0.063, 0.0172 0.0129 0.0591, -0.0388 0.0129 0.063, -0.0388 0.0129 0.0591, -0.0388 0.0008 0.063, -0.0388 0.0008 0.0591, 0.0172 0.0008 0.063, 0.0172 0.0008 0.0591, 0.0172 -0.0446 0.063, 0.0172 -0.0446 0.0591, -0.0388 -0.0446 0.063, -0.0388 -0.0446 0.0591, -0.0388 -0.0568 0.063, -0.0388 -0.0568 0.0591, 0.0521 0.0397 0.063, 0.0521 0.0397 0.0591, 0.0558 0.0443 0.0591, 0.0558 0.0443 0.063, 0.0627 0.0508 0.0591, 0.0627 0.0508 0.063, 0.0748 0.0583 0.0591, 0.0748 0.0583 0.063, 0.1036 0.0644 0.0591, 0.1036 0.0644 0.063, 0.0613 0.0326 0.063, 0.0613 0.0326 0.0591, 0.1043 0.0523 0.063, 0.1043 0.0523 0.0591, 0.0994 0.0521 0.0591, 0.0994 0.0521 0.063, 0.0916 0.051 0.0591, 0.0916 0.051 0.063, 0.0805 0.0474 0.0591, 0.0805 0.0474 0.063, 0.1566 0.0022 0.063, 0.1566 0.0022 0.0591, 0.1564 0.0069 0.0591, 0.1564 0.0069 0.063, 0.1487 0.0293 0.0591, 0.1487 0.0293 0.063, 0.1304 0.0458 0.0591, 0.1304 0.0458 0.063, 0.1035 -0.0477 0.063, 0.1035 -0.0477 0.0591, 0.111 -0.0473 0.0591, 0.111 -0.0473 0.063, 0.1342 -0.0392 0.0591, 0.1342 -0.0392 0.063, 0.1504 -0.0222 0.0591, 0.1504 -0.0222 0.063, 0.0613 -0.028 0.063, 0.0613 -0.028 0.0591, 0.0802 -0.0427 0.0591, 0.0802 -0.0427 0.063, 0.0521 -0.035 0.063, 0.0521 -0.035 0.0591, 0.1035 -0.0598 0.063, 0.1035 -0.0598 0.0591, 0.0975 -0.0596 0.0591, 0.0975 -0.0596 0.063, 0.0885 -0.0583 0.0591, 0.0882 -0.0582 0.063, 0.0882 -0.0582 0.0591, 0.0747 -0.0537 0.0591, 0.0747 -0.0537 0.063, 0.1522 -0.0391 0.063, 0.1522 -0.0391 0.0591, 0.1484 -0.0431 0.0591, 0.1484 -0.0431 0.063, 0.1417 -0.0487 0.0591, 0.1417 -0.0487 0.063, 0.1302 -0.055 0.0591, 0.1302 -0.055 0.063, 0.1119 -0.0583 0.0591, 0.1672 0.003 0.063, 0.1672 0.003 0.0591, 0.1636 -0.0195 0.0591, 0.1636 -0.0195 0.063, 0.1088 0.0642 0.0591, 0.1088 0.0642 0.063, 0.1393 0.0545 0.0591, 0.1393 0.0545 0.063, 0.1595 0.0332 0.0591, 0.1595 0.0332 0.063, 0.2368 -0.0568 0.063, 0.2368 0.0614 0.063, 0.2368 -0.0568 0.0591, 0.2368 0.0614 0.0591, 0.2262 0.0614 0.063, 0.2262 0.0614 0.0591, 0.2262 -0.0446 0.063, 0.2262 -0.0446 0.0591, 0.1808 -0.0446 0.063, 0.1808 -0.0446 0.0591, 0.1808 -0.0568 0.063, 0.1808 -0.0568 0.0591
            ]
        }
        coordIndex [
            0,1,2,-1,2,1,3,-1,2,3,4,-1,4,3,5,-1,4,5,6,-1,6,5,7,-1,6,7,8,-1,8,7,9,-1,8,9,10,-1,10,9,11,-1,10,11,12,-1,12,11,13,-1,12,13,14,-1,14,13,15,-1,14,15,16,-1,16,15,17,-1,16,17,18,-1,18,17,19,-1,18,19,20,-1,20,19,21,-1,20,21,22,-1,22,21,23,-1,22,23,0,-1,0,23,1,-1,20,22,24,-1,24,22,0,-1,24,0,2,-1,14,16,24,-1,24,16,18,-1,24,18,20,-1,8,10,24,-1,24,10,12,-1,24,12,14,-1,2,4,24,-1,24,4,6,-1,24,6,8,-1,25,26,27,-1,27,26,28,-1,26,29,28,-1,28,29,30,-1,29,31,30,-1,30,31,32,-1,31,33,32,-1,32,33,34,-1,33,35,34,-1,34,35,36,-1,35,37,36,-1,36,37,38,-1,37,39,38,-1,38,39,40,-1,39,25,40,-1,40,25,27,-1,41,29,26,-1,25,42,26,-1,26,42,43,-1,26,43,41,-1,39,37,35,-1,31,29,33,-1,33,29,41,-1,33,41,35,-1,35,41,42,-1,35,42,39,-1,39,42,25,-1,41,43,44,-1,44,43,45,-1,42,41,46,-1,46,41,44,-1,43,42,45,-1,45,42,46,-1,47,48,49,-1,49,48,50,-1,48,51,50,-1,50,51,52,-1,51,53,52,-1,52,53,54,-1,55,56,57,-1,55,57,58,-1,58,57,54,-1,58,54,53,-1,59,60,61,-1,59,61,62,-1,62,61,63,-1,62,63,64,-1,64,63,56,-1,64,56,55,-1,47,49,65,-1,47,65,66,-1,66,65,67,-1,66,67,68,-1,68,67,69,-1,68,69,70,-1,70,69,60,-1,70,60,59,-1,71,72,68,-1,68,72,73,-1,68,73,66,-1,66,73,74,-1,66,74,47,-1,47,74,75,-1,47,75,48,-1,48,75,76,-1,48,76,51,-1,51,76,77,-1,51,77,53,-1,53,77,78,-1,53,78,58,-1,58,78,79,-1,58,79,55,-1,55,79,80,-1,55,80,64,-1,64,80,81,-1,64,81,62,-1,62,81,82,-1,62,82,59,-1,59,82,83,-1,59,83,70,-1,70,83,71,-1,70,71,68,-1,77,76,84,-1,84,76,85,-1,78,77,86,-1,86,77,84,-1,78,86,87,-1,78,87,79,-1,79,87,88,-1,79,88,80,-1,80,88,89,-1,80,89,81,-1,81,89,90,-1,81,90,82,-1,82,90,91,-1,82,91,83,-1,83,91,92,-1,83,92,71,-1,71,92,93,-1,71,93,72,-1,72,93,94,-1,72,94,73,-1,73,94,95,-1,73,95,74,-1,74,95,96,-1,74,96,75,-1,76,75,85,-1,85,75,96,-1,97,98,99,-1,99,98,100,-1,98,101,100,-1,100,101,102,-1,101,103,102,-1,102,103,104,-1,103,105,104,-1,104,105,106,-1,105,107,106,-1,106,107,108,-1,107,109,108,-1,108,109,110,-1,109,111,110,-1,110,111,112,-1,111,113,112,-1,112,113,114,-1,113,115,114,-1,114,115,116,-1,115,117,116,-1,116,117,118,-1,117,119,118,-1,118,119,120,-1,119,97,120,-1,120,97,99,-1,97,119,117,-1,117,115,97,-1,97,115,113,-1,97,113,98,-1,103,101,105,-1,105,101,98,-1,105,98,107,-1,107,98,113,-1,107,113,109,-1,109,113,111,-1,121,122,123,-1,121,123,124,-1,124,123,125,-1,124,125,126,-1,126,125,127,-1,126,127,128,-1,128,127,129,-1,128,129,130,-1,121,131,122,-1,122,131,132,-1,133,134,135,-1,133,135,136,-1,136,135,137,-1,136,137,138,-1,138,137,139,-1,138,139,140,-1,140,139,132,-1,140,132,131,-1,141,142,143,-1,141,143,144,-1,144,143,145,-1,144,145,146,-1,146,145,147,-1,146,147,148,-1,148,147,134,-1,148,134,133,-1,149,150,151,-1,149,151,152,-1,152,151,153,-1,152,153,154,-1,154,153,155,-1,154,155,156,-1,156,155,142,-1,156,142,141,-1,157,158,159,-1,157,159,160,-1,160,159,150,-1,160,150,149,-1,157,161,158,-1,158,161,162,-1,163,164,165,-1,163,165,166,-1,166,165,167,-1,166,167,168,-1,167,169,168,-1,168,169,170,-1,168,170,171,-1,171,170,162,-1,171,162,161,-1,172,173,174,-1,172,174,175,-1,175,174,176,-1,175,176,177,-1,177,176,178,-1,177,178,179,-1,179,178,163,-1,163,178,180,-1,163,180,164,-1,181,182,183,-1,181,183,184,-1,184,183,173,-1,184,173,172,-1,130,129,185,-1,130,185,186,-1,186,185,187,-1,186,187,188,-1,188,187,189,-1,188,189,190,-1,190,189,182,-1,190,182,181,-1,161,157,171,-1,171,157,160,-1,181,184,156,-1,156,184,154,-1,154,184,172,-1,154,172,175,-1,131,121,124,-1,131,124,140,-1,140,124,126,-1,140,126,128,-1,175,177,154,-1,154,177,179,-1,154,179,152,-1,152,179,163,-1,152,163,149,-1,149,163,166,-1,149,166,160,-1,160,166,168,-1,160,168,171,-1,156,141,181,-1,181,141,144,-1,181,144,190,-1,190,144,146,-1,190,146,188,-1,188,146,148,-1,188,148,186,-1,186,148,133,-1,186,133,130,-1,130,133,136,-1,130,136,128,-1,128,136,138,-1,128,138,140,-1,191,192,193,-1,193,192,194,-1,192,195,194,-1,194,195,196,-1,195,197,196,-1,196,197,198,-1,197,199,198,-1,198,199,200,-1,199,201,200,-1,200,201,202,-1,201,191,202,-1,202,191,193,-1,195,192,197,-1,197,192,191,-1,197,191,199,-1,199,191,201,-1,
        ]
    }
}
Shape{
    appearance Appearance {
        material  Material 	{
            diffuseColor 0.2235294117647059 0.2235294117647059 0.2235294117647059
            specularColor 0.11372549019607843 0.11372549019607843 0.11372549019607843
            ambientIntensity 0.2235
            transparency 0.0
            shininess 0.5
        }
    }
    geometry IndexedFaceSet {
        ccw TRUE
        solid FALSE
        coord DEF co Coordinate {
            point [
                -0.2287 0.0383 0.0591, -0.2073 -0.0068 0.0591, -0.2495 -0.0068 0.0591, -0.0706 0.0492 0.0591, -0.0706 -0.0446 0.0591, -0.0789 0.0492 0.0591, -0.0841 -0.0446 0.0591, -0.0971 0.0487 0.0591, -0.1011 -0.0442 0.0591, -0.1152 0.0459 0.0591, -0.1179 -0.0416 0.0591, -0.1348 -0.0312 0.0591, -0.1444 -0.0139 0.0591, -0.1463 0.0008 0.0591, -0.1411 0.0244 0.0591, -0.1282 0.0396 0.0591
            ]
        }
        coordIndex [
            0,1,2,-1,3,4,5,-1,5,4,6,-1,5,6,7,-1,7,6,8,-1,7,8,9,-1,10,11,8,-1,8,11,12,-1,8,12,13,-1,13,14,8,-1,8,14,15,-1,8,15,9,-1,
        ]
    }
}
Shape{
    appearance Appearance {
        material  Material 	{
            diffuseColor 0.6470588235294118 0.6196078431372549 0.5882352941176471
            specularColor 0.45098039215686275 0.43529411764705883 0.4117647058823529
            ambientIntensity 0.6242
            transparency 0.0
            shininess 0.5
        }
    }
    geometry IndexedFaceSet {
        ccw TRUE
        solid FALSE
        coord DEF co Coordinate {
            point [
                -0.6663 -1.5551 0.0787, -0.6663 -1.3578 0.0787, -0.8337 -1.5551 0.0787, -0.8337 -1.3578 0.0787, -0.6663 -1.5551 0.0, -0.8337 -1.5551 0.0, -0.6663 -1.3578 0.0, -0.8337 -1.3578 0.0, -0.8337 -1.301 0.0122, -0.6663 -1.301 0.0122, -0.8337 -1.2543 0.0468, -0.6663 -1.2543 0.0468, -0.8337 -1.226 0.0975, -0.6663 -1.226 0.0975, -0.6663 -1.1527 0.3372, -0.8337 -1.1527 0.3372, -0.6663 -1.1406 0.3589, -0.8337 -1.1406 0.3589, -0.6663 -1.1206 0.3737, -0.8337 -1.1206 0.3737, -0.6663 -1.0962 0.3789, -0.8337 -1.0962 0.3789, -0.6663 -1.0384 0.3789, -0.8337 -1.0384 0.3789, -0.6663 -1.0962 0.4577, -0.6663 -1.0384 0.4577, -0.8337 -1.0962 0.4577, -0.8337 -1.0384 0.4577, -0.8337 -1.153 0.4454, -0.6663 -1.153 0.4454, -0.8337 -1.1997 0.4109, -0.6663 -1.1997 0.4109, -0.8337 -1.228 0.3602, -0.6663 -1.228 0.3602, -0.6663 -1.3013 0.1205, -0.8337 -1.3013 0.1205, -0.6663 -1.3134 0.0988, -0.8337 -1.3134 0.0988, -0.6663 -1.3334 0.084, -0.8337 -1.3334 0.084, -0.6663 1.3578 0.0787, -0.6663 1.5551 0.0787, -0.8337 1.3578 0.0787, -0.8337 1.5551 0.0787, -0.6663 1.3334 0.084, -0.8337 1.3334 0.084, -0.6663 1.3134 0.0988, -0.8337 1.3134 0.0988, -0.6663 1.3013 0.1205, -0.8337 1.3013 0.1205, -0.6663 1.228 0.3602, -0.8337 1.228 0.3602, -0.8337 1.1997 0.4109, -0.6663 1.1997 0.4109, -0.8337 1.153 0.4454, -0.6663 1.153 0.4454, -0.8337 1.0962 0.4577, -0.6663 1.0962 0.4577, -0.6663 1.0384 0.4577, -0.8337 1.0384 0.4577, -0.6663 1.0962 0.3789, -0.6663 1.0384 0.3789, -0.8337 1.0962 0.3789, -0.8337 1.0384 0.3789, -0.6663 1.1206 0.3737, -0.8337 1.1206 0.3737, -0.6663 1.1406 0.3589, -0.8337 1.1406 0.3589, -0.6663 1.1527 0.3372, -0.8337 1.1527 0.3372, -0.6663 1.226 0.0975, -0.8337 1.226 0.0975, -0.8337 1.2543 0.0468, -0.6663 1.2543 0.0468, -0.8337 1.301 0.0122, -0.6663 1.301 0.0122, -0.8337 1.3578 0.0, -0.6663 1.3578 0.0, -0.6663 1.5551 0.0, -0.8337 1.5551 0.0, -0.1663 1.3578 0.0787, -0.1663 1.5551 0.0787, -0.3337 1.3578 0.0787, -0.3337 1.5551 0.0787, -0.1663 1.3429 0.0806, -0.3337 1.3429 0.0806, -0.1663 1.3289 0.0862, -0.3337 1.3289 0.0862, -0.1663 1.3169 0.0952, -0.3337 1.3169 0.0952, -0.1663 1.3075 0.1068, -0.3337 1.3075 0.1068, -0.1663 1.3013 0.1205, -0.3337 1.3013 0.1205, -0.1663 1.228 0.3602, -0.3337 1.228 0.3602, -0.3337 1.2136 0.3921, -0.1663 1.2136 0.3921, -0.3337 1.1916 0.4193, -0.1663 1.1916 0.4193, -0.3337 1.1635 0.4402, -0.1663 1.1635 0.4402, -0.3337 1.131 0.4532, -0.1663 1.131 0.4532, -0.3337 1.0962 0.4577, -0.1663 1.0962 0.4577, -0.1663 1.0384 0.4577, -0.3337 1.0384 0.4577, -0.1663 1.0962 0.3789, -0.1663 1.0384 0.3789, -0.3337 1.0962 0.3789, -0.3337 1.0384 0.3789, -0.1663 1.1111 0.377, -0.3337 1.1111 0.377, -0.1663 1.125 0.3714, -0.3337 1.125 0.3714, -0.1663 1.1371 0.3625, -0.3337 1.1371 0.3625, -0.1663 1.1465 0.3508, -0.3337 1.1465 0.3508, -0.1663 1.1527 0.3372, -0.3337 1.1527 0.3372, -0.1663 1.226 0.0975, -0.3337 1.226 0.0975, -0.3337 1.2404 0.0656, -0.1663 1.2404 0.0656, -0.3337 1.2624 0.0383, -0.1663 1.2624 0.0383, -0.3337 1.2905 0.0175, -0.1663 1.2905 0.0175, -0.3337 1.323 0.0044, -0.1663 1.323 0.0044, -0.3337 1.3578 0.0, -0.1663 1.3578 0.0, -0.1663 1.5551 0.0, -0.3337 1.5551 0.0, 0.3337 1.3578 0.0787, 0.3337 1.5551 0.0787, 0.1663 1.3578 0.0787, 0.1663 1.5551 0.0787, 0.3337 1.3429 0.0806, 0.1663 1.3429 0.0806, 0.3337 1.3289 0.0862, 0.1663 1.3289 0.0862, 0.3337 1.3169 0.0952, 0.1663 1.3169 0.0952, 0.3337 1.3075 0.1068, 0.1663 1.3075 0.1068, 0.3337 1.3013 0.1205, 0.1663 1.3013 0.1205, 0.3337 1.228 0.3602, 0.1663 1.228 0.3602, 0.1663 1.2136 0.3921, 0.3337 1.2136 0.3921, 0.1663 1.1916 0.4193, 0.3337 1.1916 0.4193, 0.1663 1.1635 0.4402, 0.3337 1.1635 0.4402, 0.1663 1.131 0.4532, 0.3337 1.131 0.4532, 0.1663 1.0962 0.4577, 0.3337 1.0962 0.4577, 0.3337 1.0384 0.4577, 0.1663 1.0384 0.4577, 0.3337 1.0962 0.3789, 0.3337 1.0384 0.3789, 0.1663 1.0962 0.3789, 0.1663 1.0384 0.3789, 0.3337 1.1111 0.377, 0.1663 1.1111 0.377, 0.3337 1.125 0.3714, 0.1663 1.125 0.3714, 0.3337 1.1371 0.3625, 0.1663 1.1371 0.3625, 0.3337 1.1465 0.3508, 0.1663 1.1465 0.3508, 0.3337 1.1527 0.3372, 0.1663 1.1527 0.3372, 0.3337 1.226 0.0975, 0.1663 1.226 0.0975, 0.1663 1.2404 0.0656, 0.3337 1.2404 0.0656, 0.1663 1.2624 0.0383, 0.3337 1.2624 0.0383, 0.1663 1.2905 0.0175, 0.3337 1.2905 0.0175, 0.1663 1.323 0.0044, 0.3337 1.323 0.0044, 0.1663 1.3578 0.0, 0.3337 1.3578 0.0, 0.3337 1.5551 0.0, 0.1663 1.5551 0.0, 0.8337 1.3578 0.0787, 0.8337 1.5551 0.0787, 0.6663 1.3578 0.0787, 0.6663 1.5551 0.0787, 0.8337 1.3429 0.0806, 0.6663 1.3429 0.0806, 0.8337 1.3289 0.0862, 0.6663 1.3289 0.0862, 0.8337 1.3169 0.0952, 0.6663 1.3169 0.0952, 0.8337 1.3075 0.1068, 0.6663 1.3075 0.1068, 0.8337 1.3013 0.1205, 0.6663 1.3013 0.1205, 0.8337 1.228 0.3602, 0.6663 1.228 0.3602, 0.6663 1.2136 0.3921, 0.8337 1.2136 0.3921, 0.6663 1.1916 0.4193, 0.8337 1.1916 0.4193, 0.6663 1.1635 0.4402, 0.8337 1.1635 0.4402, 0.6663 1.131 0.4532, 0.8337 1.131 0.4532, 0.6663 1.0962 0.4577, 0.8337 1.0962 0.4577, 0.8337 1.0384 0.4577, 0.6663 1.0384 0.4577, 0.8337 1.0962 0.3789, 0.8337 1.0384 0.3789, 0.6663 1.0962 0.3789, 0.6663 1.0384 0.3789, 0.8337 1.1111 0.377, 0.6663 1.1111 0.377, 0.8337 1.125 0.3714, 0.6663 1.125 0.3714, 0.8337 1.1371 0.3625, 0.6663 1.1371 0.3625, 0.8337 1.1465 0.3508, 0.6663 1.1465 0.3508, 0.8337 1.1527 0.3372, 0.6663 1.1527 0.3372, 0.8337 1.226 0.0975, 0.6663 1.226 0.0975, 0.6663 1.2404 0.0656, 0.8337 1.2404 0.0656, 0.6663 1.2624 0.0383, 0.8337 1.2624 0.0383, 0.6663 1.2905 0.0175, 0.8337 1.2905 0.0175, 0.6663 1.323 0.0044, 0.8337 1.323 0.0044, 0.6663 1.3578 0.0, 0.8337 1.3578 0.0, 0.8337 1.5551 0.0, 0.6663 1.5551 0.0, -0.1663 -1.5551 0.0787, -0.1663 -1.3578 0.0787, -0.3337 -1.5551 0.0787, -0.3337 -1.3578 0.0787, -0.1663 -1.5551 0.0, -0.3337 -1.5551 0.0, -0.1663 -1.3578 0.0, -0.3337 -1.3578 0.0, -0.3337 -1.323 0.0044, -0.1663 -1.323 0.0044, -0.3337 -1.2905 0.0175, -0.1663 -1.2905 0.0175, -0.3337 -1.2624 0.0383, -0.1663 -1.2624 0.0383, -0.3337 -1.2404 0.0656, -0.1663 -1.2404 0.0656, -0.3337 -1.226 0.0975, -0.1663 -1.226 0.0975, -0.1663 -1.1527 0.3372, -0.3337 -1.1527 0.3372, -0.1663 -1.1465 0.3508, -0.3337 -1.1465 0.3508, -0.1663 -1.1371 0.3625, -0.3337 -1.1371 0.3625, -0.1663 -1.125 0.3714, -0.3337 -1.125 0.3714, -0.1663 -1.1111 0.377, -0.3337 -1.1111 0.377, -0.1663 -1.0962 0.3789, -0.3337 -1.0962 0.3789, -0.1663 -1.0384 0.3789, -0.3337 -1.0384 0.3789, -0.1663 -1.0962 0.4577, -0.1663 -1.0384 0.4577, -0.3337 -1.0962 0.4577, -0.3337 -1.0384 0.4577, -0.3337 -1.131 0.4532, -0.1663 -1.131 0.4532, -0.3337 -1.1635 0.4402, -0.1663 -1.1635 0.4402, -0.3337 -1.1916 0.4193, -0.1663 -1.1916 0.4193, -0.3337 -1.2136 0.3921, -0.1663 -1.2136 0.3921, -0.3337 -1.228 0.3602, -0.1663 -1.228 0.3602, -0.1663 -1.3013 0.1205, -0.3337 -1.3013 0.1205, -0.1663 -1.3429 0.0806, -0.1663 -1.3289 0.0862, -0.1663 -1.3169 0.0952, -0.1663 -1.3075 0.1068, -0.3337 -1.3075 0.1068, -0.3337 -1.3169 0.0952, -0.3337 -1.3289 0.0862, -0.3337 -1.3429 0.0806, 0.3337 -1.5551 0.0787, 0.3337 -1.3578 0.0787, 0.1663 -1.5551 0.0787, 0.1663 -1.3578 0.0787, 0.3337 -1.5551 0.0, 0.1663 -1.5551 0.0, 0.3337 -1.3578 0.0, 0.1663 -1.3578 0.0, 0.1663 -1.323 0.0044, 0.3337 -1.323 0.0044, 0.1663 -1.2905 0.0175, 0.3337 -1.2905 0.0175, 0.1663 -1.2624 0.0383, 0.3337 -1.2624 0.0383, 0.1663 -1.2404 0.0656, 0.3337 -1.2404 0.0656, 0.1663 -1.226 0.0975, 0.3337 -1.226 0.0975, 0.3337 -1.1527 0.3372, 0.1663 -1.1527 0.3372, 0.3337 -1.1465 0.3508, 0.1663 -1.1465 0.3508, 0.3337 -1.1371 0.3625, 0.1663 -1.1371 0.3625, 0.3337 -1.125 0.3714, 0.1663 -1.125 0.3714, 0.3337 -1.1111 0.377, 0.1663 -1.1111 0.377, 0.3337 -1.0962 0.3789, 0.1663 -1.0962 0.3789, 0.3337 -1.0384 0.3789, 0.1663 -1.0384 0.3789, 0.3337 -1.0962 0.4577, 0.3337 -1.0384 0.4577, 0.1663 -1.0962 0.4577, 0.1663 -1.0384 0.4577, 0.1663 -1.131 0.4532, 0.3337 -1.131 0.4532, 0.1663 -1.1635 0.4402, 0.3337 -1.1635 0.4402, 0.1663 -1.1916 0.4193, 0.3337 -1.1916 0.4193, 0.1663 -1.2136 0.3921, 0.3337 -1.2136 0.3921, 0.1663 -1.228 0.3602, 0.3337 -1.228 0.3602, 0.3337 -1.3013 0.1205, 0.1663 -1.3013 0.1205, 0.3337 -1.3429 0.0806, 0.3337 -1.3289 0.0862, 0.3337 -1.3169 0.0952, 0.3337 -1.3075 0.1068, 0.1663 -1.3075 0.1068, 0.1663 -1.3169 0.0952, 0.1663 -1.3289 0.0862, 0.1663 -1.3429 0.0806, 0.8337 -1.5551 0.0787, 0.8337 -1.3578 0.0787, 0.6663 -1.5551 0.0787, 0.6663 -1.3578 0.0787, 0.8337 -1.5551 0.0, 0.6663 -1.5551 0.0, 0.8337 -1.3578 0.0, 0.6663 -1.3578 0.0, 0.6663 -1.323 0.0044, 0.8337 -1.323 0.0044, 0.6663 -1.2905 0.0175, 0.8337 -1.2905 0.0175, 0.6663 -1.2624 0.0383, 0.8337 -1.2624 0.0383, 0.6663 -1.2404 0.0656, 0.8337 -1.2404 0.0656, 0.6663 -1.226 0.0975, 0.8337 -1.226 0.0975, 0.8337 -1.1527 0.3372, 0.6663 -1.1527 0.3372, 0.8337 -1.1465 0.3508, 0.6663 -1.1465 0.3508, 0.8337 -1.1371 0.3625, 0.6663 -1.1371 0.3625, 0.8337 -1.125 0.3714, 0.6663 -1.125 0.3714, 0.8337 -1.1111 0.377, 0.6663 -1.1111 0.377, 0.8337 -1.0962 0.3789, 0.6663 -1.0962 0.3789, 0.8337 -1.0384 0.3789, 0.6663 -1.0384 0.3789, 0.8337 -1.0962 0.4577, 0.8337 -1.0384 0.4577, 0.6663 -1.0962 0.4577, 0.6663 -1.0384 0.4577, 0.6663 -1.131 0.4532, 0.8337 -1.131 0.4532, 0.6663 -1.1635 0.4402, 0.8337 -1.1635 0.4402, 0.6663 -1.1916 0.4193, 0.8337 -1.1916 0.4193, 0.6663 -1.2136 0.3921, 0.8337 -1.2136 0.3921, 0.6663 -1.228 0.3602, 0.8337 -1.228 0.3602, 0.8337 -1.3013 0.1205, 0.6663 -1.3013 0.1205, 0.8337 -1.3429 0.0806, 0.8337 -1.3289 0.0862, 0.8337 -1.3169 0.0952, 0.8337 -1.3075 0.1068, 0.6663 -1.3075 0.1068, 0.6663 -1.3169 0.0952, 0.6663 -1.3289 0.0862, 0.6663 -1.3429 0.0806
            ]
        }
        coordIndex [
            0,1,2,-1,2,1,3,-1,4,0,5,-1,5,0,2,-1,6,4,7,-1,7,4,5,-1,6,7,8,-1,6,8,9,-1,9,8,10,-1,9,10,11,-1,11,10,12,-1,11,12,13,-1,14,13,15,-1,15,13,12,-1,14,15,16,-1,16,15,17,-1,16,17,18,-1,18,17,19,-1,18,19,20,-1,20,19,21,-1,22,20,23,-1,23,20,21,-1,24,25,26,-1,26,25,27,-1,24,26,28,-1,24,28,29,-1,29,28,30,-1,29,30,31,-1,31,30,32,-1,31,32,33,-1,34,33,35,-1,35,33,32,-1,34,35,36,-1,36,35,37,-1,36,37,38,-1,38,37,39,-1,38,39,1,-1,1,39,3,-1,0,4,1,-1,1,4,6,-1,1,6,38,-1,38,6,9,-1,38,9,36,-1,36,9,11,-1,36,11,34,-1,34,11,13,-1,34,13,33,-1,33,13,14,-1,33,14,31,-1,31,14,16,-1,31,16,29,-1,29,16,18,-1,29,18,24,-1,24,18,20,-1,24,20,25,-1,25,20,22,-1,27,23,26,-1,26,23,21,-1,26,21,28,-1,28,21,19,-1,28,19,30,-1,30,19,17,-1,30,17,32,-1,32,17,15,-1,32,15,35,-1,35,15,12,-1,35,12,37,-1,37,12,10,-1,37,10,39,-1,39,10,8,-1,39,8,3,-1,3,8,7,-1,3,7,2,-1,2,7,5,-1,40,41,42,-1,42,41,43,-1,40,42,44,-1,44,42,45,-1,44,45,46,-1,46,45,47,-1,46,47,48,-1,48,47,49,-1,50,48,51,-1,51,48,49,-1,50,51,52,-1,50,52,53,-1,53,52,54,-1,53,54,55,-1,55,54,56,-1,55,56,57,-1,58,57,59,-1,59,57,56,-1,60,61,62,-1,62,61,63,-1,60,62,64,-1,64,62,65,-1,64,65,66,-1,66,65,67,-1,66,67,68,-1,68,67,69,-1,70,68,71,-1,71,68,69,-1,70,71,72,-1,70,72,73,-1,73,72,74,-1,73,74,75,-1,75,74,76,-1,75,76,77,-1,78,77,79,-1,79,77,76,-1,41,78,43,-1,43,78,79,-1,58,61,57,-1,57,61,60,-1,57,60,55,-1,55,60,64,-1,55,64,53,-1,53,64,66,-1,53,66,50,-1,50,66,68,-1,50,68,48,-1,48,68,70,-1,48,70,46,-1,46,70,73,-1,46,73,44,-1,44,73,75,-1,44,75,40,-1,40,75,77,-1,40,77,41,-1,41,77,78,-1,43,79,42,-1,42,79,76,-1,42,76,45,-1,45,76,74,-1,45,74,47,-1,47,74,72,-1,47,72,49,-1,49,72,71,-1,49,71,51,-1,51,71,69,-1,51,69,52,-1,52,69,67,-1,52,67,54,-1,54,67,65,-1,54,65,56,-1,56,65,62,-1,56,62,59,-1,59,62,63,-1,80,81,82,-1,82,81,83,-1,80,82,84,-1,84,82,85,-1,84,85,86,-1,86,85,87,-1,86,87,88,-1,88,87,89,-1,88,89,90,-1,90,89,91,-1,90,91,92,-1,92,91,93,-1,94,92,95,-1,95,92,93,-1,94,95,96,-1,94,96,97,-1,97,96,98,-1,97,98,99,-1,99,98,100,-1,99,100,101,-1,101,100,102,-1,101,102,103,-1,103,102,104,-1,103,104,105,-1,106,105,107,-1,107,105,104,-1,108,109,110,-1,110,109,111,-1,108,110,112,-1,112,110,113,-1,112,113,114,-1,114,113,115,-1,114,115,116,-1,116,115,117,-1,116,117,118,-1,118,117,119,-1,118,119,120,-1,120,119,121,-1,122,120,123,-1,123,120,121,-1,122,123,124,-1,122,124,125,-1,125,124,126,-1,125,126,127,-1,127,126,128,-1,127,128,129,-1,129,128,130,-1,129,130,131,-1,131,130,132,-1,131,132,133,-1,134,133,135,-1,135,133,132,-1,106,109,105,-1,105,109,108,-1,105,108,103,-1,103,108,112,-1,103,112,101,-1,101,112,114,-1,101,114,99,-1,99,114,116,-1,99,116,97,-1,97,116,118,-1,97,118,94,-1,94,118,120,-1,94,120,92,-1,92,120,122,-1,92,122,90,-1,90,122,125,-1,90,125,88,-1,88,125,127,-1,88,127,86,-1,86,127,129,-1,86,129,84,-1,84,129,131,-1,84,131,80,-1,80,131,133,-1,80,133,81,-1,81,133,134,-1,81,134,83,-1,83,134,135,-1,83,135,82,-1,82,135,132,-1,82,132,85,-1,85,132,130,-1,85,130,87,-1,87,130,128,-1,87,128,89,-1,89,128,126,-1,89,126,91,-1,91,126,124,-1,91,124,93,-1,93,124,123,-1,93,123,95,-1,95,123,121,-1,95,121,96,-1,96,121,119,-1,96,119,98,-1,98,119,117,-1,98,117,100,-1,100,117,115,-1,100,115,102,-1,102,115,113,-1,102,113,104,-1,104,113,110,-1,104,110,107,-1,107,110,111,-1,136,137,138,-1,138,137,139,-1,136,138,140,-1,140,138,141,-1,140,141,142,-1,142,141,143,-1,142,143,144,-1,144,143,145,-1,144,145,146,-1,146,145,147,-1,146,147,148,-1,148,147,149,-1,150,148,151,-1,151,148,149,-1,150,151,152,-1,150,152,153,-1,153,152,154,-1,153,154,155,-1,155,154,156,-1,155,156,157,-1,157,156,158,-1,157,158,159,-1,159,158,160,-1,159,160,161,-1,162,161,163,-1,163,161,160,-1,164,165,166,-1,166,165,167,-1,164,166,168,-1,168,166,169,-1,168,169,170,-1,170,169,171,-1,170,171,172,-1,172,171,173,-1,172,173,174,-1,174,173,175,-1,174,175,176,-1,176,175,177,-1,178,176,179,-1,179,176,177,-1,178,179,180,-1,178,180,181,-1,181,180,182,-1,181,182,183,-1,183,182,184,-1,183,184,185,-1,185,184,186,-1,185,186,187,-1,187,186,188,-1,187,188,189,-1,190,189,191,-1,191,189,188,-1,162,165,161,-1,161,165,164,-1,161,164,159,-1,159,164,168,-1,159,168,157,-1,157,168,170,-1,157,170,155,-1,155,170,172,-1,155,172,153,-1,153,172,174,-1,153,174,150,-1,150,174,176,-1,150,176,148,-1,148,176,178,-1,148,178,146,-1,146,178,181,-1,146,181,144,-1,144,181,183,-1,144,183,142,-1,142,183,185,-1,142,185,140,-1,140,185,187,-1,140,187,136,-1,136,187,189,-1,136,189,137,-1,137,189,190,-1,137,190,139,-1,139,190,191,-1,139,191,138,-1,138,191,188,-1,138,188,141,-1,141,188,186,-1,141,186,143,-1,143,186,184,-1,143,184,145,-1,145,184,182,-1,145,182,147,-1,147,182,180,-1,147,180,149,-1,149,180,179,-1,149,179,151,-1,151,179,177,-1,151,177,152,-1,152,177,175,-1,152,175,154,-1,154,175,173,-1,154,173,156,-1,156,173,171,-1,156,171,158,-1,158,171,169,-1,158,169,160,-1,160,169,166,-1,160,166,163,-1,163,166,167,-1,192,193,194,-1,194,193,195,-1,192,194,196,-1,196,194,197,-1,196,197,198,-1,198,197,199,-1,198,199,200,-1,200,199,201,-1,200,201,202,-1,202,201,203,-1,202,203,204,-1,204,203,205,-1,206,204,207,-1,207,204,205,-1,206,207,208,-1,206,208,209,-1,209,208,210,-1,209,210,211,-1,211,210,212,-1,211,212,213,-1,213,212,214,-1,213,214,215,-1,215,214,216,-1,215,216,217,-1,218,217,219,-1,219,217,216,-1,220,221,222,-1,222,221,223,-1,220,222,224,-1,224,222,225,-1,224,225,226,-1,226,225,227,-1,226,227,228,-1,228,227,229,-1,228,229,230,-1,230,229,231,-1,230,231,232,-1,232,231,233,-1,234,232,235,-1,235,232,233,-1,234,235,236,-1,234,236,237,-1,237,236,238,-1,237,238,239,-1,239,238,240,-1,239,240,241,-1,241,240,242,-1,241,242,243,-1,243,242,244,-1,243,244,245,-1,246,245,247,-1,247,245,244,-1,218,221,217,-1,217,221,220,-1,217,220,215,-1,215,220,224,-1,215,224,213,-1,213,224,226,-1,213,226,211,-1,211,226,228,-1,211,228,209,-1,209,228,230,-1,209,230,206,-1,206,230,232,-1,206,232,204,-1,204,232,234,-1,204,234,202,-1,202,234,237,-1,202,237,200,-1,200,237,239,-1,200,239,198,-1,198,239,241,-1,198,241,196,-1,196,241,243,-1,196,243,192,-1,192,243,245,-1,192,245,193,-1,193,245,246,-1,193,246,195,-1,195,246,247,-1,195,247,194,-1,194,247,244,-1,194,244,197,-1,197,244,242,-1,197,242,199,-1,199,242,240,-1,199,240,201,-1,201,240,238,-1,201,238,203,-1,203,238,236,-1,203,236,205,-1,205,236,235,-1,205,235,207,-1,207,235,233,-1,207,233,208,-1,208,233,231,-1,208,231,210,-1,210,231,229,-1,210,229,212,-1,212,229,227,-1,212,227,214,-1,214,227,225,-1,214,225,216,-1,216,225,222,-1,216,222,219,-1,219,222,223,-1,248,249,250,-1,250,249,251,-1,252,248,253,-1,253,248,250,-1,254,252,255,-1,255,252,253,-1,254,255,256,-1,254,256,257,-1,257,256,258,-1,257,258,259,-1,259,258,260,-1,259,260,261,-1,261,260,262,-1,261,262,263,-1,263,262,264,-1,263,264,265,-1,266,265,267,-1,267,265,264,-1,266,267,268,-1,268,267,269,-1,268,269,270,-1,270,269,271,-1,270,271,272,-1,272,271,273,-1,272,273,274,-1,274,273,275,-1,274,275,276,-1,276,275,277,-1,278,276,279,-1,279,276,277,-1,280,281,282,-1,282,281,283,-1,280,282,284,-1,280,284,285,-1,285,284,286,-1,285,286,287,-1,287,286,288,-1,287,288,289,-1,289,288,290,-1,289,290,291,-1,291,290,292,-1,291,292,293,-1,294,293,295,-1,295,293,292,-1,248,252,249,-1,249,252,254,-1,249,254,296,-1,296,254,257,-1,296,257,297,-1,297,257,259,-1,297,259,298,-1,298,259,261,-1,298,261,299,-1,299,261,263,-1,299,263,294,-1,294,263,265,-1,294,265,293,-1,293,265,266,-1,293,266,291,-1,291,266,268,-1,291,268,289,-1,289,268,270,-1,289,270,287,-1,287,270,272,-1,287,272,285,-1,285,272,274,-1,285,274,280,-1,280,274,276,-1,280,276,281,-1,281,276,278,-1,294,295,299,-1,299,295,300,-1,299,300,298,-1,298,300,301,-1,298,301,297,-1,297,301,302,-1,297,302,296,-1,296,302,303,-1,296,303,249,-1,249,303,251,-1,283,279,282,-1,282,279,277,-1,282,277,284,-1,284,277,275,-1,284,275,286,-1,286,275,273,-1,286,273,288,-1,288,273,271,-1,288,271,290,-1,290,271,269,-1,290,269,292,-1,292,269,267,-1,292,267,295,-1,295,267,264,-1,295,264,300,-1,300,264,262,-1,300,262,301,-1,301,262,260,-1,301,260,302,-1,302,260,258,-1,302,258,303,-1,303,258,256,-1,303,256,251,-1,251,256,255,-1,251,255,250,-1,250,255,253,-1,304,305,306,-1,306,305,307,-1,308,304,309,-1,309,304,306,-1,310,308,311,-1,311,308,309,-1,310,311,312,-1,310,312,313,-1,313,312,314,-1,313,314,315,-1,315,314,316,-1,315,316,317,-1,317,316,318,-1,317,318,319,-1,319,318,320,-1,319,320,321,-1,322,321,323,-1,323,321,320,-1,322,323,324,-1,324,323,325,-1,324,325,326,-1,326,325,327,-1,326,327,328,-1,328,327,329,-1,328,329,330,-1,330,329,331,-1,330,331,332,-1,332,331,333,-1,334,332,335,-1,335,332,333,-1,336,337,338,-1,338,337,339,-1,336,338,340,-1,336,340,341,-1,341,340,342,-1,341,342,343,-1,343,342,344,-1,343,344,345,-1,345,344,346,-1,345,346,347,-1,347,346,348,-1,347,348,349,-1,350,349,351,-1,351,349,348,-1,304,308,305,-1,305,308,310,-1,305,310,352,-1,352,310,313,-1,352,313,353,-1,353,313,315,-1,353,315,354,-1,354,315,317,-1,354,317,355,-1,355,317,319,-1,355,319,350,-1,350,319,321,-1,350,321,349,-1,349,321,322,-1,349,322,347,-1,347,322,324,-1,347,324,345,-1,345,324,326,-1,345,326,343,-1,343,326,328,-1,343,328,341,-1,341,328,330,-1,341,330,336,-1,336,330,332,-1,336,332,337,-1,337,332,334,-1,350,351,355,-1,355,351,356,-1,355,356,354,-1,354,356,357,-1,354,357,353,-1,353,357,358,-1,353,358,352,-1,352,358,359,-1,352,359,305,-1,305,359,307,-1,339,335,338,-1,338,335,333,-1,338,333,340,-1,340,333,331,-1,340,331,342,-1,342,331,329,-1,342,329,344,-1,344,329,327,-1,344,327,346,-1,346,327,325,-1,346,325,348,-1,348,325,323,-1,348,323,351,-1,351,323,320,-1,351,320,356,-1,356,320,318,-1,356,318,357,-1,357,318,316,-1,357,316,358,-1,358,316,314,-1,358,314,359,-1,359,314,312,-1,359,312,307,-1,307,312,311,-1,307,311,306,-1,306,311,309,-1,360,361,362,-1,362,361,363,-1,364,360,365,-1,365,360,362,-1,366,364,367,-1,367,364,365,-1,366,367,368,-1,366,368,369,-1,369,368,370,-1,369,370,371,-1,371,370,372,-1,371,372,373,-1,373,372,374,-1,373,374,375,-1,375,374,376,-1,375,376,377,-1,378,377,379,-1,379,377,376,-1,378,379,380,-1,380,379,381,-1,380,381,382,-1,382,381,383,-1,382,383,384,-1,384,383,385,-1,384,385,386,-1,386,385,387,-1,386,387,388,-1,388,387,389,-1,390,388,391,-1,391,388,389,-1,392,393,394,-1,394,393,395,-1,392,394,396,-1,392,396,397,-1,397,396,398,-1,397,398,399,-1,399,398,400,-1,399,400,401,-1,401,400,402,-1,401,402,403,-1,403,402,404,-1,403,404,405,-1,406,405,407,-1,407,405,404,-1,360,364,361,-1,361,364,366,-1,361,366,408,-1,408,366,369,-1,408,369,409,-1,409,369,371,-1,409,371,410,-1,410,371,373,-1,410,373,411,-1,411,373,375,-1,411,375,406,-1,406,375,377,-1,406,377,405,-1,405,377,378,-1,405,378,403,-1,403,378,380,-1,403,380,401,-1,401,380,382,-1,401,382,399,-1,399,382,384,-1,399,384,397,-1,397,384,386,-1,397,386,392,-1,392,386,388,-1,392,388,393,-1,393,388,390,-1,406,407,411,-1,411,407,412,-1,411,412,410,-1,410,412,413,-1,410,413,409,-1,409,413,414,-1,409,414,408,-1,408,414,415,-1,408,415,361,-1,361,415,363,-1,395,391,394,-1,394,391,389,-1,394,389,396,-1,396,389,387,-1,396,387,398,-1,398,387,385,-1,398,385,400,-1,400,385,383,-1,400,383,402,-1,402,383,381,-1,402,381,404,-1,404,381,379,-1,404,379,407,-1,407,379,376,-1,407,376,412,-1,412,376,374,-1,412,374,413,-1,413,374,372,-1,413,372,414,-1,414,372,370,-1,414,370,415,-1,415,370,368,-1,415,368,363,-1,363,368,367,-1,363,367,362,-1,362,367,365,-1,
        ]
    }
}